<svg xmlns="http://www.w3.org/2000/svg" width="343" height="298.978" viewBox="0 0 343 298.978">
  <g id="Active_Support-amico" data-name="Active Support-amico" transform="translate(0 0)">
    <g id="freepik--Shadow--inject-4" transform="translate(253.558 240.026)">
      <ellipse id="freepik--shadow--inject-4-2" data-name="freepik--shadow--inject-4" cx="44.721" cy="28.039" rx="44.721" ry="28.039" fill="#e6e6e6"/>
    </g>
    <g id="freepik--Device--inject-4" transform="translate(0 0)">
      <g id="freepik--Laptop--inject-4">
        <path id="Path_3368" data-name="Path 3368" d="M73.69,306.816a8.11,8.11,0,0,0,3.794,6.292l106.124,61.247a8.354,8.354,0,0,0,7.571,0l145.18-83.82a7.118,7.118,0,0,0,0-12.575L230.253,216.7a8.406,8.406,0,0,0-7.571,0l-145.2,83.838A8.1,8.1,0,0,0,73.69,306.816Z" transform="translate(-66.589 -76.294)" fill="#37474f"/>
        <path id="Path_3369" data-name="Path 3369" d="M187.371,379.753v8.189a7.727,7.727,0,0,1-3.786-.87l-106.15-61.29a7.092,7.092,0,0,1-.383-12.331c-1.7,1.218-1.566,3,.383,4.125L183.6,378.839A7.736,7.736,0,0,0,187.371,379.753Z" transform="translate(-66.584 -88.967)" fill="#263238"/>
        <path id="Path_3370" data-name="Path 3370" d="M69.081,279.861a8.128,8.128,0,0,1-3.551-6.422V146.812a8.363,8.363,0,0,1,3.785-6.553L214.5,56.439a7.112,7.112,0,0,1,10.9,6.283V189.348a8.363,8.363,0,0,1-3.785,6.553L76.425,279.73a8.154,8.154,0,0,1-7.345.131Z" transform="translate(-65.53 -55.49)" fill="#455a64"/>
        <path id="Path_3371" data-name="Path 3371" d="M75.973,293.019a8.171,8.171,0,0,1-6.892-.1A8.128,8.128,0,0,1,65.53,286.5V159.875a7.589,7.589,0,0,1,1.114-3.725l7.1,4.09h0a7.737,7.737,0,0,0-1.114,3.725V290.6C72.631,292.845,74.093,293.846,75.973,293.019Z" transform="translate(-65.53 -68.553)" fill="#263238"/>
        <path id="Path_3372" data-name="Path 3372" d="M73.69,151.595V278.213c0,2.419,1.74,3.394,3.794,2.193l145.18-83.829a8.363,8.363,0,0,0,3.785-6.553V63.4c0-2.411-1.7-3.394-3.785-2.184l-145.18,83.82a8.363,8.363,0,0,0-3.794,6.562Z" transform="translate(-66.589 -56.166)" fill="#37474f"/>
        <path id="Path_3373" data-name="Path 3373" d="M77.815,304.907,183.94,366.171a8.406,8.406,0,0,0,7.571,0l145.18-83.82c2.1-1.21,2.1-3.168,0-4.351L230.584,216.736a8.406,8.406,0,0,0-7.571,0l-145.2,83.8C75.718,301.74,75.718,303.7,77.815,304.907Z" transform="translate(-66.92 -76.299)" fill="#455a64"/>
        <path id="Path_3374" data-name="Path 3374" d="M80.05,153.595l139.976-80.8c1.253-.722,2.271-.131,2.271,1.314V183.757a5.03,5.03,0,0,1-2.271,3.933L80.05,268.447c-1.262.722-2.28.139-2.28-1.314V157.485A5,5,0,0,1,80.05,153.595Z" transform="translate(-67.118 -57.696)" fill="#fafafa"/>
        <path id="Path_3375" data-name="Path 3375" d="M92.085,302.748l134.763-77.816a4.151,4.151,0,0,1,3.785,0l6.892,3.977a1.157,1.157,0,0,1,0,2.184L102.745,308.9a4.151,4.151,0,0,1-3.785,0l-6.875-3.968a1.157,1.157,0,0,1,0-2.184Z" transform="translate(-68.876 -77.42)" fill="#37474f"/>
        <path id="Path_3376" data-name="Path 3376" d="M112.492,314.54l134.763-77.807a4.2,4.2,0,0,1,3.785,0l42.4,24.479a1.157,1.157,0,0,1,0,2.184L158.832,341.091a4.2,4.2,0,0,1-3.794,0L112.5,316.724a1.149,1.149,0,0,1-.009-2.184Z" transform="translate(-71.522 -78.952)" fill="#263238"/>
        <path id="Path_3377" data-name="Path 3377" d="M233.848,272.215l4.212-2.428c.183-.1.174-.278,0-.392l-4.882-2.82a.731.731,0,0,0-.67,0l-4.221,2.437c-.183.1-.174.27,0,.383l4.873,2.82A.748.748,0,0,0,233.848,272.215Zm-8.328-9.677-4.229,2.454c-.183.1-.165.278,0,.392l4.873,2.811a.748.748,0,0,0,.679,0l4.221-2.437a.214.214,0,0,0,0-.392l-4.882-2.811a.731.731,0,0,0-.661,0Zm-13.636,7.936-7.136,4.116c-.183.1-.174.278,0,.392l4.873,2.819a.775.775,0,0,0,.679,0l7.136-4.116c.183-.1.165-.278,0-.392l-4.847-2.82A.749.749,0,0,0,211.883,270.474Zm7.467-4.351-4.221,2.437a.214.214,0,0,0,0,.392l4.882,2.819a.757.757,0,0,0,.67,0l4.221-2.437a.208.208,0,0,0,0-.383l-4.882-2.828A.731.731,0,0,0,219.35,266.123ZM202.815,275.7l-4.221,2.428a.214.214,0,0,0,0,.392l4.882,2.82a.731.731,0,0,0,.67,0l4.221-2.437c.174-.1.165-.27,0-.383l-4.9-2.82a.731.731,0,0,0-.67,0Zm-6.17,3.559-4.212,2.437c-.183.1-.174.27,0,.383l4.882,2.82a.757.757,0,0,0,.67,0l4.221-2.437c.183-.1.165-.278,0-.392l-4.873-2.819a.748.748,0,0,0-.7-.009Zm19.2,11.452,4.221-2.437a.214.214,0,0,0,0-.392l-4.882-2.811a.731.731,0,0,0-.67,0L210.29,287.5c-.183.1-.165.278,0,.392l4.873,2.811a.748.748,0,0,0,.661-.017Zm-6.17,3.559,4.221-2.437c.183-.1.165-.278,0-.392l-4.873-2.811a.748.748,0,0,0-.679,0l-4.221,2.437a.214.214,0,0,0,0,.392l4.882,2.82a.757.757,0,0,0,.653-.026Zm-6.17,3.559,4.221-2.437a.2.2,0,0,0,0-.383l-4.873-2.82a.731.731,0,0,0-.67,0l-4.221,2.437c-.183.1-.174.278,0,.392l4.882,2.82a.757.757,0,0,0,.644-.026Zm-6.161,3.559,4.221-2.437c.174-.1.165-.27,0-.383l-4.926-2.854a.731.731,0,0,0-.67,0l-4.221,2.428c-.183.1-.165.278,0,.392l4.873,2.82a.749.749,0,0,0,.7.017ZM227.7,275.818l4.221-2.437a.214.214,0,0,0,0-.392l-4.882-2.82a.757.757,0,0,0-.67,0l-4.221,2.437a.208.208,0,0,0,0,.383l4.882,2.819a.757.757,0,0,0,.653-.009ZM222,287.131l9.416-5.439c.183-.1.165-.278,0-.383l-11.87-6.84a.748.748,0,0,0-.679,0l-4.865,2.811c-.183.1-.174.279,0,.392l6.266,3.62c.2.113.209.287,0,.383l-3.89,2.254c-.183.1-.174.279,0,.392l4.882,2.811a.731.731,0,0,0,.722,0Zm-31.52-4.351-4.221,2.437c-.183.1-.165.278,0,.383l4.873,2.82a.748.748,0,0,0,.679,0l4.212-2.437c.183-.1.174-.278,0-.392l-4.882-2.82a.757.757,0,0,0-.679.026Zm-6.17,3.559-4.221,2.437a.214.214,0,0,0,0,.392l4.882,2.811a.731.731,0,0,0,.67,0l4.221-2.437a.214.214,0,0,0,0-.392l-4.882-2.811a.731.731,0,0,0-.688.017ZM153.5,326.265a.757.757,0,0,0,.67,0l4.221-2.437a.2.2,0,0,0,0-.383l-4.873-2.82a.774.774,0,0,0-.679,0l-4.212,2.437c-.183.1-.174.279,0,.392Zm-18.536-11.409-4.221,2.437a.214.214,0,0,0,0,.392l4.882,2.811a.731.731,0,0,0,.67,0l4.221-2.437a.214.214,0,0,0,0-.392l-4.882-2.811A.731.731,0,0,0,134.964,314.856Zm9.929,8.354a.757.757,0,0,0,.67,0l4.221-2.437a.214.214,0,0,0,0-.392l-4.882-2.819a.731.731,0,0,0-.67,0L140.011,320c-.174.1-.165.27,0,.383Zm19.476,5.221,4.221-2.437c.183-.1.165-.27,0-.383l-4.873-2.819a.748.748,0,0,0-.679,0l-4.221,2.428a.214.214,0,0,0,0,.392l4.882,2.82a.731.731,0,0,0,.67.009Zm-6.84,3.55a.774.774,0,0,0,.679,0l4.212-2.437c.183-.1.174-.278,0-.392l-4.882-2.82a.731.731,0,0,0-.67,0l-4.238,2.445c-.183.1-.174.27,0,.383Zm-16.4-20.711-4.221,2.437a.2.2,0,0,0,0,.383l4.873,2.82a.731.731,0,0,0,.67,0l4.221-2.437c.183-.1.174-.279,0-.392l-4.882-2.819a.757.757,0,0,0-.661.017Zm30.832-17.8-4.221,2.437c-.183.1-.165.279,0,.392l4.873,2.811a.748.748,0,0,0,.679,0l4.221-2.437a.214.214,0,0,0,0-.392l-4.882-2.811a.731.731,0,0,0-.67.009ZM147.321,307.72l-4.221,2.437a.208.208,0,0,0,0,.383l4.882,2.82a.731.731,0,0,0,.67,0l4.221-2.437c.183-.1.165-.279,0-.392L148,307.711A.774.774,0,0,0,147.321,307.72Zm30.832-17.8-4.212,2.437c-.183.1-.174.279,0,.392l4.882,2.811a.73.73,0,0,0,.67,0l4.221-2.437c.183-.1.174-.278,0-.392l-4.873-2.811a.748.748,0,0,0-.714,0Zm-12.331,7.118L161.6,299.47a.214.214,0,0,0,0,.392l4.865,2.811a.757.757,0,0,0,.67,0l4.221-2.437c.183-.1.165-.278,0-.383l-4.891-2.8a.731.731,0,0,0-.67-.017Zm-6.161,3.559-4.221,2.437c-.183.1-.174.278,0,.392l4.882,2.82a.731.731,0,0,0,.67,0l4.221-2.437a.2.2,0,0,0,0-.383l-4.882-2.82a.757.757,0,0,0-.7-.009Zm-6.17,3.568L149.27,306.6c-.183.1-.165.27,0,.383l4.873,2.82a.749.749,0,0,0,.679,0l4.221-2.428a.214.214,0,0,0,0-.392l-4.882-2.819a.731.731,0,0,0-.7,0Zm31.52,4.351,4.221-2.437c.183-.1.174-.279,0-.392l-4.882-2.819a.757.757,0,0,0-.67,0l-4.221,2.437a.2.2,0,0,0,0,.383l4.882,2.82a.731.731,0,0,0,.644-.009Zm54.163-53.806-4.221,2.437a.208.208,0,0,0,0,.383l4.882,2.82a.731.731,0,0,0,.67,0l4.221-2.437c.183-.1.165-.279,0-.392l-4.873-2.819a.774.774,0,0,0-.7-.009Zm-7.467,4.308-4.212,2.437c-.183.1-.174.279,0,.392l4.882,2.811a.731.731,0,0,0,.67,0l4.221-2.437c.183-.1.174-.279,0-.392l-4.873-2.811a.749.749,0,0,0-.714-.017Zm13.636-7.832-4.221,2.437c-.183.1-.165.27,0,.383l4.873,2.82a.775.775,0,0,0,.679,0l4.221-2.437a.214.214,0,0,0,0-.392l-4.882-2.819a.731.731,0,0,0-.7-.044Zm-31.92,32.912,4.221-2.437a.214.214,0,0,0,0-.392l-4.882-2.811a.731.731,0,0,0-.67,0l-4.221,2.437a.214.214,0,0,0,0,.392l4.882,2.811a.731.731,0,0,0,.644-.052Zm38.76-36.463a.748.748,0,0,0-.679,0l-4.212,2.428c-.183.1-.174.279,0,.392l4.882,2.82a.731.731,0,0,0,.67,0l4.221-2.437c.183-.1.174-.27,0-.383Zm-61,57.348,4.221-2.428c.183-.1.165-.279,0-.392l-4.873-2.82a.748.748,0,0,0-.679,0l-4.238,2.376c-.174.1-.165.27,0,.383l4.882,2.82a.731.731,0,0,0,.661.009ZM266.8,261.32l4.221-2.437c.183-.1.165-.279,0-.383l-4.873-2.819a.748.748,0,0,0-.679,0l-4.212,2.437c-.183.1-.174.279,0,.392l4.882,2.82a.757.757,0,0,0,.635-.061Zm-13.132-.461,4.221-2.437a.214.214,0,0,0,0-.392l-4.882-2.811a.731.731,0,0,0-.67,0l-4.221,2.437c-.183.1-.165.279,0,.392l4.873,2.811a.748.748,0,0,0,.653-.052Zm5.482-9.2a.748.748,0,0,0-.679,0l-4.212,2.437c-.183.1-.174.278,0,.392l4.882,2.811a.731.731,0,0,0,.67,0l4.221-2.437c.183-.1.174-.278,0-.392Zm1.3-.757,11.853,6.849a.757.757,0,0,0,.67,0l4.221-2.437a.208.208,0,0,0,0-.383l-11.852-6.849a.757.757,0,0,0-.67,0l-4.221,2.437c-.226.052-.218.226,0,.331Zm-14.307,7.832-4.221,2.437a.214.214,0,0,0,0,.392l4.882,2.811a.731.731,0,0,0,.67,0l4.221-2.437c.183-.1.165-.278,0-.392l-4.873-2.811a.748.748,0,0,0-.7-.026ZM199.709,285.5l-4.221,2.437c-.183.1-.165.279,0,.392l4.873,2.819a.748.748,0,0,0,.679,0l4.212-2.437c.183-.1.174-.27,0-.383l-4.847-2.811A.757.757,0,0,0,199.709,285.5Zm60.228-20.685a.748.748,0,0,0,.679,0l4.221-2.437c.174-.1.165-.27,0-.383l-4.908-2.837a.757.757,0,0,0-.67,0l-4.221,2.437c-.183.1-.165.279,0,.392ZM205.87,281.944l-4.212,2.437c-.183.1-.174.278,0,.392l4.882,2.82a.757.757,0,0,0,.67,0l4.221-2.437a.2.2,0,0,0,0-.383l-4.873-2.819A.748.748,0,0,0,205.87,281.944Zm-46.218,40.744a.757.757,0,0,0,.67,0l4.221-2.437a.208.208,0,0,0,0-.383l-4.882-2.82a.731.731,0,0,0-.67,0l-4.221,2.437a.214.214,0,0,0,0,.392Zm-9.277-8.7-4.221,2.428c-.183.1-.174.279,0,.392l4.873,2.819a.748.748,0,0,0,.679,0l4.212-2.437c.183-.1.174-.27,0-.383l-4.873-2.82A.731.731,0,0,0,150.375,313.986Zm16.091,5.221,4.212-2.437c.183-.1.174-.279,0-.392l-4.882-2.811a.731.731,0,0,0-.67,0L160.905,316c-.183.1-.174.278,0,.392l4.873,2.811A.748.748,0,0,0,166.466,319.207Zm6.161-3.559,4.221-2.437c.183-.1.165-.278,0-.392l-4.873-2.811a.748.748,0,0,0-.679,0l-4.221,2.437a.214.214,0,0,0,0,.392l4.882,2.811a.731.731,0,0,0,.7-.035Zm6.17-3.559,4.221-2.437a.214.214,0,0,0,0-.392l-4.882-2.819a.757.757,0,0,0-.67,0l-4.221,2.437c-.183.1-.165.279,0,.383l4.873,2.82a.748.748,0,0,0,.7-.026Zm-22.287-1.627L152.29,312.9a.214.214,0,0,0,0,.392l4.882,2.82a.757.757,0,0,0,.67,0l4.221-2.437c.183-.1.165-.278,0-.383l-4.873-2.82a.775.775,0,0,0-.653-.044Zm6.17-3.559-4.221,2.437c-.183.1-.165.279,0,.392l4.873,2.819a.774.774,0,0,0,.679,0l4.221-2.437a.208.208,0,0,0,0-.383l-4.882-2.82a.731.731,0,0,0-.644-.044Zm24.671-14.272-4.212,2.437a.2.2,0,0,0,0,.383l4.882,2.82a.731.731,0,0,0,.67,0l4.221-2.437c.183-.1.174-.279,0-.392l-4.873-2.819a.774.774,0,0,0-.688.009Zm-6.161,3.559-4.221,2.437c-.183.1-.165.278,0,.383l4.873,2.82a.748.748,0,0,0,.679,0l4.221-2.437a.214.214,0,0,0,0-.392l-4.882-2.819a.757.757,0,0,0-.653.009Zm12.331-7.118-4.221,2.437c-.174.1-.165.27,0,.383l4.882,2.82a.731.731,0,0,0,.67,0l4.221-2.428a.214.214,0,0,0,0-.392l-4.882-2.82a.731.731,0,0,0-.653,0Zm-24.662,14.237-4.221,2.437c-.183.1-.174.278,0,.392l4.882,2.811a.731.731,0,0,0,.67,0l4.221-2.437c.183-.1.174-.278,0-.392l-4.882-2.811a.731.731,0,0,0-.653,0Zm6.161-3.559-4.221,2.437a.214.214,0,0,0,0,.392l4.882,2.811a.731.731,0,0,0,.67,0l4.221-2.437c.183-.1.165-.279,0-.392l-4.882-2.811a.731.731,0,0,0-.653,0Zm-4.5,25.132,4.221-2.437a.208.208,0,0,0,0-.383l-4.891-2.854a.731.731,0,0,0-.67,0l-4.221,2.437c-.183.1-.165.278,0,.392l4.873,2.82a.775.775,0,0,0,.7.026Zm-36.193-3.655-4.873-2.811a.748.748,0,0,0-.679,0l-4.221,2.437a.214.214,0,0,0,0,.392l4.882,2.811a.731.731,0,0,0,.67,0l4.221-2.437c.226-.1.209-.278.017-.392Zm9.242,2.715-4.873-2.819a.774.774,0,0,0-.679,0l-6.492,3.742a.214.214,0,0,0,0,.392l4.882,2.82a.731.731,0,0,0,.67,0l6.492-3.742c.27-.1.209-.278.017-.392Zm-16.726-8.154-4.873-2.82a.748.748,0,0,0-.679,0l-5.221,3a.208.208,0,0,0,0,.383l4.882,2.82a.731.731,0,0,0,.67,0l5.221-3c.226-.1.209-.278.017-.383Zm3.986-2.306a.731.731,0,0,0,.67,0l4.221-2.437a.214.214,0,0,0,0-.392l-4.891-2.759a.731.731,0,0,0-.67,0l-4.221,2.437a.214.214,0,0,0,0,.392Zm21.355,13.558-4.865-2.828a.731.731,0,0,0-.67,0l-8.119,4.682a.214.214,0,0,0,0,.392l4.882,2.811a.731.731,0,0,0,.67,0l8.111-4.682C152.386,327.318,152.377,327.144,152.185,327.039Zm4.047,5.709-4.882-2.82a.757.757,0,0,0-.67,0l-5.221,2.994a.214.214,0,0,0,0,.392l4.882,2.82a.757.757,0,0,0,.67,0l5.221-2.994c.2-.113.191-.287,0-.4Zm20.459-45.739a.775.775,0,0,0,.679,0l4.221-2.437a.208.208,0,0,0,0-.383l-4.882-2.819a.731.731,0,0,0-.67,0l-4.221,2.437c-.183.1-.165.278,0,.392Zm-12.331,7.118a.749.749,0,0,0,.679,0l4.212-2.437c.183-.1.174-.27,0-.383l-4.882-2.82a.757.757,0,0,0-.67,0l-4.194,2.437c-.183.1-.174.278,0,.392Zm-27.351,15.786a.748.748,0,0,0,.679,0l4.212-2.437c.183-.1.174-.278,0-.392l-4.882-2.811a.731.731,0,0,0-.67,0l-4.221,2.437c-.183.1-.165.278,0,.392Zm33.521-19.345a.757.757,0,0,0,.67,0l4.221-2.437c.183-.1.165-.279,0-.383l-4.873-2.819a.748.748,0,0,0-.679,0l-4.221,2.437a.214.214,0,0,0,0,.392ZM158.2,297.686a.731.731,0,0,0,.67,0l4.221-2.428a.214.214,0,0,0,0-.392l-4.882-2.82a.731.731,0,0,0-.67,0l-4.221,2.437c-.174.1-.165.27,0,.383Zm1.427,35.505a.748.748,0,0,0-.679,0l-6.492,3.751a.208.208,0,0,0,0,.383l4.882,2.82a.731.731,0,0,0,.67,0l6.492-3.751a.214.214,0,0,0,0-.392Zm-10.277-30.4a.758.758,0,0,0,.67,0l4.221-2.437a.214.214,0,0,0,0-.392l-4.882-2.82a.757.757,0,0,0-.67,0l-4.221,2.437a.208.208,0,0,0,0,.383Zm-6.17,3.559a.731.731,0,0,0,.67,0l4.221-2.437c.183-.1.174-.279,0-.392l-4.873-2.82a.774.774,0,0,0-.679,0l-4.212,2.437a.2.2,0,0,0,0,.383Zm130.691-39.16a.731.731,0,0,0-.67,0l-10.391,6a.214.214,0,0,0,0,.392l4.882,2.82a.757.757,0,0,0,.67,0l10.408-5.926a.2.2,0,0,0,0-.383Zm-13.636,7.832a.757.757,0,0,0-.67,0l-4.221,2.437a.208.208,0,0,0,0,.383l4.882,2.82a.757.757,0,0,0,.67,0l4.221-2.437a.214.214,0,0,0,0-.392Zm-83.542,46.218,4.221-2.437a.2.2,0,0,0,0-.383l-4.873-2.7a.731.731,0,0,0-.67,0l-4.221,2.437c-.183.1-.174.279,0,.392l4.882,2.819a.757.757,0,0,0,.67-.052Zm71.2-39.091a.731.731,0,0,0-.67,0L243,284.589c-.183.1-.165.278,0,.392l4.873,2.811a.748.748,0,0,0,.679,0l4.221-2.437a.214.214,0,0,0,0-.392ZM280.031,263.6a.749.749,0,0,0-.679,0l-4.221,2.437a.214.214,0,0,0,0,.392l4.882,2.811a.731.731,0,0,0,.67,0L284.9,266.8c.183-.1.165-.279,0-.392Zm11.043-.748-11.853-6.84a.731.731,0,0,0-.67,0l-4.221,2.437c-.183.1-.165.27,0,.383l11.844,6.84a.748.748,0,0,0,.679,0l4.221-2.437c.209-.017.2-.191.009-.3Zm-66.224,32.6a.757.757,0,0,0-.67,0l-5.221,2.994c-.183.1-.165.278,0,.392l4.873,2.82a.775.775,0,0,0,.679,0l5.221-2.994a.214.214,0,0,0,0-.392Zm15.586-8.911a.731.731,0,0,0-.67,0l-6.492,3.751a.214.214,0,0,0,0,.392l4.882,2.811a.731.731,0,0,0,.67,0l6.492-3.751a.208.208,0,0,0,0-.383Zm-29.857,17.239a.731.731,0,0,0-.67,0l-34.731,20.015c-.183.1-.165.278,0,.392L180.05,327a.775.775,0,0,0,.679,0l34.722-20.015a.2.2,0,0,0,0-.383Zm-36.671,21.173a.748.748,0,0,0-.679,0l-5.221,2.994a.214.214,0,0,0,0,.392l4.882,2.811a.731.731,0,0,0,.67,0l5.221-3c.183-.1.165-.27,0-.383Zm43.816-25.3a.749.749,0,0,0-.679,0l-5.221,2.994c-.183.1-.174.278,0,.392l4.882,2.811a.731.731,0,0,0,.67,0l5.221-3c.183-.1.165-.27,0-.383Zm-50.961,29.422a.731.731,0,0,0-.67,0l-5.221,3c-.183.1-.165.279,0,.392l4.873,2.811a.749.749,0,0,0,.679,0l5.221-3a.2.2,0,0,0,0-.383Zm65.267-37.663a.749.749,0,0,0-.679,0l-5.221,3a.2.2,0,0,0,0,.383l4.882,2.82a.757.757,0,0,0,.67,0l5.221-3c.183-.1.165-.279,0-.392ZM254.1,278.663a.774.774,0,0,0-.679,0l-4.212,2.437a.2.2,0,0,0,0,.383l4.882,2.819a.731.731,0,0,0,.67,0l4.221-2.437c.183-.1.174-.278,0-.392Zm13.515-9.807,4.212-2.437c.183-.1.174-.278,0-.392l-4.882-2.811a.731.731,0,0,0-.67,0l-4.221,2.437c-.183.1-.174.278,0,.392l4.873,2.811a.748.748,0,0,0,.661,0Zm-27.577-.183,4.221-2.437c.183-.1.165-.27,0-.383l-4.873-2.82a.775.775,0,0,0-.679,0l-4.221,2.437a.214.214,0,0,0,0,.392l4.882,2.82a.731.731,0,0,0,.644-.009Zm-13.924,24.166,12.331-7.118a.214.214,0,0,0,0-.392l-4.969-2.82a.757.757,0,0,0-.67,0l-12.34,7.11c-.183.1-.174.278,0,.392l4.873,2.811a.748.748,0,0,0,.7.017Zm34.7-20.442a.731.731,0,0,0,.67,0l4.221-2.437a.214.214,0,0,0,0-.392l-4.882-2.811a.731.731,0,0,0-.67,0l-4.221,2.437a.214.214,0,0,0,0,.392Zm-6.3-4,4.221-2.437a.214.214,0,0,0,0-.392l-4.882-2.819a.731.731,0,0,0-.67,0l-4.221,2.437c-.174.1-.165.27,0,.383l4.882,2.82a.757.757,0,0,0,.6.009Zm-34.574,28,4.221-2.437a.208.208,0,0,0,0-.383l-4.882-2.82a.731.731,0,0,0-.67,0l-4.221,2.437a.214.214,0,0,0,0,.392l4.882,2.819a.757.757,0,0,0,.6-.009Zm27.238-16.125a.731.731,0,0,0,.67,0l4.221-2.437a.2.2,0,0,0,0-.383l-4.882-2.819a.757.757,0,0,0-.67,0l-4.221,2.437c-.183.1-.174.278,0,.392Zm-58.07,33.939,4.221-2.437a.214.214,0,0,0,0-.392l-4.882-2.811a.731.731,0,0,0-.67,0l-4.221,2.437c-.183.1-.165.278,0,.392l4.873,2.811a.748.748,0,0,0,.609-.009Zm6.161-3.559,4.221-2.437c.183-.1.174-.279,0-.392l-4.873-2.82a.757.757,0,0,0-.67,0l-4.221,2.437a.2.2,0,0,0,0,.383l4.882,2.819a.731.731,0,0,0,.574,0Zm-12.331,7.118,4.221-2.437c.183-.1.165-.278,0-.392l-4.873-2.811a.748.748,0,0,0-.679,0l-4.221,2.437a.214.214,0,0,0,0,.392l4.882,2.811a.731.731,0,0,0,.6-.009Zm24.6-14.228,4.212-2.428c.183-.1.174-.278,0-.392l-4.882-2.82a.731.731,0,0,0-.67,0l-4.221,2.437c-.183.1-.165.27,0,.383l4.873,2.82a.749.749,0,0,0,.687,0Zm-6.17,3.568,4.221-2.437a.214.214,0,0,0,0-.392l-4.882-2.82a.758.758,0,0,0-.67,0l-4.221,2.437a.208.208,0,0,0,0,.383l4.882,2.82a.758.758,0,0,0,.67-.017Zm12.331-7.127,4.221-2.437c.183-.1.165-.279,0-.383l-4.873-2.82a.774.774,0,0,0-.679,0l-4.212,2.437c-.183.1-.174.279,0,.392l4.882,2.819a.757.757,0,0,0,.661-.035Zm28.213-52.666a.748.748,0,0,0,.679,0l4.221-2.437c.174-.1.165-.27,0-.383l-1.3-.748a.748.748,0,0,0-.679,0l-4.221,2.437a.214.214,0,0,0,0,.392ZM211.578,266.9a.731.731,0,0,0,.67,0l4.221-2.437a.214.214,0,0,0,0-.392l-4.882-2.811a.731.731,0,0,0-.67,0L206.7,263.7a.214.214,0,0,0,0,.392Zm12.322-7.145a.731.731,0,0,0,.67,0l4.221-2.437c.183-.1.165-.278,0-.392l-4.873-2.82a.774.774,0,0,0-.679,0l-4.221,2.437a.208.208,0,0,0,0,.383Zm-19.867,11.47a.774.774,0,0,0,.679,0l4.221-2.437a.214.214,0,0,0,0-.392l-4.882-2.819a.757.757,0,0,0-.67,0l-4.221,2.437c-.183.1-.165.27,0,.383Zm13.7-7.91a.748.748,0,0,0,.679,0l4.212-2.437c.183-.1.174-.279,0-.392l-4.882-2.811a.731.731,0,0,0-.67,0l-4.221,2.437c-.183.1-.174.279,0,.392ZM191.7,278.306a.731.731,0,0,0,.67,0l4.221-2.437c.183-.1.174-.279,0-.392L191.7,272.72a.731.731,0,0,0-.67,0l-4.221,2.437c-.183.1-.174.278,0,.392Zm6.179-3.481a.731.731,0,0,0,.67,0l4.221-2.437c.183-.1.165-.279,0-.392l-4.882-2.82a.757.757,0,0,0-.67,0L193,271.614a.208.208,0,0,0,0,.383Zm31.7-20.372a.731.731,0,0,0,.67,0l4.221-2.437c.183-.1.174-.279,0-.392l-1.3-.748a.731.731,0,0,0-.67,0l-4.221,2.437c-.183.1-.165.279,0,.392Zm18.5-10.678a.757.757,0,0,0,.67,0l4.221-2.437a.2.2,0,0,0,0-.383l-1.3-.748a.731.731,0,0,0-.67,0l-4.221,2.437c-.183.1-.165.279,0,.392Zm10.251,5.918a.757.757,0,0,0,.67,0l4.221-2.437c.183-.1.165-.278,0-.383l-4.882-2.82a.731.731,0,0,0-.67,0l-4.221,2.437a.214.214,0,0,0,0,.392Zm15.412,15.664,4.221-2.437c.183-.1.165-.278,0-.392l-4.873-2.82a.774.774,0,0,0-.679,0l-4.221,2.437a.208.208,0,0,0,0,.383l4.882,2.819a.731.731,0,0,0,.67-.052Zm-37.994-14.446a.757.757,0,0,0,.67,0l4.221-2.437a.214.214,0,0,0,0-.392l-1.3-.748a.731.731,0,0,0-.67,0l-4.221,2.437c-.183.1-.174.279,0,.392Zm-50.212,31.05a.749.749,0,0,0,.679,0l4.221-2.437a.214.214,0,0,0,0-.392l-4.882-2.811a.731.731,0,0,0-.67,0l-4.221,2.437c-.183.1-.165.278,0,.392Z" transform="translate(-72.072 -79.451)" fill="#455a64"/>
        <path id="Path_3378" data-name="Path 3378" d="M227.21,327l41.64-24.079a5.03,5.03,0,0,1,4.543,0L297.272,316.7c1.253.731,1.253,1.906,0,2.611L255.623,343.4a4.978,4.978,0,0,1-4.543,0L227.2,329.618A1.384,1.384,0,0,1,227.21,327Z" transform="translate(-86.39 -87.53)" fill="#263238"/>
        <g id="freepik--Window--inject-4" transform="translate(18.257 26.765)">
          <path id="Path_3379" data-name="Path 3379" d="M218.175,87.094v6.361L123.4,148.175c-.653.374-1.184.07-1.184-.687l.07-2.28a11.544,11.544,0,0,0-1.74-.54L92.158,161.054a2.654,2.654,0,0,0-1.192,2.062v2.4a2.611,2.611,0,0,1-1.184,2.062l-3.272,1.888v-6.353a2.611,2.611,0,0,1,1.184-2.062l129.3-74.648C217.645,86.032,218.175,86.337,218.175,87.094Z" transform="translate(-86.51 -86.246)" fill="#b0bec5"/>
          <path id="Path_3380" data-name="Path 3380" d="M218.184,183.424a2.611,2.611,0,0,1-1.192,2.054l-129.3,74.648c-.653.383-1.184.07-1.184-.687V170.544l3.272-1.888c.653-.374,1.74-6.144,2.376-6.527l28.387-16.386c.653-.374,2.2,3.881,2.854,3.481L218.175,94.53v88.894Z" transform="translate(-86.51 -87.321)" fill="#ebebeb"/>
          <path id="Path_3381" data-name="Path 3381" d="M92.824,204.962l56.791-32.816c.653-.383,1.184-.07,1.184.687v55.816a2.611,2.611,0,0,1-1.184,2.062L92.824,263.528c-.653.374-1.184.07-1.184-.687V207.024A2.611,2.611,0,0,1,92.824,204.962Z" transform="translate(-87.176 -97.373)" fill="#fafafa"/>
          <path id="Path_3382" data-name="Path 3382" d="M92.824,182.552l120.379-69.5c.653-.383,1.184-.07,1.184.687v8.363a2.611,2.611,0,0,1-1.184,2.054L92.824,193.665c-.653.374-1.184.07-1.184-.687v-8.363a2.611,2.611,0,0,1,1.184-2.062Z" transform="translate(-87.176 -89.704)" fill="#455a64"/>
          <path id="Path_3383" data-name="Path 3383" d="M181.4,146.322v2.21c0,.461.322.644.714.418l34.992-20.207V124.88l-34.992,20.207A1.584,1.584,0,0,0,181.4,146.322Z" transform="translate(-98.824 -91.26)" fill="#fafafa"/>
          <path id="Path_3384" data-name="Path 3384" d="M226.181,122.377a.441.441,0,0,1,.714.409V125a1.566,1.566,0,0,1-.714,1.236l-3.751,2.167v-3.864Z" transform="translate(-104.149 -90.923)" fill="#b0bec5"/>
          <path id="Path_3385" data-name="Path 3385" d="M226.1,125.638l-.426-.131a2.239,2.239,0,0,0,.07-.54.975.975,0,0,0-.383-.87.592.592,0,0,0-.609,0,2.132,2.132,0,0,0-.87,1.74.992.992,0,0,0,.383.87.566.566,0,0,0,.27.07.67.67,0,0,0,.339-.1,1.784,1.784,0,0,0,.679-.87l.418.131h.044a.148.148,0,0,0,.148-.1.157.157,0,0,0-.061-.191Zm-1.349.8a.287.287,0,0,1-.3,0,.731.731,0,0,1-.226-.627,1.88,1.88,0,0,1,.679-1.471.444.444,0,0,1,.191-.061.148.148,0,0,1,.1,0c.148.078.226.313.226.618a1.827,1.827,0,0,1-.679,1.54Z" transform="translate(-104.336 -91.147)" fill="#fafafa"/>
          <path id="Path_3386" data-name="Path 3386" d="M218.175,94.53v7.736L86.51,178.281v-7.736l2.445-1.41c.653-.383.87-.957,1.184-2.062l.827-2.88a3.011,3.011,0,0,1,1.192-2.062l28.387-16.386a1.044,1.044,0,0,1,1.671.409L123.234,148c.374.644.557,1.027,1.21.644Z" transform="translate(-86.51 -87.321)" fill="#e6e6e6"/>
          <path id="Path_3387" data-name="Path 3387" d="M231.186,91.779c.87-.479,1.5-.1,1.5.87a3.307,3.307,0,0,1-1.5,2.611c-.87.479-1.505.087-1.505-.87A3.281,3.281,0,0,1,231.186,91.779Z" transform="translate(-105.09 -86.938)" fill="#455a64"/>
          <path id="Path_3388" data-name="Path 3388" d="M224.987,95.349c.827-.479,1.5-.1,1.5.87a3.307,3.307,0,0,1-1.5,2.611c-.87.479-1.5.087-1.5-.87a3.3,3.3,0,0,1,1.5-2.611Z" transform="translate(-104.286 -87.401)" fill="#455a64"/>
          <path id="Path_3389" data-name="Path 3389" d="M218.777,98.969c.827-.479,1.5-.1,1.5.87a3.307,3.307,0,0,1-1.5,2.611c-.87.479-1.5.087-1.5-.87A3.3,3.3,0,0,1,218.777,98.969Z" transform="translate(-103.48 -87.871)" fill="#455a64"/>
          <path id="Path_3390" data-name="Path 3390" d="M92.424,182.432l-1.871,1.07.714-1.366a.348.348,0,0,0,0-.331c-.061-.07-.157,0-.218.1l-1.009,1.949h0v.07a.427.427,0,0,0,0,.1.217.217,0,0,0,0,.078h0v.044h0l1.009.783a.113.113,0,0,0,.1,0,.435.435,0,0,0,.113-.148.313.313,0,0,0,0-.322l-.714-.54,1.871-1.079a.418.418,0,0,0,.148-.322C92.615,182.441,92.5,182.38,92.424,182.432Z" transform="translate(-86.968 -98.644)" fill="#455a64" opacity="0.5"/>
          <path id="Path_3391" data-name="Path 3391" d="M94.548,181.177l1.871-1.079-.714-.548c-.061-.044-.07-.191,0-.313s.148-.191.209-.148l1.018.783h0a.261.261,0,0,1,0,.087.433.433,0,0,1,0,.1.357.357,0,0,1,0,.07h0l-1.018,1.949a.313.313,0,0,1-.1.113.1.1,0,0,1-.113,0,.348.348,0,0,1,0-.331l.714-1.375-1.871,1.131c-.087.052-.148,0-.148-.139a.392.392,0,0,1,.148-.3Z" transform="translate(-87.534 -98.293)" fill="#455a64" opacity="0.5"/>
          <path id="Path_3392" data-name="Path 3392" d="M101.3,175.3c0-.113-.113-.1-.157,0l-.261.627c-.435-.052-.966.374-1.323,1.131a2.589,2.589,0,0,0,0,2.611.679.679,0,0,0,.87.052,2.306,2.306,0,0,0,.87-1.018c.061-.13.061-.278,0-.331s-.157,0-.209.122c-.348.731-.87,1.053-1.253.722a1.862,1.862,0,0,1,0-1.923c.244-.522.6-.87.87-.87l-.191.47c-.052.122,0,.244.07.191l.766-.5a.261.261,0,0,0,.087-.209Z" transform="translate(-88.158 -97.793)" fill="#455a64" opacity="0.5"/>
          <path id="Path_3393" data-name="Path 3393" d="M124.473,157.154l.687-1.445a.444.444,0,0,0,0-.444c-.087-.078-.218,0-.3.165l-.679,1.445-.679-.661c-.087-.07-.209,0-.3.174a.444.444,0,0,0,0,.444l.679.661-.679,1.436a.452.452,0,0,0,0,.452.131.131,0,0,0,.148,0,.47.47,0,0,0,.148-.183l.679-1.436.679.653a.1.1,0,0,0,.148,0,.383.383,0,0,0,.148-.174.453.453,0,0,0,0-.452Z" transform="translate(-91.265 -95.199)" fill="#455a64" opacity="0.5"/>
          <path id="Path_3394" data-name="Path 3394" d="M104.46,167.453v-2.411a2.611,2.611,0,0,1,1.184-2.062l106.986-61.734c.653-.374,1.184-.07,1.184.687v2.411a2.611,2.611,0,0,1-1.184,2.062L105.644,168.141C104.991,168.515,104.46,168.21,104.46,167.453Z" transform="translate(-88.839 -88.172)" fill="#fafafa"/>
          <path id="Path_3395" data-name="Path 3395" d="M227.791,102.733l.313.661a.078.078,0,0,0,.1,0l.7-.27c.1,0,.157.113.07.261l-.5.949a.358.358,0,0,0,0,.183l.122.87c0,.131-.1.313-.2.3l-.627-.078a.131.131,0,0,0-.122.07l-.627.8c-.1.122-.218.078-.2-.078l.122-.992a.148.148,0,0,0,0-.139l-.513-.365c-.078-.061,0-.27.078-.357l.7-.531a.322.322,0,0,0,.1-.165l.313-1.018C227.565,102.707,227.7,102.628,227.791,102.733Z" transform="translate(-104.663 -88.38)" fill="none" stroke="#e0e0e0" stroke-width="0.75"/>
          <g id="Group_499" data-name="Group 499" transform="translate(125.965 10.05)" opacity="0.5">
            <path id="Path_3396" data-name="Path 3396" d="M231.669,100.532a.426.426,0,0,1-.357-.209.418.418,0,0,1,.157-.566l3.342-1.932a.418.418,0,0,1,.418.714l-3.324,1.932A.366.366,0,0,1,231.669,100.532Z" transform="translate(-231.259 -97.795)" fill="#455a64"/>
            <path id="Path_3397" data-name="Path 3397" d="M231.669,102.752a.426.426,0,0,1-.357-.209.409.409,0,0,1,.157-.557l3.342-1.941a.418.418,0,0,1,.418.714L231.9,102.7a.435.435,0,0,1-.235.052Z" transform="translate(-231.259 -98.083)" fill="#455a64"/>
            <path id="Path_3398" data-name="Path 3398" d="M231.669,104.968a.409.409,0,0,1-.2-.766l3.342-1.932a.4.4,0,0,1,.566.148.418.418,0,0,1-.148.566l-3.324,1.932A.435.435,0,0,1,231.669,104.968Z" transform="translate(-231.259 -98.367)" fill="#455a64"/>
          </g>
        </g>
        <g id="freepik--question-mark--inject-4" transform="translate(42.454 126.75)">
          <path id="Path_3399" data-name="Path 3399" d="M121.777,221.9c4.778-4.865,6-7.075,6-9.024s-.818-3.176-3.359-1.74a8.076,8.076,0,0,0-3.759,4.612,2.924,2.924,0,0,1-1.862,1.74l-3.316.731c-.792.183-1.323-.322-1.131-1.114,1.453-5.926,5.117-11.4,10.26-14.367,6.179-3.568,9.781-.87,9.781,5.152,0,5.787-3.046,10.617-6.092,14.089a4.517,4.517,0,0,0-.949,2.532v1.967a2.82,2.82,0,0,1-1.271,2.2l-4.073,2.35c-.7.409-1.271.078-1.271-.731v-5.935A4.116,4.116,0,0,1,121.777,221.9Z" transform="translate(-114.315 -201.142)" fill="#455a64"/>
          <path id="Path_3400" data-name="Path 3400" d="M121.61,243.894a6.962,6.962,0,0,1,3.368-6.013c2.184-1.271,3.324-.148,3.324,2.149a6.962,6.962,0,0,1-3.324,6.039C122.741,247.358,121.61,246.191,121.61,243.894Z" transform="translate(-115.262 -205.841)" fill="#455a64"/>
        </g>
      </g>
    </g>
    <g id="freepik--support-character--inject-4" transform="translate(80.726 5.252)">
      <path id="Path_3401" data-name="Path 3401" d="M263.638,63.574l-3.194-1.862h0a1.888,1.888,0,0,0-1.941.183l-79.513,45.9a6.039,6.039,0,0,0-2.733,4.725V226.873a1.949,1.949,0,0,0,.775,1.74h0l3.22,1.862,78.216-47.95a6.031,6.031,0,0,0,2.724-4.725Z" transform="translate(-160.624 -61.525)" fill="#b0bec5"/>
      <path id="Path_3402" data-name="Path 3402" d="M180.2,237.658l-3.176-1.836h0a1.914,1.914,0,0,1-.766-1.74V119.7a5.7,5.7,0,0,1,.87-2.828l3.255,1.854a5.665,5.665,0,0,0-.87,2.837V235.926a1.958,1.958,0,0,0,.687,1.732Z" transform="translate(-160.624 -68.708)" opacity="0.15"/>
      <path id="Path_3403" data-name="Path 3403" d="M182.663,109.939l79.513-45.9c1.505-.87,2.724-.165,2.724,1.575V179.966a6.031,6.031,0,0,1-2.724,4.725l-79.513,45.9c-1.505.87-2.733.165-2.733-1.575V114.656A6.039,6.039,0,0,1,182.663,109.939Z" transform="translate(-161.102 -61.803)" fill="#b0bec5"/>
      <path id="Path_3404" data-name="Path 3404" d="M260.579,61.719l3.115,1.8a2,2,0,0,0-1.827.244l-79.513,45.9a5.439,5.439,0,0,0-1.836,1.88l-3.229-1.854a5.491,5.491,0,0,1,1.836-1.9L258.6,61.945a1.88,1.88,0,0,1,1.941-.174Z" transform="translate(-160.759 -61.533)" fill="#fff" opacity="0.4"/>
      <path id="Path_3405" data-name="Path 3405" d="M193.131,116.475l63.674-36.767c1.14-.661,2.062-.122,2.062,1.192v97.822a4.569,4.569,0,0,1-2.062,3.577L193.131,219c-1.14.653-2.071.122-2.071-1.192V120.069A4.534,4.534,0,0,1,193.131,116.475Z" transform="translate(-162.546 -63.848)" fill="#fff"/>
      <path id="Path_3434" data-name="Path 3434" d="M162.45,208.384a3.528,3.528,0,0,0-.392.453h0a2.542,2.542,0,0,0-.461.87h0a.87.87,0,0,0,0,.566.618.618,0,0,0,.183.339.808.808,0,0,0,.157.139l-3.194-1.845a.783.783,0,0,1-.3-.3.992.992,0,0,1,0-.766h0a2.419,2.419,0,0,1,.3-.609,5.117,5.117,0,0,1,.557-.7Z" transform="translate(-158.303 -80.343)" fill="#b0bec5"/>
      <path id="Path_3435" data-name="Path 3435" d="M162.949,206.349c-1.662,1.74-1.079,2.915,1.305,2.611l13.349-1.54v-16.3Z" transform="translate(-158.775 -78.343)" fill="#b0bec5"/>
      <path id="Path_3436" data-name="Path 3436" d="M162.468,206.074c-1.053,1.1-1.2,1.967-.574,2.393l-3.194-1.845c-.67-.418-.522-1.305.54-2.419L173.9,189l3.229,1.871Z" transform="translate(-158.294 -78.068)" fill="#b0bec5"/>
      <path id="Path_3437" data-name="Path 3437" d="M162.45,208.384a3.529,3.529,0,0,0-.392.453h0a2.907,2.907,0,0,0-.461.87h0a1.062,1.062,0,0,0,0,.566.653.653,0,0,0,.183.339.808.808,0,0,0,.157.139l-3.194-1.845a.783.783,0,0,1-.3-.3.992.992,0,0,1,0-.766h0a2.768,2.768,0,0,1,.3-.609,5.112,5.112,0,0,1,.557-.7Z" transform="translate(-158.303 -80.343)" opacity="0.15"/>
      <path id="Path_3438" data-name="Path 3438" d="M177.271,190.845l-14.663,15.229h0L159.37,204.2h0L174.042,189Z" transform="translate(-158.434 -78.068)" fill="#fff" opacity="0.4"/>
    </g>
    <g id="freepik--Character--inject-4" transform="translate(227.532 36.525)">
      <path id="Path_3440" data-name="Path 3440" d="M429.68,148.53c6.962,0,10.617,2.089,13.506,8.52,2.767,6.152,11.357,24,10.93,28.326s-18.066,22.739-18.066,22.739l-5.039-6.092,10.93-18.362-10.765-15.577Z" transform="translate(-340.319 -104.089)" fill="#ffa8a7"/>
      <g id="freepik--character--inject-4-2" data-name="freepik--character--inject-4">
        <path id="Path_3441" data-name="Path 3441" d="M405.706,366.16s.783,2.376,1.21,4.464c.339,1.653.818,4.412.235,5.657s-2.837,2.045-6.335,2.019c-2.271,0-5.8,1.523-8.224,2.88s-7.7,1.949-10.347,1.636c-3.115-.366-6.344-2.176-6.849-3.481s-.931-3.054,7.51-5.761c.07,0,10.208-3.324,13.758-7.249Z" transform="translate(-333.245 -132.332)" fill="#263238"/>
        <path id="Path_3442" data-name="Path 3442" d="M406.568,366.4l-1.61-.2-7.432.148c-3.55,3.925-13.689,7.232-13.758,7.249l-1.349.453c-1.471,1.184-.226,3.194,3.255,3.481s14.333-3.342,16.735-4.5a7.188,7.188,0,0,0,4.16-6.631Z" transform="translate(-334.107 -132.337)" fill="#ffa8a7"/>
        <path id="Path_3443" data-name="Path 3443" d="M408.911,362.76v3.194c0,1.166-1.358,2.889-4.908,2.759-2.489-.087-4.229-.757-4.134-2.811v-2.933Z" transform="translate(-336.45 -131.89)" fill="#ffa8a7"/>
        <path id="Path_3444" data-name="Path 3444" d="M434.9,349.036c.635.261.766,1.5.792,3.942,0,1.845.339,5.082-1.845,5.674s-5.343.165-6.683-1.61a83.038,83.038,0,0,0-5.221-6.892c-2.08-2.358-4.351-4.569-5.117-7.832-.7-2.941,0-4.186,1.993-4.986s3.829-.139,6.614,2.184a13,13,0,0,0,2.48,1.314C429.771,341.413,434.261,348.775,434.9,349.036Z" transform="translate(-338.617 -128.548)" fill="#263238"/>
        <path id="Path_3445" data-name="Path 3445" d="M436.473,347.769l-.087,3s-2,3.925-7.58,0c-.122-.3-.627-6.092-.627-6.092Z" transform="translate(-340.125 -129.544)" fill="#ffa8a7"/>
        <path id="Path_3446" data-name="Path 3446" d="M428.468,341.188a13,13,0,0,1-2.48-1.314h0c-2.245-.722-6.962.113-4.847,3.385a25.34,25.34,0,0,0,6.683,6.857c2.524,1.244,3.4-.3,3.4-.3l-.87-7.04A5.552,5.552,0,0,0,428.468,341.188Z" transform="translate(-339.142 -128.889)" fill="#ffa8a7"/>
        <path id="Path_3447" data-name="Path 3447" d="M435.828,288.194a71.285,71.285,0,0,0-3.246-15.525s1.888-13.245,3.368-25.941c3.481-29.823,1.166-30.3-3.046-40.674,0,0-38.229-4.917-39.83,10.982-1.993,19.8-1.088,58.192-.757,65.215s.87,10.2,2.994,24.906c1.584,11.2,3.089,35.679,3.089,35.679,5.013,2.889,9.834-.5,9.834-.5s4.795-30.1,4.682-38.2A69.138,69.138,0,0,0,410.3,286.4s3.255-32.268,4.081-37.42c0,0,.922,10.295,1.262,17.318s2.237,13.767,3.916,26.846c1.453,11.313,3.873,35.009,3.873,35.009,5.013,2.889,8.511,1.584,8.511,1.584S436.933,298.027,435.828,288.194Z" transform="translate(-335.406 -111.461)" fill="#b0bec5"/>
        <path id="Path_3448" data-name="Path 3448" d="M411.09,140.765l1.4,14.864,13.053-.827L424.5,138.32Z" transform="translate(-337.907 -102.764)" fill="#ffa8a7"/>
        <path id="Path_3449" data-name="Path 3449" d="M434.82,154.839c-1.331-3.933-4.029-6.24-10.008-6.309l-2.2.07c-.418,2.193-6.849,3.968-13.2,1.74-.87.235-3.35.688-4.734.87l-3.046.444c-4.621,1.514-6.666,9.573-7.11,22.287s-2.35,39.978-2.35,39.978,9.947,5.326,25.646,3.263c14.054-1.845,19.519-10.156,19.032-9.094a96.734,96.734,0,0,0-7.258-20.407C436.987,169.485,436.787,160.678,434.82,154.839Z" transform="translate(-335.451 -104.089)" fill="#455a64"/>
        <path id="Path_3450" data-name="Path 3450" d="M412.7,220.308a55.042,55.042,0,0,0,7.78-.47c12.81-1.68,18.484-8.7,19.014-9.164a96.6,96.6,0,0,0-7.24-20.337c3.742-9.19,5.535-15.977,6.144-21.207-.609,3.812-6.24,18.571-13.61,23,0,0,4.16.644,7.719,5.535S433.142,219.255,412.7,220.308Z" transform="translate(-338.116 -106.763)" fill="#37474f"/>
        <path id="Path_3451" data-name="Path 3451" d="M396.217,151.59c-6.135.774-11.417,1.871-13.654,7.893a66.816,66.816,0,0,1-13.323,22.208c-3.812,4.081-19.458,11.9-22.983,11.313s-6.7-5.6-8.511-4.56,2.158,4.63,1.941,5.517-6.57-.957-9.572-3.089-4.786,3.986-.87,8.563,11.243,4.934,19.215,3.342S371,196.45,376.785,191.055c7.588-7.092,8.972-10.947,12.262-17.056C399.524,165.87,396.217,151.59,396.217,151.59Z" transform="translate(-327.675 -102.389)" fill="#ffa8a7"/>
        <path id="Path_3452" data-name="Path 3452" d="M402.861,117.094s-4.925-5.874-1.062-11.6c4.56-6.753,12.583-9.033,22.5-6.092,4.908,1.453,12.122,8.241,12.488,17.761.278,7.336-20.294,12.183-19.963,17.213Z" transform="translate(-336.509 -97.55)" fill="#263238"/>
        <path id="Path_3453" data-name="Path 3453" d="M399.62,122.39s-2.889,4.351-2.515,4.838a6.876,6.876,0,0,0,2.219.949Z" transform="translate(-336.087 -100.697)" fill="#f28f8f"/>
        <path id="Path_3454" data-name="Path 3454" d="M408.725,106.308c-2.811,1.453-7.667,4.134-8.92,14.489-1.279,10.625,1.088,14.315,2.532,15.708.983.94,6.031,1.279,8.7.461,3.3-1.018,10.443-4.543,13.776-10.025,3.933-6.457,4.743-15.055.2-18.431C418.585,103.767,411.1,105.081,408.725,106.308Z" transform="translate(-336.395 -98.461)" fill="#ffa8a7"/>
        <path id="Path_3455" data-name="Path 3455" d="M409.017,106.43s-2.454,9.694.479,15.821c0,0,1.74-3.785,4.969-2.7s2.976,5.456.4,7.684a4.856,4.856,0,0,1-5.073,1.079s.087,5.369,4.673,7.493c0,0,9.573,4.586,18.275-4.673,7.832-8.406,6.849-23.5-4.734-27.316S409.017,106.43,409.017,106.43Z" transform="translate(-337.513 -98.13)" fill="#263238"/>
        <path id="Path_3456" data-name="Path 3456" d="M451.871,149.271h0A13.871,13.871,0,0,1,438,135.347V117.56h0a13.863,13.863,0,0,1,13.863,13.863Z" transform="translate(-341.399 -100.07)" fill="#263238"/>
        <path id="Path_3457" data-name="Path 3457" d="M400.181,101.411c-4.308,4.351-4.551,17.065,7.945,20.181l8.189-22.443C411.546,96.042,404.028,97.478,400.181,101.411Z" transform="translate(-336.144 -97.462)" fill="#263238"/>
        <path id="Path_3458" data-name="Path 3458" d="M408.018,128.442a2.471,2.471,0,1,1,1.68-4.647Z" transform="translate(-337.288 -100.857)" fill="#263238"/>
        <path id="Path_3459" data-name="Path 3459" d="M417.77,252.913l2.08-13.306a29.274,29.274,0,0,0,11.818-4.107s-2.611,3.925-9.485,5.561l-2.123,15.412-.87,16.143Z" transform="translate(-338.774 -115.376)" opacity="0.1"/>
      </g>
    </g>
  </g>
</svg>
