<svg id="undraw_Happy_birthday_re_c16u" xmlns="http://www.w3.org/2000/svg" width="91.902" height="70.693" viewBox="0 0 91.902 70.693">
  <path id="Path_1940" data-name="Path 1940" d="M705.143,271.416c1.972-5.3,6.63-9.881,12.259-10.426a26.057,26.057,0,0,0-4.118,17.41c.288,2.354.854,4.943-.416,6.947a5.825,5.825,0,0,1-3.616,2.361,17.3,17.3,0,0,1-4.405.291l-.33.163C703.479,282.6,703.172,276.717,705.143,271.416Z" transform="translate(-643.555 -251.511)" fill="#f0f0f0"/>
  <path id="Path_1941" data-name="Path 1941" d="M722.2,260.309a22.272,22.272,0,0,0-8.274,10.923,9.585,9.585,0,0,0-.585,2.947,5.5,5.5,0,0,0,.744,2.8,11.393,11.393,0,0,1,1.233,2.465,3.368,3.368,0,0,1-.473,2.714,8.752,8.752,0,0,1-2.553,2.368,8.6,8.6,0,0,0-2.836,2.633c-.079.14-.291.009-.212-.131,1.135-2.007,3.516-2.736,4.972-4.44a3.411,3.411,0,0,0,.914-2.859,8.835,8.835,0,0,0-1.2-2.526,5.87,5.87,0,0,1-.829-2.709,8.869,8.869,0,0,1,.47-2.959,21.607,21.607,0,0,1,3.048-6.027,22.666,22.666,0,0,1,5.47-5.418c.131-.092.248.129.117.22Z" transform="translate(-648.322 -250.714)" fill="#fff"/>
  <path id="Path_1942" data-name="Path 1942" d="M735.062,305.317a3.341,3.341,0,0,1-1.669-3.992c.049-.153.289-.083.239.069a3.094,3.094,0,0,0,1.56,3.71C735.336,305.177,735.2,305.389,735.062,305.317Z" transform="translate(-669.05 -286.252)" fill="#fff"/>
  <path id="Path_1943" data-name="Path 1943" d="M742.125,361.912a6.44,6.44,0,0,0,3.653-2.947c.08-.139.292-.009.212.131a6.7,6.7,0,0,1-3.807,3.059c-.153.048-.21-.195-.058-.242Z" transform="translate(-676.646 -336.025)" fill="#fff"/>
  <path id="Path_1944" data-name="Path 1944" d="M774.228,286.389a1.892,1.892,0,0,0,1.765.324c.153-.05.21.193.058.242a2.12,2.12,0,0,1-1.954-.354.129.129,0,0,1-.041-.171A.125.125,0,0,1,774.228,286.389Z" transform="translate(-704.27 -273.418)" fill="#fff"/>
  <path id="Path_1945" data-name="Path 1945" d="M734.921,348.2c-.094.034-.189.068-.284.1a24.9,24.9,0,0,0-3.672,1.686c-.092.05-.184.1-.274.153a26.261,26.261,0,0,0-7.348,6.284,25.5,25.5,0,0,0-2.192,3.2,16.605,16.605,0,0,1-3.058,4.419,4.384,4.384,0,0,1-.429.331l-8.973-2.123-.055-.043-.362-.068c.03-.06.061-.122.091-.182.017-.035.036-.069.053-.1s.024-.046.033-.068l.011-.021c.009-.022.02-.041.029-.06q.265-.518.539-1.033s0,0,0,0a37.493,37.493,0,0,1,4.978-7.335c.059-.066.118-.134.181-.2a24.35,24.35,0,0,1,2.89-2.723,21.521,21.521,0,0,1,1.772-1.265,17.889,17.889,0,0,1,5.129-2.232,14.2,14.2,0,0,1,10.694,1.145C734.76,348.1,734.84,348.149,734.921,348.2Z" transform="translate(-647.506 -325.207)" fill="#f0f0f0"/>
  <path id="Path_1946" data-name="Path 1946" d="M735.451,358.87a22.273,22.273,0,0,0-13.183,3.74,9.589,9.589,0,0,0-2.242,2,5.5,5.5,0,0,0-1.091,2.682,11.386,11.386,0,0,1-.5,2.71,3.368,3.368,0,0,1-2.012,1.882,8.751,8.751,0,0,1-3.464.354,8.593,8.593,0,0,0-3.85.395c-.147.064-.238-.168-.091-.232,2.114-.919,4.454-.068,6.643-.552a3.411,3.411,0,0,0,2.451-1.733,8.833,8.833,0,0,0,.56-2.742,5.869,5.869,0,0,1,.969-2.662,8.866,8.866,0,0,1,2.157-2.08,21.605,21.605,0,0,1,6.062-2.977,22.665,22.665,0,0,1,7.629-1.032C735.649,358.63,735.61,358.876,735.451,358.87Z" transform="translate(-648.083 -335.77)" fill="#fff"/>
  <path id="Path_1947" data-name="Path 1947" d="M812.96,354.592a3.342,3.342,0,0,1,1.071-4.192c.131-.092.281.107.149.2a3.094,3.094,0,0,0-.988,3.9C813.264,354.645,813.031,354.735,812.96,354.592Z" transform="translate(-737.572 -328.664)" fill="#fff"/>
  <path id="Path_1948" data-name="Path 1948" d="M780.88,417.6a6.44,6.44,0,0,0,4.691-.154c.148-.064.238.169.091.232a6.7,6.7,0,0,1-4.882.15C780.629,417.77,780.729,417.542,780.88,417.6Z" transform="translate(-710.023 -386.541)" fill="#fff"/>
  <path id="Path_1949" data-name="Path 1949" d="M863.419,362.489a1.891,1.891,0,0,0,1.214,1.322c.152.052.051.28-.1.228a2.119,2.119,0,0,1-1.347-1.459.129.129,0,0,1,.07-.162.125.125,0,0,1,.162.071Z" transform="translate(-781.211 -339.05)" fill="#fff"/>
  <path id="Path_1950" data-name="Path 1950" d="M274.645,610.14c-5.137-2.366-9.352-7.357-9.47-13.011a26.057,26.057,0,0,0,17.049,5.421c2.369-.109,4.993-.478,6.9.939a5.825,5.825,0,0,1,2.081,3.784,17.3,17.3,0,0,1-.043,4.414l.138.342C285.674,612.644,279.782,612.506,274.645,610.14Z" transform="translate(-265.047 -541.647)" fill="#f0f0f0"/>
  <path id="Path_1951" data-name="Path 1951" d="M264.484,596.581a22.271,22.271,0,0,0,10.267,9.075,9.588,9.588,0,0,0,2.895.806,5.5,5.5,0,0,0,2.846-.53,11.387,11.387,0,0,1,2.551-1.043,3.368,3.368,0,0,1,2.67.677,8.75,8.75,0,0,1,2.169,2.725,8.592,8.592,0,0,0,2.412,3.027c.133.089-.013.291-.146.2-1.915-1.283-2.462-3.712-4.052-5.293a3.411,3.411,0,0,0-2.782-1.127,8.835,8.835,0,0,0-2.61,1.01,5.87,5.87,0,0,1-2.764.622,8.873,8.873,0,0,1-2.915-.692,21.613,21.613,0,0,1-5.779-3.494,22.666,22.666,0,0,1-4.989-5.864c-.081-.138.147-.237.228-.1Z" transform="translate(-264.239 -541.118)" fill="#fff"/>
  <path id="Path_1952" data-name="Path 1952" d="M304.311,658.231a3.342,3.342,0,0,1-4.107,1.363c-.148-.061-.061-.294.087-.234a3.094,3.094,0,0,0,3.817-1.276C304.192,657.947,304.393,658.094,304.311,658.231Z" transform="translate(-295.216 -594.213)" fill="#fff"/>
  <path id="Path_1953" data-name="Path 1953" d="M362.976,641.355a6.441,6.441,0,0,0-2.663-3.865c-.133-.09.013-.292.146-.2a6.7,6.7,0,0,1,2.763,4.027C363.258,641.472,363.012,641.51,362.976,641.355Z" transform="translate(-347.119 -576.29)" fill="#fff"/>
  <path id="Path_1954" data-name="Path 1954" d="M288.322,615.571a1.892,1.892,0,0,0,.457-1.736c-.038-.156.208-.194.246-.039a2.119,2.119,0,0,1-.5,1.921.129.129,0,0,1-.174.028A.125.125,0,0,1,288.322,615.571Z" transform="translate(-285.006 -555.947)" fill="#fff"/>
  <path id="Path_1955" data-name="Path 1955" d="M356.1,505.725c.027.1.053.193.082.291a24.9,24.9,0,0,0,1.4,3.789c.043.1.087.191.132.285a26.261,26.261,0,0,0,5.711,7.8,25.517,25.517,0,0,0,3.021,2.427,16.6,16.6,0,0,1,4.176,3.383,4.382,4.382,0,0,1,.3.452l-2.795,8.787c-.016.017-.031.034-.047.051l-.1.356-.174-.1-.1-.06c-.022-.014-.044-.027-.065-.038l-.02-.013c-.021-.011-.039-.023-.058-.034q-.5-.3-.99-.615s0,0,0,0a37.494,37.494,0,0,1-6.938-5.518c-.061-.064-.125-.128-.185-.2a24.34,24.34,0,0,1-2.5-3.088,21.518,21.518,0,0,1-1.127-1.862,17.89,17.89,0,0,1-1.839-5.282,14.205,14.205,0,0,1,1.949-10.577C355.99,505.878,356.043,505.8,356.1,505.725Z" transform="translate(-341.472 -462.752)" fill="#f0f0f0"/>
  <path id="Path_1956" data-name="Path 1956" d="M369.456,505.174A22.271,22.271,0,0,0,372.19,518.6a9.587,9.587,0,0,0,1.826,2.387,5.5,5.5,0,0,0,2.592,1.29,11.377,11.377,0,0,1,2.665.7A3.368,3.368,0,0,1,381,525.129a8.751,8.751,0,0,1,.091,3.481,8.593,8.593,0,0,0,.1,3.869c.053.152-.186.225-.238.073-.757-2.177.269-4.446-.048-6.666a3.41,3.41,0,0,0-1.543-2.575,8.831,8.831,0,0,0-2.692-.765,5.87,5.87,0,0,1-2.581-1.167,8.863,8.863,0,0,1-1.911-2.308,21.608,21.608,0,0,1-2.511-6.269,22.669,22.669,0,0,1-.453-7.686c.018-.159.26-.1.243.057Z" transform="translate(-354.725 -462.146)" fill="#fff"/>
  <path id="Path_1957" data-name="Path 1957" d="M359.9,585.028a3.341,3.341,0,0,1-4.1-1.384c-.082-.138.128-.272.21-.134a3.094,3.094,0,0,0,3.816,1.28C359.979,584.73,360.051,584.968,359.9,585.028Z" transform="translate(-343.256 -529.841)" fill="#fff"/>
  <path id="Path_1958" data-name="Path 1958" d="M420.645,600.255a6.441,6.441,0,0,0,.2-4.689c-.052-.152.186-.225.238-.073a6.7,6.7,0,0,1-.219,4.879C420.8,600.519,420.58,600.4,420.645,600.255Z" transform="translate(-399.23 -540.162)" fill="#fff"/>
  <path id="Path_1959" data-name="Path 1959" d="M370.939,536.471a1.892,1.892,0,0,0,1.41-1.111c.063-.148.283-.03.22.117a2.119,2.119,0,0,1-1.557,1.232.129.129,0,0,1-.156-.083.125.125,0,0,1,.083-.156Z" transform="translate(-356.261 -488.272)" fill="#fff"/>
  <path id="Path_1960" data-name="Path 1960" d="M384.959,319.746c-4.539-4.468-6.456-9.13-5.4-13.126,1.358-5.128,7.389-8.674,16.547-9.728l.034.294c-9.031,1.039-14.97,4.505-16.294,9.509-1.03,3.889.86,8.449,5.32,12.839Z" transform="translate(-363.533 -282.5)" fill="#f0f0f0"/>
  <path id="Path_1961" data-name="Path 1961" d="M501.222,507.6a71.053,71.053,0,0,1-17.936-2.461,67.565,67.565,0,0,1-20.05-8.738l.165-.246a67.269,67.269,0,0,0,19.961,8.7,69.189,69.189,0,0,0,19.824,2.416l.011.3Q502.221,507.6,501.222,507.6Z" transform="translate(-436.003 -454.489)" fill="#f0f0f0"/>
  <path id="Path_1962" data-name="Path 1962" d="M697.152,347.253l-.095-.28c5.067-1.713,8.235-4.472,9.164-7.98,1.181-4.459-1.384-9.634-7.222-14.571-5.867-4.962-14.328-9.079-23.824-11.593l.076-.286c9.537,2.525,18.039,6.664,23.939,11.653,5.93,5.015,8.528,10.3,7.317,14.873C705.552,342.676,702.317,345.506,697.152,347.253Z" transform="translate(-618.936 -296.007)" fill="#f0f0f0"/>
  <path id="Path_1963" data-name="Path 1963" d="M343.492,465.9c-11.131-4.937-19.709-11.342-24.152-18.035l.247-.164c4.413,6.647,12.945,13.014,24.026,17.928Z" transform="translate(-311.799 -412.671)" fill="#f0f0f0"/>
  <path id="Path_1964" data-name="Path 1964" d="M759.693,621.482q-1.722,0-3.5-.077l.013-.3c8.861.384,16.679-.677,22.611-3.067l.111.275C773.75,620.4,767.155,621.482,759.693,621.482Z" transform="translate(-688.863 -559.698)" fill="#f0f0f0"/>
  <path id="Path_1965" data-name="Path 1965" d="M503.682,265.682c-1.84-.6-3.732-1.157-5.625-1.658-10.89-2.883-21.6-3.907-30.958-2.96l-.03-.295c9.4-.95,20.14.076,31.064,2.968,1.9.5,3.8,1.062,5.641,1.662Z" transform="translate(-439.31 -251.024)" fill="#f0f0f0"/>
  <path id="Path_1966" data-name="Path 1966" d="M334.126,322.99c-4.539-4.468-6.456-9.13-5.4-13.126,1.358-5.128,7.389-8.674,16.547-9.728l.034.294c-9.031,1.039-14.97,4.505-16.294,9.509-1.03,3.889.86,8.449,5.32,12.839Z" transform="translate(-319.657 -285.3)" fill="#f0f0f0"/>
  <path id="Path_1967" data-name="Path 1967" d="M450.39,510.842a71.052,71.052,0,0,1-17.936-2.461,67.567,67.567,0,0,1-20.05-8.738l.165-.246a67.269,67.269,0,0,0,19.961,8.7,69.191,69.191,0,0,0,19.824,2.416l.011.3Q451.389,510.842,450.39,510.842Z" transform="translate(-392.128 -457.29)" fill="#f0f0f0"/>
  <path id="Path_1968" data-name="Path 1968" d="M646.318,350.5l-.095-.28c5.067-1.713,8.235-4.472,9.164-7.98,1.181-4.459-1.384-9.634-7.222-14.571-5.867-4.962-14.328-9.079-23.824-11.593l.076-.286c9.538,2.525,18.04,6.664,23.94,11.653,5.93,5.015,8.528,10.3,7.317,14.873C654.719,345.921,651.484,348.751,646.318,350.5Z" transform="translate(-575.06 -298.807)" fill="#f0f0f0"/>
  <path id="Path_1969" data-name="Path 1969" d="M292.659,469.147c-11.131-4.937-19.709-11.342-24.152-18.035l.247-.164c4.413,6.647,12.945,13.014,24.026,17.928Z" transform="translate(-267.923 -415.472)" fill="#f0f0f0"/>
  <path id="Path_1970" data-name="Path 1970" d="M708.861,624.727q-1.722,0-3.5-.077l.013-.3c8.861.384,16.679-.677,22.611-3.067l.111.275C722.918,623.646,716.323,624.727,708.861,624.727Z" transform="translate(-644.988 -562.498)" fill="#f0f0f0"/>
  <path id="Path_1971" data-name="Path 1971" d="M452.85,268.926c-1.84-.6-3.732-1.157-5.625-1.658-10.89-2.883-21.6-3.907-30.958-2.96l-.03-.295c9.4-.95,20.14.076,31.064,2.968,1.9.5,3.8,1.062,5.641,1.662Z" transform="translate(-395.435 -253.824)" fill="#f0f0f0"/>
  <path id="Path_1972" data-name="Path 1972" d="M448.22,462.691a2.3,2.3,0,0,0-2.294,2.294,107.81,107.81,0,0,0-.87,19.385c.017.413.037.791.059,1.156.033.6.074,1.239.123,1.891.028.385.058.771.09,1.155.054.626.114,1.263.178,1.892.04.384.081.77.126,1.155.085.755.181,1.53.294,2.367a2.3,2.3,0,0,0,2.295,2.3H486.7A2.3,2.3,0,0,0,489,494l0-.016c.171-.781.331-1.577.475-2.366.077-.416.143-.794.2-1.155.108-.657.2-1.294.285-1.891.056-.4.106-.79.149-1.155.072-.6.136-1.216.2-1.89.034-.366.065-.744.095-1.156h0A67.3,67.3,0,0,0,489,465l0-.016a2.3,2.3,0,0,0-2.294-2.294Z" transform="translate(-420.214 -425.607)" fill="#1f3751"/>
  <path id="Path_1973" data-name="Path 1973" d="M423.8,432.5a219.011,219.011,0,0,1-28.739-2.274h0a2.434,2.434,0,0,1-2.416-2.172,2.236,2.236,0,0,1-.015-.27V420.83a.355.355,0,0,1,0-.044,2.448,2.448,0,0,1,2.44-2.4c20.119-2.736,32.341-2.735,54.479,0h0a2.447,2.447,0,0,1,2.431,2.405.266.266,0,0,1,0,.037v6.957a2.235,2.235,0,0,1-.015.271,2.437,2.437,0,0,1-2.427,2.172A158.865,158.865,0,0,1,423.8,432.5Z" transform="translate(-375.055 -385.597)" fill="#ffc727"/>
  <path id="Path_1974" data-name="Path 1974" d="M582.939,423.2H577.88a2.432,2.432,0,0,1-2.429-2.429V402.391a2.432,2.432,0,0,1,2.429-2.429h5.059a2.432,2.432,0,0,1,2.429,2.429v18.381A2.432,2.432,0,0,1,582.939,423.2Z" transform="translate(-532.859 -371.463)" fill="#1f3751"/>
  <path id="Path_1975" data-name="Path 1975" d="M537.1,340.807a6.411,6.411,0,0,0-.193-1.02,6.61,6.61,0,0,0-.375-.976,5.746,5.746,0,0,0-2.587-2.686,6.9,6.9,0,0,0-4.543-.417,8.978,8.978,0,0,0-3.509,1.643,9.128,9.128,0,0,0-1.464,1.38,17.912,17.912,0,0,0-1.346,2.159,8.986,8.986,0,0,0-2-2.857,9.389,9.389,0,0,0-3.44-2.079,8.668,8.668,0,0,0-2.108-.429,6.709,6.709,0,0,0-2.262.2,5.7,5.7,0,0,0-3.225,2.357,5.947,5.947,0,0,0-1.007,3.627,6.1,6.1,0,0,0,.415,1.894,7.213,7.213,0,0,0,.453.951,7.4,7.4,0,0,0,.6.863,6.827,6.827,0,0,0,3.354,2.233,9.981,9.981,0,0,0,4.344.245,20.443,20.443,0,0,0,4.313-1.217c.187-.07.372-.143.558-.214a27.381,27.381,0,0,0,3.8,1.232,11.438,11.438,0,0,0,4.471.179,7.175,7.175,0,0,0,3.708-1.811,6.659,6.659,0,0,0,1.921-3.336A5.759,5.759,0,0,0,537.1,340.807Zm-19.275,5.657a9.971,9.971,0,0,1-2.418.014,7.5,7.5,0,0,1-1.682-.448,5.287,5.287,0,0,1-2.833-2.813,5.66,5.66,0,0,1-.343-1.246,5.156,5.156,0,0,1,0-1.144,5.387,5.387,0,0,1,.322-1.167,5.5,5.5,0,0,1,.6-1.033,5.194,5.194,0,0,1,.779-.782,4.744,4.744,0,0,1,.872-.511,5.33,5.33,0,0,1,1.141-.305,6.752,6.752,0,0,1,1.591.012,8.225,8.225,0,0,1,1.832.5,8.645,8.645,0,0,1,1.764,1.028,8.469,8.469,0,0,1,1.363,1.359,8.35,8.35,0,0,1,.992,1.709,8.656,8.656,0,0,1,.533,1.97v.01a8.978,8.978,0,0,0-.058,1.022c0,.132.006.263.013.394a.786.786,0,0,0-.154.208,24.886,24.886,0,0,1-3.164,1Q518.4,346.38,517.823,346.463Zm17.794-4.493a5.658,5.658,0,0,1-.343,1.247,5.258,5.258,0,0,1-2.833,2.813,7.507,7.507,0,0,1-1.682.448,9.972,9.972,0,0,1-2.423-.015,20.079,20.079,0,0,1-4.153-1.158l-.166-.063a.772.772,0,0,0-.148-.205,8.871,8.871,0,0,0-.044-1.429,8.658,8.658,0,0,1,.532-1.966,8.351,8.351,0,0,1,.992-1.709,8.464,8.464,0,0,1,1.363-1.359,8.644,8.644,0,0,1,1.764-1.028,8.225,8.225,0,0,1,1.832-.5,6.751,6.751,0,0,1,1.59-.012,5.33,5.33,0,0,1,1.141.305,4.738,4.738,0,0,1,.872.511,5.184,5.184,0,0,1,.779.782,5.5,5.5,0,0,1,.6,1.033,5.383,5.383,0,0,1,.322,1.167,5.163,5.163,0,0,1,0,1.144Z" transform="translate(-475.532 -315.825)" fill="#1f3751"/>
  <ellipse id="Ellipse_90" data-name="Ellipse 90" cx="0.888" cy="0.888" rx="0.888" ry="0.888" transform="translate(31.262 50.775)" fill="#fff" opacity="0.44"/>
  <ellipse id="Ellipse_91" data-name="Ellipse 91" cx="0.888" cy="0.888" rx="0.888" ry="0.888" transform="translate(37.627 48.555)" fill="#fff" opacity="0.44"/>
  <ellipse id="Ellipse_92" data-name="Ellipse 92" cx="0.888" cy="0.888" rx="0.888" ry="0.888" transform="translate(34.814 55.512)" fill="#fff" opacity="0.44"/>
  <ellipse id="Ellipse_93" data-name="Ellipse 93" cx="0.888" cy="0.888" rx="0.888" ry="0.888" transform="translate(61.161 50.775)" fill="#fff" opacity="0.44"/>
  <ellipse id="Ellipse_94" data-name="Ellipse 94" cx="0.888" cy="0.888" rx="0.888" ry="0.888" transform="translate(54.797 48.555)" fill="#fff" opacity="0.44"/>
  <ellipse id="Ellipse_95" data-name="Ellipse 95" cx="0.888" cy="0.888" rx="0.888" ry="0.888" transform="translate(57.609 55.512)" fill="#fff" opacity="0.44"/>
  <ellipse id="Ellipse_96" data-name="Ellipse 96" cx="0.888" cy="0.888" rx="0.888" ry="0.888" transform="translate(61.901 66.317)" fill="#fff" opacity="0.44"/>
  <ellipse id="Ellipse_97" data-name="Ellipse 97" cx="0.888" cy="0.888" rx="0.888" ry="0.888" transform="translate(64.122 59.952)" fill="#fff" opacity="0.44"/>
  <ellipse id="Ellipse_98" data-name="Ellipse 98" cx="0.888" cy="0.888" rx="0.888" ry="0.888" transform="translate(57.165 62.764)" fill="#fff" opacity="0.44"/>
  <ellipse id="Ellipse_99" data-name="Ellipse 99" cx="0.888" cy="0.888" rx="0.888" ry="0.888" transform="translate(36.443 66.317)" fill="#fff" opacity="0.44"/>
  <ellipse id="Ellipse_100" data-name="Ellipse 100" cx="0.888" cy="0.888" rx="0.888" ry="0.888" transform="translate(38.663 59.952)" fill="#fff" opacity="0.44"/>
  <ellipse id="Ellipse_101" data-name="Ellipse 101" cx="0.888" cy="0.888" rx="0.888" ry="0.888" transform="translate(31.706 62.764)" fill="#fff" opacity="0.44"/>
  <path id="Path_2961" data-name="Path 2961" d="M687.8,197.094a2.122,2.122,0,0,0,2.066-.243,4.213,4.213,0,0,0,1.268-2.445l.7-2.682-1.177.714a8.264,8.264,0,0,0-2.323,1.824,2.8,2.8,0,0,0-.517,2.777" transform="translate(-629.693 -191.724)" fill="#f2f2f2"/>
  <path id="Path_2961-2" data-name="Path 2961" d="M433.3,364.64a2.122,2.122,0,0,0,.332-2.054,4.213,4.213,0,0,0-2-1.889l-2.389-1.4.365,1.327a8.262,8.262,0,0,0,1.118,2.733,2.8,2.8,0,0,0,2.53,1.258" transform="translate(-406.662 -336.359)" fill="#f2f2f2"/>
  <path id="Path_2961-3" data-name="Path 2961" d="M843.21,666.392a2.122,2.122,0,0,0,.332-2.054,4.212,4.212,0,0,0-2-1.89l-2.389-1.4.365,1.327a8.263,8.263,0,0,0,1.118,2.733,2.8,2.8,0,0,0,2.529,1.258" transform="translate(-760.469 -596.814)" fill="#f2f2f2"/>
  <ellipse id="Ellipse_102" data-name="Ellipse 102" cx="1.184" cy="1.184" rx="1.184" ry="1.184" transform="translate(36.443 14.807)" fill="#ff9b15"/>
  <ellipse id="Ellipse_103" data-name="Ellipse 103" cx="1.184" cy="1.184" rx="1.184" ry="1.184" transform="translate(4.915 49.739)" fill="#ff9b15"/>
  <ellipse id="Ellipse_104" data-name="Ellipse 104" cx="1.184" cy="1.184" rx="1.184" ry="1.184" transform="translate(86.324 40.118)" fill="#ff9b15"/>
  <ellipse id="Ellipse_105" data-name="Ellipse 105" cx="1.184" cy="1.184" rx="1.184" ry="1.184" transform="translate(3.731 19.988)" fill="#e6e6e6"/>
  <ellipse id="Ellipse_106" data-name="Ellipse 106" cx="1.184" cy="1.184" rx="1.184" ry="1.184" transform="translate(76.999 53.735)" fill="#e6e6e6"/>
  <ellipse id="Ellipse_107" data-name="Ellipse 107" cx="1.184" cy="1.184" rx="1.184" ry="1.184" transform="translate(79.367 17.767)" fill="#e6e6e6"/>
  <path id="Path_1976" data-name="Path 1976" d="M458.437,462.381a.353.353,0,0,1-.49.037.394.394,0,0,1,0-.571c.423-.508,1.124.028,1.218.533a1.27,1.27,0,0,1-.6,1.264,1.367,1.367,0,0,1-1.526-.2,1.65,1.65,0,0,1,.332-2.663,2.308,2.308,0,0,1,2,.091,16.628,16.628,0,0,1,1.9,1.186,10.574,10.574,0,0,0,4.568,1.56c.284.029.282-.415,0-.444a10.158,10.158,0,0,1-2.625-.632,11.531,11.531,0,0,1-2.358-1.294,5.242,5.242,0,0,0-2.434-1.086,2.112,2.112,0,0,0-1.947.847,2.156,2.156,0,0,0-.324,1.892,2,2,0,0,0,1.522,1.311,1.633,1.633,0,0,0,1.721-.8,1.514,1.514,0,0,0-.183-1.853,1.178,1.178,0,0,0-1.145-.312,1.008,1.008,0,0,0-.681.867.8.8,0,0,0,1.439.487c.153-.242-.231-.465-.383-.224Z" transform="translate(-429.806 -423.412)" fill="#3f3d56"/>
  <path id="Path_1977" data-name="Path 1977" d="M702.909,462.381a.353.353,0,0,0,.49.037.394.394,0,0,0,0-.571c-.423-.508-1.124.028-1.218.533a1.27,1.27,0,0,0,.6,1.264,1.367,1.367,0,0,0,1.526-.2,1.65,1.65,0,0,0-.332-2.663,2.308,2.308,0,0,0-2,.091,16.639,16.639,0,0,0-1.9,1.186,10.574,10.574,0,0,1-4.568,1.56c-.284.029-.282-.415,0-.444a10.158,10.158,0,0,0,2.625-.632,11.532,11.532,0,0,0,2.358-1.294,5.243,5.243,0,0,1,2.434-1.086,2.111,2.111,0,0,1,1.947.847,2.156,2.156,0,0,1,.324,1.892,2,2,0,0,1-1.522,1.311,1.633,1.633,0,0,1-1.721-.8,1.514,1.514,0,0,1,.183-1.853,1.178,1.178,0,0,1,1.145-.312,1.008,1.008,0,0,1,.681.867.8.8,0,0,1-1.439.487c-.153-.242.231-.465.383-.224Z" transform="translate(-636.304 -423.412)" fill="#3f3d56"/>
  <path id="Path_1978" data-name="Path 1978" d="M79.513,31.589l-.587.736L76.852,31.1l.586-.736Z" transform="translate(-66.334 -26.207)" fill="#e4e4e4"/>
  <path id="Path_1979" data-name="Path 1979" d="M98.366,62.43l.518.773L96.7,64.287l-.518-.773Z" transform="translate(-83.023 -53.886)" fill="#e4e4e4"/>
  <path id="Path_1980" data-name="Path 1980" d="M127.942,37.872l1.035.037-.1,2.166-1.035-.037Z" transform="translate(-110.343 -32.689)" fill="#e4e4e4"/>
  <path id="Path_1981" data-name="Path 1981" d="M614.878,362.542l-.587.736-2.074-1.227.587-.736Z" transform="translate(-528.431 -311.867)" fill="#e4e4e4"/>
  <path id="Path_1982" data-name="Path 1982" d="M633.731,393.383l.518.773-2.179,1.084-.518-.773Z" transform="translate(-545.12 -339.546)" fill="#e4e4e4"/>
  <path id="Path_1983" data-name="Path 1983" d="M663.307,368.825l1.035.037-.1,2.166-1.035-.036Z" transform="translate(-572.44 -318.349)" fill="#e4e4e4"/>
</svg>
