<svg xmlns="http://www.w3.org/2000/svg" width="95.554" height="77.525" viewBox="0 0 95.554 77.525">
  <g id="noun_Car_For_Sell_1334929" data-name="noun_Car For Sell_1334929" transform="translate(0 -8)">
    <g id="Group_258" data-name="Group 258" transform="translate(0 8)">
      <path id="Path_3334" data-name="Path 3334" d="M95.631,53.966,77.71,51.55l-8.759-15.4A13.535,13.535,0,0,0,57.372,29.4H45.089a19.055,19.055,0,0,1-6.142,10.974l.906,10.169a.58.58,0,0,1-.6.6H26.362a.645.645,0,0,1-.6-.805l1.913-5.235c-.4,0-.906.1-1.309.1a18.343,18.343,0,0,1-7.048-1.41L16.6,51.349,4.816,53.866A2.919,2.919,0,0,0,2.5,56.786V73.8a2.922,2.922,0,0,0,2.92,2.92h7.048a13.231,13.231,0,0,0,26.379,0H61.7a13.231,13.231,0,0,0,26.379,0h7.048a2.922,2.922,0,0,0,2.92-2.92V56.886A2.771,2.771,0,0,0,95.631,53.966ZM25.657,82.661A6.947,6.947,0,1,1,32.6,75.714,6.835,6.835,0,0,1,25.657,82.661ZM48.31,50.644,47.2,38.361a.58.58,0,0,1,.6-.6h9.565a5.245,5.245,0,0,1,4.43,2.517l5.739,9.968a.63.63,0,0,1-.5.906H48.814A.476.476,0,0,1,48.31,50.644ZM74.991,82.661a6.947,6.947,0,1,1,6.947-6.947A6.961,6.961,0,0,1,74.991,82.661Z" transform="translate(-2.5 -11.378)" fill="#fff"/>
      <path id="Path_3335" data-name="Path 3335" d="M26.4,41.1A14.8,14.8,0,1,0,11.6,26.3,14.824,14.824,0,0,0,26.4,41.1ZM26,27.811c-3.121-1.108-4.732-2.819-4.732-5.235a4.4,4.4,0,0,1,3.423-4.329V16.635a.65.65,0,0,1,.6-.6H26.9a.65.65,0,0,1,.6.6v1.51a6.857,6.857,0,0,1,2.718,1.208.718.718,0,0,1,.1,1.108l-1.108,1.208c-.2.3-.6.3-1.007.1a3.1,3.1,0,0,0-1.913-.6c-.5,0-2.014.2-2.014,1.51,0,.4,0,1.309,2.618,2.316,1.309.5,4.43,1.611,4.43,4.933a4.567,4.567,0,0,1-3.927,4.631v1.51a.65.65,0,0,1-.6.6H25.192a.65.65,0,0,1-.6-.6V34.456a10.507,10.507,0,0,1-3.222-1.712.8.8,0,0,1-.1-1.108l1.108-1.108a.775.775,0,0,1,1.007-.1A5.5,5.5,0,0,0,26.2,31.636c2.014,0,2.014-1.208,2.014-1.611C28.414,29.22,28.213,28.616,26,27.811Z" transform="translate(-2.438 -11.5)" fill="#fff"/>
    </g>
  </g>
</svg>
