<svg xmlns="http://www.w3.org/2000/svg" width="62.104" height="79.139" viewBox="0 0 62.104 79.139">
  <g id="noun_Mortgage_739231" transform="translate(-15.009 -2)">
    <path id="Path_3325" data-name="Path 3325" d="M40.55,44.4h1.785a.852.852,0,0,0,.85-.85v-1.7a.852.852,0,0,0-.85-.85H40.55a.852.852,0,0,0-.85.85v1.7A.852.852,0,0,0,40.55,44.4Z" transform="translate(-3.396 -6.576)" fill="#fff"/>
    <path id="Path_3326" data-name="Path 3326" d="M34.75,44.4h1.785a.852.852,0,0,0,.85-.85v-1.7a.852.852,0,0,0-.85-.85H34.75a.852.852,0,0,0-.85.85v1.7A.852.852,0,0,0,34.75,44.4Z" transform="translate(-2.527 -6.576)" fill="#fff"/>
    <path id="Path_3327" data-name="Path 3327" d="M40.55,39.1h1.785a.852.852,0,0,0,.85-.85v-1.7a.852.852,0,0,0-.85-.85H40.55a.852.852,0,0,0-.85.85v1.7A.8.8,0,0,0,40.55,39.1Z" transform="translate(-3.396 -5.683)" fill="#fff"/>
    <path id="Path_3328" data-name="Path 3328" d="M34.75,39.1h1.785a.852.852,0,0,0,.85-.85v-1.7a.852.852,0,0,0-.85-.85H34.75a.852.852,0,0,0-.85.85v1.7A.8.8,0,0,0,34.75,39.1Z" transform="translate(-2.527 -5.683)" fill="#fff"/>
    <path id="Path_3329" data-name="Path 3329" d="M73.541,24.635l-.082-.333a2.827,2.827,0,0,0-.734-1.165L53.3,3a2.931,2.931,0,0,0-.816-.583l-1.061-.333L20.659,2A9.181,9.181,0,0,0,11.6,11.237V71.9a9.181,9.181,0,0,0,9.059,9.237H64.645A9.181,9.181,0,0,0,73.7,71.9V25.467ZM53.465,12.652,63.584,23.137h-7.59a2.568,2.568,0,0,1-2.53-2.58ZM21.556,31.958,20.414,30.21l13.465-9.237,13.71,9.237-1.143,1.748L43.835,30.21V42.776H24.249V30.044ZM64.89,70.9H52.567V67.824H64.89Zm0-8.072H41.958V59.752H64.89Zm0-7.739H41.958V52.013H64.89Z" transform="translate(3.409 0)" fill="#fff"/>
  </g>
</svg>
