<svg xmlns="http://www.w3.org/2000/svg" width="83.809" height="63.378" viewBox="0 0 83.809 63.378">
  <g id="noun_moving_house_3148624" data-name="noun_moving house_3148624" transform="translate(-1 -9.88)">
    <g id="Group_257" data-name="Group 257" transform="translate(1 9.88)">
      <g id="Group_256" data-name="Group 256">
        <path id="Path_3330" data-name="Path 3330" d="M49.228,25.333l-7.046-3.881v-8h.494a.762.762,0,0,0,.8-.725V10.6a.763.763,0,0,0-.8-.725H34.095a.762.762,0,0,0-.8.725v2.125a.763.763,0,0,0,.8.725h.494v3.815l-7.233-3.984a3.575,3.575,0,0,0-3.412,0L2.071,25.333A1.991,1.991,0,0,0,1,27.063a2.229,2.229,0,0,0,3.367,1.73L24.5,17.7a2.406,2.406,0,0,1,2.3,0L46.932,28.793a2.229,2.229,0,0,0,3.367-1.73h0A1.992,1.992,0,0,0,49.228,25.333Z" transform="translate(-1 -9.88)" fill="#fff"/>
        <g id="Group_255" data-name="Group 255" transform="translate(2.54 9.899)">
          <path id="Path_3331" data-name="Path 3331" d="M81.961,46.534l-5.219-2.406a4.548,4.548,0,0,1-1.346-.972L65.631,32.223a4.2,4.2,0,0,0-3.187-1.388H53.517a3.947,3.947,0,0,0-4.127,3.749V55.466H46.114C46.1,33.635,46.1,28.845,46.1,28.533L25.048,17.1,3.994,28.533V55.582h.317A1.887,1.887,0,0,0,2.94,57.34v3.32A1.98,1.98,0,0,0,5,62.535h8.33a8.863,8.863,0,0,1,2.3-4.824,10.852,10.852,0,0,1,9.625-3.1A9.658,9.658,0,0,1,33.4,62.488v.046H56.158a8.758,8.758,0,0,1,2.311-4.824,10.507,10.507,0,0,1,7.708-3.263,10.715,10.715,0,0,1,1.917.162,9.658,9.658,0,0,1,8.14,7.879v.046h3.86a3.943,3.943,0,0,0,4.114-3.748v-8.9A3.708,3.708,0,0,0,81.961,46.534ZM23.219,52.481H8.616V32.813a1.849,1.849,0,0,1,1.943-1.782h10.7a1.876,1.876,0,0,1,1.956,1.782V52.481ZM33.39,46.806a1.221,1.221,0,0,1-1.27,1.157h-3a1.221,1.221,0,0,1-1.27-1.157v-2.73a1.221,1.221,0,0,1,1.27-1.157h3a1.221,1.221,0,0,1,1.27,1.157Zm0-7.358a1.221,1.221,0,0,1-1.27,1.157h-3a1.221,1.221,0,0,1-1.27-1.157V36.706a1.221,1.221,0,0,1,1.27-1.157h3a1.221,1.221,0,0,1,1.27,1.157Zm8.089,7.358a1.221,1.221,0,0,1-1.27,1.157H37.2a1.221,1.221,0,0,1-1.27-1.157v-2.73a1.221,1.221,0,0,1,1.27-1.157h3.01a1.221,1.221,0,0,1,1.27,1.157Zm0-7.358a1.221,1.221,0,0,1-1.27,1.157H37.2a1.221,1.221,0,0,1-1.27-1.157V36.706a1.221,1.221,0,0,1,1.27-1.157h3.01a1.221,1.221,0,0,1,1.27,1.157ZM57.961,49.89h-3.5a1.162,1.162,0,1,1,0-2.314h3.5a1.162,1.162,0,1,1,0,2.314Zm-5.486-4.871V34.584a1,1,0,0,1,1.028-.937h8.94a1.052,1.052,0,0,1,.8.347l9.765,10.933c.038.035.076.058.114.093Z" transform="translate(-2.94 -17.102)" fill="#fff"/>
          <g id="Group_254" data-name="Group 254" transform="translate(12.837 39.653)">
            <path id="Path_3332" data-name="Path 3332" d="M60.562,52.055a7.243,7.243,0,0,0-6.1-5.9c-5.27-.891-9.79,3.216-8.9,8.017a7.286,7.286,0,0,0,6.4,5.623C57.031,60.4,61.171,56.648,60.562,52.055Zm-7.975,3.76a2.919,2.919,0,1,1,1.041-5.7,2.906,2.906,0,1,1-1.041,5.7Z" transform="translate(-2.619 -46.033)" fill="#fff"/>
            <path id="Path_3333" data-name="Path 3333" d="M27.842,52.055a7.243,7.243,0,0,0-6.082-5.9c-5.27-.891-9.8,3.216-8.9,8.017a7.286,7.286,0,0,0,6.4,5.623C24.324,60.4,28.464,56.648,27.842,52.055Zm-7.962,3.76a2.919,2.919,0,1,1,1.041-5.7,2.906,2.906,0,1,1-1.041,5.7Z" transform="translate(-12.743 -46.033)" fill="#fff"/>
          </g>
        </g>
      </g>
      <ellipse id="Ellipse_123" data-name="Ellipse 123" cx="1.27" cy="1.157" rx="1.27" ry="1.157" transform="translate(18.743 34.761)" fill="#fff"/>
    </g>
  </g>
</svg>
