<svg xmlns="http://www.w3.org/2000/svg" width="248.841" height="94.126" viewBox="0 0 248.841 94.126">
  <g id="Group_307" data-name="Group 307" transform="translate(-648.865 -121)">
    <g id="Small_town-pana" data-name="Small town-pana" transform="translate(735.358 121)">
      <g id="freepik--background-complete--inject-2" transform="translate(6.447)">
        <path id="Path_2561" data-name="Path 2561" d="M459.651,72.938s-.126-.032-.352-.078a2.806,2.806,0,0,0-.966-.025,2.612,2.612,0,0,0-1.293.567,2.688,2.688,0,0,0-.914,1.451v.016l-.055.215-.082-.2a2.9,2.9,0,0,0-1.092-1.323,2.844,2.844,0,0,0-1.337-.457,3.736,3.736,0,0,0-1.309.167,1.033,1.033,0,0,1,.331-.144,2.789,2.789,0,0,1,.982-.114,2.853,2.853,0,0,1,1.4.457,2.985,2.985,0,0,1,1.156,1.371h-.139V74.82a2.786,2.786,0,0,1,.969-1.524,2.682,2.682,0,0,1,2.358-.491,1.128,1.128,0,0,1,.34.132Z" transform="translate(-359.396 -68.032)" fill="#e0e0e0"/>
        <path id="Path_2562" data-name="Path 2562" d="M364.843,78.89a4.628,4.628,0,0,1-.322.37,8.425,8.425,0,0,0-.786,1.069,7.785,7.785,0,0,0-1.168,4.145v.053h-.144a6.971,6.971,0,0,0-1.91-3.784,9.717,9.717,0,0,0-1.394-1.131.522.522,0,0,1,.114.053c.071.041.183.094.313.181a6.192,6.192,0,0,1,1.04.827,6.855,6.855,0,0,1,1.979,3.855h-.144v-.053a7.633,7.633,0,0,1,1.227-4.188,6.836,6.836,0,0,1,.832-1.051c.107-.117.2-.2.263-.254A.473.473,0,0,1,364.843,78.89Z" transform="translate(-287.544 -72.796)" fill="#e0e0e0"/>
        <path id="Path_2563" data-name="Path 2563" d="M154.83,115.4c.279-2.02-2.575-3.683-4.716-3.854a12.1,12.1,0,0,1-3.053-.265c-2.1-.731-2.936-3.441-4.983-4.3-1.531-.644-3.292-.071-4.775.685s-2.95,1.686-4.606,1.794c-1.442.091-3.007-.443-4.268.26-.941.526-1.433,1.6-2.3,2.248a5.329,5.329,0,0,1-3,.813,8.461,8.461,0,0,0-3.1.507,2.448,2.448,0,0,0-1.551,2.484Z" transform="translate(-101.86 -94.251)" fill="#f5f5f5"/>
        <path id="Path_2564" data-name="Path 2564" d="M435,201.547s-.046-.021-.133-.066l-.384-.2L433,200.5l-5.566-2.938-19.279-10.22h.053l-12.74,6.375-4.636,2.319-.023.011h-.023l-19.7-6.3h.037l-12.231,6.059-3.393,1.67-.891.434c-.2.1-.308.144-.308.144l.3-.158.884-.457,3.379-1.7,12.212-6.1h.037l19.7,6.274h-.043l4.636-2.319,12.742-6.366.025-.014.025.014L427.465,197.5l5.55,2.97,1.478.8.379.208C434.956,201.519,435,201.547,435,201.547Z" transform="translate(-283.826 -156.383)" fill="#e0e0e0"/>
        <path id="Path_2565" data-name="Path 2565" d="M427.82,198.04l2.047,1.332-1.3.242,6.5,2.054-3.311-.139,3.233,2.017-.955.354,2.717,1.353L441.042,203l.142,1.725,6.338-.4Z" transform="translate(-340.548 -164.723)" fill="#e0e0e0"/>
        <path id="Path_2566" data-name="Path 2566" d="M590.11,187.51l.386,2.9,2.849.119-.882.656,4.179,1.481-1.257,2.719,21.546,6.377Z" transform="translate(-465.757 -156.599)" fill="#e0e0e0"/>
        <path id="Path_2567" data-name="Path 2567" d="M256.928,56.584c.139-1.012-1.291-1.846-2.367-1.933a6.068,6.068,0,0,1-1.529-.133c-1.053-.368-1.474-1.725-2.5-2.159a2.942,2.942,0,0,0-2.394.34,6.234,6.234,0,0,1-2.31.9c-.724.046-1.508-.228-2.141.13-.471.265-.717.807-1.142,1.126a2.69,2.69,0,0,1-1.508.409,4.227,4.227,0,0,0-1.554.254,1.228,1.228,0,0,0-.777,1.248Z" transform="translate(-194.632 -52.22)" fill="#ebebeb"/>
        <path id="Path_2568" data-name="Path 2568" d="M61.107,218.868c.117-.848-1.078-1.545-1.979-1.615a5.155,5.155,0,0,1-1.277-.112c-.88-.306-1.232-1.442-2.091-1.8a2.463,2.463,0,0,0-2,.283,5.326,5.326,0,0,1-1.931.752c-.6.039-1.261-.185-1.789.11-.4.228-.6.674-.964.944a2.3,2.3,0,0,1-1.259.34,3.535,3.535,0,0,0-1.3.212,1.027,1.027,0,0,0-.651,1.042Z" transform="translate(-45.855 -177.976)" fill="#ebebeb"/>
        <path id="Path_2569" data-name="Path 2569" d="M60.838,78.388c.105-.772-.985-1.407-1.8-1.474a4.7,4.7,0,0,1-1.165-.1c-.8-.279-1.122-1.314-1.9-1.645a2.245,2.245,0,0,0-1.828.258,4.806,4.806,0,0,1-1.762.685c-.551.034-1.142-.169-1.629.1-.359.2-.548.612-.88.857a2.056,2.056,0,0,1-1.142.311,3.268,3.268,0,0,0-1.184.194.936.936,0,0,0-.592.95Z" transform="translate(-46.691 -69.843)" fill="#f5f5f5"/>
        <path id="Path_2570" data-name="Path 2570" d="M633.287,74.228c.117-.848-1.078-1.545-1.976-1.618a5.056,5.056,0,0,1-1.28-.11c-.88-.306-1.231-1.442-2.088-1.805a2.462,2.462,0,0,0-2,.283,5.273,5.273,0,0,1-1.933.752c-.6.039-1.259-.185-1.789.11-.393.228-.6.685-.964.941a2.3,2.3,0,0,1-1.259.343,3.49,3.49,0,0,0-1.3.212,1.027,1.027,0,0,0-.651,1.042Z" transform="translate(-487.302 -66.384)" fill="#ebebeb"/>
        <path id="Path_2571" data-name="Path 2571" d="M542.068,129.283c.162-1.174-1.494-2.139-2.742-2.239a7.13,7.13,0,0,1-1.771-.153c-1.218-.425-1.7-2-2.893-2.5a3.408,3.408,0,0,0-2.774.391,7.277,7.277,0,0,1-2.675,1.042c-.836.053-1.746-.256-2.477.153-.546.3-.832.932-1.337,1.3a3.181,3.181,0,0,1-1.743.475,4.984,4.984,0,0,0-1.8.292,1.421,1.421,0,0,0-.9,1.444Z" transform="translate(-412.392 -107.776)" fill="#f5f5f5"/>
      </g>
      <g id="freepik--Floor--inject-2" transform="translate(3.282 93.993)">
        <path id="Path_2572" data-name="Path 2572" d="M186.12,463.659c0,.032-34.5.059-77.051.059S32,463.691,32,463.659s34.5-.059,77.06-.059S186.12,463.625,186.12,463.659Z" transform="translate(-32 -463.6)" fill="#263238"/>
      </g>
      <g id="freepik--Buildings--inject-2" transform="translate(15.638 2.271)">
        <path id="Path_2573" data-name="Path 2573" d="M259,309.221c7.483-.187,21.1-13.423,28.56-12.635,5.42.576,9.256,7,14.662,7.718,3.569.473,7.243-1.661,10.7-.532,4.158,1.357,6.365,6.9,10.455,8.511,3.779,1.485,7.979-.827,11.906.027,6.025,1.309,9.457,9.468,15.471,10.848,2.25.514,4.6,0,6.868.393,4.615.816,8.335,5.9,8.207,11.214h-104.4Z" transform="translate(-219.491 -242.997)" fill="#455a64"/>
        <path id="Path_2574" data-name="Path 2574" d="M604.955,308.54c-.13.064-3.635,1.883-3.635,1.883l.715.875,3.114-2.4Z" transform="translate(-483.597 -252.247)" fill="#263238"/>
        <path id="Path_2575" data-name="Path 2575" d="M609.713,312.92c-.105.1-2.893,2.9-2.893,2.9l.946.617,2.242-3.233Z" transform="translate(-487.84 -255.626)" fill="#263238"/>
        <path id="Path_2576" data-name="Path 2576" d="M601.678,304.13c-.146.016-3.978.2-3.978.2l.276,1.357,3.759-1.158Z" transform="translate(-480.804 -248.844)" fill="#263238"/>
        <path id="Path_2577" data-name="Path 2577" d="M602.081,296.328c-.144-.025-3.873-.928-3.873-.928l-.119,1.371,3.932-.05Z" transform="translate(-481.105 -242.109)" fill="#263238"/>
        <path id="Path_2578" data-name="Path 2578" d="M605.854,286.993c-.114-.089-2.97-2.644-2.97-2.644l-.754,1.163,3.494,1.807Z" transform="translate(-484.222 -233.583)" fill="#263238"/>
        <path id="Path_2579" data-name="Path 2579" d="M613.513,281.422c-.055-.135-1.275-3.772-1.275-3.772l-1.238.633,2.134,3.3Z" transform="translate(-491.065 -228.414)" fill="#263238"/>
        <path id="Path_2580" data-name="Path 2580" d="M624.61,280.364c.016-.144.615-3.935.615-3.935H623.84l.366,3.916Z" transform="translate(-500.971 -227.473)" fill="#263238"/>
        <path id="Path_2581" data-name="Path 2581" d="M627.75,296.42l10.631-2.18.192,4.878-10.791-1.83Z" transform="translate(-503.988 -241.214)" fill="#263238"/>
        <path id="Path_2582" data-name="Path 2582" d="M624.84,301.12a1.06,1.06,0,1,1-1.06-1.06A1.06,1.06,0,0,1,624.84,301.12Z" transform="translate(-500.107 -245.704)" fill="#263238"/>
        <path id="Path_2583" data-name="Path 2583" d="M610.249,349.6c-.057,0,.651-7.595,1.579-16.949s1.727-16.935,1.784-16.931-.651,7.595-1.579,16.951S610.306,349.613,610.249,349.6Z" transform="translate(-490.483 -257.786)" fill="#263238"/>
        <path id="Path_2584" data-name="Path 2584" d="M634.93,348.637s-1.039-8.28-1.965-17.447-1.634-16.606-1.577-16.611.852,7.421,1.78,16.59S634.93,348.583,634.93,348.637Z" transform="translate(-506.793 -256.906)" fill="#263238"/>
        <path id="Path_2585" data-name="Path 2585" d="M624.226,367.913a16.3,16.3,0,0,1-3.656,0,8.2,8.2,0,0,1,1.828-.1A8.041,8.041,0,0,1,624.226,367.913Z" transform="translate(-498.449 -297.974)" fill="#263238"/>
        <path id="Path_2586" data-name="Path 2586" d="M621.962,404.331a34.768,34.768,0,0,1-5.342,0,17.561,17.561,0,0,1,2.671-.1A17.923,17.923,0,0,1,621.962,404.331Z" transform="translate(-495.401 -326.073)" fill="#263238"/>
        <path id="Path_2587" data-name="Path 2587" d="M619.8,441.443a63.871,63.871,0,0,1-7.245,0,31.924,31.924,0,0,1,3.624-.1A32.509,32.509,0,0,1,619.8,441.443Z" transform="translate(-492.261 -354.704)" fill="#263238"/>
        <path id="Path_2588" data-name="Path 2588" d="M627.717,307.55c.057,0,.171,7.848.254,17.529s.1,17.531.046,17.531-.169-7.846-.251-17.531S627.662,307.55,627.717,307.55Z" transform="translate(-503.939 -251.483)" fill="#263238"/>
        <path id="Path_2589" data-name="Path 2589" d="M614.89,288.564a.486.486,0,0,1,0-.08,1.105,1.105,0,0,0-.018-.228v-.174a1.557,1.557,0,0,0-.034-.208,3.236,3.236,0,0,0-.105-.512,4.8,4.8,0,0,0-.553-1.321,4.944,4.944,0,0,0-5.941-2.107,5.935,5.935,0,0,0-.644.283,5.545,5.545,0,0,0-.606.391,6.041,6.041,0,0,0-.56.475,5.875,5.875,0,0,0-.482.574,4.72,4.72,0,0,0-.706,1.359,4.9,4.9,0,0,0,0,3.112,4.765,4.765,0,0,0,.706,1.371,5.526,5.526,0,0,0,.482.571,6.047,6.047,0,0,0,.56.478,5.332,5.332,0,0,0,.606.388,5.155,5.155,0,0,0,.644.283,4.954,4.954,0,0,0,5.941-2.107,4.82,4.82,0,0,0,.553-1.318,3.282,3.282,0,0,0,.105-.514,1.353,1.353,0,0,1,.034-.208,1.1,1.1,0,0,0,0-.174l.018-.228a.441.441,0,0,1,0-.082.475.475,0,0,1,0,.082v.4a1.955,1.955,0,0,1-.028.21,3.839,3.839,0,0,1-.1.519,4.683,4.683,0,0,1-.544,1.339,5,5,0,0,1-6.018,2.166,5.4,5.4,0,0,1-.658-.288,5.218,5.218,0,0,1-.617-.4,5.414,5.414,0,0,1-.571-.484,5.533,5.533,0,0,1-.5-.583,4.877,4.877,0,0,1-.72-1.387,4.985,4.985,0,0,1,0-3.18,4.84,4.84,0,0,1,.72-1.385,5.587,5.587,0,0,1,.5-.585,5.709,5.709,0,0,1,.571-.484,5.541,5.541,0,0,1,.617-.4,5.367,5.367,0,0,1,.658-.286,5,5,0,0,1,4.752.733,4.929,4.929,0,0,1,1.266,1.433,4.668,4.668,0,0,1,.544,1.337,3.84,3.84,0,0,1,.1.519,1.737,1.737,0,0,0,.028.21v.4A.457.457,0,0,1,614.89,288.564Z" transform="translate(-486.344 -232.97)" fill="#263238"/>
        <path id="Path_2590" data-name="Path 2590" d="M634.656,288.946c.16.021,3.743-1.049,3.743-1.049l-1.012-1.757-2.847,2.481Z" transform="translate(-509.226 -234.965)" fill="#263238"/>
        <path id="Path_2591" data-name="Path 2591" d="M630.4,281.655c.105-.1,3.087-2.792,3.087-2.792l-1.41-1.083-1.972,3.74Z" transform="translate(-505.809 -228.515)" fill="#263238"/>
        <path id="Path_2592" data-name="Path 2592" d="M636.727,299.07c.144-.016,3.978-.2,3.978-.2l-.276-1.357-3.758,1.158Z" transform="translate(-510.87 -243.737)" fill="#263238"/>
        <path id="Path_2593" data-name="Path 2593" d="M636.14,308.948c.142.032,3.827,1.1,3.827,1.1l.183-1.371-3.932-.128Z" transform="translate(-510.461 -252.254)" fill="#263238"/>
        <path id="Path_2594" data-name="Path 2594" d="M633.79,313.137c.112.089,2.97,2.644,2.97,2.644l.756-1.163-3.493-1.807Z" transform="translate(-508.648 -255.541)" fill="#263238"/>
        <path id="Path_2595" data-name="Path 2595" d="M630.11,314.444c.053.135,1.273,3.772,1.273,3.772l1.234-.633-2.136-3.3Z" transform="translate(-505.809 -256.675)" fill="#263238"/>
        <path id="Path_2596" data-name="Path 2596" d="M620.176,314.58c-.03.142-1.055,3.839-1.055,3.839l1.371.164.078-3.932Z" transform="translate(-497.33 -256.906)" fill="#263238"/>
        <path id="Path_2597" data-name="Path 2597" d="M496.962,341.308l-6.656-10.588-7,9.953v20.451h13.652Z" transform="translate(-392.55 -269.359)" fill="#ebebeb"/>
        <path id="Path_2598" data-name="Path 2598" d="M496.962,341.308l-6.656-10.588-7,9.953v20.451h13.652Z" transform="translate(-392.55 -269.359)" opacity="0.3"/>
        <path id="Path_2599" data-name="Path 2599" d="M513.93,330.72h21.6l6.761,10.931h-6.347l-4.375-7.291-4.547,6.948h-6.434Z" transform="translate(-416.174 -269.359)" fill="#ff921a"/>
        <rect id="Rectangle_1234" data-name="Rectangle 1234" width="1.193" height="3.162" transform="translate(99.593 75.564)" fill="#263238"/>
        <rect id="Rectangle_1235" data-name="Rectangle 1235" width="1.193" height="3.162" transform="translate(94.338 75.564)" fill="#263238"/>
        <rect id="Rectangle_1236" data-name="Rectangle 1236" width="1.193" height="3.162" transform="translate(99.593 83.375)" fill="#263238"/>
        <rect id="Rectangle_1237" data-name="Rectangle 1237" width="1.193" height="3.162" transform="translate(94.338 83.375)" fill="#263238"/>
        <path id="Path_2600" data-name="Path 2600" d="M538.174,334.577c0,.018-4.816.034-10.757.034s-10.757-.016-10.757-.034,4.814-.037,10.757-.037S538.174,334.556,538.174,334.577Z" transform="translate(-418.28 -272.306)" fill="#263238"/>
        <path id="Path_2601" data-name="Path 2601" d="M540.864,338.954c0,.02-4.816.037-10.755.037s-10.759-.016-10.759-.037,4.816-.034,10.759-.034S540.864,338.938,540.864,338.954Z" transform="translate(-420.355 -275.685)" fill="#263238"/>
        <path id="Path_2602" data-name="Path 2602" d="M543.754,343.617c0,.018-4.816.034-10.757.034s-10.757-.016-10.757-.034,4.816-.037,10.757-.037S543.754,343.6,543.754,343.617Z" transform="translate(-422.585 -279.281)" fill="#263238"/>
        <path id="Path_2603" data-name="Path 2603" d="M546.644,348.276c0,.018-4.816.034-10.757.034s-10.757-.016-10.757-.034,4.814-.036,10.757-.036S546.644,348.256,546.644,348.276Z" transform="translate(-424.815 -282.876)" fill="#263238"/>
        <path id="Path_2604" data-name="Path 2604" d="M549.526,352.936c0,.021-4.819.037-10.757.037s-10.759-.016-10.759-.037,4.816-.037,10.759-.037S549.526,352.923,549.526,352.936Z" transform="translate(-427.037 -286.471)" fill="#263238"/>
        <path id="Path_2605" data-name="Path 2605" d="M552.414,357.6c0,.021-4.816.037-10.757.037s-10.757-.016-10.757-.037,4.816-.037,10.757-.037S552.414,357.576,552.414,357.6Z" transform="translate(-429.266 -290.066)" fill="#263238"/>
        <path id="Path_2606" data-name="Path 2606" d="M555.354,362.264c0,.021-4.816.037-10.757.037s-10.757-.016-10.757-.037,4.814-.034,10.757-.034S555.354,362.246,555.354,362.264Z" transform="translate(-431.535 -293.669)" fill="#263238"/>
        <path id="Path_2607" data-name="Path 2607" d="M558.186,366.884c0,.021-4.816.037-10.757.037s-10.759-.016-10.759-.037,4.816-.034,10.759-.034S558.186,366.884,558.186,366.884Z" transform="translate(-433.718 -297.234)" fill="#263238"/>
        <path id="Path_2608" data-name="Path 2608" d="M561.074,371.586c0,.018-4.816.034-10.757.034s-10.757-.016-10.757-.034,4.816-.037,10.757-.037S561.074,371.566,561.074,371.586Z" transform="translate(-435.948 -300.86)" fill="#263238"/>
        <path id="Path_2609" data-name="Path 2609" d="M563.964,376.247c0,.018-4.817.034-10.757.034s-10.757-.016-10.757-.034,4.814-.037,10.757-.037S563.964,376.226,563.964,376.247Z" transform="translate(-438.178 -304.455)" fill="#263238"/>
        <path id="Path_2610" data-name="Path 2610" d="M564.764,373.414V353.941h-6.347l-4.375-7.291-4.547,6.948H543.06v19.816Z" transform="translate(-438.648 -281.649)" fill="#ebebeb"/>
        <path id="Path_2611" data-name="Path 2611" d="M560.676,346.65l-9.016.142L556.1,353.6Z" transform="translate(-445.283 -281.649)" opacity="0.3"/>
        <rect id="Rectangle_1238" data-name="Rectangle 1238" width="1.193" height="3.162" transform="translate(114.668 69.155)" fill="#263238"/>
        <rect id="Rectangle_1239" data-name="Rectangle 1239" width="1.193" height="3.162" transform="translate(96.771 68.218)" fill="#263238"/>
        <rect id="Rectangle_1240" data-name="Rectangle 1240" width="1.193" height="3.162" transform="translate(108.735 75.564)" fill="#263238"/>
        <rect id="Rectangle_1241" data-name="Rectangle 1241" width="1.193" height="3.162" transform="translate(114.618 75.564)" fill="#263238"/>
        <rect id="Rectangle_1242" data-name="Rectangle 1242" width="1.193" height="3.162" transform="translate(120.504 75.564)" fill="#263238"/>
        <rect id="Rectangle_1243" data-name="Rectangle 1243" width="1.193" height="3.162" transform="translate(108.732 83.666)" fill="#263238"/>
        <rect id="Rectangle_1244" data-name="Rectangle 1244" width="1.193" height="3.162" transform="translate(114.616 83.666)" fill="#263238"/>
        <rect id="Rectangle_1245" data-name="Rectangle 1245" width="1.193" height="3.162" transform="translate(120.501 83.666)" fill="#263238"/>
        <path id="Path_2612" data-name="Path 2612" d="M518.665,415.519c0,.034-7.915.059-17.678.059s-17.678-.025-17.678-.059,7.912-.059,17.678-.059S518.665,415.487,518.665,415.519Z" transform="translate(-392.55 -334.737)" fill="#263238"/>
        <path id="Path_2613" data-name="Path 2613" d="M483.179,360.786a.824.824,0,0,1,0-.1v-1.414c0-.987,0-2.422-.016-4.232,0-3.626-.014-8.751-.023-14.762v-.016l.011-.016,6.891-9.811.1-.144.05-.073.048.075c2.36,3.756,4.609,7.334,6.654,10.592v.027c0,5.822-.016,10.775-.021,14.276,0,1.748-.011,3.13-.016,4.083v1.362a.745.745,0,0,1,0,.1s0-.032,0-.1v-1.362c0-.953,0-2.335-.016-4.083,0-3.5-.014-8.454-.023-14.276v.03l-6.66-10.588h.1l-.1.144-6.9,9.806.011-.032c0,6.011-.016,11.136-.023,14.762,0,1.81-.011,3.244-.016,4.232v1.414A.151.151,0,0,1,483.179,360.786Z" transform="translate(-392.419 -268.973)" fill="#263238"/>
        <path id="Path_2614" data-name="Path 2614" d="M637.849,398.066c-.032,0-.059-4.371-.059-9.763s.028-9.763.059-9.763.059,4.371.059,9.763S637.881,398.066,637.849,398.066Z" transform="translate(-511.734 -306.253)" fill="#263238"/>
        <path id="Path_2615" data-name="Path 2615" d="M224.284,250.08l-6.658-10.59-7,9.955v20.449h13.654Z" transform="translate(-182.173 -198.973)" fill="#ebebeb"/>
        <path id="Path_2616" data-name="Path 2616" d="M224.284,250.08l-6.658-10.59-7,9.955v20.449h13.654Z" transform="translate(-182.173 -198.973)" opacity="0.3"/>
        <path id="Path_2617" data-name="Path 2617" d="M241.25,239.49h21.6l6.761,10.933h-6.347l-4.375-7.291-4.545,6.948h-6.434Z" transform="translate(-205.796 -198.973)" fill="#ff921a"/>
        <rect id="Rectangle_1246" data-name="Rectangle 1246" width="1.193" height="3.162" transform="translate(37.291 54.721)" fill="#263238"/>
        <rect id="Rectangle_1247" data-name="Rectangle 1247" width="1.193" height="3.162" transform="translate(32.038 54.721)" fill="#263238"/>
        <rect id="Rectangle_1248" data-name="Rectangle 1248" width="1.193" height="3.162" transform="translate(37.291 62.533)" fill="#263238"/>
        <rect id="Rectangle_1249" data-name="Rectangle 1249" width="1.193" height="3.162" transform="translate(32.038 62.533)" fill="#263238"/>
        <path id="Path_2618" data-name="Path 2618" d="M265.494,243.346c0,.018-4.816.034-10.757.034s-10.757-.016-10.757-.034,4.816-.037,10.757-.037S265.494,243.326,265.494,243.346Z" transform="translate(-207.903 -201.92)" fill="#263238"/>
        <path id="Path_2619" data-name="Path 2619" d="M268.194,247.727c0,.018-4.816.034-10.757.034s-10.757-.016-10.757-.034,4.814-.037,10.757-.037S268.194,247.706,268.194,247.727Z" transform="translate(-209.986 -205.3)" fill="#263238"/>
        <path id="Path_2620" data-name="Path 2620" d="M271.074,252.387c0,.021-4.816.037-10.755.037s-10.759-.016-10.759-.037,4.816-.037,10.759-.037S271.074,252.366,271.074,252.387Z" transform="translate(-212.208 -208.895)" fill="#263238"/>
        <path id="Path_2621" data-name="Path 2621" d="M273.964,257.054c0,.021-4.816.037-10.757.037s-10.757-.016-10.757-.037,4.816-.034,10.757-.034S273.964,257.036,273.964,257.054Z" transform="translate(-214.437 -212.498)" fill="#263238"/>
        <path id="Path_2622" data-name="Path 2622" d="M276.854,261.714c0,.021-4.816.037-10.757.037s-10.757-.016-10.757-.037,4.814-.034,10.757-.034S276.854,261.7,276.854,261.714Z" transform="translate(-216.667 -216.093)" fill="#263238"/>
        <path id="Path_2623" data-name="Path 2623" d="M279.736,266.374c0,.021-4.816.036-10.757.036s-10.759-.016-10.759-.036,4.816-.034,10.759-.034S279.736,266.356,279.736,266.374Z" transform="translate(-218.889 -219.689)" fill="#263238"/>
        <path id="Path_2624" data-name="Path 2624" d="M282.624,271.036c0,.018-4.816.034-10.757.034s-10.757-.016-10.757-.034,4.816-.036,10.757-.036S282.624,271.016,282.624,271.036Z" transform="translate(-221.119 -223.284)" fill="#263238"/>
        <path id="Path_2625" data-name="Path 2625" d="M285.514,275.7c0,.018-4.816.034-10.757.034S264,275.715,264,275.7s4.814-.037,10.757-.037S285.514,275.676,285.514,275.7Z" transform="translate(-223.348 -226.879)" fill="#263238"/>
        <path id="Path_2626" data-name="Path 2626" d="M288.4,280.357c0,.021-4.816.036-10.757.036s-10.759-.016-10.759-.036,4.816-.037,10.759-.037S288.4,280.336,288.4,280.357Z" transform="translate(-225.57 -230.474)" fill="#263238"/>
        <path id="Path_2627" data-name="Path 2627" d="M291.284,285.017c0,.021-4.816.037-10.757.037s-10.757-.016-10.757-.037,4.816-.037,10.757-.037S291.284,285,291.284,285.017Z" transform="translate(-227.8 -234.07)" fill="#263238"/>
        <path id="Path_2628" data-name="Path 2628" d="M291.55,282.192c0-.343.053-19.448.053-19.448l-5.865-.023-4.375-7.291-4.544,6.948H270.39v19.814Z" transform="translate(-228.278 -211.271)" fill="#ebebeb"/>
        <path id="Path_2629" data-name="Path 2629" d="M288,255.43l-9.014.139,4.442,6.809Z" transform="translate(-234.914 -211.271)" opacity="0.3"/>
        <rect id="Rectangle_1250" data-name="Rectangle 1250" width="1.193" height="3.162" transform="translate(52.366 48.31)" fill="#263238"/>
        <rect id="Rectangle_1251" data-name="Rectangle 1251" width="1.193" height="3.162" transform="translate(34.469 47.373)" fill="#263238"/>
        <rect id="Rectangle_1252" data-name="Rectangle 1252" width="1.193" height="3.162" transform="translate(46.432 54.721)" fill="#263238"/>
        <rect id="Rectangle_1253" data-name="Rectangle 1253" width="1.193" height="3.162" transform="translate(52.318 54.721)" fill="#263238"/>
        <rect id="Rectangle_1254" data-name="Rectangle 1254" width="1.193" height="3.162" transform="translate(58.201 54.721)" fill="#263238"/>
        <rect id="Rectangle_1255" data-name="Rectangle 1255" width="1.193" height="3.162" transform="translate(46.43 62.821)" fill="#263238"/>
        <rect id="Rectangle_1256" data-name="Rectangle 1256" width="1.193" height="3.162" transform="translate(52.316 62.821)" fill="#263238"/>
        <rect id="Rectangle_1257" data-name="Rectangle 1257" width="1.193" height="3.162" transform="translate(58.199 62.821)" fill="#263238"/>
        <path id="Path_2630" data-name="Path 2630" d="M245.732,324.3c0,.032-7.857.059-17.55.059s-17.552-.027-17.552-.059,7.857-.059,17.552-.059S245.732,324.265,245.732,324.3Z" transform="translate(-182.173 -264.359)" fill="#263238"/>
        <path id="Path_2631" data-name="Path 2631" d="M224.159,269.517v-1.451c0-.946,0-2.324-.016-4.062,0-3.484-.014-8.413-.023-14.209v.03l-6.667-10.672h.1l-.087.121-6.914,9.921v-.032c0,5.97-.016,11.059-.021,14.659,0,1.8-.014,3.219-.016,4.2v0c0-.98,0-2.4-.016-4.2,0-3.6,0-8.682-.021-14.659v-.032l6.909-9.923.085-.123.05-.073.048.075,6.647,10.677v.03c0,5.8-.016,10.725-.021,14.209,0,1.739-.011,3.117-.016,4.062v1.357A.748.748,0,0,1,224.159,269.517Z" transform="translate(-182.057 -198.603)" fill="#263238"/>
        <path id="Path_2632" data-name="Path 2632" d="M363.059,287.44c.034,0,.059,4.316.059,9.635s-.025,9.637-.059,9.637S363,302.4,363,297.075,363.027,287.44,363.059,287.44Z" transform="translate(-299.729 -235.968)" fill="#263238"/>
        <rect id="Rectangle_1258" data-name="Rectangle 1258" width="19.7" height="61.718" transform="translate(11.415 30.013)" fill="#e0e0e0"/>
        <path id="Path_2633" data-name="Path 2633" d="M243.5,321.51H222.26v12.621h26.78Z" transform="translate(-191.145 -262.253)" fill="#455a64"/>
        <rect id="Rectangle_1259" data-name="Rectangle 1259" width="24.626" height="19.855" transform="translate(31.115 71.878)" fill="#e0e0e0"/>
        <path id="Path_2634" data-name="Path 2634" d="M172.26,254.31h2.548v-4.615a1.275,1.275,0,0,0-1.275-1.275h0a1.275,1.275,0,0,0-1.273,1.275Z" transform="translate(-152.569 -205.863)" fill="#fff"/>
        <path id="Path_2635" data-name="Path 2635" d="M172.178,254.059a.85.85,0,0,1,0-.151v-.457c0-.414-.011-.987-.021-1.691v-1.832a6.143,6.143,0,0,1,.016-.7,1.33,1.33,0,0,1,2.644.249v2.161c0,.9,0,1.723-.011,2.422v.046h-.043l-1.876-.023-.5-.011a.822.822,0,0,1-.169,0h.185l.512-.011,1.851-.023-.043.043c0-.7,0-1.519-.011-2.422v-2.161a1.238,1.238,0,0,0-.194-.685,1.216,1.216,0,0,0-2.223.457,6.693,6.693,0,0,0-.018.685v1.81c0,.7-.016,1.279-.021,1.693v.457A.163.163,0,0,1,172.178,254.059Z" transform="translate(-152.488 -205.611)" fill="#263238"/>
        <path id="Path_2636" data-name="Path 2636" d="M142.163,62.16,131.21,92.173h21.617Z" transform="translate(-120.899 -62.16)" fill="#455a64"/>
        <path id="Path_2637" data-name="Path 2637" d="M156.859,172.929c0,.034-4.088.059-9.139.059s-9.139-.025-9.139-.059,4.088-.059,9.139-.059S156.859,172.9,156.859,172.929Z" transform="translate(-126.585 -147.575)" fill="#263238"/>
        <path id="Path_2638" data-name="Path 2638" d="M155.78,181.319c0,.034-4.362.059-9.74.059s-9.74-.025-9.74-.059,4.359-.059,9.74-.059S155.78,181.287,155.78,181.319Z" transform="translate(-124.826 -154.048)" fill="#263238"/>
        <path id="Path_2639" data-name="Path 2639" d="M158.766,163.169c0,.034-3.736.059-8.342.059s-8.344-.025-8.344-.059,3.736-.059,8.344-.059S158.766,163.137,158.766,163.169Z" transform="translate(-129.285 -140.045)" fill="#263238"/>
        <path id="Path_2640" data-name="Path 2640" d="M160.711,154a.673.673,0,0,1-.153.014h-.441l-1.625.021-5.351.016-5.356-.016-1.622-.021h-.441a.672.672,0,0,1-.153-.014.794.794,0,0,1,.153,0l.441-.011,1.622-.018,5.356-.018,5.351.018,1.625.018.441.011A.8.8,0,0,1,160.711,154Z" transform="translate(-131.978 -132.978)" fill="#263238"/>
        <path id="Path_2641" data-name="Path 2641" d="M162.557,144.8c0,.034-3.05.059-6.813.059s-6.813-.025-6.813-.059,3.05-.059,6.813-.059S162.557,144.756,162.557,144.8Z" transform="translate(-134.57 -125.872)" fill="#263238"/>
        <path id="Path_2642" data-name="Path 2642" d="M164.4,135.539c0,.034-2.71.059-6.052.059s-6.057-.025-6.057-.059,2.712-.059,6.057-.059S164.4,135.507,164.4,135.539Z" transform="translate(-137.162 -118.728)" fill="#263238"/>
        <path id="Path_2643" data-name="Path 2643" d="M166.394,126.329c0,.032-2.36.059-5.271.059s-5.273-.027-5.273-.059,2.36-.059,5.273-.059S166.394,126.3,166.394,126.329Z" transform="translate(-139.909 -111.622)" fill="#263238"/>
        <path id="Path_2644" data-name="Path 2644" d="M168.128,117.119a1.94,1.94,0,0,1-.356.023l-.973.018c-.823,0-1.956.018-3.21.018s-2.388,0-3.2-.018l-.973-.018a1.914,1.914,0,0,1-.356-.023,1.916,1.916,0,0,1,.356-.023l.973-.018c.82,0,1.956-.018,3.2-.018s2.388,0,3.21.018l.973.018A1.943,1.943,0,0,1,168.128,117.119Z" transform="translate(-142.385 -104.516)" fill="#263238"/>
        <path id="Path_2645" data-name="Path 2645" d="M169.943,107.909a1.369,1.369,0,0,1-.3.023l-.811.018c-.685,0-1.629.018-2.673.018s-1.99,0-2.673-.018l-.811-.018a1.34,1.34,0,0,1-.3-.023,1.342,1.342,0,0,1,.3-.023l.811-.018c.685-.011,1.629-.018,2.673-.018s1.988,0,2.673.018l.811.018A1.369,1.369,0,0,1,169.943,107.909Z" transform="translate(-144.947 -97.411)" fill="#263238"/>
        <path id="Path_2646" data-name="Path 2646" d="M171.847,98.7a.87.87,0,0,1-.228.023c-.153,0-.375.014-.647.018-.548,0-1.3.018-2.139.018s-1.6,0-2.136-.018a6.36,6.36,0,0,1-.649-.018.87.87,0,0,1-.228-.023.87.87,0,0,1,.228-.023c.153,0,.375-.014.649-.018.546,0,1.3-.018,2.136-.018s1.6,0,2.139.018a6.336,6.336,0,0,1,.647.018.871.871,0,0,1,.229.023Z" transform="translate(-147.601 -90.305)" fill="#263238"/>
        <path id="Path_2647" data-name="Path 2647" d="M173.631,89.474a4.152,4.152,0,0,1-.713.041l-.775.014h-.85V89.41h.144v.135h-.85l-.775-.014a4.183,4.183,0,0,1-.713-.041,4.3,4.3,0,0,1,.713-.043h1.624v.1h-.144v-.119h1.624A4.272,4.272,0,0,1,173.631,89.474Z" transform="translate(-150.131 -83.184)" fill="#263238"/>
        <path id="Path_2648" data-name="Path 2648" d="M175.246,81.4a20.856,20.856,0,0,1-3.146,0,20.862,20.862,0,0,1,3.146,0Z" transform="translate(-152.446 -76.949)" fill="#263238"/>
        <path id="Path_2649" data-name="Path 2649" d="M176.856,73.086a9.448,9.448,0,0,1-2.116,0,9.448,9.448,0,0,1,2.116,0Z" transform="translate(-154.483 -70.538)" fill="#263238"/>
        <path id="Path_2650" data-name="Path 2650" d="M156.341,274c0,.034-4.371.059-9.761.059s-9.761-.025-9.761-.059,4.369-.059,9.761-.059S156.341,273.967,156.341,274Z" transform="translate(-125.227 -225.552)" fill="#263238"/>
        <path id="Path_2651" data-name="Path 2651" d="M156.341,280.8c0,.034-4.371.059-9.761.059s-9.761-.025-9.761-.059,4.369-.059,9.761-.059S156.341,280.77,156.341,280.8Z" transform="translate(-125.227 -230.798)" fill="#263238"/>
        <path id="Path_2652" data-name="Path 2652" d="M165.846,217.8a.181.181,0,0,1,0-.062v-.9c0-.633,0-1.549-.016-2.7,0-2.315-.014-5.577-.023-9.386l.016.041c-1.117-1.12-2.333-2.333-3.594-3.592l.041.018h-2.744l.041-.018-3.717,3.715.016-.039c0,3.772-.016,7-.023,9.295,0,1.142-.011,2.045-.016,2.673v.9a.184.184,0,0,1,0,.062.318.318,0,0,1,0-.062v-.9c0-.628,0-1.533-.016-2.673,0-2.285-.011-5.522-.021-9.295v-.025l.016-.016,3.688-3.72.016-.016h2.776l.018.016,3.587,3.6.016.016v.023c0,3.809-.016,7.072-.021,9.386,0,1.142,0,2.056-.016,2.7v.9A.071.071,0,0,1,165.846,217.8Z" transform="translate(-139.863 -169.355)" fill="#263238"/>
        <path id="Path_2653" data-name="Path 2653" d="M252.681,424.684c-1.241-.046-2.561.3-3.676-.242-1.279-.628-1.828-2.223-3.039-2.97a4.405,4.405,0,0,0-4.341.352c-1.33.749-2.461,1.828-3.843,2.452-1.942.891-4.174.843-6.235,1.407s-4.113,3.039-4,5.171l30.6-.073C258.1,427.914,255.553,424.789,252.681,424.684Z" transform="translate(-195.22 -339.039)" fill="#455a64"/>
        <path id="Path_2654" data-name="Path 2654" d="M135.1,252.48c-.034,0-.059-12.825-.059-28.642s.025-28.647.059-28.647.059,12.822.059,28.647S135.131,252.48,135.1,252.48Z" transform="translate(-123.854 -164.795)" fill="#263238"/>
        <path id="Path_2655" data-name="Path 2655" d="M222.609,228.2c-.034,0-.059-7.113-.059-15.882s.025-15.884.059-15.884.059,7.11.059,15.884S222.653,228.2,222.609,228.2Z" transform="translate(-191.369 -165.752)" fill="#263238"/>
        <path id="Path_2656" data-name="Path 2656" d="M244.668,328.479c0,.032-4.935.059-11.024.059s-11.024-.027-11.024-.059,4.935-.059,11.024-.059S244.668,328.447,244.668,328.479Z" transform="translate(-191.423 -267.584)" fill="#263238"/>
        <path id="Path_2657" data-name="Path 2657" d="M245.082,334.3c0,.032-5.027.059-11.23.059s-11.232-.027-11.232-.059,5.027-.062,11.232-.062S245.082,334.267,245.082,334.3Z" transform="translate(-191.423 -272.074)" fill="#263238"/>
        <path id="Path_2658" data-name="Path 2658" d="M245.751,340.319c0,.034-5.18.059-11.566.059s-11.566-.025-11.566-.059,5.177-.059,11.566-.059S245.751,340.287,245.751,340.319Z" transform="translate(-191.423 -276.719)" fill="#263238"/>
        <path id="Path_2659" data-name="Path 2659" d="M246.327,346.729c0,.034-5.308.059-11.854.059s-11.854-.025-11.854-.059,5.305-.059,11.854-.059S246.327,346.7,246.327,346.729Z" transform="translate(-191.423 -281.664)" fill="#263238"/>
        <path id="Path_2660" data-name="Path 2660" d="M246.972,353.139c0,.032-5.452.059-12.176.059s-12.176-.027-12.176-.059,5.449-.059,12.176-.059S246.972,353.107,246.972,353.139Z" transform="translate(-191.423 -286.61)" fill="#263238"/>
        <path id="Path_2661" data-name="Path 2661" d="M247.554,359.549c0,.032-5.582.059-12.466.059s-12.468-.027-12.468-.059,5.582-.059,12.468-.059S247.554,359.515,247.554,359.549Z" transform="translate(-191.423 -291.555)" fill="#263238"/>
        <path id="Path_2662" data-name="Path 2662" d="M248.17,365.949c0,.034-5.728.059-12.795.059s-12.8-.025-12.8-.059,5.726-.059,12.8-.059S248.17,365.915,248.17,365.949Z" transform="translate(-191.392 -296.493)" fill="#263238"/>
        <path id="Path_2663" data-name="Path 2663" d="M247.848,372.359c0,.034-5.646.059-12.608.059s-12.61-.025-12.61-.059,5.643-.059,12.61-.059S247.848,372.327,247.848,372.359Z" transform="translate(-191.431 -301.439)" fill="#263238"/>
        <path id="Path_2664" data-name="Path 2664" d="M221.761,397.3c-.032,0-.087-4.4-.121-9.825s-.037-9.825,0-9.825.089,4.4.123,9.825S221.793,397.3,221.761,397.3Z" transform="translate(-190.647 -305.566)" fill="#263238"/>
        <path id="Path_2665" data-name="Path 2665" d="M222.26,321.51l7.145,12.621h-7.062Z" transform="translate(-191.145 -262.253)" opacity="0.3"/>
        <path id="Path_2666" data-name="Path 2666" d="M136.04,193.52l19.7,1.791V193.52Z" transform="translate(-124.625 -163.507)" opacity="0.3"/>
        <path id="Path_2667" data-name="Path 2667" d="M127.5,330.72l-10.99,10.935h21.77Z" transform="translate(-109.557 -269.359)" fill="#ff921a"/>
        <rect id="Rectangle_1260" data-name="Rectangle 1260" width="25.965" height="19.421" transform="translate(1.661 72.299)" fill="#ebebeb"/>
        <rect id="Rectangle_1261" data-name="Rectangle 1261" width="2.529" height="5.73" transform="translate(18.416 86.051)" fill="#263238"/>
        <rect id="Rectangle_1262" data-name="Rectangle 1262" width="8.815" height="19.487" transform="translate(1.661 72.299)" opacity="0.3"/>
        <path id="Path_2668" data-name="Path 2668" d="M104.023,330.72H97.084l-11,10.935h8.365Z" transform="translate(-86.08 -269.359)" fill="#ff921a"/>
        <rect id="Rectangle_1263" data-name="Rectangle 1263" width="1.081" height="3.244" transform="translate(14.881 81.07)" fill="#263238"/>
        <rect id="Rectangle_1264" data-name="Rectangle 1264" width="1.081" height="3.244" transform="translate(22.951 81.07)" fill="#263238"/>
        <rect id="Rectangle_1265" data-name="Rectangle 1265" width="1.081" height="3.244" transform="translate(14.881 74.538)" fill="#263238"/>
        <rect id="Rectangle_1266" data-name="Rectangle 1266" width="1.081" height="3.244" transform="translate(5.749 81.07)" fill="#263238"/>
        <rect id="Rectangle_1267" data-name="Rectangle 1267" width="1.081" height="3.244" transform="translate(5.749 74.538)" fill="#263238"/>
        <rect id="Rectangle_1268" data-name="Rectangle 1268" width="1.081" height="3.244" transform="translate(22.951 74.538)" fill="#263238"/>
        <path id="Path_2669" data-name="Path 2669" d="M117.854,373.794c0,.021-5.922.037-13.227.037s-13.227-.016-13.227-.037,5.92-.034,13.227-.034S117.854,373.776,117.854,373.794Z" transform="translate(-90.184 -302.565)" fill="#263238"/>
        <path id="Path_2670" data-name="Path 2670" d="M119.949,368.294c0,.021-5.385.037-12.027.037s-12.032-.016-12.032-.037,5.385-.034,12.032-.034S119.949,368.276,119.949,368.294Z" transform="translate(-93.649 -298.322)" fill="#263238"/>
        <path id="Path_2671" data-name="Path 2671" d="M123.671,362.794c0,.02-4.819.036-10.759.036s-10.762-.016-10.762-.036,4.816-.034,10.762-.034S123.671,362.776,123.671,362.794Z" transform="translate(-98.478 -294.078)" fill="#263238"/>
        <path id="Path_2672" data-name="Path 2672" d="M126.467,357.294c0,.021-4.273.037-9.544.037s-9.544-.016-9.544-.037,4.273-.034,9.544-.034S126.467,357.276,126.467,357.294Z" transform="translate(-102.513 -289.835)" fill="#263238"/>
        <path id="Path_2673" data-name="Path 2673" d="M129.287,351.91h-2.438l-5.886.011-5.886.009H113.3l1.782-.011h11.771l1.784.011h.484Z" transform="translate(-106.572 -285.707)" fill="#263238"/>
        <path id="Path_2674" data-name="Path 2674" d="M132.355,346.294c0,.021-3.114.037-6.953.037s-6.953-.016-6.953-.037,3.112-.034,6.953-.034S132.355,346.276,132.355,346.294Z" transform="translate(-111.054 -281.348)" fill="#263238"/>
        <path id="Path_2675" data-name="Path 2675" d="M135.656,340.91a.442.442,0,0,1-.119,0l-.35.021h-1.25l-4.113.011-4.129-.011h-1.588a.447.447,0,0,1-.119,0,.787.787,0,0,1,.119,0h.34l1.25-.011h8.239l1.25.011h.34A.8.8,0,0,1,135.656,340.91Z" transform="translate(-115.328 -277.221)" fill="#263238"/>
        <path id="Path_2676" data-name="Path 2676" d="M138.793,335.371a.274.274,0,0,1-.094,0h-1.266l-3.281.011-3.283-.011H129.6a.274.274,0,0,1-.094,0,.5.5,0,0,1,.094,0h.272l.994-.012h6.564l.994.012h.272A.485.485,0,0,1,138.793,335.371Z" transform="translate(-119.587 -272.939)" fill="#263238"/>
        <path id="Path_2677" data-name="Path 2677" d="M104.023,330.72H97.084l-11,10.935h8.365Z" transform="translate(-86.08 -269.359)" opacity="0.3"/>
        <path id="Path_2678" data-name="Path 2678" d="M206.953,398.379a1.067,1.067,0,0,1-.014-.194V395.55c0-1.746.03-4.161.073-6.825s.08-5.07.107-6.827c.014-.866.023-1.57.03-2.07,0-.229,0-.423.014-.562a.1.1,0,1,1,.011,0c0,.139,0,.327.011.562v2.07c0,1.748-.03,4.161-.073,6.827s-.08,5.07-.11,6.827c0,.864-.023,1.567-.03,2.068v.564A1.818,1.818,0,0,1,206.953,398.379Z" transform="translate(-179.325 -306.662)" fill="#263238"/>
        <path id="Path_2679" data-name="Path 2679" d="M93.016,398.316c-.032,0-.073-4.341-.091-9.708s0-9.708.025-9.708.073,4.341.094,9.708S93.051,398.316,93.016,398.316Z" transform="translate(-91.355 -306.531)" fill="#263238"/>
        <path id="Path_2680" data-name="Path 2680" d="M131.589,398.524c-.032,0-.059-4.353-.059-9.722s.027-9.722.059-9.722.059,4.353.059,9.722S131.624,398.524,131.589,398.524Z" transform="translate(-121.145 -306.669)" fill="#263238"/>
        <path id="Path_2681" data-name="Path 2681" d="M423.9,239.062a2.724,2.724,0,0,0-1.129-1.533,1.663,1.663,0,0,0-1.828.05c-.914.717-.64,2.305-1.524,3.053-.806.685-2.015.26-3.066.324a3.222,3.222,0,0,0-2.474,1.446c-.487.754-.663,1.725-1.344,2.308-1.371,1.184-3.793,0-5.2,1.142a2.6,2.6,0,0,0-.857,1.784,7.732,7.732,0,0,0,.164,2.022l1.4-.011a2.918,2.918,0,0,1,.427-2.365,2.74,2.74,0,0,1,2.461-.427,17.933,17.933,0,0,0,2.376.407,3.393,3.393,0,0,0,2.285-.6c.793-.626,1.163-1.736,2.07-2.182a6.462,6.462,0,0,1,2.621-.187,4,4,0,0,0,3.628-5.235Z" transform="translate(-333.264 -197.268)" fill="#e0e0e0"/>
        <path id="Path_2682" data-name="Path 2682" d="M332.99,334.754V315.266l20.863-18.726h4.357l15.375,18.523v19.691Z" transform="translate(-276.575 -242.988)" fill="#ebebeb"/>
        <path id="Path_2683" data-name="Path 2683" d="M328.97,315.305h12.347l13.791-18.765H343.035Z" transform="translate(-273.474 -242.988)" fill="#ff921a"/>
        <path id="Path_2684" data-name="Path 2684" d="M405.994,290.862V285.94H399.98v8.445h3.43Z" transform="translate(-328.259 -234.81)" fill="#ff921a"/>
        <path id="Path_2685" data-name="Path 2685" d="M344.03,378.67l.073,19.448H332.99V378.67Z" transform="translate(-276.575 -306.353)" opacity="0.3"/>
        <rect id="Rectangle_1269" data-name="Rectangle 1269" width="2.28" height="5.424" transform="translate(81.634 86.341)" fill="#263238"/>
        <rect id="Rectangle_1270" data-name="Rectangle 1270" width="1.14" height="3.331" transform="translate(72.689 80.044)" fill="#263238"/>
        <rect id="Rectangle_1271" data-name="Rectangle 1271" width="1.14" height="3.331" transform="translate(72.689 71.652)" fill="#263238"/>
        <rect id="Rectangle_1272" data-name="Rectangle 1272" width="1.14" height="3.331" transform="translate(82.009 80.044)" fill="#263238"/>
        <rect id="Rectangle_1273" data-name="Rectangle 1273" width="1.14" height="3.331" transform="translate(82.009 71.339)" fill="#263238"/>
        <rect id="Rectangle_1274" data-name="Rectangle 1274" width="1.14" height="3.331" transform="translate(82.009 62.273)" fill="#263238"/>
        <rect id="Rectangle_1275" data-name="Rectangle 1275" width="1.14" height="3.331" transform="translate(91.329 80.044)" fill="#263238"/>
        <rect id="Rectangle_1276" data-name="Rectangle 1276" width="1.14" height="3.331" transform="translate(91.329 71.339)" fill="#263238"/>
        <rect id="Rectangle_1277" data-name="Rectangle 1277" width="3.432" height="8.447" transform="translate(71.721 51.13)" opacity="0.3"/>
        <path id="Path_2686" data-name="Path 2686" d="M332.8,399.257c-.034,0-.059-4.275-.059-9.544s.025-9.544.059-9.544.059,4.27.059,9.544S332.829,399.257,332.8,399.257Z" transform="translate(-276.383 -307.51)" fill="#263238"/>
        <path id="Path_2687" data-name="Path 2687" d="M381,398.045c-.032,0-.059-4.341-.059-9.688s.027-9.688.059-9.688.059,4.341.059,9.688S381.031,398.045,381,398.045Z" transform="translate(-313.57 -306.353)" fill="#263238"/>
        <path id="Path_2688" data-name="Path 2688" d="M510.576,397.649c-.032,0-.034-4.394,0-9.825s.082-9.825.114-9.825.034,4.394,0,9.825S510.61,397.649,510.576,397.649Z" transform="translate(-413.567 -305.836)" fill="#263238"/>
        <path id="Path_2689" data-name="Path 2689" d="M417.52,286.42a.486.486,0,0,1,0,.091v.267c0,.254,0,.585.011.985v3.475h0l-1.839,2.493-.56.745-.155.2c-.034.046-.055.069-.057.066a.348.348,0,0,1,.048-.073c.039-.059.087-.128.144-.208l.539-.759c.478-.654,1.113-1.528,1.828-2.513v-.208c0-1.259,0-2.395.011-3.247,0-.4,0-.731.011-.985v-.267a.465.465,0,0,1,.018-.062Z" transform="translate(-339.786 -235.181)" fill="#263238"/>
        <path id="Path_2690" data-name="Path 2690" d="M443.37,296.54l15.375,18.523.747-.283L444.17,296.54Z" transform="translate(-361.736 -242.988)" fill="#ff921a"/>
        <path id="Path_2691" data-name="Path 2691" d="M355.108,296.54a.361.361,0,0,1-.048.078c-.039.055-.091.128-.155.228l-.605.843-2.246,3.082-7.448,10.161c-1.142,1.547-2.237,3.036-3.242,4.407l-.018.023h-.03l-8.867-.023-2.557-.016h-.921a.173.173,0,0,1,.059,0h.861l2.561-.018,8.867-.021-.046.023,3.24-4.446,7.476-10.14,2.285-3.066.624-.829.165-.215Z" transform="translate(-273.474 -242.988)" fill="#263238"/>
      </g>
      <g id="freepik--Birds--inject-2" transform="translate(71.68 10.933)">
        <path id="Path_2692" data-name="Path 2692" d="M346.517,166.165c0,.014-.249-.087-.713-.19a5.712,5.712,0,0,0-1.995-.078,5.376,5.376,0,0,0-2.687,1.161,5.554,5.554,0,0,0-1.9,3.011v.032l-.055.215-.082-.2a5.989,5.989,0,0,0-2.271-2.742,5.8,5.8,0,0,0-2.774-.925,6.19,6.19,0,0,0-1.981.183c-.457.121-.7.228-.7.212a.993.993,0,0,1,.171-.082,4,4,0,0,1,.519-.185,5.94,5.94,0,0,1,4.842.685,6.073,6.073,0,0,1,2.333,2.8h-.139v-.034a5.66,5.66,0,0,1,1.954-3.071A5.409,5.409,0,0,1,343.8,165.8a5.5,5.5,0,0,1,2.02.123,4.068,4.068,0,0,1,.525.167A.826.826,0,0,1,346.517,166.165Z" transform="translate(-331.36 -150.747)" fill="#263238"/>
        <path id="Path_2693" data-name="Path 2693" d="M456.84,118.8s-.142-.039-.4-.091a3.141,3.141,0,0,0-1.09-.032,2.957,2.957,0,0,0-1.462.637,3.051,3.051,0,0,0-1.031,1.64v.018l-.055.215-.082-.2a3.266,3.266,0,0,0-1.236-1.494,3.181,3.181,0,0,0-1.51-.512,3.464,3.464,0,0,0-1.085.089c-.251.062-.384.117-.391.105a.319.319,0,0,1,.094-.053,2.115,2.115,0,0,1,.283-.107,3.148,3.148,0,0,1,1.106-.137,3.216,3.216,0,0,1,1.577.5,3.368,3.368,0,0,1,1.3,1.554h-.139v-.018a3.14,3.14,0,0,1,1.088-1.711,3.016,3.016,0,0,1,2.65-.558,1.849,1.849,0,0,1,.288.1A.369.369,0,0,1,456.84,118.8Z" transform="translate(-421.736 -114.321)" fill="#263238"/>
        <path id="Path_2694" data-name="Path 2694" d="M405.026,100.07s-.137.158-.384.436a9.338,9.338,0,0,0-.935,1.263,9.183,9.183,0,0,0-1.389,4.91.562.562,0,0,0,0,.062l-.144.014a8.054,8.054,0,0,0-.9-2.664,8.392,8.392,0,0,0-2.554-2.854c-.3-.21-.48-.315-.473-.327a.618.618,0,0,1,.135.064c.084.05.215.112.368.215a7.417,7.417,0,0,1,1.227.98,8.123,8.123,0,0,1,2.34,4.57l-.144.014v-.073a9.027,9.027,0,0,1,1.449-4.972,8.032,8.032,0,0,1,.98-1.248,3.943,3.943,0,0,1,.308-.3A.627.627,0,0,1,405.026,100.07Z" transform="translate(-382.966 -100.07)" fill="#263238"/>
      </g>
      <g id="freepik--Trees--inject-2" transform="translate(0 69.029)">
        <path id="Path_2695" data-name="Path 2695" d="M646.421,371.984a7.356,7.356,0,0,1,3.656-3.272,14.425,14.425,0,0,1,4.864-1.049,17.734,17.734,0,0,1,5.536.4,4.816,4.816,0,0,1,2.362,1.261,4.719,4.719,0,0,1,1.4,2.184,6.613,6.613,0,0,1-.722,5.822,10.131,10.131,0,0,1-4.668,3.758,11.377,11.377,0,0,1-6.539.827,8.3,8.3,0,0,1-5.449-3.553A6.594,6.594,0,0,1,646.421,371.984Z" transform="translate(-502.271 -364.57)" fill="#263238"/>
        <path id="Path_2696" data-name="Path 2696" d="M676.19,403.717l-.263-.258-1.551,2.088h0l-.014-.612.016-6.055H673.8l-.158,5.491-3.425-3.937-.528.468,3.722,4.382.172,8.392h.971l-.16-7.257Z" transform="translate(-520.708 -388.703)" fill="#c78976"/>
        <path id="Path_2697" data-name="Path 2697" d="M212.307,390.571a5.879,5.879,0,0,1,2.9-2.6,11.465,11.465,0,0,1,3.866-.834,14.073,14.073,0,0,1,4.4.318,3.8,3.8,0,0,1,1.878,1,3.719,3.719,0,0,1,1.11,1.734,5.252,5.252,0,0,1-.573,4.627,8.082,8.082,0,0,1-3.711,2.989,9.034,9.034,0,0,1-5.2.656,6.607,6.607,0,0,1-4.33-2.824A5.22,5.22,0,0,1,212.307,390.571Z" transform="translate(-167.442 -379.604)" fill="#455a64"/>
        <path id="Path_2698" data-name="Path 2698" d="M235.944,415.793l-.208-.206-1.234,1.659v0l-.009-.489.011-4.81h-.457l-.128,4.362-2.721-3.128-.418.372,2.957,3.482.135,6.669h.772l-.126-5.767Z" transform="translate(-182.081 -398.787)" fill="#c78976"/>
        <path id="Path_2699" data-name="Path 2699" d="M18.35,359.309a8.351,8.351,0,0,1,4.152-3.717,16.314,16.314,0,0,1,5.527-1.19,20.052,20.052,0,0,1,6.29.457A5.444,5.444,0,0,1,37,356.288a5.319,5.319,0,0,1,1.586,2.484,7.514,7.514,0,0,1-.82,6.615,11.53,11.53,0,0,1-5.3,4.27,12.9,12.9,0,0,1-7.43.939,9.451,9.451,0,0,1-6.19-4.037A7.491,7.491,0,0,1,18.35,359.309Z" transform="translate(-17.637 -354.339)" fill="#263238"/>
        <path id="Path_2700" data-name="Path 2700" d="M52.167,395.325l-.3-.292L50.1,397.4h0l-.014-.7.018-6.877h-.656l-.18,6.238L45.379,391.6l-.6.53,4.229,4.981.194,9.535h1.1l-.18-8.246Z" transform="translate(-38.578 -381.721)" fill="#c78976"/>
      </g>
    </g>
    <g id="Small_town-pana-2" data-name="Small town-pana" transform="translate(648.865 125.683)">
      <g id="freepik--background-complete--inject-2-2" data-name="freepik--background-complete--inject-2" transform="translate(5.241 0)">
        <path id="Path_2561-2" data-name="Path 2561" d="M459.651,72.938s-.126-.032-.352-.078a2.806,2.806,0,0,0-.966-.025,2.612,2.612,0,0,0-1.293.567,2.688,2.688,0,0,0-.914,1.451v.016l-.055.215-.082-.2a2.9,2.9,0,0,0-1.092-1.323,2.844,2.844,0,0,0-1.337-.457,3.736,3.736,0,0,0-1.309.167,1.033,1.033,0,0,1,.331-.144,2.789,2.789,0,0,1,.982-.114,2.853,2.853,0,0,1,1.4.457,2.985,2.985,0,0,1,1.156,1.371h-.139V74.82a2.786,2.786,0,0,1,.969-1.524,2.682,2.682,0,0,1,2.358-.491,1.128,1.128,0,0,1,.34.132Z" transform="translate(-429.87 -72.715)" fill="#e0e0e0"/>
        <path id="Path_2562-2" data-name="Path 2562" d="M364.843,78.89a4.628,4.628,0,0,1-.322.37,8.425,8.425,0,0,0-.786,1.069,7.785,7.785,0,0,0-1.168,4.145v.053h-.144a6.971,6.971,0,0,0-1.91-3.784,9.717,9.717,0,0,0-1.394-1.131.522.522,0,0,1,.114.053c.071.041.183.094.313.181a6.192,6.192,0,0,1,1.04.827,6.855,6.855,0,0,1,1.979,3.855h-.144v-.053a7.633,7.633,0,0,1,1.227-4.188,6.836,6.836,0,0,1,.832-1.051c.107-.117.2-.2.263-.254A.473.473,0,0,1,364.843,78.89Z" transform="translate(-358.019 -77.479)" fill="#e0e0e0"/>
        <path id="Path_2564-2" data-name="Path 2564" d="M435,201.547s-.046-.021-.133-.066l-.384-.2L433,200.5l-5.566-2.938-19.279-10.22h.053l-12.74,6.375-4.636,2.319-.023.011h-.023l-19.7-6.3h.037l-12.231,6.059-3.393,1.67-.891.434c-.2.1-.308.144-.308.144l.3-.158.884-.457,3.379-1.7,12.212-6.1h.037l19.7,6.274h-.043l4.636-2.319,12.742-6.366.025-.014.025.014L427.465,197.5l5.55,2.97,1.478.8.379.208C434.956,201.519,435,201.547,435,201.547Z" transform="translate(-354.3 -161.065)" fill="#e0e0e0"/>
        <path id="Path_2567-2" data-name="Path 2567" d="M256.928,56.584c.139-1.012-1.291-1.846-2.367-1.933a6.068,6.068,0,0,1-1.529-.133c-1.053-.368-1.474-1.725-2.5-2.159a2.942,2.942,0,0,0-2.394.34,6.234,6.234,0,0,1-2.31.9c-.724.046-1.508-.228-2.141.13-.471.265-.717.807-1.142,1.126a2.69,2.69,0,0,1-1.508.409,4.227,4.227,0,0,0-1.554.254,1.228,1.228,0,0,0-.777,1.248Z" transform="translate(-192.919 -40.979)" fill="#ebebeb"/>
      </g>
      <g id="freepik--Floor--inject-2-2" data-name="freepik--Floor--inject-2" transform="translate(0.974 89.31)">
        <path id="Path_2572-2" data-name="Path 2572" d="M116.748,463.659c0,.032-18.971.059-42.369.059S32,463.691,32,463.659s18.971-.059,42.374-.059S116.748,463.625,116.748,463.659Z" transform="translate(-32 -463.6)" fill="#263238"/>
      </g>
      <g id="freepik--Buildings--inject-2-2" data-name="freepik--Buildings--inject-2" transform="translate(0 28.79)">
        <path id="Path_2597-2" data-name="Path 2597" d="M499.284,343.109,491.5,330.72l-8.186,11.645V366.3h15.974Z" transform="translate(-442.049 -305.74)" fill="#ebebeb"/>
        <path id="Path_2598-2" data-name="Path 2598" d="M499.284,343.109,491.5,330.72l-8.186,11.645V366.3h15.974Z" transform="translate(-442.049 -305.74)" opacity="0.3"/>
        <path id="Path_2599-2" data-name="Path 2599" d="M513.93,330.72H539.2l7.911,12.79h-7.427l-5.119-8.531-5.32,8.13h-7.528Z" transform="translate(-464.483 -305.74)" fill="#ff921a"/>
        <rect id="Rectangle_1234-2" data-name="Rectangle 1234" width="1.396" height="3.7" transform="translate(51.597 41.598)" fill="#263238"/>
        <rect id="Rectangle_1235-2" data-name="Rectangle 1235" width="1.396" height="3.7" transform="translate(45.448 41.598)" fill="#263238"/>
        <rect id="Rectangle_1236-2" data-name="Rectangle 1236" width="1.396" height="3.7" transform="translate(51.597 50.739)" fill="#263238"/>
        <rect id="Rectangle_1237-2" data-name="Rectangle 1237" width="1.396" height="3.7" transform="translate(45.448 50.739)" fill="#263238"/>
        <path id="Path_2600-2" data-name="Path 2600" d="M541.833,334.583c0,.021-5.636.04-12.586.04s-12.586-.019-12.586-.04,5.633-.043,12.586-.043S541.833,334.559,541.833,334.583Z" transform="translate(-466.483 -308.538)" fill="#263238"/>
        <path id="Path_2601-2" data-name="Path 2601" d="M544.523,338.96c0,.024-5.635.043-12.584.043s-12.589-.019-12.589-.043,5.635-.04,12.589-.04S544.523,338.941,544.523,338.96Z" transform="translate(-468.454 -311.747)" fill="#263238"/>
        <path id="Path_2602-2" data-name="Path 2602" d="M547.413,343.623c0,.021-5.636.04-12.586.04s-12.586-.019-12.586-.04,5.635-.043,12.586-.043S547.413,343.6,547.413,343.623Z" transform="translate(-470.571 -315.161)" fill="#263238"/>
        <path id="Path_2603-2" data-name="Path 2603" d="M550.3,348.283c0,.021-5.636.04-12.586.04s-12.586-.019-12.586-.04,5.633-.043,12.586-.043S550.3,348.259,550.3,348.283Z" transform="translate(-472.688 -318.576)" fill="#263238"/>
        <path id="Path_2604-2" data-name="Path 2604" d="M553.185,352.943c0,.024-5.638.043-12.586.043s-12.589-.019-12.589-.043,5.636-.043,12.589-.043S553.185,352.927,553.185,352.943Z" transform="translate(-474.798 -321.99)" fill="#263238"/>
        <path id="Path_2605-2" data-name="Path 2605" d="M556.073,357.6c0,.024-5.636.043-12.586.043s-12.586-.019-12.586-.043,5.635-.043,12.586-.043S556.073,357.579,556.073,357.6Z" transform="translate(-476.916 -325.404)" fill="#263238"/>
        <path id="Path_2606-2" data-name="Path 2606" d="M559.013,362.27c0,.024-5.636.043-12.587.043s-12.586-.019-12.586-.043,5.633-.04,12.586-.04S559.013,362.249,559.013,362.27Z" transform="translate(-479.07 -328.826)" fill="#263238"/>
        <path id="Path_2607-2" data-name="Path 2607" d="M561.845,366.89c0,.024-5.635.043-12.586.043s-12.589-.019-12.589-.043,5.635-.04,12.589-.04S561.845,366.89,561.845,366.89Z" transform="translate(-481.143 -332.21)" fill="#263238"/>
        <path id="Path_2608-2" data-name="Path 2608" d="M564.733,371.593c0,.021-5.635.04-12.586.04s-12.586-.019-12.586-.04,5.636-.043,12.586-.043S564.733,371.569,564.733,371.593Z" transform="translate(-483.261 -335.654)" fill="#263238"/>
        <path id="Path_2609-2" data-name="Path 2609" d="M567.623,376.253c0,.021-5.636.04-12.586.04s-12.586-.019-12.586-.04,5.633-.043,12.586-.043S567.623,376.229,567.623,376.253Z" transform="translate(-485.378 -339.068)" fill="#263238"/>
        <path id="Path_2610-2" data-name="Path 2610" d="M568.455,377.966V355.181h-7.427l-5.12-8.531-5.32,8.13H543.06v23.186Z" transform="translate(-485.825 -317.411)" fill="#ebebeb"/>
        <path id="Path_2611-2" data-name="Path 2611" d="M562.209,346.65l-10.549.166,5.2,7.964Z" transform="translate(-492.126 -317.411)" opacity="0.3"/>
        <rect id="Rectangle_1238-2" data-name="Rectangle 1238" width="1.396" height="3.7" transform="translate(69.236 34.1)" fill="#263238"/>
        <rect id="Rectangle_1239-2" data-name="Rectangle 1239" width="1.396" height="3.7" transform="translate(48.295 33.003)" fill="#263238"/>
        <rect id="Rectangle_1240-2" data-name="Rectangle 1240" width="1.396" height="3.7" transform="translate(62.293 41.598)" fill="#263238"/>
        <rect id="Rectangle_1241-2" data-name="Rectangle 1241" width="1.396" height="3.7" transform="translate(69.177 41.598)" fill="#263238"/>
        <rect id="Rectangle_1242-2" data-name="Rectangle 1242" width="1.396" height="3.7" transform="translate(76.064 41.598)" fill="#263238"/>
        <rect id="Rectangle_1243-2" data-name="Rectangle 1243" width="1.396" height="3.7" transform="translate(62.29 51.078)" fill="#263238"/>
        <rect id="Rectangle_1244-2" data-name="Rectangle 1244" width="1.396" height="3.7" transform="translate(69.174 51.078)" fill="#263238"/>
        <rect id="Rectangle_1245-2" data-name="Rectangle 1245" width="1.396" height="3.7" transform="translate(76.061 51.078)" fill="#263238"/>
        <path id="Path_2612-2" data-name="Path 2612" d="M524.678,415.529c0,.04-9.261.07-20.684.07s-20.684-.029-20.684-.07,9.258-.07,20.684-.07S524.678,415.492,524.678,415.529Z" transform="translate(-442.049 -367.825)" fill="#263238"/>
        <path id="Path_2613-2" data-name="Path 2613" d="M483.185,365.985a.914.914,0,0,1,0-.115v-1.655c0-1.155,0-2.834-.019-4.951,0-4.243-.016-10.239-.027-17.273v-.019l.013-.019,8.063-11.48.12-.168.059-.086.056.088c2.762,4.4,5.392,8.582,7.785,12.394v.032c0,6.812-.019,12.608-.024,16.7,0,2.045-.013,3.663-.019,4.777v1.593a.885.885,0,0,1,0,.112s0-.037,0-.112v-1.593c0-1.115,0-2.732-.019-4.777,0-4.1-.016-9.892-.027-16.7v.035l-7.793-12.389h.115l-.118.168-8.074,11.474.013-.037c0,7.034-.019,13.03-.027,17.273,0,2.117-.013,3.8-.019,4.951v1.655A.177.177,0,0,1,483.185,365.985Z" transform="translate(-441.924 -305.373)" fill="#263238"/>
        <path id="Path_2614-2" data-name="Path 2614" d="M637.859,401.387c-.037,0-.07-5.114-.07-11.424s.032-11.423.07-11.423.069,5.114.069,11.423S637.9,401.387,637.859,401.387Z" transform="translate(-555.23 -340.775)" fill="#263238"/>
        <path id="Path_2681-2" data-name="Path 2681" d="M426.866,239.365a3.186,3.186,0,0,0-1.321-1.794,1.946,1.946,0,0,0-2.139.059c-1.069.839-.749,2.7-1.783,3.572-.944.8-2.358.3-3.588.38a3.769,3.769,0,0,0-2.9,1.692c-.569.882-.775,2.018-1.572,2.7-1.6,1.385-4.438,0-6.087,1.337a3.037,3.037,0,0,0-1,2.088,9.047,9.047,0,0,0,.193,2.366l1.636-.013a3.415,3.415,0,0,1,.5-2.767,3.206,3.206,0,0,1,2.879-.5,20.975,20.975,0,0,0,2.78.476,3.971,3.971,0,0,0,2.673-.706c.928-.733,1.361-2.032,2.422-2.553.928-.46,2.032-.174,3.067-.219a4.684,4.684,0,0,0,4.245-6.125Z" transform="translate(-385.749 -237.279)" fill="#e0e0e0"/>
        <path id="Path_2682-2" data-name="Path 2682" d="M332.99,341.253v-22.8L357.4,296.54h5.1l17.989,21.673v23.04Z" transform="translate(-331.915 -280.697)" fill="#ebebeb"/>
        <path id="Path_2683-2" data-name="Path 2683" d="M328.97,318.5h14.447l16.137-21.957H345.427Z" transform="translate(-328.97 -280.697)" fill="#ff921a"/>
        <path id="Path_2684-2" data-name="Path 2684" d="M407.016,291.7V285.94H399.98v9.881h4.013Z" transform="translate(-380.996 -272.931)" fill="#ff921a"/>
        <path id="Path_2685-2" data-name="Path 2685" d="M345.908,378.67l.086,22.756h-13V378.67Z" transform="translate(-331.915 -340.87)" opacity="0.3"/>
        <rect id="Rectangle_1269-2" data-name="Rectangle 1269" width="2.668" height="6.347" transform="translate(30.584 54.209)" fill="#263238"/>
        <rect id="Rectangle_1270-2" data-name="Rectangle 1270" width="1.334" height="3.898" transform="translate(20.117 46.841)" fill="#263238"/>
        <rect id="Rectangle_1271-2" data-name="Rectangle 1271" width="1.334" height="3.898" transform="translate(20.117 37.022)" fill="#263238"/>
        <rect id="Rectangle_1272-2" data-name="Rectangle 1272" width="1.334" height="3.898" transform="translate(31.022 46.841)" fill="#263238"/>
        <rect id="Rectangle_1273-2" data-name="Rectangle 1273" width="1.334" height="3.898" transform="translate(31.022 36.655)" fill="#263238"/>
        <rect id="Rectangle_1274-2" data-name="Rectangle 1274" width="1.334" height="3.898" transform="translate(31.022 26.047)" fill="#263238"/>
        <rect id="Rectangle_1275-2" data-name="Rectangle 1275" width="1.334" height="3.898" transform="translate(41.927 46.841)" fill="#263238"/>
        <rect id="Rectangle_1276-2" data-name="Rectangle 1276" width="1.334" height="3.898" transform="translate(41.927 36.655)" fill="#263238"/>
        <rect id="Rectangle_1277-2" data-name="Rectangle 1277" width="4.015" height="9.884" transform="translate(18.984 13.009)" opacity="0.3"/>
        <path id="Path_2686-2" data-name="Path 2686" d="M332.81,402.5c-.04,0-.07-5-.07-11.167s.029-11.167.07-11.167.07,5,.07,11.167S332.844,402.5,332.81,402.5Z" transform="translate(-331.732 -341.969)" fill="#263238"/>
        <path id="Path_2687-2" data-name="Path 2687" d="M381.01,401.34c-.037,0-.07-5.079-.07-11.335s.032-11.335.07-11.335.069,5.079.069,11.335S381.047,401.34,381.01,401.34Z" transform="translate(-367.046 -340.87)" fill="#263238"/>
        <path id="Path_2688-2" data-name="Path 2688" d="M510.58,400.991c-.037,0-.04-5.141,0-11.5s.1-11.5.134-11.5.04,5.141,0,11.5S510.62,400.991,510.58,400.991Z" transform="translate(-462.007 -340.38)" fill="#263238"/>
        <path id="Path_2689-2" data-name="Path 2689" d="M417.962,286.42a.559.559,0,0,1,0,.107v.313c0,.3,0,.684.013,1.152v4.066h0l-2.152,2.917-.655.872-.182.233c-.04.053-.064.08-.067.077a.407.407,0,0,1,.056-.086c.046-.07.1-.15.168-.243l.631-.888c.559-.764,1.3-1.788,2.139-2.941v-.243c0-1.473,0-2.8.013-3.8,0-.468,0-.855.013-1.152v-.313A.568.568,0,0,1,417.962,286.42Z" transform="translate(-391.942 -273.283)" fill="#263238"/>
        <path id="Path_2690-2" data-name="Path 2690" d="M443.37,296.54l17.989,21.673.874-.331L444.306,296.54Z" transform="translate(-412.786 -280.697)" fill="#ff921a"/>
        <path id="Path_2691-2" data-name="Path 2691" d="M359.554,296.54a.418.418,0,0,1-.056.091c-.045.064-.107.15-.182.267l-.708.986-2.628,3.606-8.715,11.889c-1.337,1.81-2.617,3.553-3.794,5.157l-.021.027h-.035l-10.376-.027-2.992-.019H328.97a.2.2,0,0,1,.069,0h1.008l3-.021,10.375-.024-.053.027,3.791-5.2,8.747-11.865,2.673-3.588.73-.97.192-.251Z" transform="translate(-328.97 -280.697)" fill="#263238"/>
      </g>
      <g id="freepik--Birds--inject-2-2" data-name="freepik--Birds--inject-2" transform="translate(0 21.258)">
        <path id="Path_2692-2" data-name="Path 2692" d="M346.517,166.165c0,.014-.249-.087-.713-.19a5.712,5.712,0,0,0-1.995-.078,5.376,5.376,0,0,0-2.687,1.161,5.554,5.554,0,0,0-1.9,3.011v.032l-.055.215-.082-.2a5.989,5.989,0,0,0-2.271-2.742,5.8,5.8,0,0,0-2.774-.925,6.19,6.19,0,0,0-1.981.183c-.457.121-.7.228-.7.212a.993.993,0,0,1,.171-.082,4,4,0,0,1,.519-.185,5.94,5.94,0,0,1,4.842.685,6.073,6.073,0,0,1,2.333,2.8h-.139v-.034a5.66,5.66,0,0,1,1.954-3.071A5.409,5.409,0,0,1,343.8,165.8a5.5,5.5,0,0,1,2.02.123,4.068,4.068,0,0,1,.525.167A.826.826,0,0,1,346.517,166.165Z" transform="translate(-331.36 -165.755)" fill="#263238"/>
      </g>
    </g>
  </g>
</svg>
