<svg xmlns="http://www.w3.org/2000/svg" width="143.436" height="136.17" viewBox="0 0 143.436 136.17">
  <g id="Group_131" data-name="Group 131" transform="translate(-3236.494 -2163.461)">
    <g id="freepik--Characters--inject-14" transform="translate(3055.44 2057.011)">
      <path id="Path_1770" data-name="Path 1770" d="M222.33,170.24c2.33,0,4-.11,4.15-.12l-.32-4.6c-.1,0-10.66.69-16.09-1.5-4.32-1.76-9.09-13.91-11.2-24.64-1.34-6.8-.61-8.94-.05-9.62.12-.14.44-.53,1.66-.53h4.21c1.22,3.67,3.17,7.36,6.11,7.36h8.49V132h-8.15c-.7-.7-1.85-3.28-2.52-5.68l-.47-1.68h-7.67a6.37,6.37,0,0,0-5.22,2.22c-2,2.41-2.27,6.55-.91,13.43a87.053,87.053,0,0,0,4.87,16.18c2.77,6.52,5.84,10.51,9.12,11.84C212.38,169.93,218.35,170.24,222.33,170.24Z" fill="#ffc727"/>
      <path id="Path_1771" data-name="Path 1771" d="M212.55,131.98h6.75v4.61h-5.71Z" opacity="0.2"/>
      <path id="Path_1772" data-name="Path 1772" d="M226.48,170.12c-.18,0-1.82.12-4.15.12h-1.21l-1-4.62c3.35.1,6-.07,6.08-.08Z" opacity="0.2"/>
      <path id="Path_1773" data-name="Path 1773" d="M266.51,170.24c-2.33,0-4-.11-4.15-.12l.31-4.6c.11,0,10.67.69,16.09-1.5,4.33-1.76,9.09-13.91,11.21-24.64,1.33-6.8.6-8.94,0-9.62-.12-.14-.44-.53-1.66-.53H284.1c-1.22,3.67-3.18,7.36-6.11,7.36h-8.5V132h8.15a17.45,17.45,0,0,0,2.53-5.68l.47-1.68h7.67a6.38,6.38,0,0,1,5.22,2.22c2,2.41,2.26,6.55.91,13.43a87.06,87.06,0,0,1-4.88,16.18c-2.76,6.52-5.83,10.51-9.11,11.84C276.45,169.93,270.48,170.24,266.51,170.24Z" fill="#ffc727"/>
      <path id="Path_1774" data-name="Path 1774" d="M276.29,131.98h-6.75v4.61h5.71Z" opacity="0.2"/>
      <path id="Path_1775" data-name="Path 1775" d="M262.36,170.12c.18,0,1.82.12,4.15.12h1.21l1-4.62c-3.35.1-6-.07-6.08-.08Z" opacity="0.2"/>
      <path id="Path_1776" data-name="Path 1776" d="M220.38,216.21v2.58h48.07v-2.58h-4.12l-3.06-4.4-13.99-5.57v-27.3h-5.72v27.3l-13.99,5.57-3.07,4.4Z" fill="#ffc727"/>
      <rect id="Rectangle_71" data-name="Rectangle 71" width="8.88" height="2.87" transform="translate(248.86 182.58) rotate(180)" fill="#ffc727"/>
      <path id="Path_1777" data-name="Path 1777" d="M239.98,181.54l8.88-.39v-1.44h-8.88Z" opacity="0.2"/>
      <path id="Path_1778" data-name="Path 1778" d="M215,121.56s2.25,37.19,8.11,47.47,18.37,11.15,21.29,11.15,15.42-.88,21.28-11.15,8.11-47.47,8.11-47.47Z" fill="#ffc727"/>
      <path id="Path_1779" data-name="Path 1779" d="M240,179.76c-5-.85-12.63-3.39-16.82-10.73-5.86-10.28-8.11-47.47-8.11-47.47h5.53c.76,7.81,2.25,37.64,6.49,46.32C230.75,175.47,239.36,179.54,240,179.76Z" fill="#fff" opacity="0.3"/>
      <path id="Path_1780" data-name="Path 1780" d="M264.33,216.21H224.5l1.1-1.58,36.66-1.39Z" opacity="0.2"/>
      <path id="Path_1781" data-name="Path 1781" d="M244.42,133.3l3.16,6.41,7.06,1.02-5.11,4.98,1.21,7.04-6.32-3.32-6.32,3.32,1.21-7.04-5.12-4.98,7.07-1.02Z" opacity="0.1"/>
    </g>
    <g id="freepik--Sparkles--inject-14" transform="translate(3055.44 2057.011)">
      <path id="Path_1900" data-name="Path 1900" d="M278.68,233.47l-3.55.65-.79,3.74-.79-3.74-3.55-.65,3.54-.87.8-3.53.81,3.53Z" fill="#ffc727"/>
      <path id="Path_1901" data-name="Path 1901" d="M238.53,114.22l-3.54.66-.8,3.73-.79-3.73-3.54-.66,3.53-.86.8-3.53.81,3.53Z" fill="#ffc727"/>
      <path id="Path_1902" data-name="Path 1902" d="M208.6,202.01l-3.54.65-.79,3.74-.79-3.74-3.55-.66,3.53-.86.81-3.53.8,3.53Z" fill="#ffc727"/>
      <path id="Path_1903" data-name="Path 1903" d="M296,176.42l-3.54.65-.79,3.74-.8-3.74-3.54-.65,3.53-.87.81-3.53.8,3.53Z" fill="#ffc727"/>
      <path id="Path_1904" data-name="Path 1904" d="M324.49,164.2l-1.98.37-.44,2.09-.45-2.09-1.98-.37,1.98-.48.45-1.98.45,1.98Z" fill="#ffc727"/>
      <path id="Path_1905" data-name="Path 1905" d="M238.7,228.89l-1.98.36-.45,2.09-.44-2.09-1.98-.36,1.97-.49.45-1.97.45,1.97Z" fill="#ffc727"/>
      <path id="Path_1906" data-name="Path 1906" d="M270.62,116.85l-1.98.37-.44,2.09-.45-2.09-1.98-.37,1.98-.48.45-1.97.45,1.97Z" fill="#ffc727"/>
      <path id="Path_1907" data-name="Path 1907" d="M309.28,197.99l-1.98.36-.45,2.09-.44-2.09-1.98-.36,1.97-.49.45-1.97.45,1.97Z" fill="#ffc727"/>
      <path id="Path_1908" data-name="Path 1908" d="M293.16,202l-1.98.37-.44,2.09-.45-2.09-1.98-.37,1.97-.48.46-1.97.45,1.97Z" fill="#ffc727"/>
      <path id="Path_1909" data-name="Path 1909" d="M195.6,217.93l-1.98.37-.45,2.09-.44-2.09-1.98-.37,1.97-.48.45-1.97.45,1.97Z" fill="#ffc727"/>
      <path id="Path_1910" data-name="Path 1910" d="M206.38,159.38l-1.98.37-.45,2.08-.44-2.08-1.98-.37,1.97-.48.45-1.98.45,1.98Z" fill="#ffc727"/>
      <path id="Path_1911" data-name="Path 1911" d="M285,211.34a.58.58,0,1,0,.5.575A.58.58,0,0,0,285,211.34Z" fill="#ffc727"/>
      <path id="Path_1912" data-name="Path 1912" d="M191.4,125.85a.58.58,0,1,0,.5.575A.58.58,0,0,0,191.4,125.85Z" fill="#ffc727"/>
      <path id="Path_1913" data-name="Path 1913" d="M304.43,156.5a.58.58,0,1,0,.5.575.58.58,0,0,0-.5-.575Z" fill="#ffc727"/>
      <path id="Path_1914" data-name="Path 1914" d="M187.91,199a.58.58,0,1,0,.5.575A.58.58,0,0,0,187.91,199Z" fill="#ffc727"/>
      <path id="Path_1915" data-name="Path 1915" d="M181.4,171.21a.41.41,0,1,0,.346.4.41.41,0,0,0-.346-.4Z" fill="#ffc727"/>
      <path id="Path_1916" data-name="Path 1916" d="M246.23,224.19a.41.41,0,1,0,.41.41A.41.41,0,0,0,246.23,224.19Z" fill="#ffc727"/>
      <path id="Path_1917" data-name="Path 1917" d="M214.72,241.81a.41.41,0,1,0,.346.4.41.41,0,0,0-.346-.4Z" fill="#ffc727"/>
      <path id="Path_1918" data-name="Path 1918" d="M272.77,217a1.11,1.11,0,1,0,1,1.105A1.11,1.11,0,0,0,272.77,217Z" fill="#ffc727"/>
      <path id="Path_1919" data-name="Path 1919" d="M245.84,106.45a1.11,1.11,0,1,0,1,1.105,1.11,1.11,0,0,0-1-1.105Z" fill="#ffc727"/>
      <path id="Path_1920" data-name="Path 1920" d="M219.92,238.07a1.1,1.1,0,1,0,1.1,1.1,1.1,1.1,0,0,0-1.1-1.1Z" fill="#ffc727"/>
    </g>
  </g>
</svg>
