<svg xmlns="http://www.w3.org/2000/svg" xmlns:xlink="http://www.w3.org/1999/xlink" width="361" height="161" viewBox="0 0 361 161">
  <defs>
    <filter id="Rectangle_88" x="0" y="0" width="361" height="161" filterUnits="userSpaceOnUse">
      <feOffset dy="3" input="SourceAlpha"/>
      <feGaussianBlur stdDeviation="3" result="blur"/>
      <feFlood flood-opacity="0.161"/>
      <feComposite operator="in" in2="blur"/>
      <feComposite in="SourceGraphic"/>
    </filter>
    <clipPath id="clip-path">
      <rect id="Rectangle_99" data-name="Rectangle 99" width="343" height="143" rx="5" transform="translate(78 435.5)" fill="none" stroke="#707070" stroke-width="1"/>
    </clipPath>
  </defs>
  <g id="Group_671" data-name="Group 671" transform="translate(-7 -429)">
    <g id="Group_302" data-name="Group 302">
      <g transform="matrix(1, 0, 0, 1, 7, 429)" filter="url(#Rectangle_88)">
        <rect id="Rectangle_88-2" data-name="Rectangle 88" width="343" height="143" rx="5" transform="translate(9 6)" fill="#fff"/>
      </g>
      <g id="Mask_Group_13" data-name="Mask Group 13" transform="translate(-62 -0.5)" clip-path="url(#clip-path)">
        <g id="Happy_birthday-pana" data-name="Happy birthday-pana" transform="translate(-0.61 383.42)">
          <g id="freepik--background-complete--inject-5">
            <path id="Path_1984" data-name="Path 1984" d="M464.24,226.65a8.633,8.633,0,0,1-1-1,13.35,13.35,0,0,1-2.2-3.39,15.369,15.369,0,0,1-1.4-6.23A14.61,14.61,0,0,1,462,208c1.68-2.69,4.16-5.12,6.62-7.83a31,31,0,0,0,3.45-4.47,14.18,14.18,0,0,0,2.09-5.51,11.48,11.48,0,0,0-.94-6.07,26,26,0,0,0-3.45-5.55c-1.36-1.78-2.86-3.53-4.23-5.43a26.23,26.23,0,0,1-3.39-6.26,15.759,15.759,0,0,1-.93-7.08,12.11,12.11,0,0,1,2.78-6.4,9,9,0,0,1,5.85-3.22,5.17,5.17,0,0,1,3.26.66,3.47,3.47,0,0,1,1.64,2.83,3.07,3.07,0,0,1-1.76,2.64,4,4,0,0,1-3.08.3,9.6,9.6,0,0,1-4.56-3.51,20.32,20.32,0,0,1-3.93-9.45,31,31,0,0,1-.08-8.47,59.885,59.885,0,0,1,1.14-6.29c.4-1.7.75-3,1-3.9l.29-1a1.2,1.2,0,0,1,.11-.34,1.558,1.558,0,0,1-.06.35c-.05.26-.13.6-.23,1-.21.94-.5,2.25-.88,3.93a60.4,60.4,0,0,0-1,6.27,30.431,30.431,0,0,0,.15,8.37,20.1,20.1,0,0,0,3.9,9.23,9.19,9.19,0,0,0,4.33,3.32,3.56,3.56,0,0,0,2.71-.27,2.54,2.54,0,0,0,1.48-2.19,3,3,0,0,0-1.41-2.38,4.55,4.55,0,0,0-2.92-.57,8.45,8.45,0,0,0-5.48,3,11.64,11.64,0,0,0-2.64,6.07,15.26,15.26,0,0,0,.91,6.82,25.56,25.56,0,0,0,3.32,6.13c1.35,1.87,2.84,3.61,4.21,5.41a27.31,27.31,0,0,1,3.51,5.68,11.94,11.94,0,0,1,.95,6.34,14.58,14.58,0,0,1-2.18,5.71,31,31,0,0,1-3.52,4.53c-2.5,2.7-5,5.1-6.63,7.73A14.22,14.22,0,0,0,460,216a15.376,15.376,0,0,0,1.279,6.137,14,14,0,0,0,2.091,3.4C463.9,226.29,464.26,226.62,464.24,226.65Z" fill="#e0e0e0"/>
            <path id="Path_1986" data-name="Path 1986" d="M462.92,119.58c-.54.75-1.71,3.37-2.12,4.19a1.45,1.45,0,0,0-.19,1.25,1,1,0,0,0,1.28.41,2.94,2.94,0,0,0,1.15-.9,1.39,1.39,0,1,0,2.71-.61,2.47,2.47,0,0,0,1.09.94.86.86,0,0,0,1.14-.59,1.28,1.28,0,0,0-.38-.83l-2.86-3.6" fill="#f5f5f5"/>
            <path id="Path_1990" data-name="Path 1990" d="M53.36,267.53a8.642,8.642,0,0,1-.92-.92,12.191,12.191,0,0,1-2-3.12,14.21,14.21,0,0,1-1.29-5.76,13.42,13.42,0,0,1,2.22-7.45,52.879,52.879,0,0,1,6.11-7.23,28.78,28.78,0,0,0,3.18-4.13,13.1,13.1,0,0,0,1.93-5.09,10.53,10.53,0,0,0-.87-5.6,24.09,24.09,0,0,0-3.18-5.13c-1.26-1.64-2.64-3.25-3.9-5a24.12,24.12,0,0,1-3.13-5.79,14.51,14.51,0,0,1-.87-6.54,11.21,11.21,0,0,1,2.56-5.86,8.31,8.31,0,0,1,5.4-3,4.79,4.79,0,0,1,3,.61,3.19,3.19,0,0,1,1.52,2.61,2.85,2.85,0,0,1-1.63,2.44,3.76,3.76,0,0,1-2.84.28,8.82,8.82,0,0,1-4.21-3.24,18.77,18.77,0,0,1-3.63-8.73,28.57,28.57,0,0,1-.07-7.82,54,54,0,0,1,1-5.8c.37-1.57.69-2.79.92-3.61.11-.39.19-.69.26-.93a1.19,1.19,0,0,1,.11-.31,2.55,2.55,0,0,1-.06.32c-.05.24-.12.55-.21.95-.2.86-.47,2.08-.82,3.62a56.339,56.339,0,0,0-1,5.8,28.44,28.44,0,0,0,.14,7.72,18.52,18.52,0,0,0,3.6,8.52,8.58,8.58,0,0,0,4,3.07,3.3,3.3,0,0,0,2.5-.25,2.39,2.39,0,0,0,1.37-2,2.73,2.73,0,0,0-1.3-2.19,4.23,4.23,0,0,0-2.7-.53,7.75,7.75,0,0,0-5.06,2.81,10.68,10.68,0,0,0-2.43,5.6,13.79,13.79,0,0,0,.84,6.29,22.9,22.9,0,0,0,3.1,5.65c1.24,1.73,2.62,3.34,3.88,5A24.71,24.71,0,0,1,62.14,228a11,11,0,0,1,.89,5.85,13.75,13.75,0,0,1-2,5.27,29.247,29.247,0,0,1-3.25,4.18,54.509,54.509,0,0,0-6.12,7.13,13.23,13.23,0,0,0-2.24,7.26,14.12,14.12,0,0,0,1.19,5.67,12.71,12.71,0,0,0,1.93,3.15C53.06,267.2,53.38,267.51,53.36,267.53Z" fill="#e0e0e0"/>
            <path id="Path_1992" data-name="Path 1992" d="M52.15,168.68c-.5.7-1.58,3.11-2,3.87A1.37,1.37,0,0,0,50,173.7a1,1,0,0,0,1.18.39,2.87,2.87,0,0,0,1.07-.83,1.29,1.29,0,1,0,2.5-.57,2.29,2.29,0,0,0,1,.87.79.79,0,0,0,1-.55,1.11,1.11,0,0,0-.34-.76l-2.64-3.33" fill="#f5f5f5"/>
            <path id="Path_1993" data-name="Path 1993" d="M64.54,77.5s12.75,22.76,15.68,21.62C84,97.66,90.06,73,90.06,73S66.82,77.18,64.54,77.5Z" fill="#f5f5f5"/>
            <path id="Path_1994" data-name="Path 1994" d="M92.59,72.52S107.32,94,110.14,92.64c3.63-1.79,7.47-26.93,7.47-26.93S94.84,72,92.59,72.52Z" fill="#ebebeb"/>
            <path id="Path_1995" data-name="Path 1995" d="M120,64.91S136.61,85,139.29,83.38c3.46-2.12,5-27.49,5-27.49S122.19,64.18,120,64.91Z" fill="#f5f5f5"/>
            <path id="Path_1996" data-name="Path 1996" d="M145.44,55.54s17.76,19.11,20.34,17.31c3.33-2.31,3.4-27.74,3.4-27.74S147.59,54.68,145.44,55.54Z" fill="#ebebeb"/>
            <path id="Path_1997" data-name="Path 1997" d="M170.46,43.94s19.63,17.17,22,15.12c3.08-2.65.51-27.95.51-27.95S172.5,42.87,170.46,43.94Z" fill="#f5f5f5"/>
            <path id="Path_1998" data-name="Path 1998" d="M194.25,30.25s20.88,15.63,23.1,13.4c2.86-2.87-1.61-27.9-1.61-27.9S196.2,29,194.25,30.25Z" fill="#ebebeb"/>
            <path id="Path_1999" data-name="Path 1999" d="M36.49,80.08s10.92,23.69,13.93,22.78c3.89-1.16,11.87-25.3,11.87-25.3S38.8,79.93,36.49,80.08Z" fill="#ebebeb"/>
            <path id="Path_2000" data-name="Path 2000" d="M236.09,0l-.49.44q-.51.42-1.47,1.26l-2.38,2L230.22,5l-1.77,1.43-4.17,3.38-5.06,3.89c-.9.7-1.86,1.4-2.84,2.12l-3.06,2.23c-.53.38-1,.77-1.6,1.15l-1.67,1.16-3.47,2.4a332.538,332.538,0,0,1-34.8,20.65c-6.8,3.44-14,6.87-21.65,10.15s-15.66,6.31-24,9.14l-6.23,2.06-6.19,1.89-1.54.46-1.54.43-3.06.85-3,.84-3,.77c-2,.49-4,1-6,1.47l-5.89,1.34c-2,.43-3.89.79-5.81,1.18L81,74.6l-2.83.49c-7.5,1.39-14.69,2.29-21.42,3.08s-13,1.19-18.8,1.41l-4.22.18c-1.36.06-2.7,0-4,.08-2.59,0-5,.09-7.33,0s-4.42,0-6.38-.1l-5.36-.23c-.8,0-1.56-.06-2.28-.11l-2-.14-3.14-.22-1.92-.15-.65-.06h.65L3.25,79l3.13.2,2,.13c.71,0,1.47.06,2.28.1l5.35.2c2,.06,4.09,0,6.38.09s4.73,0,7.33-.06c1.3,0,2.63,0,4-.09l4.21-.18c5.76-.24,12-.76,18.79-1.45s13.91-1.7,21.39-3.1L81,74.36l2.85-.58c1.91-.39,3.85-.75,5.79-1.18l5.9-1.33c2-.45,4-1,6-1.48l3-.77,3-.84,3-.85,1.54-.43,1.53-.47,6.19-1.88,6.22-2.06c8.32-2.83,16.33-5.91,24-9.13s14.84-6.69,21.64-10.13a336.135,336.135,0,0,0,34.81-20.58l3.47-2.4c.57-.38,1.12-.77,1.67-1.15l1.6-1.15,3.06-2.22c1-.72,1.95-1.41,2.86-2.11l5.07-3.87,4.18-3.36L230.17,5l1.53-1.29,2.4-2L235.58.42Z" fill="#455a64"/>
            <path id="Path_2001" data-name="Path 2001" d="M24.47,80.4H20.03c-1.42,0-2.76,0-4-.07L9.78,80a9.518,9.518,0,0,1-1.44-.07l-7.06-.51-.67-.06.07-1h.67l7.06.46,1.42.06,6.2.23c1.25,0,2.57,0,3.95.06H31.11c.85,0,1.71,0,2.58-.07l4.22-.18c5.21-.22,11.17-.68,18.75-1.45C63,76.7,70.39,75.78,78,74.36l5.68-1.07,2-.4c1.25-.25,2.5-.5,3.75-.78l5.9-1.33c1.27-.29,2.55-.61,3.83-.94l2.14-.54,6-1.6,6.21-1.7,6.18-1.89,6.21-2c8-2.71,16-5.78,23.93-9.12,7.06-3,14.33-6.43,21.61-10.12A335.184,335.184,0,0,0,206.2,22.23l7.65-5.35L216.39,15c.84-.62,1.66-1.21,2.44-1.81l5.07-3.88,7.48-6.06L235.26,0l.52-.42.65.76-.51.44-7.15,6.05-4.17,3.38-5.07,3.89c-.78.62-1.61,1.22-2.47,1.85l-4,2.92-1.05.75-5.14,3.56A336.825,336.825,0,0,1,172,43.89c-7.31,3.71-14.6,7.13-21.68,10.17-7.94,3.35-16,6.43-24,9.16l-6.23,2.06L104.7,69.75l-3,.77-2.15.54c-1.28.33-2.56.66-3.85.94l-5.89,1.33c-1.28.29-2.54.54-3.8.78l-2,.41-5.7,1.06C70.56,77,63.14,77.92,56.8,78.66c-7.61.77-13.59,1.22-18.84,1.42l-4.21.18c-.9,0-1.78,0-2.65.06H28.07C26.83,80.38,25.63,80.4,24.47,80.4Z" fill="#e0e0e0"/>
            <path id="Path_2002" data-name="Path 2002" d="M317.86,37.92s-4.35,25.72-1.36,26.67c3.87,1.23,24.08-14.19,24.08-14.19S319.84,39.1,317.86,37.92Z" fill="#f5f5f5"/>
            <path id="Path_2003" data-name="Path 2003" d="M341.73,52.74s-2,26,1,26.69c4,.88,22.71-16.29,22.71-16.29S343.81,53.74,341.73,52.74Z" fill="#ebebeb"/>
            <path id="Path_2004" data-name="Path 2004" d="M369,62.92s.31,26.08,3.43,26.48c4,.52,21.15-18.26,21.15-18.26S371.11,63.72,369,62.92Z" fill="#f5f5f5"/>
            <path id="Path_2005" data-name="Path 2005" d="M393.53,72.69s1.84,26,5,26.24c4.05.28,20.06-19.47,20.06-19.47S395.74,73.37,393.53,72.69Z" fill="#ebebeb"/>
            <path id="Path_2006" data-name="Path 2006" d="M420.28,79.36s4.52,25.68,7.66,25.58c4.06-.13,17.94-21.44,17.94-21.44S422.55,79.8,420.28,79.36Z" fill="#f5f5f5"/>
            <path id="Path_2007" data-name="Path 2007" d="M447.4,83.62s6.45,25.27,9.58,24.93c4-.44,16.26-22.73,16.26-22.73S449.7,83.9,447.4,83.62Z" fill="#ebebeb"/>
            <path id="Path_2008" data-name="Path 2008" d="M293.3,23.43s-6.36,25.29-3.45,26.48C293.61,51.44,315,37.66,315,37.66S295.19,24.76,293.3,23.43Z" fill="#ebebeb"/>
            <path id="Path_2009" data-name="Path 2009" d="M499,86.33h-.66l-1.92.06-3.14.09-2,.06h-7.65l-6.38-.15c-1.14,0-2.33-.08-3.55-.14l-3.78-.18-2-.1-2-.15-4.21-.31a330.251,330.251,0,0,1-40.06-5.76c-7.45-1.58-15.23-3.45-23.22-5.68S382.25,69.21,374,66.19l-6.14-2.3-6-2.42-1.49-.6-1.47-.64L356,59l-2.9-1.25-2.84-1.31c-1.87-.88-3.76-1.7-5.58-2.6l-5.43-2.67c-1.79-.88-3.53-1.82-5.26-2.72l-2.58-1.35-2.52-1.39c-6.7-3.62-12.87-7.44-18.6-11s-10.9-7.26-15.53-10.7l-3.39-2.51c-1.11-.81-2.14-1.66-3.17-2.45-2-1.6-4-3.09-5.73-4.57s-3.42-2.8-4.9-4.09l-4-3.54c-.6-.53-1.18-1-1.71-1.51L270.4,3.98l-2.3-2.14L266.65.46,266.17,0s.17.14.49.44l1.43,1.3,2.31,2.12,1.47,1.35c.53.49,1.11,1,1.72,1.51l4,3.52c1.49,1.27,3.15,2.6,4.91,4.07s3.7,3,5.75,4.55c1,.79,2.06,1.64,3.17,2.44l3.39,2.5c4.63,3.43,9.86,7,15.53,10.66s11.91,7.4,18.61,11l2.52,1.39,2.58,1.34c1.73.9,3.46,1.83,5.25,2.72l5.43,2.66c1.82.9,3.7,1.72,5.58,2.6l2.84,1.3,2.89,1.25L359,60l1.47.64,1.49.59,6,2.42,6.14,2.3c8.25,3,16.42,5.65,24.39,7.93s15.76,4.11,23.2,5.69a334.811,334.811,0,0,0,40,5.82l4.2.32,2,.15,2,.1,3.78.2c1.22.06,2.4.13,3.55.14l6.37.17h9.64l3.13-.06h1.93A3.365,3.365,0,0,1,499,86.33Z" fill="#e0e0e0"/>
            <path id="Path_2010" data-name="Path 2010" d="M83.46,35.83c-.72,0-1.33-2.09-1.38-4.7s.51-4.72,1.23-4.73,1.34,2.09,1.38,4.69S84.18,35.82,83.46,35.83Z" fill="#ebebeb"/>
            <path id="Path_2011" data-name="Path 2011" d="M276.86,126.1c-.25.68-2.64.42-5.43-.23s-5-1.49-5-2.22,2.59-1,5.56-.31S277.11,125.43,276.86,126.1Z" fill="#ebebeb"/>
            <path id="Path_2012" data-name="Path 2012" d="M325.6,122c-.59.4-2.65-1.58-4.6-4.43s-3-5.5-2.45-5.9,2.66,1.58,4.6,4.43S326.2,121.63,325.6,122Z" fill="#ebebeb"/>
            <path id="Path_2013" data-name="Path 2013" d="M43.2,328.12c.18.69-1.25,1.67-3.19,2.18s-3.68.37-3.86-.33,1.25-1.67,3.19-2.18S43,327.42,43.2,328.12Z" fill="#ebebeb"/>
            <path id="Path_2015" data-name="Path 2015" d="M417.33,89.26c.43.59-.63,2.1-1.95,3.79s-2.54,3.07-3.22,2.79-.4-2.4,1.18-4.4S416.92,88.69,417.33,89.26Z" fill="#ebebeb"/>
            <path id="Path_2017" data-name="Path 2017" d="M433,149.79c-.66-.29-.77-1.48-.25-2.64s1.47-1.88,2.13-1.59.77,1.48.25,2.64S433.64,150.08,433,149.79Z" fill="#ebebeb"/>
            <path id="Path_2018" data-name="Path 2018" d="M252.78,24.77c-.59-.41-.34-1.8.57-3.1s2.12-2,2.71-1.6.33,1.8-.57,3.1S253.36,25.18,252.78,24.77Z" fill="#ebebeb"/>
            <path id="Path_2019" data-name="Path 2019" d="M176.9,108.05c-.14.71-1.73,1-3.55.63s-3.18-1.23-3-1.93,1.72-1,3.55-.63S177,107.35,176.9,108.05Z" fill="#ebebeb"/>
          </g>
          <g id="freepik--Floor--inject-5">
            <path id="Path_2020" data-name="Path 2020" d="M479.25,431.58c0,.15-102.65.27-229.24.27s-229.26-.12-229.26-.27,102.63-.26,229.26-.26S479.25,431.44,479.25,431.58Z" fill="#263238"/>
          </g>
          <g id="freepik--Confetti--inject-5">
            <path id="Path_2021" data-name="Path 2021" d="M215.13,129.59c-.72,0-1.34-2.09-1.38-4.69s.51-4.73,1.23-4.74,1.34,2.09,1.38,4.7S215.85,129.58,215.13,129.59Z" fill="#ffc100"/>
            <path id="Path_2022" data-name="Path 2022" d="M209.44,87.81c-.25.68-2.64.43-5.43-.22s-5-1.5-5-2.22,2.6-1,5.56-.32S209.69,87.14,209.44,87.81Z" fill="#ffc100"/>
            <path id="Path_2024" data-name="Path 2024" d="M32.85,255.43c.18.7-1.25,1.68-3.19,2.19s-3.68.36-3.86-.33,1.25-1.68,3.19-2.19S32.67,254.74,32.85,255.43Z" fill="#ffc100"/>
            <path id="Path_2026" data-name="Path 2026" d="M411.86,82.58c-.43-.57.58-2.09,2.26-3.38s3.41-1.89,3.85-1.32-.57,2.08-2.26,3.38S412.3,83.15,411.86,82.58Z" fill="#ffc100"/>
            <path id="Path_2027" data-name="Path 2027" d="M418,116.87c.43.59-.63,2.1-2,3.79s-2.54,3.07-3.22,2.79-.39-2.4,1.18-4.4S417.63,116.3,418,116.87Z" fill="#ffc100"/>
            <path id="Path_2028" data-name="Path 2028" d="M371,203.84c.43.59-.63,2.09-1.94,3.79s-2.55,3.06-3.22,2.78-.4-2.4,1.17-4.39S370.58,203.26,371,203.84Z" fill="#ffc100"/>
            <path id="Path_2029" data-name="Path 2029" d="M353.27,110.5c-.45.57-1.86.18-3.16-.86s-2-2.33-1.54-2.89,1.87-.18,3.16.86S353.72,109.94,353.27,110.5Z" fill="#455a64"/>
            <path id="Path_2030" data-name="Path 2030" d="M462.87,158.7c-.66-.29-.77-1.47-.26-2.64s1.48-1.88,2.13-1.58.77,1.47.25,2.64S463.52,159,462.87,158.7Z" fill="#455a64"/>
            <path id="Path_2031" data-name="Path 2031" d="M253.49,52.38c-.59-.41-.33-1.8.57-3.1s2.12-2,2.71-1.6.33,1.8-.57,3.1S254.07,52.79,253.49,52.38Z" fill="#455a64"/>
            <path id="Path_2033" data-name="Path 2033" d="M41.17,175.52A4.88,4.88,0,0,1,38.81,177a10.48,10.48,0,0,1-7.62-.29A9.88,9.88,0,0,1,27,173.33a10.53,10.53,0,0,1-1.29-2.8,11.18,11.18,0,0,1,2-9.72,8.7,8.7,0,0,1,6.68-3.4A5.43,5.43,0,0,1,38.07,159a4.22,4.22,0,0,1,1.17,3.88,5.5,5.5,0,0,1-3.79,4,6.779,6.779,0,0,1-1.77.23,9,9,0,0,1-5.78-2.49,11.67,11.67,0,0,1-3-4.47,11.87,11.87,0,0,1-.3-7.62,5.25,5.25,0,0,1,1.3-2.47c.12.07-.36.93-.71,2.62a12,12,0,0,0,.74,7,10.63,10.63,0,0,0,2.84,3.92,7.81,7.81,0,0,0,4.92,2,4.16,4.16,0,0,0,2.56-.82,3.87,3.87,0,0,0,1.5-2.28,2.68,2.68,0,0,0-.77-2.48A3.94,3.94,0,0,0,34.29,159a6.07,6.07,0,0,0-3,.8,8.52,8.52,0,0,0-2.42,2,9.89,9.89,0,0,0-2.11,5.59,10.12,10.12,0,0,0,.25,2.82,9.63,9.63,0,0,0,1,2.43,8.74,8.74,0,0,0,3.62,3.1,10.45,10.45,0,0,0,7,.72C40.28,176,41.1,175.4,41.17,175.52Z" fill="#455a64"/>
            <path id="Path_2034" data-name="Path 2034" d="M147.23,97.87a17.821,17.821,0,0,0-2.72,1.44,7.74,7.74,0,0,0-2.25,2.67,6.82,6.82,0,0,0-.56,4.45,6.71,6.71,0,0,0,2.91,4.4,4.26,4.26,0,0,0,2.73.59,2,2,0,0,0,1.74-1.71,3,3,0,0,0-1-2.66,6,6,0,0,0-3.06-1.39,8.4,8.4,0,0,0-6.85,2.07,7,7,0,0,0-2.44,6.53,5.34,5.34,0,0,0,1.51,2.94,3.53,3.53,0,0,0,2.82,1,3.75,3.75,0,0,0,2.58-1.25,2.57,2.57,0,0,0,.47-2.48,3.9,3.9,0,0,0-1.62-2,4,4,0,0,0-2.37-.62,6.53,6.53,0,0,0-4,1.86,10.59,10.59,0,0,0-2.07,2.89,28.32,28.32,0,0,1-1.34,2.85,8,8,0,0,1,.79-3.1,10.15,10.15,0,0,1,2-3.25,7.28,7.28,0,0,1,4.58-2.35,5.17,5.17,0,0,1,5.3,3.35,4.12,4.12,0,0,1,.18,1.92,3.87,3.87,0,0,1-.81,1.84,5.38,5.38,0,0,1-5.62,1.6,5,5,0,0,1-1.87-1.1,6.75,6.75,0,0,1-2-3.76,8.16,8.16,0,0,1,.37-4.34,9,9,0,0,1,2.54-3.64,9.84,9.84,0,0,1,8.14-2.41,7.48,7.48,0,0,1,3.82,1.82,4.47,4.47,0,0,1,1.44,4,3.42,3.42,0,0,1-1,2,3.51,3.51,0,0,1-1.92.89A5.52,5.52,0,0,1,144,112a7.81,7.81,0,0,1-3.34-5.32,7.67,7.67,0,0,1,.88-5.06,8,8,0,0,1,2.67-2.76C146,97.71,147.24,97.8,147.23,97.87Z" fill="#455a64"/>
            <path id="Path_2035" data-name="Path 2035" d="M354.85,144.56a17.551,17.551,0,0,0,1.84,2.48,7.76,7.76,0,0,0,3,1.81,6.82,6.82,0,0,0,4.49-.12,6.71,6.71,0,0,0,3.9-3.55,4.26,4.26,0,0,0,.17-2.79,2,2,0,0,0-2-1.45,3,3,0,0,0-2.46,1.43,6,6,0,0,0-.92,3.24,8.41,8.41,0,0,0,3.09,6.45,7,7,0,0,0,6.82,1.41,5.24,5.24,0,0,0,2.68-1.93,3.54,3.54,0,0,0,.54-2.93,3.72,3.72,0,0,0-1.62-2.37,2.57,2.57,0,0,0-2.53-.08,3.93,3.93,0,0,0-1.77,1.9,4,4,0,0,0-.25,2.45,6.53,6.53,0,0,0,2.45,3.71,10.849,10.849,0,0,0,3.17,1.6,27.109,27.109,0,0,1,3,.89,8,8,0,0,1-3.18-.3,10.57,10.57,0,0,1-3.52-1.49,7.26,7.26,0,0,1-3-4.18,5.15,5.15,0,0,1,2.51-5.73,3.88,3.88,0,0,1,3.81,0,5.16,5.16,0,0,1,2.33,3.21,5.46,5.46,0,0,1,.11,2.1,4.93,4.93,0,0,1-.81,2,6.81,6.81,0,0,1-3.42,2.55,8.14,8.14,0,0,1-4.33.29,9,9,0,0,1-4-2,9.86,9.86,0,0,1-3.62-7.69,7.37,7.37,0,0,1,1.22-4,4.46,4.46,0,0,1,3.71-2,3.42,3.42,0,0,1,2.08.71,3.55,3.55,0,0,1,1.17,1.77,5.57,5.57,0,0,1-.28,3.69,7.77,7.77,0,0,1-4.74,4.1,7.61,7.61,0,0,1-5.14-.1,8,8,0,0,1-3.14-2.22C354.88,145.8,354.78,144.56,354.85,144.56Z" fill="#455a64"/>
            <path id="Path_2036" data-name="Path 2036" d="M274.12,105.77c0,.08-.54.41-1.68.52a7.62,7.62,0,0,1-4.67-1.13A7.93,7.93,0,0,1,264.1,99a7.72,7.72,0,0,1,.91-4.33,5.68,5.68,0,0,1,1.63-1.84,4,4,0,0,1,2.55-.76,3.77,3.77,0,0,1,2.51,1.06,3.09,3.09,0,0,1,.85,2.61A3.87,3.87,0,0,1,271.38,98a4.11,4.11,0,0,1-2.12,1,6.21,6.21,0,0,1-4-.72A7.74,7.74,0,0,1,262.7,96a7.54,7.54,0,0,1-1.46-4.59c.05-1.14.34-1.72.42-1.7s0,.63.19,1.67a7.8,7.8,0,0,0,1.73,4,7,7,0,0,0,2.28,1.79,5.07,5.07,0,0,0,3.12.46,2.72,2.72,0,0,0,1.36-.72,2.37,2.37,0,0,0,.69-1.37,1.51,1.51,0,0,0-.44-1.31,2.23,2.23,0,0,0-1.47-.6,3.17,3.17,0,0,0-2.78,1.8,6.42,6.42,0,0,0-.8,3.48,7,7,0,0,0,2.84,5.35,7.89,7.89,0,0,0,4.06,1.44C273.49,105.76,274.09,105.65,274.12,105.77Z" fill="#455a64"/>
          </g>
          <g id="freepik--Gifts--inject-5">
            <path id="Path_2224" data-name="Path 2224" d="M85.78,375.09a7.38,7.38,0,0,1,.67-4.63A5.59,5.59,0,0,1,90,367.57a4.52,4.52,0,0,1,4.35,1.3A5.37,5.37,0,0,1,95.6,372a15.779,15.779,0,0,1-.2,3.43" fill="#263238"/>
            <path id="Path_2225" data-name="Path 2225" d="M90.76,372.18A64.19,64.19,0,0,0,80,357.13a9.18,9.18,0,0,0-4.26-2.91,6.73,6.73,0,0,0-6.22,2.34,19.889,19.889,0,0,0-3.35,6.07c-1,2.48-2,5.46-.49,7.68a7.86,7.86,0,0,0,3.59,2.53,72.581,72.581,0,0,0,19,5.37" fill="#263238"/>
            <path id="Path_2226" data-name="Path 2226" d="M92.53,372.12a57.319,57.319,0,0,1,9.75-13.43,8.22,8.22,0,0,1,3.83-2.59,6,6,0,0,1,5.55,2.13,17.68,17.68,0,0,1,3,5.44c.89,2.23,1.74,4.9.4,6.89a7,7,0,0,1-3.23,2.24,64.94,64.94,0,0,1-17.07,4.73" fill="#263238"/>
            <path id="Path_2227" data-name="Path 2227" d="M95.53,374.37a7.56,7.56,0,0,0-.26-2.77,5.39,5.39,0,0,0-1.67-2.42,4.89,4.89,0,0,0-3.38-1A5,5,0,0,0,87,369.57a6,6,0,0,0-1.47,2.57,16.6,16.6,0,0,0-.42,2.79,1.78,1.78,0,0,1-.13-.76,7.26,7.26,0,0,1,.19-2.12,6,6,0,0,1,1.49-2.81,5.35,5.35,0,0,1,3.55-1.6,5.22,5.22,0,0,1,3.72,1.17,5.44,5.44,0,0,1,1.72,2.68,5.17,5.17,0,0,1,.14,2.14A1.65,1.65,0,0,1,95.53,374.37Z" fill="#455a64"/>
            <path id="Path_2228" data-name="Path 2228" d="M107.39,366.49a31.79,31.79,0,0,1-5.5,3.07,31,31,0,0,1-5.83,2.38,47.509,47.509,0,0,1,5.6-2.85,49.861,49.861,0,0,1,5.73-2.6Z" fill="#455a64"/>
            <path id="Path_2229" data-name="Path 2229" d="M106.76,362.73a47.915,47.915,0,0,1-5.37,4.56,48.44,48.44,0,0,1-5.7,4.16,48.581,48.581,0,0,1,5.37-4.57,49,49,0,0,1,5.7-4.15Z" fill="#455a64"/>
            <path id="Path_2230" data-name="Path 2230" d="M85.35,372.53a2.93,2.93,0,0,1-1.41,0,14.4,14.4,0,0,1-3.26-1,21.119,21.119,0,0,1-4.29-2.09,22.17,22.17,0,0,1,4.48,1.61A26.391,26.391,0,0,0,84,372.14a5.909,5.909,0,0,1,1.35.39Z" fill="#455a64"/>
            <path id="Path_2231" data-name="Path 2231" d="M85.85,371.18a37.836,37.836,0,0,1-5.23-3.61,39.31,39.31,0,0,1-4.92-4,39.64,39.64,0,0,1,5.23,3.62,39.8,39.8,0,0,1,4.92,3.99Z" fill="#455a64"/>
            <rect id="Rectangle_90" data-name="Rectangle 90" width="64.37" height="56.46" rx="7.73" transform="translate(58.47 375.27)" fill="#455a64"/>
            <rect id="Rectangle_91" data-name="Rectangle 91" width="9.06" height="56.46" transform="translate(86.12 375.27)" fill="#263238"/>
            <rect id="Rectangle_92" data-name="Rectangle 92" width="64.59" height="6.83" transform="translate(58.47 398.89)" fill="#263238"/>
            <path id="Path_2232" data-name="Path 2232" d="M95.4,375a25.048,25.048,0,0,1-5.05.26,25.05,25.05,0,0,1-5-.26,25.052,25.052,0,0,1,5-.26,25.05,25.05,0,0,1,5.05.26Z" fill="#455a64"/>
            <rect id="Rectangle_93" data-name="Rectangle 93" width="53.6" height="30.63" rx="4.13" transform="translate(86.2 400.96)" fill="#263238"/>
            <path id="Path_2233" data-name="Path 2233" d="M139.89,411c0,.14-12.11.26-27,.26s-27-.12-27-.26,12.11-.26,27.05-.26S139.89,410.88,139.89,411Z" fill="#e0e0e0"/>
          </g>
          <g id="freepik--Drinks--inject-5">
            <path id="Path_2234" data-name="Path 2234" d="M372.93,431.15a.8.8,0,0,1,0-.27v-3.66c0-2.54,0-6.2-.07-10.76,0-9.17-.07-22-.12-36.74l.26.25H355.88c.51-.53.14-.14.26-.25h0v28.8c0,8.73,0,16.43-.06,22.61l-.17-.17,12.48.1h4.57a1.45,1.45,0,0,1-.28,0H368.5l-12.59.09h-.17v-.18c0-6.18,0-13.88-.07-22.61V379.53h0c.11-.12-.27.24.26-.28h17.3v.26c-.05,14.82-.09,27.7-.12,36.91,0,4.54-.05,8.18-.07,10.71v3.58a1.66,1.66,0,0,1-.11.44Z" fill="#263238"/>
            <path id="Path_2235" data-name="Path 2235" d="M357.31,379.72H371.2v44.9a2.64,2.64,0,0,1-2.64,2.64H360a2.64,2.64,0,0,1-2.64-2.64v-44.9Z" fill="#455a64"/>
            <path id="Path_2236" data-name="Path 2236" d="M359.45,409c-.14,0-.26-5.95-.26-13.29s.12-13.3.26-13.3.27,5.95.27,13.3S359.6,409,359.45,409Z" fill="#e0e0e0"/>
            <path id="Path_2237" data-name="Path 2237" d="M359.45,417.47a14.2,14.2,0,0,1,0-5.41A13.69,13.69,0,0,1,359.45,417.47Z" fill="#e0e0e0"/>
            <path id="Path_2238" data-name="Path 2238" d="M166,431.43a1.329,1.329,0,0,1,0-.26v-3.66c0-2.55,0-6.21-.07-10.77,0-9.17-.07-22-.11-36.74l.25.25H148.91c.52-.52.15-.14.26-.25h0v28.8c0,8.73-.05,16.43-.07,22.61l-.17-.17,12.49.1H166a.841.841,0,0,1-.28,0h-4.18l-12.59.1h-.17v-.18c0-6.18,0-13.88-.07-22.61V380h0c.12-.12-.26.25.26-.27h17.3V380c-.05,14.82-.09,27.7-.12,36.91,0,4.54-.05,8.18-.07,10.71v3.58a1.661,1.661,0,0,1-.08.23Z" fill="#263238"/>
            <path id="Path_2239" data-name="Path 2239" d="M150.35,380h13.89v44.9a2.64,2.64,0,0,1-2.64,2.64H153a2.64,2.64,0,0,1-2.64-2.64V380Z" fill="#ffc100"/>
            <path id="Path_2240" data-name="Path 2240" d="M152.49,409.23c-.15,0-.26-6-.26-13.29s.11-13.29.26-13.29.26,6,.26,13.29S152.63,409.23,152.49,409.23Z" fill="#e0e0e0"/>
            <path id="Path_2241" data-name="Path 2241" d="M152.49,417.75a14.2,14.2,0,0,1,0-5.41A14.2,14.2,0,0,1,152.49,417.75Z" fill="#e0e0e0"/>
          </g>
          <g id="freepik--Cake--inject-5">
            <path id="Path_2242" data-name="Path 2242" d="M222.48,380.41H331.63a7.82,7.82,0,0,1,7.82,7.82v43.36H214.66V388.23A7.82,7.82,0,0,1,222.48,380.41Z" fill="#ffc100"/>
            <g id="Group_135" data-name="Group 135" opacity="0.4">
              <rect id="Rectangle_94" data-name="Rectangle 94" width="124.79" height="9.61" transform="translate(214.66 409.09)"/>
            </g>
            <g id="Group_136" data-name="Group 136" opacity="0.3">
              <path id="Path_2243" data-name="Path 2243" d="M214.66,392.77c.29,2.5,4.74,2.67,6.56,1.32a8.85,8.85,0,0,1,3.32-1.58c5.05-1.12,5.81,3.86,7.71,7.13a10,10,0,0,0,16.47,1.21c1-1.23,1.66-2.68,2.71-3.84a4.29,4.29,0,0,1,4.16-1.6c1.61.47,2.57,2.26,4.18,2.72s3.49-.72,4.56-2.16c1.37-1.86,2.12-4.2,4.31-5.4a3.12,3.12,0,0,1,3.18,0c1.62,1,1.37,3.16,1.43,5s1,3.72,2.66,3.52c1.4-.18,2-1.89,2.1-3.31.11-1.62.08-3.54,1.74-4.3a2.87,2.87,0,0,1,3.06.58c1.89,1.71,1.89,4.21,2.59,6.43a10.92,10.92,0,0,0,9.52,7.39,10.74,10.74,0,0,0,11-8.52,6.49,6.49,0,0,1,1.39-3.18c4.65-5.39,8.43,2.24,12.75,1,3-.83,3.93-5.48,7.68-5a4.4,4.4,0,0,1,2.37,1.17c2.25,2.06,2.65,5.12,4.23,7.54,1.17,1.79,3.4,3.22,5.4,2.47l-.19-13.58a7.54,7.54,0,0,0-7.54-7.43H222.2a7.54,7.54,0,0,0-7.54,7.54Z" fill="#fff"/>
            </g>
            <path id="Path_2244" data-name="Path 2244" d="M238.37,342.65H316.8a7,7,0,0,1,7,7v30.91H231.4V349.63a7,7,0,0,1,6.97-6.98Z" fill="#ffc100"/>
            <g id="Group_137" data-name="Group 137" opacity="0.4">
              <rect id="Rectangle_95" data-name="Rectangle 95" width="92.37" height="7.11" transform="translate(231.4 363.14)"/>
            </g>
            <g id="Group_138" data-name="Group 138" opacity="0.3">
              <path id="Path_2245" data-name="Path 2245" d="M231.4,351.8c.19,1.66,2.84,1.93,4.37,1.26,2.15-.95,4.27-2.91,6.75-.13a6,6,0,0,1,1.24,2.4,7.39,7.39,0,0,0,12.85,2.45c.73-.91,1.23-2,2-2.84a3.19,3.19,0,0,1,3.08-1.19c1.19.35,1.9,1.68,3.09,2s2.58-.54,3.37-1.6c1-1.36,1.56-3.07,3.14-4a2.33,2.33,0,0,1,2.31-.08c1.31.75,1.11,2.36,1.16,3.73s.75,2.75,2,2.6c1-.13,1.49-1.39,1.56-2.44.09-1.25.06-2.73,1.44-3.25a2.29,2.29,0,0,1,2,.43c1.47,1.27,1.46,3.15,2,4.82a8.08,8.08,0,0,0,7.05,5.47A7.92,7.92,0,0,0,299,355a4.39,4.39,0,0,1,1-2.17c3.46-4,6.26,1.64,9.46.76,2.21-.61,2.89-3.95,5.57-3.69a3.38,3.38,0,0,1,2,1c1.54,1.52,1.85,3.71,3,5.45.87,1.32,2.52,2.38,4,1.82l-.13-8.75a6.89,6.89,0,0,0-6.89-6.8H238.29a6.9,6.9,0,0,0-6.89,6.9Z" fill="#fff"/>
            </g>
            <rect id="Rectangle_96" data-name="Rectangle 96" width="4.54" height="20.11" transform="translate(251.54 322.95)" fill="#263238"/>
            <path id="Path_2246" data-name="Path 2246" d="M256.08,323s-4.54,6-4.54,6.15v3.38l4.54-5.66Z" fill="#f5f5f5"/>
            <path id="Path_2247" data-name="Path 2247" d="M256.08,332s-4.54,6-4.54,6.15v3.38l4.54-5.66Z" fill="#f5f5f5"/>
            <path id="Path_2248" data-name="Path 2248" d="M254,323.11c-.14,0-.26-.79-.27-1.75s.09-1.76.24-1.76.27.78.28,1.75A3.539,3.539,0,0,1,254,323.11Z" fill="#263238"/>
            <path id="Path_2249" data-name="Path 2249" d="M253.66,312.55a11.38,11.38,0,0,0-2.22,4.78,3.4,3.4,0,0,0,.69,2.77,2.56,2.56,0,0,0,3.35.19,2.87,2.87,0,0,0,.72-3.35c-.29-.61-.77-1.1-1.11-1.69a4,4,0,0,1-.53-1.75,1.57,1.57,0,0,0-.21-.91c-.2-.24-.71-.22-.75.09" fill="#ffc100"/>
            <path id="Path_2250" data-name="Path 2250" d="M253.9,320.64a1,1,0,0,1-.75-.46,2.19,2.19,0,0,1-.31-.83,4.61,4.61,0,0,1,.34-2.74.84.84,0,0,1,.4-.48.63.63,0,0,1,.61.13,1.66,1.66,0,0,1,.38.53,4,4,0,0,1,.55,2.13,1.89,1.89,0,0,1-1.21,1.69" fill="#eb996e"/>
            <path id="Path_2251" data-name="Path 2251" d="M249.62,317.2a4.9,4.9,0,0,1-2.18-.41c-1.17-.37-2.07-.77-2-.91a4.9,4.9,0,0,1,2.18.41C248.76,316.66,249.66,317.06,249.62,317.2Z" fill="#263238"/>
            <path id="Path_2252" data-name="Path 2252" d="M249.38,313.84c-.09.12-.72-.15-1.42-.61s-1.21-.91-1.13-1,.7.15,1.41.61S249.46,313.72,249.38,313.84Z" fill="#263238"/>
            <path id="Path_2253" data-name="Path 2253" d="M252,312c-.11.09-.85-.75-1.65-1.88a6.08,6.08,0,0,1-1.23-2.18c.12-.08.86.76,1.66,1.88A6.06,6.06,0,0,1,252,312Z" fill="#263238"/>
            <path id="Path_2254" data-name="Path 2254" d="M254.06,308.53c.14,0,.29.6.32,1.36s0,1.37-.19,1.37-.29-.6-.33-1.35S253.91,308.54,254.06,308.53Z" fill="#263238"/>
            <path id="Path_2255" data-name="Path 2255" d="M260,309.46c.08.11-.69.86-1.72,1.68a5.85,5.85,0,0,1-2,1.27c-.09-.12.68-.87,1.72-1.68a5.59,5.59,0,0,1,2-1.27Z" fill="#263238"/>
            <path id="Path_2256" data-name="Path 2256" d="M260.53,314.22c.07.12-.41.55-1.16.78s-1.39.17-1.39,0,.56-.31,1.24-.52S260.45,314.09,260.53,314.22Z" fill="#263238"/>
            <path id="Path_2257" data-name="Path 2257" d="M263.89,317.39a7.38,7.38,0,0,1-2.7.59,7.619,7.619,0,0,1-2.77.07A14.659,14.659,0,0,1,263.89,317.39Z" fill="#263238"/>
            <rect id="Rectangle_97" data-name="Rectangle 97" width="4.54" height="20.11" transform="translate(299.1 322.54)" fill="#263238"/>
            <path id="Path_2258" data-name="Path 2258" d="M303.64,322.54s-4.54,6-4.54,6.15v3.37l4.54-5.65Z" fill="#f5f5f5"/>
            <path id="Path_2259" data-name="Path 2259" d="M303.64,331.55s-4.54,6-4.54,6.15v3.37l4.54-5.65Z" fill="#f5f5f5"/>
            <path id="Path_2260" data-name="Path 2260" d="M301.52,322.69c-.14,0-.27-.78-.28-1.75s.1-1.75.24-1.75.27.78.28,1.75S301.66,322.69,301.52,322.69Z" fill="#263238"/>
            <path id="Path_2261" data-name="Path 2261" d="M301.22,312.14a11.11,11.11,0,0,0-2.22,4.77,3.35,3.35,0,0,0,.69,2.78,2.55,2.55,0,0,0,3.35.18,2.84,2.84,0,0,0,.71-3.34c-.28-.61-.77-1.11-1.11-1.69a4.149,4.149,0,0,1-.53-1.75,1.56,1.56,0,0,0-.21-.91c-.2-.25-.7-.23-.74.09" fill="#ffc100"/>
            <path id="Path_2262" data-name="Path 2262" d="M301.45,320.22a1,1,0,0,1-.74-.45,2,2,0,0,1-.31-.84,4.68,4.68,0,0,1,.33-2.74.89.89,0,0,1,.4-.47.62.62,0,0,1,.62.13,1.561,1.561,0,0,1,.38.53,4,4,0,0,1,.55,2.12,1.9,1.9,0,0,1-1.22,1.7" fill="#eb996e"/>
            <path id="Path_2263" data-name="Path 2263" d="M297.18,316.79a5.11,5.11,0,0,1-2.19-.41c-1.16-.37-2.07-.78-2-.91a4.74,4.74,0,0,1,2.18.41C296.31,316.24,297.22,316.65,297.18,316.79Z" fill="#263238"/>
            <path id="Path_2264" data-name="Path 2264" d="M296.93,313.42c-.08.12-.71-.15-1.41-.6s-1.21-.92-1.14-1a2.877,2.877,0,0,1,1.42.6C296.51,312.87,297,313.31,296.93,313.42Z" fill="#263238"/>
            <path id="Path_2265" data-name="Path 2265" d="M299.6,311.59c-.12.08-.86-.76-1.65-1.88a6.17,6.17,0,0,1-1.23-2.18c.12-.08.86.76,1.65,1.88A6.29,6.29,0,0,1,299.6,311.59Z" fill="#263238"/>
            <path id="Path_2266" data-name="Path 2266" d="M301.61,308.12c.15,0,.29.6.33,1.35s-.05,1.37-.2,1.38-.29-.6-.32-1.35S301.47,308.12,301.61,308.12Z" fill="#263238"/>
            <path id="Path_2267" data-name="Path 2267" d="M307.57,309.05c.09.11-.68.86-1.72,1.67a6.721,6.721,0,0,1-2,1.27,7.324,7.324,0,0,1,1.72-1.68C306.61,309.49,307.48,308.93,307.57,309.05Z" fill="#263238"/>
            <path id="Path_2268" data-name="Path 2268" d="M308.09,313.81c.07.12-.42.55-1.16.78s-1.39.16-1.4,0,.56-.3,1.24-.52S308,313.68,308.09,313.81Z" fill="#263238"/>
            <path id="Path_2269" data-name="Path 2269" d="M311.45,317a7.71,7.71,0,0,1-2.7.59,7.62,7.62,0,0,1-2.77.07,7.36,7.36,0,0,1,2.7-.59,7.649,7.649,0,0,1,2.77-.07Z" fill="#263238"/>
            <rect id="Rectangle_98" data-name="Rectangle 98" width="4.54" height="20.11" transform="translate(275.69 322.75)" fill="#263238"/>
            <path id="Path_2270" data-name="Path 2270" d="M280.23,322.75s-4.54,6-4.54,6.15v3.37l4.54-5.65Z" fill="#f5f5f5"/>
            <path id="Path_2271" data-name="Path 2271" d="M280.23,331.76s-4.54,6-4.54,6.15v3.37l4.54-5.65Z" fill="#f5f5f5"/>
            <path id="Path_2272" data-name="Path 2272" d="M278.11,322.9c-.14,0-.26-.78-.27-1.75s.09-1.75.24-1.75.27.78.28,1.75S278.26,322.9,278.11,322.9Z" fill="#263238"/>
            <path id="Path_2273" data-name="Path 2273" d="M277.81,312.35a11.339,11.339,0,0,0-2.22,4.77,3.42,3.42,0,0,0,.69,2.78,2.55,2.55,0,0,0,3.35.18,2.85,2.85,0,0,0,.72-3.34c-.29-.61-.77-1.11-1.11-1.69a4,4,0,0,1-.53-1.75,1.56,1.56,0,0,0-.21-.91c-.2-.25-.71-.22-.75.09" fill="#ffc100"/>
            <path id="Path_2274" data-name="Path 2274" d="M278.05,320.43a1,1,0,0,1-.75-.45,2.19,2.19,0,0,1-.31-.83,4.64,4.64,0,0,1,.34-2.75.85.85,0,0,1,.4-.47.6.6,0,0,1,.61.13,1.56,1.56,0,0,1,.38.53,4,4,0,0,1,.55,2.12,1.89,1.89,0,0,1-1.21,1.7" fill="#eb996e"/>
            <path id="Path_2275" data-name="Path 2275" d="M273.77,317a9.451,9.451,0,0,1-4.21-1.32,4.74,4.74,0,0,1,2.18.41C272.91,316.45,273.81,316.86,273.77,317Z" fill="#263238"/>
            <path id="Path_2276" data-name="Path 2276" d="M273.53,313.63c-.09.12-.72-.15-1.42-.6s-1.21-.92-1.13-1a2.826,2.826,0,0,1,1.41.6C273.1,313.08,273.61,313.52,273.53,313.63Z" fill="#263238"/>
            <path id="Path_2277" data-name="Path 2277" d="M276.19,311.8c-.11.08-.85-.76-1.65-1.88a6.079,6.079,0,0,1-1.23-2.18c.12-.08.86.76,1.66,1.88A6,6,0,0,1,276.19,311.8Z" fill="#263238"/>
            <path id="Path_2278" data-name="Path 2278" d="M278.21,308.33c.14,0,.29.6.32,1.35s0,1.37-.19,1.38-.29-.6-.33-1.35S278.06,308.34,278.21,308.33Z" fill="#263238"/>
            <path id="Path_2279" data-name="Path 2279" d="M284.17,309.26c.08.11-.69.86-1.72,1.67a6,6,0,0,1-2,1.27,6.3,6.3,0,0,1,1.72-1.68C283.21,309.7,284.08,309.14,284.17,309.26Z" fill="#263238"/>
            <path id="Path_2280" data-name="Path 2280" d="M284.68,314c.07.12-.41.55-1.16.78s-1.39.16-1.39,0,.56-.3,1.24-.52S284.6,313.89,284.68,314Z" fill="#263238"/>
            <path id="Path_2281" data-name="Path 2281" d="M288,317.19a14.6,14.6,0,0,1-5.47.66,7.38,7.38,0,0,1,2.71-.59A7.6,7.6,0,0,1,288,317.19Z" fill="#263238"/>
          </g>
        </g>
      </g>
    </g>
    <g id="undraw_Gifts_re_97j6" transform="translate(152 443.244)">
      <path id="Path_1921" data-name="Path 1921" d="M299.435,338.369c.15.093.3.188.443.286a37.5,37.5,0,0,1,2.616,12.214q.034.727.034,1.451a36.41,36.41,0,0,1-1.564,10.691q-.083.274-.17.545c-.041.13-.084.261-.129.39l-.144.2-.01.011c-.019.026-.039.052-.056.078l-.25.333.07,0,.175.011h0c-.059,0-.119,0-.178-.006-.022,0-.045,0-.067,0l-.06,0a19.164,19.164,0,0,1-7.4-1.225c-2.4-1.08-4.438-3.415-4.335-6.045a4.717,4.717,0,0,1,.156-1.019c.037-.139.081-.276.128-.412a4.97,4.97,0,0,1,8.527-1.561c-.688-2.7-3.643-4.085-6.3-4.924s-5.659-1.716-7.019-4.153a5.37,5.37,0,0,1-.282-4.4c.015-.044.031-.088.048-.133a7.253,7.253,0,0,1,3.5-3.97c3.043-1.507,6.741-.975,9.859.37A17.979,17.979,0,0,1,299.435,338.369Z" transform="translate(-283.284 -323.14)" fill="#f2f2f2"/>
      <path id="Path_1922" data-name="Path 1922" d="M332.815,515.223a11.19,11.19,0,0,1,6.439,2.805,11.451,11.451,0,0,1,3.256,5.108c.035.112.067.225.1.337.06-.115.119-.233.177-.349.037-.075.075-.15.112-.226-.041.13-.084.261-.129.39l-.144.2-.01.011c-.019.026-.039.052-.056.078l-.25.333.07,0,.175.011h0c-.059,0-.119,0-.178-.006-.022,0-.045,0-.067,0-.007-.034-.016-.068-.026-.1a10.813,10.813,0,0,0-11.609-8.19c.037-.139.081-.276.128-.412A11.564,11.564,0,0,1,332.815,515.223Z" transform="translate(-325.386 -482.483)" fill="#fff"/>
      <path id="Path_1923" data-name="Path 1923" d="M301.339,384.4a12.313,12.313,0,0,1,2.522,2.539,10.215,10.215,0,0,1,.963,1.636c.128.266.244.541.349.818q.034.727.034,1.451a10.539,10.539,0,0,0-.325-1.079c-.066-.194-.14-.384-.218-.573a11.531,11.531,0,0,0-4.34-5.035,26.719,26.719,0,0,0-6.566-3.124,30.307,30.307,0,0,0-7.259-1.449.217.217,0,0,1-.2-.224.187.187,0,0,1,.048-.133.155.155,0,0,1,.133-.042c.3.023.609.047.913.079a30.663,30.663,0,0,1,7.4,1.709A24.672,24.672,0,0,1,301.339,384.4Z" transform="translate(-285.963 -361.66)" fill="#fff"/>
      <ellipse id="Ellipse_50" data-name="Ellipse 50" cx="0.845" cy="0.845" rx="0.845" ry="0.845" transform="translate(1.999 9.395)" fill="#f2f2f2"/>
      <rect id="Rectangle_72" data-name="Rectangle 72" width="38.374" height="32.685" transform="translate(16.403 18.044)" fill="#fff"/>
      <path id="Path_1924" data-name="Path 1924" d="M467.928,415.786h-38.6V382.878h38.6Zm-38.374-.223H467.7V383.1H429.554Z" transform="translate(-413.039 -364.945)" fill="#3f3d56"/>
      <rect id="Rectangle_73" data-name="Rectangle 73" width="9.594" height="26.326" transform="translate(30.794 24.403)" fill="#6c63ff"/>
      <rect id="Rectangle_74" data-name="Rectangle 74" width="9.594" height="26.326" transform="translate(30.794 24.403)" fill="#ff9b15"/>
      <path id="Path_1925" data-name="Path 1925" d="M148.046,183.255v5.3l38.262,2.45-.113-6.543Z" transform="translate(-131.531 -162.812)" opacity="0.2"/>
      <rect id="Rectangle_75" data-name="Rectangle 75" width="42.836" height="9.37" transform="translate(14.172 15.032)" fill="#fff"/>
      <path id="Path_1926" data-name="Path 1926" d="M452.39,365.471H409.331v-9.594H452.39Zm-42.836-.223h42.613V356.1H409.554Z" transform="translate(-395.27 -340.957)" fill="#3f3d56"/>
      <rect id="Rectangle_76" data-name="Rectangle 76" width="9.594" height="10.151" transform="translate(30.794 14.14)" fill="#ff9b15"/>
      <path id="Path_1927" data-name="Path 1927" d="M513.14,239.249c2.532,3.754.146,9.792.146,9.792s-6.492-.049-9.024-3.8-.146-9.792-.146-9.792S510.607,235.495,513.14,239.249Z" transform="translate(-478.577 -233.96)" fill="#ff9b15"/>
      <path id="Path_1928" data-name="Path 1928" d="M594.262,239.249c-2.532,3.754-.146,9.792-.146,9.792s6.492-.049,9.024-3.8.146-9.792.146-9.792S596.795,235.495,594.262,239.249Z" transform="translate(-558.537 -233.96)" fill="#ff9b15"/>
      <ellipse id="Ellipse_51" data-name="Ellipse 51" cx="1.004" cy="1.004" rx="1.004" ry="1.004" transform="translate(27.893 6.108)" opacity="0.42"/>
      <ellipse id="Ellipse_52" data-name="Ellipse 52" cx="1.004" cy="1.004" rx="1.004" ry="1.004" transform="translate(33.917 16.259)" opacity="0.42"/>
      <ellipse id="Ellipse_53" data-name="Ellipse 53" cx="1.004" cy="1.004" rx="1.004" ry="1.004" transform="translate(33.917 38.235)" opacity="0.42"/>
      <ellipse id="Ellipse_54" data-name="Ellipse 54" cx="0.669" cy="0.669" rx="0.669" ry="0.669" transform="translate(30.905 10.124)" opacity="0.42"/>
      <ellipse id="Ellipse_55" data-name="Ellipse 55" cx="0.669" cy="0.669" rx="0.669" ry="0.669" transform="translate(40.945 4.435)" opacity="0.42"/>
      <ellipse id="Ellipse_56" data-name="Ellipse 56" cx="0.669" cy="0.669" rx="0.669" ry="0.669" transform="translate(36.594 20.164)" opacity="0.42"/>
      <ellipse id="Ellipse_57" data-name="Ellipse 57" cx="0.669" cy="0.669" rx="0.669" ry="0.669" transform="translate(32.578 28.865)" opacity="0.42"/>
      <ellipse id="Ellipse_58" data-name="Ellipse 58" cx="0.669" cy="0.669" rx="0.669" ry="0.669" transform="translate(36.037 31.877)" opacity="0.42"/>
      <ellipse id="Ellipse_59" data-name="Ellipse 59" cx="0.669" cy="0.669" rx="0.669" ry="0.669" transform="translate(35.256 44.482)" fill="#3f3d56"/>
      <rect id="Rectangle_77" data-name="Rectangle 77" width="20.418" height="17.391" transform="translate(48.996 33.39)" fill="#fff"/>
      <path id="Path_1929" data-name="Path 1929" d="M742.51,538.423H721.973v-17.51H742.51Zm-20.418-.119h20.3V521.032h-20.3Z" transform="translate(-673.036 -487.582)" fill="#3f3d56"/>
      <rect id="Rectangle_78" data-name="Rectangle 78" width="5.105" height="14.008" transform="translate(56.653 36.773)" fill="#6c63ff"/>
      <rect id="Rectangle_79" data-name="Rectangle 79" width="5.105" height="14.008" transform="translate(56.653 36.773)" fill="#ffc727"/>
      <path id="Path_1930" data-name="Path 1930" d="M439.752,310.763v2.822l20.359,1.3-.06-3.482Z" transform="translate(-390.697 -276.097)" opacity="0.2"/>
      <rect id="Rectangle_80" data-name="Rectangle 80" width="22.792" height="4.986" transform="translate(47.809 31.788)" fill="#fff"/>
      <path id="Path_1931" data-name="Path 1931" d="M734.242,511.651H711.331v-5.1h22.911Zm-22.792-.119h22.674v-4.867H711.45Z" transform="translate(-663.581 -474.819)" fill="#3f3d56"/>
      <rect id="Rectangle_81" data-name="Rectangle 81" width="5.105" height="5.401" transform="translate(56.653 31.313)" fill="#ffc727"/>
      <path id="Path_1932" data-name="Path 1932" d="M766.566,444.491c1.347,2,.078,5.21.078,5.21s-3.454-.026-4.8-2.023-.078-5.21-.078-5.21S765.219,442.493,766.566,444.491Z" transform="translate(-707.908 -417.887)" fill="#ffc727"/>
      <path id="Path_1933" data-name="Path 1933" d="M809.73,444.491c-1.347,2-.078,5.21-.078,5.21s3.454-.026,4.8-2.023.078-5.21.078-5.21S811.078,442.493,809.73,444.491Z" transform="translate(-750.453 -417.887)" fill="#ffc727"/>
      <circle id="Ellipse_60" data-name="Ellipse 60" cx="0.534" cy="0.534" r="0.534" transform="translate(55.11 27.039)" opacity="0.47"/>
      <circle id="Ellipse_61" data-name="Ellipse 61" cx="0.534" cy="0.534" r="0.534" transform="translate(58.315 32.44)" opacity="0.47"/>
      <circle id="Ellipse_62" data-name="Ellipse 62" cx="0.534" cy="0.534" r="0.534" transform="translate(58.315 44.133)" opacity="0.47"/>
      <ellipse id="Ellipse_63" data-name="Ellipse 63" cx="0.356" cy="0.356" rx="0.356" ry="0.356" transform="translate(56.712 29.176)" opacity="0.47"/>
      <ellipse id="Ellipse_64" data-name="Ellipse 64" cx="0.356" cy="0.356" rx="0.356" ry="0.356" transform="translate(62.054 26.149)" opacity="0.47"/>
      <ellipse id="Ellipse_65" data-name="Ellipse 65" cx="0.356" cy="0.356" rx="0.356" ry="0.356" transform="translate(59.739 34.518)" opacity="0.47"/>
      <ellipse id="Ellipse_66" data-name="Ellipse 66" cx="0.356" cy="0.356" rx="0.356" ry="0.356" transform="translate(57.603 39.148)" opacity="0.47"/>
      <ellipse id="Ellipse_67" data-name="Ellipse 67" cx="0.356" cy="0.356" rx="0.356" ry="0.356" transform="translate(59.443 40.75)" opacity="0.47"/>
      <ellipse id="Ellipse_68" data-name="Ellipse 68" cx="0.356" cy="0.356" rx="0.356" ry="0.356" transform="translate(59.027 47.457)" opacity="0.47"/>
      <ellipse id="Ellipse_69" data-name="Ellipse 69" cx="0.754" cy="2.402" rx="0.754" ry="2.402" transform="translate(29.618 41.391) rotate(-64.626)" fill="#2f2e41"/>
      <ellipse id="Ellipse_70" data-name="Ellipse 70" cx="0.754" cy="2.402" rx="0.754" ry="2.402" transform="translate(40.512 43.446) rotate(-39.938)" fill="#2f2e41"/>
      <ellipse id="Ellipse_71" data-name="Ellipse 71" cx="4.804" cy="4.804" rx="4.804" ry="4.804" transform="translate(32.718 39.164)" fill="#2f2e41"/>
      <rect id="Rectangle_82" data-name="Rectangle 82" width="1.46" height="2.615" transform="translate(38.096 47.739)" fill="#2f2e41"/>
      <rect id="Rectangle_83" data-name="Rectangle 83" width="1.46" height="2.615" transform="translate(35.177 47.739)" fill="#2f2e41"/>
      <ellipse id="Ellipse_72" data-name="Ellipse 72" cx="1.216" cy="0.456" rx="1.216" ry="0.456" transform="translate(37.123 49.928)" fill="#2f2e41"/>
      <ellipse id="Ellipse_73" data-name="Ellipse 73" cx="1.216" cy="0.456" rx="1.216" ry="0.456" transform="translate(34.204 49.867)" fill="#2f2e41"/>
      <path id="Path_1934" data-name="Path 1934" d="M605.584,543.127a3.575,3.575,0,0,1,6.906,1.715c-.429,1.728-1.852,1.733-3.759,1.26S605.155,544.855,605.584,543.127Z" transform="translate(-569.57 -505.198)" fill="#e6e6e6"/>
      <ellipse id="Ellipse_74" data-name="Ellipse 74" cx="1.602" cy="1.602" rx="1.602" ry="1.602" transform="translate(35.202 41.353)" fill="#fff"/>
      <circle id="Ellipse_75" data-name="Ellipse 75" cx="0.534" cy="0.534" r="0.534" transform="translate(35.612 41.847)" fill="#3f3d56"/>
      <path id="Path_1935" data-name="Path 1935" d="M605.357,632.669a1.068,1.068,0,0,1-2.1.383h0v0c-.105-.58.344-.786.924-.891S605.252,632.088,605.357,632.669Z" transform="translate(-567.548 -586.377)" fill="#fff"/>
      <ellipse id="Ellipse_76" data-name="Ellipse 76" cx="2.402" cy="0.754" rx="2.402" ry="0.754" transform="translate(44.439 7.309) rotate(-22.442)" fill="#2f2e41"/>
      <ellipse id="Ellipse_77" data-name="Ellipse 77" cx="0.754" cy="2.402" rx="0.754" ry="2.402" transform="translate(55.349 7.903) rotate(-39.938)" fill="#2f2e41"/>
      <ellipse id="Ellipse_78" data-name="Ellipse 78" cx="4.804" cy="4.804" rx="4.804" ry="4.804" transform="translate(47.554 3.622)" fill="#2f2e41"/>
      <rect id="Rectangle_84" data-name="Rectangle 84" width="1.46" height="2.615" transform="translate(52.933 12.196)" fill="#2f2e41"/>
      <rect id="Rectangle_85" data-name="Rectangle 85" width="1.46" height="2.615" transform="translate(50.013 12.196)" fill="#2f2e41"/>
      <ellipse id="Ellipse_79" data-name="Ellipse 79" cx="1.216" cy="0.456" rx="1.216" ry="0.456" transform="translate(51.959 14.386)" fill="#2f2e41"/>
      <ellipse id="Ellipse_80" data-name="Ellipse 80" cx="1.216" cy="0.456" rx="1.216" ry="0.456" transform="translate(49.04 14.325)" fill="#2f2e41"/>
      <path id="Path_1936" data-name="Path 1936" d="M738.584,224.509a3.575,3.575,0,0,1,6.906,1.715c-.429,1.728-1.852,1.733-3.759,1.26S738.155,226.237,738.584,224.509Z" transform="translate(-687.734 -222.122)" fill="#ffc727"/>
      <ellipse id="Ellipse_81" data-name="Ellipse 81" cx="1.602" cy="1.602" rx="1.602" ry="1.602" transform="translate(50.039 5.811)" fill="#fff"/>
      <circle id="Ellipse_82" data-name="Ellipse 82" cx="0.534" cy="0.534" r="0.534" transform="translate(50.448 7.085)" fill="#3f3d56"/>
      <path id="Path_1937" data-name="Path 1937" d="M738.357,314.051a1.068,1.068,0,1,1-2.1.383h0v0c-.105-.58.344-.786.924-.891S738.252,313.47,738.357,314.051Z" transform="translate(-685.712 -303.301)" fill="#fff"/>
      <ellipse id="Ellipse_83" data-name="Ellipse 83" cx="4.804" cy="4.804" rx="4.804" ry="4.804" transform="translate(6.45 39.164)" fill="#2f2e41"/>
      <rect id="Rectangle_86" data-name="Rectangle 86" width="1.46" height="2.615" transform="translate(9.065 47.739)" fill="#2f2e41"/>
      <rect id="Rectangle_87" data-name="Rectangle 87" width="1.46" height="2.615" transform="translate(11.984 47.739)" fill="#2f2e41"/>
      <ellipse id="Ellipse_84" data-name="Ellipse 84" cx="1.216" cy="0.456" rx="1.216" ry="0.456" transform="translate(9.065 49.928)" fill="#2f2e41"/>
      <ellipse id="Ellipse_85" data-name="Ellipse 85" cx="1.216" cy="0.456" rx="1.216" ry="0.456" transform="translate(11.984 49.867)" fill="#2f2e41"/>
      <path id="Path_1938" data-name="Path 1938" d="M341.827,544.24a3.575,3.575,0,0,1,6.944-1.551c.388,1.737-.883,2.378-2.8,2.806S342.215,545.978,341.827,544.24Z" transform="translate(-335.234 -504.739)" fill="#ff9b15"/>
      <ellipse id="Ellipse_86" data-name="Ellipse 86" cx="2.665" cy="0.837" rx="2.665" ry="0.837" transform="translate(13.363 42.572) rotate(-45.022)" fill="#2f2e41"/>
      <ellipse id="Ellipse_87" data-name="Ellipse 87" cx="0.837" cy="2.665" rx="0.837" ry="2.665" transform="translate(3.022 40.319) rotate(-44.978)" fill="#2f2e41"/>
      <circle id="Ellipse_88" data-name="Ellipse 88" cx="1.642" cy="1.642" r="1.642" transform="translate(9.41 41.646)" fill="#fff"/>
      <ellipse id="Ellipse_89" data-name="Ellipse 89" cx="0.547" cy="0.547" rx="0.547" ry="0.547" transform="translate(10.504 42.74)" fill="#3f3d56"/>
      <path id="Path_1939" data-name="Path 1939" d="M377.183,632.96a1.068,1.068,0,0,1-2.1.382h0v0c-.105-.58.344-.786.924-.891S377.078,632.379,377.183,632.96Z" transform="translate(-364.828 -586.635)" fill="#fff"/>
    </g>
  </g>
</svg>
