<svg xmlns="http://www.w3.org/2000/svg" width="77.233" height="77.232" viewBox="0 0 77.233 77.232">
  <g id="noun-car-loan-2754492" transform="translate(-6.698)">
    <path id="Path_6225" data-name="Path 6225" d="M113.561,60.871A17.311,17.311,0,1,0,96.25,43.561,17.331,17.331,0,0,0,113.561,60.871Zm0-31.958A14.648,14.648,0,1,1,98.913,43.561,14.665,14.665,0,0,1,113.561,28.913Z" transform="translate(-89.551 -26.25)" fill="#f56735"/>
    <path id="Path_6226" data-name="Path 6226" d="M143.234,85.219A11.984,11.984,0,1,0,131.25,73.234,12,12,0,0,0,143.234,85.219ZM149.892,71.9h2.663v2.663h-2.663Zm-6.658,2.663a4,4,0,0,1-3.995-3.995V66.576H141.9V63.913h2.663v2.908a3.989,3.989,0,0,1,2.663,3.75h-2.663a1.333,1.333,0,0,0-1.332-1.332H141.9v1.332a1.333,1.333,0,0,0,1.332,1.332,4,4,0,0,1,3.995,3.995v3.995h-2.663v2.663H141.9V79.647a3.989,3.989,0,0,1-2.663-3.75H141.9a1.333,1.333,0,0,0,1.332,1.332h1.332V75.9A1.333,1.333,0,0,0,143.234,74.566ZM133.913,71.9h2.663v2.663h-2.663Z" transform="translate(-119.225 -55.924)" fill="#f56735"/>
    <path id="Path_6227" data-name="Path 6227" d="M373.259,113.75H338.6a19.818,19.818,0,0,1,.335,2.663H343v2.663h-4.062a20.013,20.013,0,0,1-.335,2.663h10.232l1.332-2.663h4.309l1.332,2.663h1.017l1.332-2.663h4.309l1.332,2.663h1.017l1.332-2.663h4.309l1.332,2.663h1.47l5.7-3.417v-1.154Zm-24.932,5.326h-2.663v-2.663h2.663Z" transform="translate(-295.022 -100.434)" fill="#f56735"/>
    <path id="Path_6228" data-name="Path 6228" d="M155.408,446.25a6.658,6.658,0,1,0,6.658,6.658A6.665,6.665,0,0,0,155.408,446.25Zm0,9.321a2.663,2.663,0,1,1,2.663-2.663A2.666,2.666,0,0,1,155.408,455.571Z" transform="translate(-134.062 -382.334)" fill="#f56735"/>
    <path id="Path_6229" data-name="Path 6229" d="M101.576,381.917a5.276,5.276,0,0,0-.454-2.124,6.681,6.681,0,0,0-4.872,6.39v1.06a5.332,5.332,0,0,0,5.326-5.326Z" transform="translate(-89.551 -325.99)" fill="#f56735"/>
    <path id="Path_6230" data-name="Path 6230" d="M253.05,481.25a8.386,8.386,0,0,1,0,2.663h26.845a8.387,8.387,0,0,1,0-2.663Z" transform="translate(-222.489 -412.007)" fill="#f56735"/>
    <path id="Path_6231" data-name="Path 6231" d="M96.25,481.25v1.332a1.333,1.333,0,0,0,1.332,1.332h4.1a8.384,8.384,0,0,1,0-2.663Z" transform="translate(-89.551 -412.007)" fill="#f56735"/>
    <path id="Path_6232" data-name="Path 6232" d="M578.935,370.41a5.25,5.25,0,0,0-1.437,3.551,5.32,5.32,0,0,0,3.995,5.137v-4.973a3.978,3.978,0,0,0-2.558-3.715Z" transform="translate(-497.562 -318.035)" fill="#f56735"/>
    <path id="Path_6233" data-name="Path 6233" d="M452.908,446.25a6.658,6.658,0,1,0,6.658,6.658A6.665,6.665,0,0,0,452.908,446.25Zm0,9.321a2.663,2.663,0,1,1,2.663-2.663A2.666,2.666,0,0,1,452.908,455.571Z" transform="translate(-386.287 -382.334)" fill="#f56735"/>
    <path id="Path_6234" data-name="Path 6234" d="M550.657,482.582a9.385,9.385,0,0,1-.106,1.332h4.1a3.99,3.99,0,0,0,3.75-2.663h-7.851A9.376,9.376,0,0,1,550.657,482.582Z" transform="translate(-474.715 -412.007)" fill="#f56735"/>
    <path id="Path_6235" data-name="Path 6235" d="M411.25,306.25v7.99h13.115l-4.566-7.99Z" transform="translate(-356.614 -263.639)" fill="#f56735"/>
    <path id="Path_6236" data-name="Path 6236" d="M253.75,389.566h15.979v-7.99H264.4v-2.663h5.326V376.25H253.75Z" transform="translate(-223.082 -322.986)" fill="#f56735"/>
    <path id="Path_6237" data-name="Path 6237" d="M278.661,306.25h-7.385l-6.991,7.99h14.376Z" transform="translate(-232.014 -263.639)" fill="#f56735"/>
    <path id="Path_6238" data-name="Path 6238" d="M166.821,289.893a7.871,7.871,0,0,1,1.291-4.3l-4.812-1.2-5.171-8.617a9.365,9.365,0,0,0-7.991-4.525H131.585a9.337,9.337,0,0,0-6.9,3.052L114.22,285.817l-10.435,1.49a7.915,7.915,0,0,1,.451,2.586,8,8,0,0,1-7.99,7.99v2.663h6.238a9.3,9.3,0,0,1,15.067-2.515V285.4L127.6,273.914h11.257v26.632h8.9a9.3,9.3,0,0,1,16.819,0h8.9v-2.783a8,8,0,0,1-6.658-7.869Zm-6.658-2.663H141.521V273.914h12.757l5.886,10.3Z" transform="translate(-89.548 -233.966)" fill="#f56735"/>
  </g>
</svg>
