<svg xmlns="http://www.w3.org/2000/svg" width="74.795" height="57.751" viewBox="0 0 74.795 57.751">
  <g id="noun_credit_check_monitoring_2927976" data-name="noun_credit check monitoring_2927976" transform="translate(-1.5 -2.425)">
    <g id="Group_706" data-name="Group 706">
      <g id="Group_702" data-name="Group 702">
        <rect id="Rectangle_2148" data-name="Rectangle 2148" width="11.879" height="3.1" transform="translate(8.156 10.201)" fill="#ffc71a"/>
        <path id="Path_6091" data-name="Path 6091" d="M61,2.425H5.99A4.5,4.5,0,0,0,1.5,6.915v28.08a4.5,4.5,0,0,0,4.49,4.49H29.04c0-.01-.01-.03-.01-.04a17.224,17.224,0,0,1-.91-5.82H7.16v-2h21.1a17.53,17.53,0,1,1,34.05,7.67,4.51,4.51,0,0,0,3.19-4.3V6.915A4.5,4.5,0,0,0,61,2.425ZM6.16,14.3V9.2a.99.99,0,0,1,1-1H21.03a.99.99,0,0,1,1,1v5.1a1,1,0,0,1-1,1H7.16A1,1,0,0,1,6.16,14.3Zm6.62,12.78H7.16v-2h5.62Zm8.35,0H15.5v-2h5.63v2Zm8.34-1.12H23.84v-2h5.63v2Zm0-5.42H7.16v-2H29.47Z" fill="#ffc71a"/>
      </g>
      <g id="Group_703" data-name="Group 703" transform="matrix(0.914, -0.407, 0.407, 0.914, -9.727, 22.009)">
        <path id="Path_6092" data-name="Path 6092" d="M59.03,25.965a15.536,15.536,0,1,0-3.62,19.97A15.557,15.557,0,0,0,59.03,25.965ZM52.9,42.815A11.537,11.537,0,1,1,45.62,22.3a11.543,11.543,0,0,1,7.28,20.51Z" fill="#ffc71a"/>
      </g>
      <g id="Group_704" data-name="Group 704" transform="matrix(0.914, -0.407, 0.407, 0.914, -9.727, 22.009)">
        <path id="Path_6093" data-name="Path 6093" d="M63.38,64a4.137,4.137,0,0,1-5.65-1.46l-6.53-11.1.84-.49-.38-.65a18.155,18.155,0,0,0,5.43-3.18l.38.64.85-.5,6.52,11.09A4.126,4.126,0,0,1,63.38,64Z" fill="#ffc71a"/>
      </g>
      <g id="Group_705" data-name="Group 705" transform="translate(0.093 0.519)">
        <path id="Path_6094" data-name="Path 6094" d="M48.221,29.7c-.145-2.23-1.042-2.5-1.987-2.5v4.531a10.769,10.769,0,0,1,4.047,1.915,4.471,4.471,0,0,1,1.333,3.393c0,2.229-1.381,4.991-5.38,5.21v2.375H45.119V42.254c-3.926-.316-5.452-2.012-5.452-5.623h3.175c.145,1.7.411,2.714,2.277,3.054V34.6c-2.375-.63-5.089-1.576-5.089-4.919a4.8,4.8,0,0,1,5.089-5.041V23.061h1.115v1.576c1.817.193,4.8.751,5.114,5.064H48.221Zm-3.1-2.5a1.964,1.964,0,0,0-2.035,1.89,2.248,2.248,0,0,0,2.035,2.3Zm1.115,12.48a2.169,2.169,0,0,0,2.133-2.375,2.487,2.487,0,0,0-2.133-2.3Z" fill="#ffc71a"/>
      </g>
    </g>
    <text id="CREDIT_CARD" data-name="CREDIT CARD" transform="translate(37.079 7.46)" fill="#c39b20" font-size="3" font-family="Nunito-Regular, Nunito"><tspan x="0" y="3">CREDIT CARD</tspan></text>
  </g>
</svg>
