<svg id="noun_documents_1045228" xmlns="http://www.w3.org/2000/svg" width="25.301" height="33.734" viewBox="0 0 25.301 33.734">
  <g id="Group_769" data-name="Group 769" transform="translate(0 0)">
    <g id="Group_760" data-name="Group 760" transform="translate(14.759 4.217)">
      <path id="Path_6243" data-name="Path 6243" d="M35.325,14.325H29V8h1.406v4.92h4.92Z" transform="translate(-29 -8)" fill="#fff"/>
    </g>
    <g id="Group_761" data-name="Group 761" transform="translate(3.514 7.028)">
      <rect id="Rectangle_2172" data-name="Rectangle 2172" width="9.839" height="1.406" fill="#fff"/>
    </g>
    <g id="Group_762" data-name="Group 762" transform="translate(3.514 10.542)">
      <rect id="Rectangle_2173" data-name="Rectangle 2173" width="9.839" height="1.406" fill="#fff"/>
    </g>
    <g id="Group_763" data-name="Group 763" transform="translate(3.514 14.056)">
      <rect id="Rectangle_2174" data-name="Rectangle 2174" width="14.759" height="1.406" fill="#fff"/>
    </g>
    <g id="Group_764" data-name="Group 764" transform="translate(3.514 17.57)">
      <rect id="Rectangle_2175" data-name="Rectangle 2175" width="14.759" height="1.406" transform="translate(0 0)" fill="#fff"/>
    </g>
    <g id="Group_765" data-name="Group 765" transform="translate(3.514 21.084)">
      <rect id="Rectangle_2176" data-name="Rectangle 2176" width="14.759" height="1.406" fill="#fff"/>
    </g>
    <g id="Group_766" data-name="Group 766" transform="translate(3.514 24.598)">
      <rect id="Rectangle_2177" data-name="Rectangle 2177" width="14.759" height="1.406" fill="#fff"/>
    </g>
    <g id="Group_767" data-name="Group 767" transform="translate(0 3.514)">
      <path id="Path_6244" data-name="Path 6244" d="M29.857,37.22H8V7H24.727l2.46,2.811,2.671,3.233ZM9.406,35.815H28.451V13.606L26.132,10.8l-2.038-2.39H9.406Z" transform="translate(-8 -7)" fill="#fff"/>
    </g>
    <g id="Group_768" data-name="Group 768" transform="translate(3.444)">
      <path id="Path_6245" data-name="Path 6245" d="M34.757,32.22H30.611V30.815h2.741V3.406H14.306V6.147H12.9V2H34.757Z" transform="translate(-12.9 -2)" fill="#fff"/>
    </g>
  </g>
</svg>
