<svg xmlns="http://www.w3.org/2000/svg" width="33.734" height="33.734" viewBox="0 0 33.734 33.734">
  <g id="noun_approval_2862430" opacity="0.6">
    <g id="Group_759" data-name="Group 759" transform="translate(0 0)">
      <path id="Path_6233" data-name="Path 6233" d="M19.5,24.94H14.6V21.676A2.179,2.179,0,0,0,12.426,19.5h-.544a.544.544,0,0,0-.544.544v3.039L9.48,24.94H5.9V2.088H25.485V5.9a.544.544,0,0,0,.544.544h3.809V17.867h1.088V5.9a.541.541,0,0,0-.16-.385L26.414,1.16A.541.541,0,0,0,26.029,1H5.353a.544.544,0,0,0-.544.544v23.4H1v1.088H7.529v6.529H1v1.088H9.577l2.062,1.031a.545.545,0,0,0,.243.057h6.529A1.634,1.634,0,0,0,20.044,33.1V25.485A.544.544,0,0,0,19.5,24.94ZM26.573,2.858l2.5,2.5h-2.5ZM18.955,33.1a.545.545,0,0,1-.544.544h-6.4L9.949,32.615a.545.545,0,0,0-.243-.057H8.617V26.029H9.706a.543.543,0,0,0,.385-.159l2.176-2.176a.542.542,0,0,0,.159-.385V20.588a1.089,1.089,0,0,1,1.088,1.088v3.809a.544.544,0,0,0,.544.544h4.9v1.088H14.6v1.088h4.353v1.088H14.6v1.088h4.353V31.47H14.6v1.088h4.353Z" transform="translate(-1 -1)" fill="#fff"/>
      <path id="Path_6234" data-name="Path 6234" d="M50.426,43.882h-.544v-.544a1.634,1.634,0,0,0-1.632-1.632H47.162v-.953a9.3,9.3,0,0,1,.977-4.137l.054-.108a.545.545,0,0,0,.057-.243v-.544a2.721,2.721,0,1,0-5.441,0v.544a.545.545,0,0,0,.057.243l.054.108a9.3,9.3,0,0,1,.977,4.137v.953H42.809a1.634,1.634,0,0,0-1.632,1.632v.544h-.544A1.634,1.634,0,0,0,39,45.514V46.6a.544.544,0,0,0,.544.544h.544v1.632a.544.544,0,0,0,.544.544h9.794a.544.544,0,0,0,.544-.544V47.147h.544a.544.544,0,0,0,.544-.544V45.514A1.634,1.634,0,0,0,50.426,43.882ZM43.9,36.136v-.416a1.632,1.632,0,1,1,3.265,0v.416a10.388,10.388,0,0,0-1.088,4.617v.953H44.985v-.953A10.387,10.387,0,0,0,43.9,36.136Zm-1.632,7.2a.545.545,0,0,1,.544-.544H48.25a.545.545,0,0,1,.544.544v.544H42.265Zm7.617,4.9H41.176V47.147h8.706Zm1.088-2.176H40.088v-.544a.545.545,0,0,1,.544-.544h9.794a.545.545,0,0,1,.544.544Z" transform="translate(-18.324 -15.589)" fill="#fff"/>
      <rect id="Rectangle_2169" data-name="Rectangle 2169" width="17.411" height="1.088" transform="translate(5.985 2.176)" fill="#fff"/>
      <rect id="Rectangle_2170" data-name="Rectangle 2170" width="17.411" height="1.088" transform="translate(5.985 4.353)" fill="#fff"/>
      <rect id="Rectangle_2171" data-name="Rectangle 2171" width="17.411" height="1.088" transform="translate(5.985 6.529)" fill="#fff"/>
      <path id="Path_6235" data-name="Path 6235" d="M36.97,22.985a5.985,5.985,0,1,0-5.985,5.985A5.992,5.992,0,0,0,36.97,22.985Zm-5.985,4.9a4.9,4.9,0,1,1,4.9-4.9A4.9,4.9,0,0,1,30.985,27.882Z" transform="translate(-11.942 -8.294)" fill="#fff"/>
      <path id="Path_6236" data-name="Path 6236" d="M33.655,27.3l-1.593-1.593-.769.769,2.176,2.176a.544.544,0,0,0,.385.159.534.534,0,0,0,.109-.011.544.544,0,0,0,.4-.331l2.176-5.441-1.01-.4Z" transform="translate(-14.811 -10.861)" fill="#fff"/>
    </g>
  </g>
</svg>
