<svg xmlns="http://www.w3.org/2000/svg" width="75.917" height="77.232" viewBox="0 0 75.917 77.232">
  <g id="noun-investment-2281440" transform="translate(-18.974)">
    <path id="Path_6255" data-name="Path 6255" d="M324.97,247.447a2.666,2.666,0,0,0,2.667,2.656h.825V244.78h-.825a2.666,2.666,0,0,0-2.666,2.667Z" transform="translate(-272.531 -212.486)" fill="#f56735"/>
    <path id="Path_6256" data-name="Path 6256" d="M284.767,198.129h-.111a14.258,14.258,0,1,0-.111,28.517h.111a14.259,14.259,0,1,0,.1-28.517Zm1.72,13.7a4.679,4.679,0,1,1,0,9.349h-.825V224.2H283.65v-3.019h-.825a4.679,4.679,0,0,1-4.679-4.68h2.012a2.666,2.666,0,0,0,2.666,2.667h.825v-5.322h-.825a4.679,4.679,0,1,1,0-9.349h.825v-3.019h2.012V204.5h.825a4.679,4.679,0,0,1,4.679,4.68h-2.012a2.666,2.666,0,0,0-2.667-2.666h-.825v5.322Z" transform="translate(-227.719 -174.217)" fill="#f56735"/>
    <path id="Path_6257" data-name="Path 6257" d="M355.6,290.9h.825a2.666,2.666,0,1,0,0-5.322H355.6Z" transform="translate(-297.657 -245.946)" fill="#f56735"/>
    <path id="Path_6258" data-name="Path 6258" d="M244.565,152.93a1.005,1.005,0,0,0,1.007-1.006l.091-11.069a1.06,1.06,0,0,0-.292-.715,1,1,0,0,0-.715-.291h-5.665a22.567,22.567,0,0,0-1.932-4.9L241.083,131h0a1,1,0,0,0,.01-1.419l-7.748-7.879h0a1.007,1.007,0,0,0-1.419,0l-4.025,3.955a22.36,22.36,0,0,0-4.87-2.012l.051-5.685a1.007,1.007,0,0,0-1.007-1.007l-11.069-.091h0A1.007,1.007,0,0,0,210,117.873v5.947h0a23.058,23.058,0,0,0-4.578,2.013l-4.266-4.326h0a.984.984,0,0,0-1.409-.01l-7.879,7.748a1,1,0,0,0,0,1.428l4.508,4.569h0a22.523,22.523,0,0,0-1.69,4.307l-6.551-.051a1.006,1.006,0,0,0-1.007,1.006l-.091,11.069a1.059,1.059,0,0,0,.292.715,1.009,1.009,0,0,0,.715.292l6.792.06a22,22,0,0,0,1.68,4.025l-4.87,4.8a1.007,1.007,0,0,0,0,1.419l7.748,7.879a1.007,1.007,0,0,0,1.429,0l4.86-4.79a22.9,22.9,0,0,0,4.025,1.751l-.051,6.772h0a1.005,1.005,0,0,0,1.006,1.006l11.069.091a1,1,0,0,0,1.006-1.006v-6.511a22.63,22.63,0,0,0,4.367-1.63l4.478,4.538h0a1.006,1.006,0,0,0,1.419,0l7.879-7.748h0a1.007,1.007,0,0,0,0-1.429l-4.236-4.3h0a22.571,22.571,0,0,0,2.012-4.578ZM216.32,162h-.131a16.331,16.331,0,1,1,.13,0Z" transform="translate(-159.384 -107.556)" fill="#f56735"/>
    <path id="Path_6259" data-name="Path 6259" d="M250.333,76.275a38.235,38.235,0,0,0-52.423-1.6V71.988H195.9v5.031h0a1.006,1.006,0,0,0,1.007,1.007h5.031V76.014h-2.5a36.225,36.225,0,0,1,55.343,45.3l1.751,1.007a38.358,38.358,0,0,0-6.2-46.046Z" transform="translate(-166.651 -65.052)" fill="#f56735"/>
    <path id="Path_6260" data-name="Path 6260" d="M177.012,233.571a38.006,38.006,0,0,0,25.357-9.61v2.687h2.012v-5.031h0a1.006,1.006,0,0,0-1.007-1.007h-5.031v2.012h2.5A36.226,36.226,0,0,1,145.5,177.341l-1.751-1.007a38.287,38.287,0,0,0,33.266,57.235Z" transform="translate(-119.754 -156.339)" fill="#f56735"/>
  </g>
</svg>
