<svg xmlns="http://www.w3.org/2000/svg" width="30.827" height="33.734" viewBox="0 0 30.827 33.734">
  <g id="noun_funding_3513704" opacity="0.6">
    <g id="Group" transform="translate(0 0)">
      <path id="Compound_Path" data-name="Compound Path" d="M45.944,377.252,42.6,378.939a2.925,2.925,0,0,0-2.484-1.4h-3.2a3.285,3.285,0,0,1-1.425-.319l-.331-.156a5.839,5.839,0,0,0-5.27.084v-.582a.563.563,0,0,0-.536-.567H26.508a.541.541,0,0,0-.508.567v7.709a.543.543,0,0,0,.508.57h2.843a.565.565,0,0,0,.536-.57v-.315l.852-.486a1.473,1.473,0,0,1,1.1-.15l5.488,1.379.035.008a5.915,5.915,0,0,0,1.054.094,6.006,6.006,0,0,0,2.657-.618.534.534,0,0,0,.066-.039l7.755-5.325a.536.536,0,0,0,.156-.719,2.33,2.33,0,0,0-3.1-.853Zm-17.129,6.522H27.072v-6.7h1.742Zm11.744-.531a4.925,4.925,0,0,1-2.993.417l-5.47-1.374a2.54,2.54,0,0,0-1.889.259l-.32.183V378.4a4.773,4.773,0,0,1,4.8-.365l.33.153a4.363,4.363,0,0,0,1.892.426h3.2a1.821,1.821,0,0,1,1.766,1.34H37.23a.536.536,0,0,0,0,1.072H42.5a.543.543,0,0,0,.536-.544,2.967,2.967,0,0,0-.048-.526l3.448-1.749.012-.007a1.259,1.259,0,0,1,1.334.084Z" transform="translate(-26 -351.112)" fill="#fff"/>
      <path id="Compound_Path-2" data-name="Compound Path" d="M144.939,4.641h-4.183a.508.508,0,0,0-.536.5v.315l-.852.487a1.474,1.474,0,0,1-1.1.15l-5.488-1.379-.035-.008a6.006,6.006,0,0,0-3.711.524.526.526,0,0,0-.066.038L121.219,10.6a.536.536,0,0,0-.156.718,2.329,2.329,0,0,0,3.1.853l3.344-1.687a2.925,2.925,0,0,0,2.484,1.4h3.2a3.284,3.284,0,0,1,1.425.319l.33.156a5.843,5.843,0,0,0,5.27-.083v.582a.563.563,0,0,0,.536.567h4.183a.541.541,0,0,0,.508-.567V5.144a.485.485,0,0,0-.508-.5Zm-9.521,6.744-.33-.153a4.364,4.364,0,0,0-1.892-.426h-3.2a1.821,1.821,0,0,1-1.766-1.34h4.651a.536.536,0,0,0,0-1.072H127.61a.543.543,0,0,0-.536.544,2.968,2.968,0,0,0,.048.526l-3.448,1.749-.012.007a1.259,1.259,0,0,1-1.334-.084l7.222-4.959a4.927,4.927,0,0,1,2.993-.416l5.47,1.374a2.541,2.541,0,0,0,1.889-.259l.32-.183v4.327A4.773,4.773,0,0,1,135.418,11.385Zm8.958.963h-3.083V5.714h3.083Z" transform="translate(-114.621 -4.616)" fill="#fff"/>
      <path id="Compound_Path-3" data-name="Compound Path" d="M425.874,70.416a1.541,1.541,0,1,0-1.541-1.541A1.541,1.541,0,0,0,425.874,70.416Zm0-2.01a.469.469,0,1,1-.469.469A.469.469,0,0,1,425.874,68.405Z" transform="translate(-397.639 -63.13)" fill="#fff"/>
      <path id="Compound_Path-4" data-name="Compound Path" d="M119.545,120.462a9.083,9.083,0,1,0,9.083,9.083A9.093,9.093,0,0,0,119.545,120.462Zm0,17.094a8.011,8.011,0,1,1,8.011-8.011A8.011,8.011,0,0,1,119.545,137.556Z" transform="translate(-104.802 -112.699)" fill="#fff"/>
      <path id="Path" d="M207.72,170.289a1.679,1.679,0,0,1,1.677,1.677.536.536,0,1,0,1.072,0,2.753,2.753,0,0,0-2.28-2.709v-.722a.536.536,0,1,0-1.072,0v.749a2.749,2.749,0,0,0,.6,5.432,1.677,1.677,0,1,1-1.677,1.677.536.536,0,1,0-1.072,0,2.754,2.754,0,0,0,2.146,2.682v.853a.536.536,0,0,0,1.072,0V179.1a2.749,2.749,0,0,0-.469-5.458,1.677,1.677,0,0,1,0-3.355Z" transform="translate(-192.977 -157.051)" fill="#fff"/>
    </g>
  </g>
</svg>
