<svg xmlns="http://www.w3.org/2000/svg" width="62.991" height="61.903" viewBox="0 0 62.991 61.903">
  <g id="noun_home_loan_3443925" data-name="noun_home loan_3443925" transform="translate(-0.46 -1)">
    <path id="Path_3650" data-name="Path 3650" d="M51.182,3.4V4.678H48.3v9.3L40.2,7.9V4.678H37.32V3.4a2.412,2.412,0,0,1,2.4-2.4h9.059A2.412,2.412,0,0,1,51.182,3.4Z" transform="translate(-0.202)" fill="#f56735"/>
    <path id="Path_3651" data-name="Path 3651" d="M54.614,24.169,29.756,5.453,4.849,24.169H.46L29.756,2.18,59,24.169Z" transform="translate(0 0.016)" fill="#f56735"/>
    <path id="Path_3652" data-name="Path 3652" d="M28.937,52.379V37.386a7.044,7.044,0,0,0-14.085,0V52.379H11.386V25.686H48.879V34a15.925,15.925,0,0,1,2.989,0l.679.07V23.786L30.254,7.45,7.728,23.786V52.439H4.86v4.308H37.023a15,15,0,0,1-1.7-4.378Zm6.222-28.573H30.832V19.568h4.327Zm-4.327-9.9h4.327v4.248H30.821Zm-5.756,0H29.4v4.248H25.066Zm0,5.651H29.4v4.258H25.066ZM21.144,49.982H16.686V45.087h4.459Zm0-7.661H16.686v-4.9h4.459Zm5.948,7.661H22.634V45.087h4.459Zm0-7.661H22.634v-4.9h4.459Z" transform="translate(0.059 0.086)" fill="#f56735"/>
    <path id="Path_3653" data-name="Path 3653" d="M50.182,35.83A13.761,13.761,0,1,0,63.9,49.6,13.761,13.761,0,0,0,50.182,35.83Zm4.053,20.125h0a5.178,5.178,0,0,1-2.412,1.5l-.294.091V60.18H48.743V57.718h-.355A7.093,7.093,0,0,1,45.257,56.6l-.355-.334L45.915,53.5l.628.426a5.877,5.877,0,0,0,3.182.953c1.378,0,2.31-.719,2.31-1.794s-.669-1.662-2.391-2.351c-2.169-.851-4.388-2.087-4.388-4.763a4.479,4.479,0,0,1,3.395-4.327l.294-.091V39.042h2.7v2.391H52a6.718,6.718,0,0,1,2.523.861l.436.253-1.013,2.726-.6-.345a5.31,5.31,0,0,0-2.777-.75c-1.895,0-2.027,1.257-2.027,1.5,0,.77.4,1.3,2.655,2.229,2.868,1.165,4.145,2.716,4.145,5.006a4.6,4.6,0,0,1-1.1,3.04Z" transform="translate(-0.451 -0.449)" fill="#f56735"/>
  </g>
</svg>
