<svg xmlns="http://www.w3.org/2000/svg" width="88.024" height="93" viewBox="0 0 88.024 93">
  <g id="noun_loan_1917305" transform="translate(-3.998 -2)">
    <g id="Group_569" data-name="Group 569" transform="translate(3.998 2)">
      <path id="Path_3643" data-name="Path 3643" d="M35.017,47.168A29.943,29.943,0,0,1,26.723,46l.871-3.021a26.8,26.8,0,0,0,7.423,1.044,26.461,26.461,0,0,0,16.327-5.567l1.924,2.486A29.575,29.575,0,0,1,35.017,47.168Z" transform="translate(8.995 18.844)" fill="#f0b900"/>
      <path id="Path_3644" data-name="Path 3644" d="M20.181,15.786l-2.343-2.1a30.109,30.109,0,0,1,4.008-3.73l1.922,2.486a27.12,27.12,0,0,0-3.587,3.34Z" transform="translate(3.915 2.551)" fill="#f0b900"/>
      <path id="Path_3645" data-name="Path 3645" d="M25.818,44.1A29.682,29.682,0,0,1,22.5,42.446l1.572-2.719A26.333,26.333,0,0,0,27.039,41.2Z" transform="translate(6.581 19.569)" fill="#f0b900"/>
      <rect id="Rectangle_1903" data-name="Rectangle 1903" width="3" height="6" transform="translate(46.002 2)" fill="#f0b900"/>
      <rect id="Rectangle_1904" data-name="Rectangle 1904" width="3" height="3" transform="translate(30.002)" fill="#f0b900"/>
      <rect id="Rectangle_1905" data-name="Rectangle 1905" width="3" height="3" transform="translate(58.002 6)" fill="#f0b900"/>
      <path id="Path_3646" data-name="Path 3646" d="M56.148,28.907V12.859H53V23.988a18.861,18.861,0,0,0-3.143-2.851V5H46.717V19.3a18.744,18.744,0,0,0-7.859-1.729c-.531,0-1.051.036-1.572.079V8.143H34.144V18.191a18.76,18.76,0,0,0-6.287,2.945V6.572H24.713V23.988a18.861,18.861,0,1,0,31.434,4.919ZM31,38.006H27.857V34.863H31Zm12.574-4.715H40.43v-.229a1.344,1.344,0,0,0-1.342-1.342h-.459a1.342,1.342,0,0,0-.6,2.543l3.063,1.532a4.47,4.47,0,0,1-.663,8.27v1.8H37.287v-1.8a4.478,4.478,0,0,1-3.143-4.258v-.229h3.143v.229a1.344,1.344,0,0,0,1.342,1.342h.459a1.342,1.342,0,0,0,.6-2.543l-3.063-1.532a4.47,4.47,0,0,1,.663-8.27V27H40.43v1.8a4.478,4.478,0,0,1,3.143,4.258Zm6.287,4.715H46.717V34.863h3.143Z" transform="translate(5.153 -0.285)" fill="#f0b900"/>
      <rect id="Rectangle_1906" data-name="Rectangle 1906" width="16" height="5" transform="translate(6.002 88)" fill="#fb6900"/>
      <path id="Path_3647" data-name="Path 3647" d="M26.005,68.58V64.6a33.743,33.743,0,0,0-3.544-15.015,11.125,11.125,0,0,1-1.171-4.959V32.431a2.358,2.358,0,0,0-4.654-.519c-.019.206-.061.407-.061.616V51.292H13.432V32.431h0c0-.031.009-.061.009-.094a9.683,9.683,0,0,1,.769-3.628l5.578-13.141a2.5,2.5,0,0,0,0-1.96,2.6,2.6,0,0,0-1.463-1.415,2.684,2.684,0,0,0-2.089.042,2.6,2.6,0,0,0-1.394,1.455L5.587,37.965a24.066,24.066,0,0,0,.195,17.7l5.366,12.92Z" transform="translate(-3.998 3.719)" fill="#fff"/>
      <path id="Path_3648" data-name="Path 3648" d="M7,50v9.43H25.861V50Zm6.287,6.287H10.143V53.143h3.143Z" transform="translate(-2.281 25.443)" fill="#fb6900"/>
      <rect id="Rectangle_1907" data-name="Rectangle 1907" width="16" height="5" transform="translate(66.002 88)" fill="#fb6900"/>
      <rect id="Rectangle_1908" data-name="Rectangle 1908" width="19" height="10" transform="translate(64.002 75)" fill="#fb6900"/>
      <path id="Path_3649" data-name="Path 3649" d="M66.418,37.967l-9.259-24.28a2.6,2.6,0,0,0-1.394-1.455,2.691,2.691,0,0,0-2.089-.042A2.6,2.6,0,0,0,52.213,13.6a2.5,2.5,0,0,0,0,1.96L57.791,28.7a9.683,9.683,0,0,1,.769,3.628c0,.033.009.063.009.094h0V51.294H55.43V32.53c0-.209-.042-.41-.061-.616a2.358,2.358,0,0,0-4.654.519V44.625a11.125,11.125,0,0,1-1.171,4.959A33.743,33.743,0,0,0,46,64.6v3.984H60.857l5.371-12.931a24.06,24.06,0,0,0,.19-17.685Z" transform="translate(20.016 3.717)" fill="#fff"/>
    </g>
  </g>
</svg>
