<svg xmlns="http://www.w3.org/2000/svg" width="61.904" height="61.902" viewBox="0 0 61.904 61.902">
  <g id="noun_personal_loan_1147140" data-name="noun_personal loan_1147140" transform="translate(-1.999 -2)">
    <path id="Path_3654" data-name="Path 3654" d="M50.219,37.116l-.559-1.708A11.608,11.608,0,0,0,54.615,25.8a10.22,10.22,0,0,0-.057-6.715,10.969,10.969,0,0,0-9.113-6.87l-.112-.011V3.032A1.032,1.032,0,0,0,44.3,2H23.666a1.032,1.032,0,0,0-1.032,1.032v8.712L22,11.109,18.352,7.461a1.031,1.031,0,0,0-1.459,0l-3.648,3.648-7.3,7.3L2.3,22.052a1.031,1.031,0,0,0,0,1.459l3.648,3.648,2.7,2.7H3.032A1.032,1.032,0,0,0,2,30.888V51.522a1.032,1.032,0,0,0,1.032,1.032H24.7V62.871A1.032,1.032,0,0,0,25.729,63.9H62.871A1.032,1.032,0,0,0,63.9,62.871V52.554C63.9,44.007,58.069,37.515,50.219,37.116Zm-1.792,3.141v2.519l-2.1-.84Zm-8.254-.048,1.257,1.022.859.7-2.116.846ZM47.811,36.4l.445,1.356-3.95,3.159-3.959-3.222.13-.388.3-.908c.052.021.105.035.157.055q.271.1.548.191c.133.041.266.078.4.113.17.045.34.09.514.125.154.032.308.055.462.078l.007,0h0l.018,0,.128.021.026,0c.1.013.2.03.3.04.069.007.137.009.206.015.258.023.5.038.742.038H44.3c.092,0,.181-.012.272-.015.226-.006.453-.014.678-.038L45.462,37h.011c.02,0,.038-.008.058-.011.063-.008.125-.022.188-.032.16-.025.32-.047.48-.08s.338-.078.507-.123c.136-.036.272-.073.406-.116q.275-.087.545-.19C47.708,36.43,47.76,36.416,47.811,36.4Zm.127-2.34s-.007,0-.01,0a7.716,7.716,0,0,1-1.77.711l-.02.005a7.2,7.2,0,0,1-.88.17l-.043.006a7.271,7.271,0,0,1-1.707.007c-.08-.009-.158-.018-.25-.031-.173-.025-.347-.063-.519-.1l-.178-.037c-.07-.015-.14-.034-.21-.053-.182-.051-.36-.113-.54-.177H41.8l-.234-.088c-.08-.032-.161-.065-.24-.1q-.223-.1-.443-.21h0l-.009-.005c-.221-.113-.443-.227-.652-.361h0c-.053-.034-.1-.071-.156-.106a8.282,8.282,0,0,1-.7-.53c-.045-.038-.092-.075-.136-.115a9.039,9.039,0,0,1-1.461-1.654l-.012-.018a9.544,9.544,0,0,1-.554-.92l-.034-.062a9.9,9.9,0,0,1-.814-2.168c-.014-.059-.027-.12-.041-.178-.071-.306-.125-.616-.167-.929-.011-.085-.025-.168-.034-.253a10.343,10.343,0,0,1-.067-1.131v0h0c0-.02.005-.1.005-.123h0c0-.149.015-.293.023-.441a5.847,5.847,0,0,0,1.284.059l.04,0a9.38,9.38,0,0,0,1.235-.163l.084-.018c.167-.034.328-.071.483-.109l.073-.018c.166-.042.324-.087.47-.13l.094-.029c.109-.033.21-.065.305-.1l.106-.035.282-.1c.416-.154.81-.326,1.193-.5h0l.02-.009L41.764,24l.1-.047.024-.011h0s.005-.005.009-.007q.6-.289,1.145-.6l.014-.008h0q.483-.28.915-.568l0,0,.037-.025a19.035,19.035,0,0,0,1.74-1.306,12.043,12.043,0,0,0,1.677,3.493c.028.038.052.077.08.116,0,0,.005,0,.007.006s0,.007.005.01l.022.028q.139.184.29.362c.024.029.045.059.07.088,0,.005.011.007.017.012a7.763,7.763,0,0,0,.866.873c.057.048.131.108.217.174.024.019.053.039.078.058.068.052.139.1.221.161.038.027.08.053.121.08.079.054.16.106.249.16.05.03.1.059.153.089.09.052.18.1.275.152.059.03.118.058.178.086.1.046.2.089.3.13.065.026.13.05.2.072.1.036.208.068.316.1.07.019.14.036.213.051a3.186,3.186,0,0,0,.326.048c.074.008.148.017.223.019.036,0,.071.009.107.009.083,0,.166-.014.249-.023.047,0,.095,0,.143-.005A9.215,9.215,0,0,1,47.938,34.055Zm4.676-14.283a7.945,7.945,0,0,1,.055,5.317c-.005.009-.013.015-.018.024a1.156,1.156,0,0,1-.487.58c-.429.172-1.374-.3-2.039-.865a5.73,5.73,0,0,1-.65-.655c-.1-.119-.2-.24-.291-.363l-.009-.012a0,0,0,0,0,0,0l0-.006q-.138-.186-.261-.377a0,0,0,0,1,0,0,0,0,0,0,0,0,0,0,0,0,0,0,0,0,11.013,11.013,0,0,1-1.4-3.47l-.017-.074c-.015-.072-.03-.141-.041-.2l0-.013c-.01-.055-.019-.1-.026-.141l-.036-.224c0-.008-.007-.015-.008-.024a1.022,1.022,0,0,0-.108-.313.908.908,0,0,0-.063-.1,1.024,1.024,0,0,0-.163-.184.917.917,0,0,0-.082-.073,1.009,1.009,0,0,0-.293-.15c-.005,0-.011,0-.017,0-.023-.006-.047-.006-.07-.011a1.05,1.05,0,0,0-.209-.032h-.009c-.01,0-.021.006-.031.006s-.032.005-.048.006-.037-.006-.057,0-.034.014-.053.018a1,1,0,0,0-.175.05.975.975,0,0,0-.095.041l-.026.011c-.014.007-.03.01-.043.019a1.055,1.055,0,0,0-.24.195,16.154,16.154,0,0,1-5.779,3.846c-.186.069-.379.133-.575.192-.146.044-.3.083-.444.121-.05.012-.1.028-.146.039-.17.04-.34.075-.508.105l-.078.015c-.18.031-.356.056-.526.074l-.037.005c-.18.019-.354.029-.517.03H36.98a3.638,3.638,0,0,1-.463-.024h0a1.9,1.9,0,0,1-.367-.08l-.021-.005a.934.934,0,0,1-.239-.126.722.722,0,0,1-.105-.071s0,0,0,0a.653.653,0,0,1-.076-.123.623.623,0,0,1-.04-.068,1.446,1.446,0,0,1-.054-.177c-.007-.028-.018-.05-.023-.078a2.11,2.11,0,0,1-.028-.243c0-.025-.007-.046-.008-.072a3.389,3.389,0,0,1,.005-.366,9.22,9.22,0,0,1,3.214-5.635,7.554,7.554,0,0,1,.874-.618c.1-.064.209-.119.315-.177.192-.106.384-.205.577-.293.121-.055.24-.107.36-.155.186-.073.368-.136.551-.194.108-.034.219-.074.325-.1.267-.073.529-.134.782-.18.095-.018.182-.027.273-.041.178-.027.354-.052.521-.068.085-.008.167-.015.248-.021.18-.012.353-.022.513-.025l.127,0a8.773,8.773,0,0,1,.987.047A8.99,8.99,0,0,1,52.613,19.772ZM43.268,4.063V7.029A4.144,4.144,0,0,1,40.3,4.063Zm-18.571,0h2.965A4.144,4.144,0,0,1,24.7,7.029Zm0,5.066a6.2,6.2,0,0,0,5.066-5.066H38.2a6.2,6.2,0,0,0,5.066,5.066V12.2c-.273.024-.572.065-.88.117-.087.014-.172.029-.26.045q-.156.029-.316.065c-.123.027-.248.057-.372.089-.089.023-.175.044-.265.069q-.286.08-.578.18l-.095.031c-.233.082-.468.175-.7.279-.055.024-.109.052-.165.077-.183.084-.364.173-.547.27-.033.018-.065.031-.1.048a3.091,3.091,0,0,0-2.942-2.18,1.029,1.029,0,0,0-.729.3l-3.76,3.76a1.032,1.032,0,0,1,.362-2V11.285a3.091,3.091,0,0,0-2.905,2.063H27.793v2.063h1.222a3.091,3.091,0,0,0,2.905,2.063,1.029,1.029,0,0,0,.729-.3l3.76-3.76a1.032,1.032,0,0,1-.362,2v.508A10.636,10.636,0,0,0,33.5,21.582a4.843,4.843,0,0,0,.031.948c0,.035,0,.075,0,.109L24.7,13.807Zm-4.979,2.616a4.141,4.141,0,0,1-4.192,0l2.1-2.1ZM6.587,20.684a4.141,4.141,0,0,1,0,4.192l-2.1-2.1Zm1.477,5.67a6.18,6.18,0,0,0,0-7.148l5.984-5.984a6.109,6.109,0,0,0,7.148,0l1.74,1.74,11.05,11.05c0,.187.023.373.035.559.008.129.011.258.025.386.023.226.059.451.094.675.054.348.123.689.2,1.027.024.1.042.2.068.293.061.226.134.446.207.666.026.078.046.159.074.237H22.634V24.194a1.267,1.267,0,0,1,1.334.2,1.253,1.253,0,0,1,0,1.636l1.459,1.459a3.308,3.308,0,0,0,.589-3.684l.443-.443L25,21.9l-.443.443a3.308,3.308,0,0,0-3.684.589,1.029,1.029,0,0,0-.3.729v5.725a1.325,1.325,0,0,1-1.334-.264,1.253,1.253,0,0,1,0-1.636l-1.459-1.459a3.31,3.31,0,0,0-.518,3.825H11.566Zm-4,5.565H7.029a4.144,4.144,0,0,1-2.965,2.965Zm0,18.571V47.525A4.144,4.144,0,0,1,7.029,50.49Zm5.066,0a6.2,6.2,0,0,0-5.066-5.066V36.985a6.2,6.2,0,0,0,5.066-5.066H35.663c0,.006.008.012.011.018.09.151.186.294.282.44.05.075.091.145.143.223.02.029.043.053.064.08a11.141,11.141,0,0,0,.757.963l.031.038a10.8,10.8,0,0,0,.907.9c.015.013.028.029.042.042s.1.085.1.085c.133.112.269.222.412.331.115.088.232.17.351.253.058.04.108.079.169.121l-.325.969-.216.644c-.147.007-.288.03-.433.041-.2.015-.4.033-.591.057-.279.034-.552.078-.824.128-.19.034-.38.066-.565.107-.274.061-.543.137-.81.214-.174.051-.352.094-.523.151-.291.1-.574.209-.855.324-.138.056-.281.1-.417.163-.4.175-.781.37-1.157.582-.186.1-.362.224-.543.337s-.39.239-.578.37-.382.285-.57.43c-.159.123-.318.245-.471.375-.194.164-.38.338-.565.513-.132.126-.264.251-.392.382-.19.194-.372.393-.551.6-.106.123-.212.247-.314.373-.186.227-.365.458-.538.7-.076.107-.15.217-.224.327-.184.27-.363.545-.531.829-.037.064-.071.131-.108.2a16.4,16.4,0,0,0-2.006,6.272H9.129Zm52.71,11.349H56.68V51.522H54.617V61.839H33.983V51.522H31.92V61.839H26.761V52.554c0-.328.022-.648.041-.968,0,0,0,0,0,0a15.555,15.555,0,0,1,.375-2.593l.009-.041c.092-.39.2-.77.321-1.143.012-.037.023-.074.035-.111.116-.348.246-.685.386-1.016.025-.06.05-.12.075-.178.134-.305.28-.6.433-.892.042-.078.083-.158.126-.236.148-.266.3-.523.468-.775.061-.094.122-.188.185-.28.158-.229.323-.451.493-.668.082-.1.163-.2.247-.3.165-.2.337-.388.514-.574.1-.105.2-.209.306-.311.172-.169.351-.332.532-.49q.18-.155.363-.3.268-.215.548-.414c.137-.1.278-.191.419-.282.185-.12.371-.235.562-.344.154-.088.311-.169.467-.251.19-.1.382-.191.577-.279.169-.075.341-.143.516-.21.194-.075.388-.149.587-.214s.373-.113.563-.165.392-.106.592-.151.405-.078.61-.112.4-.066.6-.089c.133-.015.268-.021.4-.032V44.3a1.033,1.033,0,0,0,.453.854,1.019,1.019,0,0,0,.577.177,1.039,1.039,0,0,0,.384-.073L44.3,43.348l4.775,1.91a1.02,1.02,0,0,0,.384.074A1.031,1.031,0,0,0,50.49,44.3V39.2c6.633.516,11.349,5.964,11.349,13.356Z" fill="#f56735"/>
    <rect id="Rectangle_1920" data-name="Rectangle 1920" width="2" height="2" transform="translate(42.999 46)" fill="#f56735"/>
    <rect id="Rectangle_1921" data-name="Rectangle 1921" width="2" height="3" transform="translate(42.999 50)" fill="#f56735"/>
    <rect id="Rectangle_1922" data-name="Rectangle 1922" width="2" height="2" transform="translate(42.999 55)" fill="#f56735"/>
    <path id="Path_3655" data-name="Path 3655" d="M20.128,37.765a1.032,1.032,0,0,1,2,.362H24.19a3.091,3.091,0,0,0-2.063-2.905V34H20.063v1.222A3.091,3.091,0,0,0,18,38.127a1.029,1.029,0,0,0,.3.729l3.76,3.76a1.032,1.032,0,0,1-2-.362H18a3.091,3.091,0,0,0,2.063,2.905V46.38h2.063V45.159a3.091,3.091,0,0,0,2.063-2.905,1.029,1.029,0,0,0-.3-.729Z" transform="translate(0.507 1.015)" fill="#f56735"/>
  </g>
</svg>
