<svg id="noun_approval_3581450" xmlns="http://www.w3.org/2000/svg" width="31.064" height="33.734" viewBox="0 0 31.064 33.734">
  <path id="Path_6237" data-name="Path 6237" d="M24.706,14.2H16.685a.58.58,0,0,0-.585.585.6.6,0,0,0,.585.585H24.74a.58.58,0,0,0,.585-.585A.611.611,0,0,0,24.706,14.2Z" transform="translate(-12.245 -9.656)" fill="#00e495"/>
  <path id="Path_6238" data-name="Path 6238" d="M24.706,23.4H16.685a.585.585,0,0,0,0,1.17H24.74a.58.58,0,0,0,.585-.585A.611.611,0,0,0,24.706,23.4Z" transform="translate(-12.245 -15.689)" fill="#00e495"/>
  <path id="Path_6239" data-name="Path 6239" d="M20.713,33.2H16.685a.585.585,0,0,0,0,1.17h4.027a.58.58,0,0,0,.585-.585A.6.6,0,0,0,20.713,33.2Z" transform="translate(-12.245 -22.116)" fill="#00e495"/>
  <path id="Path_6240" data-name="Path 6240" d="M56.212,53.04a.722.722,0,0,0-.792.62,8.215,8.215,0,0,1-9.191,7.091,7.99,7.99,0,0,1-5.439-3.132,8.2,8.2,0,0,1,7.539-13.15.711.711,0,0,0,.172-1.411,9.612,9.612,0,0,0-10.74,8.33h0a9.692,9.692,0,0,0,1.928,7.091,9.312,9.312,0,0,0,6.368,3.683,7.278,7.278,0,0,0,1.2.069,9.64,9.64,0,0,0,9.535-8.4A.7.7,0,0,0,56.212,53.04Z" transform="translate(-26.402 -28.531)" fill="#00e495"/>
  <path id="Path_6241" data-name="Path 6241" d="M68.894,50.372a.707.707,0,0,0-1-.034L59.7,58.117l-3.1-3.1a.706.706,0,1,0-1,1l3.58,3.614a.666.666,0,0,0,.964,0L68.825,51.4A.722.722,0,0,0,68.894,50.372Z" transform="translate(-38.017 -33.23)" fill="#00e495"/>
  <path id="Path_6242" data-name="Path 6242" d="M33.953,9.468,26.07,1.207A.578.578,0,0,0,25.588,1H7.241A2.343,2.343,0,0,0,4.9,3.341V32.428a2.306,2.306,0,0,0,2.306,2.306H18.049l-1.2-1.308H7.206a1,1,0,0,1-1-1V3.341a1,1,0,0,1,1-1H24.59v7.883a.654.654,0,0,0,.654.654h7.573v4.3l1.308.585V9.915A.725.725,0,0,0,33.953,9.468Zm-8.021.1V2.962l6.3,6.609Z" transform="translate(-4.9 -1)" fill="#00e495"/>
</svg>
