<svg xmlns="http://www.w3.org/2000/svg" width="56.085" height="56.085" viewBox="0 0 56.085 56.085">
  <g id="Group_714" data-name="Group 714" transform="translate(-552.708 -164)">
    <g id="Group_710" data-name="Group 710" transform="translate(575.498 169.814)">
      <path id="Path_6106" data-name="Path 6106" d="M135.07,91.875a11.9,11.9,0,0,0,11.1,11.87c.26.016.53.027.8.027a11.9,11.9,0,1,0,0-23.8c-.268,0-.537,0-.8.028A11.9,11.9,0,0,0,135.07,91.875Z" transform="translate(-135.07 -79.973)" fill="#ffc71a"/>
      <path id="Path_6101" data-name="Path 6101" d="M135.07,91.875a11.9,11.9,0,0,0,11.1,11.87c.26.016.53.027.8.027a11.9,11.9,0,1,0,0-23.8c-.268,0-.537,0-.8.028A11.9,11.9,0,0,0,135.07,91.875Z" transform="translate(-135.07 -79.975)" opacity="0.4"/>
      <path id="Path_6105" data-name="Path 6105" d="M137.62,93.907c0,.208,0,.415.017.606a11.365,11.365,0,0,0,10.583,10.735l.156.01c.208,0,.4.017.606.017a11.355,11.355,0,0,0,11.336-10.4c.029-.322.042-.645.042-.975s-.01-.6-.033-.894a11.028,11.028,0,0,0-.29-1.812,11.386,11.386,0,0,0-8.342-8.334,11.031,11.031,0,0,0-1.812-.291c-.295-.023-.593-.033-.894-.033-.255,0-.51,0-.762.025a.859.859,0,0,0-.208.017,11.359,11.359,0,0,0-10.392,11.326Z" transform="translate(-137.091 -82.011)" fill="#ffc71a"/>
      <path id="Path_6102" data-name="Path 6102" d="M137.62,93.907c0,.208,0,.415.017.606a11.365,11.365,0,0,0,10.583,10.735l.156.01c.208,0,.4.017.606.017a11.355,11.355,0,0,0,11.336-10.4c.029-.322.042-.645.042-.975s-.01-.6-.033-.894a11.028,11.028,0,0,0-.29-1.812,11.386,11.386,0,0,0-8.342-8.334,11.031,11.031,0,0,0-1.812-.291c-.295-.023-.593-.033-.894-.033-.255,0-.51,0-.762.025a.859.859,0,0,0-.208.017,11.359,11.359,0,0,0-10.392,11.326Z" transform="translate(-137.091 -82.007)" opacity="0.5"/>
      <path id="Path_6104" data-name="Path 6104" d="M160.548,101.973a11.291,11.291,0,0,0,3.32-7.095c.029-.322.044-.645.044-.975s-.012-.6-.035-.894a11.027,11.027,0,0,0-.291-1.812,11.386,11.386,0,0,0-8.342-8.334,11.03,11.03,0,0,0-1.812-.291c-.295-.023-.593-.033-.894-.033-.255,0-.51,0-.762.025a.858.858,0,0,0-.208.017,11.268,11.268,0,0,0-4.7,1.473,11.429,11.429,0,0,0-1.424.986,11.3,11.3,0,0,0-3.345,8.047c0,.208,0,.4.019.606A11.361,11.361,0,0,0,152.7,104.428h.154c.208.01.4.017.608.017a11.284,11.284,0,0,0,7.082-2.49Z" transform="translate(-140.114 -82.007)" fill="#ffc71a"/>
      <path id="Path_6103" data-name="Path 6103" d="M160.548,101.973a11.291,11.291,0,0,0,3.32-7.095c.029-.322.044-.645.044-.975s-.012-.6-.035-.894a11.027,11.027,0,0,0-.291-1.812,11.386,11.386,0,0,0-8.342-8.334,11.03,11.03,0,0,0-1.812-.291c-.295-.023-.593-.033-.894-.033-.255,0-.51,0-.762.025a.858.858,0,0,0-.208.017,11.268,11.268,0,0,0-4.7,1.473,11.429,11.429,0,0,0-1.424.986,11.3,11.3,0,0,0-3.345,8.047c0,.208,0,.4.019.606A11.361,11.361,0,0,0,152.7,104.428h.154c.208.01.4.017.608.017a11.284,11.284,0,0,0,7.082-2.49Z" transform="translate(-140.114 -82.007)" opacity="0.25"/>
    </g>
    <path id="Path_6185" data-name="Path 6185" d="M236.615,162.44A15.451,15.451,0,0,1,235.463,165c-.134.234-.273.468-.418.7a15.721,15.721,0,0,1-5.725,5.371Z" transform="translate(365.314 24.293)" opacity="0.05"/>
    <g id="Group_711" data-name="Group 711" transform="translate(571.489 166.396)" opacity="0.363">
      <path id="Path_6095" data-name="Path 6095" d="M200.505,116c.118.407.222.831.308,1.259s.153.845.2,1.277a15.483,15.483,0,0,1,.1,1.88,14.573,14.573,0,0,1-.081,1.546q-.067.664-.189,1.3c-.081.428-.179.847-.293,1.263h0a15.59,15.59,0,0,1-1.446,3.489c-.134.234-.273.468-.418.7a15.633,15.633,0,0,1-13.312,7.294,15.821,15.821,0,0,1-1.711-.1Z" transform="translate(-169.822 -105.123)" opacity="0.05"/>
      <path id="Path_6097" data-name="Path 6097" d="M179.553,93.73a15.4,15.4,0,0,1,1.316,2.314l-18.33,21.691-.248-.067a15.5,15.5,0,0,1-2.24-.849Z" transform="translate(-151.013 -87.389)" fill="#fff" opacity="0.15"/>
      <path id="Path_6098" data-name="Path 6098" d="M149.63,68.27a15.868,15.868,0,0,1,2.346,1.426L131.794,93.572A15.732,15.732,0,0,1,130,91.492Z" transform="translate(-127.083 -67.115)" fill="#fff" opacity="0.15"/>
      <path id="Path_6099" data-name="Path 6099" d="M142.324,63.8q.727.226,1.426.517l-19.3,22.829c-.269-.426-.523-.862-.752-1.314Z" transform="translate(-122.066 -63.555)" fill="#fff" opacity="0.15"/>
      <path id="Path_6100" data-name="Path 6100" d="M115.68,76.687h0c.02-.289.051-.576.086-.86.012-.1.022-.191.037-.285s.028-.2.045-.291c.037-.2.073-.428.116-.64a15.729,15.729,0,0,1,6.964-10.04c.228-.145.462-.283.7-.407a15.5,15.5,0,0,1,3.5-1.446c.155-.043.31-.079.466-.118Z" transform="translate(-115.68 -62.6)" fill="#fff" opacity="0.15"/>
    </g>
    <g id="Group_712" data-name="Group 712" transform="translate(575.498 169.814)">
      <path id="Path_6106-2" data-name="Path 6106" d="M135.07,91.875a11.9,11.9,0,0,0,11.1,11.87c.26.016.53.027.8.027a11.9,11.9,0,1,0,0-23.8c-.268,0-.537,0-.8.028A11.9,11.9,0,0,0,135.07,91.875Z" transform="translate(-135.07 -79.973)" fill="#ffc71a"/>
      <path id="Path_6101-2" data-name="Path 6101" d="M135.07,91.875a11.9,11.9,0,0,0,11.1,11.87c.26.016.53.027.8.027a11.9,11.9,0,1,0,0-23.8c-.268,0-.537,0-.8.028A11.9,11.9,0,0,0,135.07,91.875Z" transform="translate(-135.07 -79.975)" opacity="0.4"/>
      <path id="Path_6105-2" data-name="Path 6105" d="M137.62,93.907c0,.208,0,.415.017.606a11.365,11.365,0,0,0,10.583,10.735l.156.01c.208,0,.4.017.606.017a11.355,11.355,0,0,0,11.336-10.4c.029-.322.042-.645.042-.975s-.01-.6-.033-.894a11.028,11.028,0,0,0-.29-1.812,11.386,11.386,0,0,0-8.342-8.334,11.031,11.031,0,0,0-1.812-.291c-.295-.023-.593-.033-.894-.033-.255,0-.51,0-.762.025a.859.859,0,0,0-.208.017,11.359,11.359,0,0,0-10.392,11.326Z" transform="translate(-137.091 -82.011)" fill="#ffc71a"/>
      <path id="Path_6102-2" data-name="Path 6102" d="M137.62,93.907c0,.208,0,.415.017.606a11.365,11.365,0,0,0,10.583,10.735l.156.01c.208,0,.4.017.606.017a11.355,11.355,0,0,0,11.336-10.4c.029-.322.042-.645.042-.975s-.01-.6-.033-.894a11.028,11.028,0,0,0-.29-1.812,11.386,11.386,0,0,0-8.342-8.334,11.031,11.031,0,0,0-1.812-.291c-.295-.023-.593-.033-.894-.033-.255,0-.51,0-.762.025a.859.859,0,0,0-.208.017,11.359,11.359,0,0,0-10.392,11.326Z" transform="translate(-137.091 -82.007)" opacity="0.5"/>
      <path id="Path_6104-2" data-name="Path 6104" d="M160.548,101.973a11.291,11.291,0,0,0,3.32-7.095c.029-.322.044-.645.044-.975s-.012-.6-.035-.894a11.027,11.027,0,0,0-.291-1.812,11.386,11.386,0,0,0-8.342-8.334,11.03,11.03,0,0,0-1.812-.291c-.295-.023-.593-.033-.894-.033-.255,0-.51,0-.762.025a.858.858,0,0,0-.208.017,11.268,11.268,0,0,0-4.7,1.473,11.429,11.429,0,0,0-1.424.986,11.3,11.3,0,0,0-3.345,8.047c0,.208,0,.4.019.606A11.361,11.361,0,0,0,152.7,104.428h.154c.208.01.4.017.608.017a11.284,11.284,0,0,0,7.082-2.49Z" transform="translate(-140.114 -82.007)" fill="#ffc71a"/>
      <path id="Path_6103-2" data-name="Path 6103" d="M160.548,101.973a11.291,11.291,0,0,0,3.32-7.095c.029-.322.044-.645.044-.975s-.012-.6-.035-.894a11.027,11.027,0,0,0-.291-1.812,11.386,11.386,0,0,0-8.342-8.334,11.03,11.03,0,0,0-1.812-.291c-.295-.023-.593-.033-.894-.033-.255,0-.51,0-.762.025a.858.858,0,0,0-.208.017,11.268,11.268,0,0,0-4.7,1.473,11.429,11.429,0,0,0-1.424.986,11.3,11.3,0,0,0-3.345,8.047c0,.208,0,.4.019.606A11.361,11.361,0,0,0,152.7,104.428h.154c.208.01.4.017.608.017a11.284,11.284,0,0,0,7.082-2.49Z" transform="translate(-140.114 -82.007)" opacity="0.25"/>
    </g>
    <path id="Path_6186" data-name="Path 6186" d="M236.615,162.44A15.451,15.451,0,0,1,235.463,165c-.134.234-.273.468-.418.7a15.721,15.721,0,0,1-5.725,5.371Z" transform="translate(365.314 24.293)" opacity="0.05"/>
    <g id="Group_713" data-name="Group 713" transform="translate(571.489 166.396)" opacity="0.363">
      <path id="Path_6095-2" data-name="Path 6095" d="M200.505,116c.118.407.222.831.308,1.259s.153.845.2,1.277a15.483,15.483,0,0,1,.1,1.88,14.573,14.573,0,0,1-.081,1.546q-.067.664-.189,1.3c-.081.428-.179.847-.293,1.263h0a15.59,15.59,0,0,1-1.446,3.489c-.134.234-.273.468-.418.7a15.633,15.633,0,0,1-13.312,7.294,15.821,15.821,0,0,1-1.711-.1Z" transform="translate(-169.822 -105.123)" opacity="0.05"/>
      <path id="Path_6097-2" data-name="Path 6097" d="M179.553,93.73a15.4,15.4,0,0,1,1.316,2.314l-18.33,21.691-.248-.067a15.5,15.5,0,0,1-2.24-.849Z" transform="translate(-151.013 -87.389)" fill="#fff" opacity="0.15"/>
      <path id="Path_6098-2" data-name="Path 6098" d="M149.63,68.27a15.868,15.868,0,0,1,2.346,1.426L131.794,93.572A15.732,15.732,0,0,1,130,91.492Z" transform="translate(-127.083 -67.115)" fill="#fff" opacity="0.15"/>
      <path id="Path_6099-2" data-name="Path 6099" d="M142.324,63.8q.727.226,1.426.517l-19.3,22.829c-.269-.426-.523-.862-.752-1.314Z" transform="translate(-122.066 -63.555)" fill="#fff" opacity="0.15"/>
      <path id="Path_6100-2" data-name="Path 6100" d="M115.68,76.687h0c.02-.289.051-.576.086-.86.012-.1.022-.191.037-.285s.028-.2.045-.291c.037-.2.073-.428.116-.64a15.729,15.729,0,0,1,6.964-10.04c.228-.145.462-.283.7-.407a15.5,15.5,0,0,1,3.5-1.446c.155-.043.31-.079.466-.118Z" transform="translate(-115.68 -62.6)" fill="#fff" opacity="0.15"/>
    </g>
    <g id="noun_offers_3881453" transform="translate(552.787 164)">
      <g id="Group_709" data-name="Group 709" transform="translate(-0.08)">
        <path id="Path_6184" data-name="Path 6184" d="M31.764,41.9l14.386-2.84c2.3-.512,3.759-.189,4.03,1.1L33.656,43.454a.165.165,0,0,1-.131-.025L31.7,42.22a.174.174,0,0,1,.063-.317ZM29.123,22.4l9.246-10.967a.565.565,0,0,1,.794-.067l1.631,1.376a.564.564,0,0,1,.067.793L31.616,24.5a.564.564,0,0,1-.794.067L29.191,23.19A.564.564,0,0,1,29.123,22.4Zm10.463-2.714a2.43,2.43,0,1,1-2.43,2.43A2.43,2.43,0,0,1,39.587,19.682Zm-9.187-8.3a2.43,2.43,0,1,1-2.43,2.43A2.429,2.429,0,0,1,30.4,11.384ZM39.07,2.746a4.4,4.4,0,0,1,7.062,4.078,4.4,4.4,0,0,1,4.078,7.062,4.4,4.4,0,0,1,0,8.155A4.4,4.4,0,0,1,46.134,29.1a4.4,4.4,0,0,1-7.063,4.078,4.4,4.4,0,0,1-8.154,0A4.4,4.4,0,0,1,23.853,29.1a4.4,4.4,0,0,1-4.078-7.062,4.4,4.4,0,0,1,0-8.155,4.4,4.4,0,0,1,4.078-7.062,4.4,4.4,0,0,1,7.062-4.078,4.4,4.4,0,0,1,8.155,0Zm4.107,7.033a11.576,11.576,0,1,0,3.391,8.185A11.539,11.539,0,0,0,43.178,9.778ZM8.364,34.84a10.409,10.409,0,0,1,10.3-.623c2.035.947,3.576,2.847,5.472,3.991l4.686,2.63c2.454,1.357,1.21,4.815-1.055,4.307l-4.873-.634a3.324,3.324,0,0,1-1.588-.619l-5.4-3.9a.485.485,0,1,0-.536.805l5.469,4.121a4.721,4.721,0,0,0,1.926.762l4.862.67a3.065,3.065,0,0,0,3.614-2.376.173.173,0,0,1,.1-.116.17.17,0,0,1,.155.011l1.427.846a.171.171,0,0,0,.124.021l19.1-3.962c4.149-.764,5.679,4.291,1.336,5.341L33.033,52.624a13.85,13.85,0,0,1-9.312.17L13.646,49.083a2.821,2.821,0,0,0-2.63.217L1.491,55.8C.983,56.149,0,56.349,0,55.346V42.523a3.289,3.289,0,0,1,1.1-2.9A79.512,79.512,0,0,1,8.364,34.84Z" fill="#ffc71a" fill-rule="evenodd"/>
      </g>
    </g>
    <g id="noun_offers_3881453-2" data-name="noun_offers_3881453" transform="translate(472.787 147)">
      <g id="Group_709-2" data-name="Group 709" transform="translate(-0.08)">
        <path id="Path_6184-2" data-name="Path 6184" d="M31.764,41.9l14.386-2.84c2.3-.512,3.759-.189,4.03,1.1L33.656,43.454a.165.165,0,0,1-.131-.025L31.7,42.22a.174.174,0,0,1,.063-.317ZM8.364,34.84a10.409,10.409,0,0,1,10.3-.623c2.035.947,3.576,2.847,5.472,3.991l4.686,2.63c2.454,1.357,1.21,4.815-1.055,4.307l-4.873-.634a3.324,3.324,0,0,1-1.588-.619l-5.4-3.9a.485.485,0,1,0-.536.805l5.469,4.121a4.721,4.721,0,0,0,1.926.762l4.862.67a3.065,3.065,0,0,0,3.614-2.376.173.173,0,0,1,.1-.116.17.17,0,0,1,.155.011l1.427.846a.171.171,0,0,0,.124.021l19.1-3.962c4.149-.764,5.679,4.291,1.336,5.341L33.033,52.624a13.85,13.85,0,0,1-9.312.17L13.646,49.083a2.821,2.821,0,0,0-2.63.217L1.491,55.8C.983,56.149,0,56.349,0,55.346V42.523a3.289,3.289,0,0,1,1.1-2.9A79.512,79.512,0,0,1,8.364,34.84Z" transform="translate(80 17)" fill="#cbac7a" fill-rule="evenodd"/>
      </g>
    </g>
  </g>
</svg>
