<svg id="noun_submit_3530474" xmlns="http://www.w3.org/2000/svg" width="33.847" height="33.734" viewBox="0 0 33.847 33.734">
  <path id="Path_6232" data-name="Path 6232" d="M38.847,11.744a.131.131,0,0,0-.038-.075v-.038c0-.038-.038-.075-.038-.113a.037.037,0,0,0-.038-.038c-.038-.038-.038-.075-.075-.113L32.642,5.35c-.038-.038-.075-.075-.113-.075h-.038c-.038,0-.075-.038-.113-.038h-.038a.131.131,0,0,1-.075-.038H26.06A2.263,2.263,0,0,0,23.8,7.456V22.5a2.263,2.263,0,0,0,2.256,2.256h10.53A2.263,2.263,0,0,0,38.847,22.5V11.744ZM32.83,7.682l3.46,3.46H33.582a.754.754,0,0,1-.752-.752Zm4.513,14.742a.754.754,0,0,1-.752.752H26.06a.754.754,0,0,1-.752-.752V7.381a.754.754,0,0,1,.752-.752h5.265V10.39a2.263,2.263,0,0,0,2.256,2.256h3.761ZM36.215,33.707H34.823a2.764,2.764,0,0,0,.263-1.128,2.616,2.616,0,0,0-2.633-2.633H26.136l-6.281-6.807a4.445,4.445,0,0,0-3.31-1.467H7.256A2.263,2.263,0,0,0,5,23.929V30.7a2.263,2.263,0,0,0,2.256,2.256h3.535a2.28,2.28,0,0,1,1.316.414L18.8,38.22a3.9,3.9,0,0,0,2.219.715H36.215A2.616,2.616,0,0,0,38.847,36.3,2.585,2.585,0,0,0,36.215,33.707ZM32.454,31.45a1.108,1.108,0,0,1,1.128,1.128,1.131,1.131,0,0,1-1.128,1.128H27.377a2.267,2.267,0,0,0,.226-.865,2.566,2.566,0,0,0-.263-1.391Zm-23.693,0h-1.5A.754.754,0,0,1,6.5,30.7V23.929a.754.754,0,0,1,.752-.752h1.5Zm27.454,6.017H21.021a2.07,2.07,0,0,1-1.316-.451l-6.694-4.851a3.9,3.9,0,0,0-2.219-.715h-.527V23.177h6.281a2.965,2.965,0,0,1,2.219.978l7.07,7.672a1.032,1.032,0,0,1,.3.865,1.142,1.142,0,0,1-.451.79,1.221,1.221,0,0,1-1.58-.188L17.335,25.96a.728.728,0,0,0-1.053-.038.765.765,0,0,0-.226.564.715.715,0,0,0,.188.489l6.732,7.334a2.647,2.647,0,0,0,1.768.865H36.177A1.108,1.108,0,0,1,37.305,36.3,1.087,1.087,0,0,1,36.215,37.468Z" transform="translate(-5 -5.2)" fill="#fff"/>
</svg>
