<svg xmlns="http://www.w3.org/2000/svg" width="186.165" height="104.944" viewBox="0 0 186.165 104.944"><defs><style>.a{fill:#f5f5f5;}.b{fill:#e0e0e0;}.c{fill:#fafafa;}.d{fill:#263238;}.e{fill:#f56735;}.f{opacity:0.4;}.g{fill:#455a64;}.h{opacity:0.2;}.i{fill:#ebebeb;}.j{fill:#fff;}.k{fill:#ffbe9d;}.l{opacity:0.6;}.m{fill:#eb996e;}.n{opacity:0.3;}.o{fill:#aa6550;}.p{fill:#b78876;}.q{fill.color;}</style></defs><g transform="translate(0.476 0)"><path class="a" d="M46.557,128.4c7.227-3.636,9.949-11.935,10.8-19.622a8.4,8.4,0,0,0,.028-3.819,2.625,2.625,0,0,0-2.973-1.805c-1.013.307-1.585,1.351-2.257,2.189a7.543,7.543,0,0,1-3.408,2.426,2.877,2.877,0,0,1-2.657-.141c-1.018-.756-.917-2.307-.736-3.577l1.072-7.1a11.891,11.891,0,0,0,.161-3.828,3.982,3.982,0,0,0-2.09-3.021,2.414,2.414,0,0,0-3.19,1.173,12.181,12.181,0,0,0-.265,1.577A1.354,1.354,0,0,1,40.074,94c-.522.076-.984-.358-1.312-.784a16.979,16.979,0,0,1-2.37-5.018,23.549,23.549,0,0,0-2.147-5.131,6.874,6.874,0,0,0-4.265-3.275,4.171,4.171,0,0,0-4.623,2.195c-.719,1.718.062,3.693.99,5.306a28.733,28.733,0,0,0,5.078,6.488,2.429,2.429,0,0,1,.846,1.2c.155.886-.77,1.611-1.647,1.769a14.785,14.785,0,0,1-3.013-.1,2.9,2.9,0,0,0-2.654,1.128c-.708,1.221.183,2.739,1.128,3.786a24.522,24.522,0,0,0,6.59,5.19,8.111,8.111,0,0,1,2.482,1.693,2.38,2.38,0,0,1,.364,2.8,2.422,2.422,0,0,1-2.748.623,17.133,17.133,0,0,1-2.635-1.467c-1.65-.911-3.921-1.128-5.258.231a4.066,4.066,0,0,0-.942,3.492,9.4,9.4,0,0,0,1.472,3.419,24.671,24.671,0,0,0,9.371,8.835c3.848,1.989,7.543,2.914,11.78,2.023" transform="translate(-23.876 -75.611)"/><path class="b" d="M54.382,125.371a114.694,114.694,0,0,0-2.748-12.905q-.451-1.693-.894-3.348c-.282-1.1-.587-2.186-.942-3.233a56.642,56.642,0,0,0-2.37-5.9c-.846-1.839-1.715-3.554-2.539-5.154s-1.628-3.069-2.415-4.384a45.629,45.629,0,0,0-4.166-5.91c-.547-.657-.984-1.151-1.286-1.484l-.339-.361a.812.812,0,0,0-.124-.121,1.3,1.3,0,0,0,.1.138l.33.389c.282.341.716.846,1.252,1.512a48.267,48.267,0,0,1,4.079,5.924c.776,1.315,1.566,2.79,2.384,4.389s1.693,3.317,2.516,5.154a58.638,58.638,0,0,1,2.35,5.884c.367,1.041.649,2.118.931,3.221s.592,2.214.891,3.343a117.628,117.628,0,0,1,2.776,12.88" transform="translate(-32.982 -77.662)"/><path class="b" d="M83.26,130.267a2.383,2.383,0,0,0,.209-.522c.118-.341.282-.846.451-1.461.364-1.238.8-2.968,1.286-4.874s.945-3.625,1.326-4.855c.189-.615.344-1.111.46-1.453a2.748,2.748,0,0,0,.15-.542,2.632,2.632,0,0,0-.237.508c-.141.333-.322.824-.53,1.436-.423,1.221-.917,2.937-1.41,4.846s-.886,3.588-1.213,4.9l-.378,1.478A2.9,2.9,0,0,0,83.26,130.267Z" transform="translate(-66.509 -102.064)"/><path class="b" d="M26.93,146a3.529,3.529,0,0,0,.64.172c.412.1,1.013.237,1.746.432,1.472.378,3.489.97,5.684,1.724s4.152,1.523,5.551,2.118c.7.282,1.264.547,1.653.719a3.563,3.563,0,0,0,.615.248,3.5,3.5,0,0,0-.564-.333c-.378-.2-.928-.474-1.625-.79-1.385-.638-3.34-1.433-5.543-2.192a57.9,57.9,0,0,0-5.718-1.659c-.745-.175-1.351-.282-1.772-.358A3.479,3.479,0,0,0,26.93,146Z" transform="translate(-26.068 -123.199)"/><path class="b" d="M99.18,183.065a.815.815,0,0,0,.141-.183l.364-.564c.316-.48.753-1.185,1.281-2.065,1.061-1.757,2.446-4.231,3.949-6.979s2.852-5.236,3.873-7.01c.5-.863.908-1.574,1.216-2.1.13-.231.237-.42.327-.564a.756.756,0,0,0,.1-.209,1.086,1.086,0,0,0-.141.183l-.375.553c-.316.48-.75,1.185-1.281,2.065-1.058,1.757-2.443,4.231-3.949,6.982s-2.841,5.233-3.862,7.01l-1.213,2.1-.327.564A.9.9,0,0,0,99.18,183.065Z" transform="translate(-77.938 -135.684)"/><path class="b" d="M25.83,197.22a.889.889,0,0,0,.2.118l.6.3,2.217,1.089c1.87.92,4.437,2.22,7.275,3.667s5.419,2.719,7.309,3.6c.945.44,1.712.79,2.257,1.021l.618.262a1.079,1.079,0,0,0,.223.076.756.756,0,0,0-.2-.121l-.6-.3-2.214-1.089c-1.87-.92-4.44-2.22-7.278-3.667s-5.427-2.719-7.317-3.611c-.945-.443-1.712-.793-2.257-1.021l-.618-.262A.894.894,0,0,0,25.83,197.22Z" transform="translate(-25.279 -159.971)"/><path class="b" d="M627.312,333.454a9.616,9.616,0,0,0-4.116-1.41,2.752,2.752,0,0,0-1.946.358.406.406,0,0,0-.2.355.429.429,0,0,0,.192.243,5.886,5.886,0,0,0,6.07.463" transform="translate(-467.363 -256.741)"/><path class="b" d="M631.725,320.281a19.964,19.964,0,0,1-2.657-2.338,6.717,6.717,0,0,1-1.664-3.08,1.247,1.247,0,0,1,.13-1.032,10.34,10.34,0,0,1,4.192,6.451" transform="translate(-471.883 -243.687)"/><path class="b" d="M642.825,320.849a9.589,9.589,0,0,1,.051-3.489,4.725,4.725,0,0,1,1.856-2.88,4.127,4.127,0,0,1-.048,2.736,13.287,13.287,0,0,1-1.842,3.879" transform="translate(-482.898 -244.153)"/><path class="b" d="M637.328,350.25a6.063,6.063,0,0,0-3.3,1.67,6.248,6.248,0,0,0-1.89,3.241,4.449,4.449,0,0,0,3.047-1.927c.759-.976,1.289-2.051,2.124-2.965" transform="translate(-475.325 -269.833)"/><path class="b" d="M650.69,332.768a8.141,8.141,0,0,1,.939-7.7,9.8,9.8,0,0,1-.939,7.7" transform="translate(-488.236 -251.756)"/><path class="b" d="M647.3,363.909a5.887,5.887,0,0,0-5.642,3.238.437.437,0,0,0-.037.443.42.42,0,0,0,.372.11,4.893,4.893,0,0,0,2.9-1.5,27.233,27.233,0,0,1,2.415-2.293" transform="translate(-482.099 -279.63)"/><path class="b" d="M660.352,343.472a10.485,10.485,0,0,1-.1-5.853,2.894,2.894,0,0,1,1.25-1.9.24.24,0,0,1,.189-.034.251.251,0,0,1,.121.141,3.52,3.52,0,0,1,.282,1.678,10.505,10.505,0,0,1-.265,1.693,9,9,0,0,1-.905,3.052,5.9,5.9,0,0,0-.361.671c-.11.226-.11.307-.209.488" transform="translate(-495.241 -259.371)"/><path class="b" d="M686.785,350.736a7.535,7.535,0,0,1,1.323-6.206c.093-.124.22-.257.375-.243.237.023.3.339.282.564a11.216,11.216,0,0,1-1.975,5.873" transform="translate(-514.41 -265.552)"/><path class="b" d="M689.62,363.273a9.027,9.027,0,0,0,7.408-1.506,6,6,0,0,0-4.011-.491,5.644,5.644,0,0,0-3.385,2" transform="translate(-516.591 -277.643)"/><path class="b" d="M691.58,354.007a8.594,8.594,0,0,1,6.722-3.887,4.14,4.14,0,0,1-2.2,2.432,12.212,12.212,0,0,1-3.227.945,2.264,2.264,0,0,0-1.295.511" transform="translate(-517.998 -269.74)"/><path class="b" d="M685.33,320.495a19.713,19.713,0,0,0,.86-3.949,6.594,6.594,0,0,0-.784-3.9,8.572,8.572,0,0,0-.116,7.969" transform="translate(-512.817 -242.839)"/><path class="b" d="M703.31,319.163a10.559,10.559,0,0,1,7.769-5.283,8.631,8.631,0,0,1-7.769,5.283" transform="translate(-526.419 -243.722)"/><path class="b" d="M699.92,333.413c2.257.347,4.2,1.794,6.321,2.674a2.878,2.878,0,0,0,1.43.282,1.128,1.128,0,0,0,.7-1.975,3.023,3.023,0,0,0-1.038-.629,11.552,11.552,0,0,0-7.219-.4" transform="translate(-523.985 -257.431)"/><path class="b" d="M695.27,339.874a2.668,2.668,0,0,1,1.094.762,11.848,11.848,0,0,0,4.8,2.463c.183.045.423.062.513-.1s-.02-.322-.124-.449a6.6,6.6,0,0,0-2.894-1.975,7.376,7.376,0,0,0-3.385-.8" transform="translate(-520.647 -262.3)"/><path class="b" d="M690,305.475a9.069,9.069,0,0,0,6.956,2.367.482.482,0,0,0,.319-.113c.175-.192-.037-.485-.24-.643A8,8,0,0,0,690,305.475" transform="translate(-516.864 -237.512)"/><path class="b" d="M696.233,299.019a9.7,9.7,0,0,1,8.677-1.433,6.88,6.88,0,0,1-4.135,1.817,13.142,13.142,0,0,1-4.544-.384" transform="translate(-521.336 -231.7)"/><path class="b" d="M690.787,272.54c-.2-2.039-.071-3.65-.214-5.7,0-.164-.045-.361-.2-.417-.214-.085-.392.178-.463.4a6.53,6.53,0,0,0,.872,5.678" transform="translate(-516.587 -209.638)"/><path class="b" d="M693.25,272.675a11.974,11.974,0,0,0,3.385-3.286,4.488,4.488,0,0,0,1.08-3.128,3.227,3.227,0,0,0-2.44,1.21,6.816,6.816,0,0,0-1.244,2.5c-.282.9-.46,1.819-.776,2.7" transform="translate(-519.197 -209.535)"/><path class="b" d="M704.892,272.681a27.241,27.241,0,0,0,8.322-4.905,4.25,4.25,0,0,0-3.125.24,9.856,9.856,0,0,0-5.238,4.643" transform="translate(-527.525 -210.476)"/><path class="b" d="M696.531,286.795a16.681,16.681,0,0,0,4.621.023,19.858,19.858,0,0,0,4.313-1.433.5.5,0,0,0,.282-.223.336.336,0,0,0-.1-.37.909.909,0,0,0-.37-.172,7.959,7.959,0,0,0-4.66.282,21.719,21.719,0,0,0-4.093,1.9" transform="translate(-521.544 -222.55)"/><path class="b" d="M663.5,289.12a8.191,8.191,0,0,1-.073-6.77,5.167,5.167,0,0,1,.6,3.362c-.116,1.157-.468,2.344-.491,3.506" transform="translate(-497.29 -221.087)"/><path class="b" d="M632.773,298.858a9.439,9.439,0,0,0-7.013,2.987,6.559,6.559,0,0,0,3.839-.711,19.709,19.709,0,0,0,3.281-2.2" transform="translate(-470.745 -232.937)"/><path class="b" d="M623.855,295.208a9.812,9.812,0,0,0-3.743.116,4.491,4.491,0,0,0-2.852,2.42,6.8,6.8,0,0,0,3.509-.663,20.263,20.263,0,0,0,3.086-1.873" transform="translate(-464.643 -230.23)"/><path class="b" d="M636.328,290.676a11.817,11.817,0,0,0-3.667-1.836,4.01,4.01,0,0,0-3.831.928,7.145,7.145,0,0,0,3.667.711,12.554,12.554,0,0,1,3.986.406" transform="translate(-472.949 -225.652)"/><path class="b" d="M649.749,275.408a8.525,8.525,0,0,1-1.924-8.048,12.265,12.265,0,0,1,1.924,8.048" transform="translate(-486.361 -210.325)"/><path class="b" d="M674.63,260.3c.372-.863.632-1.769.965-2.646a7.617,7.617,0,0,1,1.377-2.443,3.642,3.642,0,0,1,2.44-1.264,9.82,9.82,0,0,1-4.733,6.367" transform="translate(-505.829 -200.698)"/><path class="b" d="M658.194,271.688a12.73,12.73,0,0,0-2.158-2.626,3.607,3.607,0,0,0-2.937-.77,6.835,6.835,0,0,0,5.094,3.385" transform="translate(-490.373 -210.941)"/><path class="b" d="M669.17,260.574a14.544,14.544,0,0,1-.97-3.145,4.908,4.908,0,0,1,.491-3.2,7.255,7.255,0,0,1,.536,6.369" transform="translate(-501.154 -200.899)"/><path class="b" d="M674.641,243.227a6.867,6.867,0,0,1,4.468-4.2,1.659,1.659,0,0,1,.781-.116.674.674,0,0,1,.578.482c.073.344-.212.652-.48.88a15.134,15.134,0,0,1-5.36,2.953" transform="translate(-505.829 -189.896)"/><path class="b" d="M674.647,231.037a14.62,14.62,0,0,1,.584-3.867,4.883,4.883,0,0,1,2.434-2.939,5.723,5.723,0,0,1-1.08,3.766,17.446,17.446,0,0,0-1.975,3.472" transform="translate(-505.815 -179.361)"/><path class="b" d="M664.973,233.48c-.5-1.475-.564-3.351-1.441-4.637-.618-.9-1.608-1.509-2.141-2.463a3.738,3.738,0,0,0,.127,2.8,8.048,8.048,0,0,0,1.633,2.341c.654.7,1.216,1.224,1.822,1.975" transform="translate(-496.173 -180.905)"/><path class="b" d="M674.476,293.671c-.039,0-.073-9.845-.076-21.989s.025-22,.065-22,.073,9.842.076,22S674.512,293.671,674.476,293.671Z" transform="translate(-505.664 -197.632)"/><path class="b" d="M683.229,301.08a2.119,2.119,0,0,1-.37.138l-1.021.344c-.846.282-2.037.716-3.32,1.241a12.449,12.449,0,0,0-3.142,1.577,2.341,2.341,0,0,0-.635.846c-.1.231-.113.372-.127.37s0-.034,0-.1a1.645,1.645,0,0,1,.07-.282,2.257,2.257,0,0,1,.618-.891,5.5,5.5,0,0,1,1.365-.846c.544-.257,1.151-.522,1.791-.784,1.286-.527,2.474-.937,3.343-1.207.434-.135.79-.234,1.035-.3A2.252,2.252,0,0,1,683.229,301.08Z" transform="translate(-505.813 -234.533)"/><path class="b" d="M687.789,276.52s-.034.042-.1.113-.189.175-.316.3L686.189,278l-3.927,3.5c-1.532,1.362-2.858,2.666-3.774,3.647-.46.491-.821.9-1.069,1.179l-.282.327c-.065.073-.1.11-.107.107a.752.752,0,0,1,.085-.127c.059-.079.147-.195.265-.341.234-.282.587-.714,1.038-1.213a49.834,49.834,0,0,1,3.752-3.687c1.537-1.36,2.939-2.584,3.949-3.464l1.21-1.038.333-.282A.563.563,0,0,1,687.789,276.52Z" transform="translate(-507.552 -216.901)"/><path class="b" d="M689.71,290.39c-.042-.017.282-.756.6-1.693s.474-1.724.513-1.718a5.822,5.822,0,0,1-.378,1.763,11.777,11.777,0,0,1-.477,1.182A1.88,1.88,0,0,1,689.71,290.39Z" transform="translate(-516.653 -224.411)"/><path class="b" d="M660.177,301.879a1.736,1.736,0,0,1-.237-.282l-.6-.776c-.511-.657-1.213-1.563-2-2.556s-1.512-1.882-2.034-2.539l-.621-.764a1.589,1.589,0,0,1-.212-.282,2.022,2.022,0,0,1,.254.257c.158.172.381.423.654.736.544.629,1.281,1.509,2.07,2.5s1.478,1.913,1.975,2.584c.245.339.44.612.564.8A1.805,1.805,0,0,1,660.177,301.879Z" transform="translate(-491.356 -229.939)"/><path class="b" d="M665.513,304.022a3.439,3.439,0,0,1-.79-1.478,4.268,4.268,0,0,1-.181-1.492h.065c-.028.113-.051.175-.062.172s0-.065,0-.183h.065a6.793,6.793,0,0,0,.251,1.453,10.6,10.6,0,0,0,.652,1.529Z" transform="translate(-498.583 -234.504)"/><path class="b" d="M648.5,299.217a2.607,2.607,0,0,0-.564-.319,3.687,3.687,0,0,0-1.532-.124,9.449,9.449,0,0,0-1.543.251,4.9,4.9,0,0,1-.635.152,2.236,2.236,0,0,1,.607-.251,7.09,7.09,0,0,1,1.56-.282,3.315,3.315,0,0,1,1.58.172A.993.993,0,0,1,648.5,299.217Z" transform="translate(-484.005 -232.764)"/><path class="b" d="M642.089,295.818c0,.023-.322-.13-.846-.307a8.63,8.63,0,0,0-2.11-.434,8.746,8.746,0,0,0-2.15.11c-.544.1-.874.2-.883.175a.845.845,0,0,1,.226-.1,5.519,5.519,0,0,1,.638-.178,7.54,7.54,0,0,1,4.313.327,5.3,5.3,0,0,1,.6.282A.869.869,0,0,1,642.089,295.818Z" transform="translate(-478.168 -230.106)"/><path class="b" d="M671.844,276.009a18.161,18.161,0,0,1-.618-2.141,17.057,17.057,0,0,1-.477-2.178,18.056,18.056,0,0,1,.615,2.141A16.911,16.911,0,0,1,671.844,276.009Z" transform="translate(-503.044 -213.434)"/><path class="b" d="M670.47,281.092a10.537,10.537,0,0,0-.683-1.284,5.453,5.453,0,0,0-1.007-1.035.948.948,0,0,1,.389.2,3.1,3.1,0,0,1,.733.759A2.82,2.82,0,0,1,670.47,281.092Z" transform="translate(-501.63 -218.517)"/><path class="b" d="M651.711,350.422c-.017,0-.045-.237-.155-.654a9.372,9.372,0,0,0-.66-1.693,23.691,23.691,0,0,0-3.489-4.917c-.781-.891-1.537-1.732-2.178-2.539a17.7,17.7,0,0,1-1.557-2.257,10.858,10.858,0,0,1-.787-1.664c-.071-.206-.124-.367-.152-.477a1.134,1.134,0,0,1-.042-.172s.085.226.248.629a11.964,11.964,0,0,0,.821,1.633,18.564,18.564,0,0,0,1.571,2.214c.646.8,1.41,1.633,2.183,2.525a21.955,21.955,0,0,1,3.472,4.968,8.671,8.671,0,0,1,.623,1.735,4.2,4.2,0,0,1,.085.494A.9.9,0,0,1,651.711,350.422Z" transform="translate(-482.899 -259.639)"/><path class="b" d="M682.48,355.9a4.52,4.52,0,0,1-.409.229,9.014,9.014,0,0,0-1.055.7,12.257,12.257,0,0,0-1.388,1.267c-.488.516-.99,1.111-1.5,1.755-1.024,1.283-1.975,2.42-2.539,3.329-.282.449-.5.829-.643,1.094a4.567,4.567,0,0,1-.223.412.291.291,0,0,1,.037-.116c.037-.073.07-.183.135-.319a10.275,10.275,0,0,1,.607-1.128,36.86,36.86,0,0,1,2.539-3.365c.513-.64,1.021-1.241,1.518-1.755a11.2,11.2,0,0,1,1.41-1.255,7.471,7.471,0,0,1,1.092-.669c.135-.068.245-.107.319-.141S682.477,355.89,682.48,355.9Z" transform="translate(-505.894 -273.884)"/><path class="b" d="M689.094,365.973a6.421,6.421,0,0,1-.863.124,11.3,11.3,0,0,0-2.042.4,6.124,6.124,0,0,0-1.828.959c-.423.324-.621.6-.64.578a.651.651,0,0,1,.127-.2,3.263,3.263,0,0,1,.449-.46,5.548,5.548,0,0,1,1.85-1.016,9.328,9.328,0,0,1,2.076-.37A4.7,4.7,0,0,1,689.094,365.973Z" transform="translate(-512.355 -281.113)"/><path class="b" d="M684.6,364.8c-.045-.025.344-.618.646-1.41s.347-1.509.4-1.5a1.351,1.351,0,0,1,0,.463,4.983,4.983,0,0,1-.251,1.089,5.274,5.274,0,0,1-.5,1C684.728,364.674,684.618,364.812,684.6,364.8Z" transform="translate(-512.985 -278.189)"/><path class="b" d="M685,328.78a.5.5,0,0,1-.135.073l-.406.183c-.178.076-.392.175-.635.3s-.527.254-.824.432l-.468.268c-.164.093-.324.2-.5.313-.347.209-.694.468-1.063.731a18.336,18.336,0,0,0-4.1,4.231c-.254.381-.5.736-.7,1.089-.1.175-.209.341-.282.5s-.169.327-.251.48c-.166.3-.282.59-.4.846s-.209.465-.282.646-.124.3-.169.409a.874.874,0,0,1-.068.141.527.527,0,0,1,.039-.15l.147-.423c.062-.183.144-.4.257-.654s.226-.544.386-.846l.245-.485c.085-.169.189-.336.282-.513.195-.358.44-.719.688-1.1a17.737,17.737,0,0,1,4.127-4.271c.375-.262.728-.519,1.08-.728.172-.1.336-.214.5-.307l.477-.26c.3-.172.59-.3.846-.417s.465-.209.646-.282l.417-.158A.769.769,0,0,1,685,328.78Z" transform="translate(-505.894 -254.419)"/><path class="b" d="M689.34,340.787a1,1,0,0,1,.339-.5,2.135,2.135,0,0,1,1.362-.522,3.709,3.709,0,0,1,1.436.282,2.08,2.08,0,0,1,.542.262,3.263,3.263,0,0,1-.564-.166,4.35,4.35,0,0,0-1.41-.234,2.223,2.223,0,0,0-1.3.457A4.044,4.044,0,0,0,689.34,340.787Z" transform="translate(-516.39 -262.302)"/><path class="b" d="M686.08,340.213a5.177,5.177,0,0,0,.386-1.258,5.1,5.1,0,0,0-.087-1.315.87.87,0,0,1,.161.367,2.537,2.537,0,0,1,.068.965,2.579,2.579,0,0,1-.282.922C686.2,340.111,686.094,340.224,686.08,340.213Z" transform="translate(-514.05 -260.78)"/><path class="b" d="M650.56,392a32.326,32.326,0,0,0,3.1,11.458h7.571A32.9,32.9,0,0,0,664.14,392Z" transform="translate(-488.549 -299.806)"/><path class="c" d="M665.954,413.43c0,.039-2.5.073-5.574.073s-5.58-.034-5.58-.073,2.5-.071,5.58-.071S665.954,413.391,665.954,413.43Z" transform="translate(-491.593 -315.141)"/><path class="c" d="M667.134,418.263c0,.039-2.339.07-5.227.07s-5.227-.031-5.227-.07,2.339-.073,5.227-.073S667.134,418.224,667.134,418.263Z" transform="translate(-492.943 -318.608)"/><path class="c" d="M661.813,400.79a21.66,21.66,0,0,1,0,3.492A20.825,20.825,0,0,1,661.813,400.79Z" transform="translate(-496.575 -306.116)"/><path class="c" d="M676.17,400.79a23.209,23.209,0,0,1,0,3.616,23.224,23.224,0,0,1,0-3.616Z" transform="translate(-506.885 -306.116)"/><path class="c" d="M689.693,400.68a24.159,24.159,0,0,1,0,3.69A23.227,23.227,0,0,1,689.693,400.68Z" transform="translate(-516.591 -306.037)"/><path class="c" d="M664.553,400.6c0,.039-2.928.071-6.542.071s-6.542-.031-6.542-.071,2.928-.073,6.542-.073S664.553,400.564,664.553,400.6Z" transform="translate(-489.202 -305.93)"/><path class="b" d="M548.211,83.98h.626l1.362-1.9V80.829s.965-.059.846,1.571,0,1.219,0,1.219a9.648,9.648,0,0,1,2.22.186,21.015,21.015,0,0,1,.2,3.269,1.2,1.2,0,0,1-.846,1.2.979.979,0,0,1-.22.028c-.511,0-3.123-.415-3.123-.415H548.2Z" transform="translate(-411.486 -76.412)"/><path class="b" d="M541.91,90.77l.384,4.271h1.069V90.855Z" transform="translate(-406.624 -83.549)"/><path class="b" d="M531.685,65.173a1.03,1.03,0,0,1,.152,0h.784l.395.056.465.068.516.127a8.446,8.446,0,0,1,2.511,1.094,8.968,8.968,0,0,1,2.6,2.539,9.09,9.09,0,0,1,1.487,4.147,9.616,9.616,0,0,1,0,1.227,3.06,3.06,0,0,1-.042.621l-.093.626a8.874,8.874,0,0,1-.846,2.471A9.511,9.511,0,0,1,538,80.369a9.366,9.366,0,0,1-2.324,1.67,8.443,8.443,0,0,1-2.821.855,5.189,5.189,0,0,1-.756.065,6.863,6.863,0,0,1-.762.014,9.1,9.1,0,0,1-1.532-.192,8.933,8.933,0,0,1-3.047-1.283h.093l-3.1,1.247-.186.073.054-.192c.313-1.128.618-2.257.911-3.317l.017.082a8.861,8.861,0,0,1-1.656-3.791,8.1,8.1,0,0,1-.121-1.941,6.376,6.376,0,0,1,.087-.934c.025-.152.048-.3.07-.454s.073-.282.11-.437a8.872,8.872,0,0,1,3.456-5.041,8.409,8.409,0,0,1,2.062-1.086l.463-.166.44-.113.4-.1c.13-.025.254-.039.372-.056.234-.031.44-.071.621-.079l.457-.017h.375a.346.346,0,0,1-.093,0l-.282.023-.451.031a5.084,5.084,0,0,0-.618.093,8.824,8.824,0,0,0-7.052,6.544c-.034.144-.079.282-.1.434l-.068.446a6.083,6.083,0,0,0-.082.914,7.935,7.935,0,0,0,.127,1.9,8.7,8.7,0,0,0,1.633,3.709l.028.037v.045c-.282,1.072-.6,2.181-.906,3.32l-.13-.118,3.1-1.247.051-.02.042.028a8.745,8.745,0,0,0,2.979,1.252,8.956,8.956,0,0,0,1.5.189,6.6,6.6,0,0,0,.747,0,5.359,5.359,0,0,0,.739-.062,8.322,8.322,0,0,0,2.773-.846,9.213,9.213,0,0,0,2.276-1.63,9.421,9.421,0,0,0,1.585-2.169,8.785,8.785,0,0,0,.846-2.417c.034-.206.065-.412.1-.612s.025-.409.042-.609a8.7,8.7,0,0,0-3.983-7.771,8.463,8.463,0,0,0-2.471-1.114l-.539-.124-.46-.076-.392-.065c-.121,0-.231-.017-.33-.025l-.437-.045a.584.584,0,0,1-.164-.02Z" transform="translate(-393.408 -65.17)"/></g><g transform="translate(6.564 103.54)"><path class="d" d="M216.609,432.293c0,.039-38.316.073-85.569.073s-85.58-.034-85.58-.073,38.313-.073,85.575-.073S216.609,432.251,216.609,432.293Z" transform="translate(-45.46 -432.22)"/></g><g transform="translate(0 30.558)"><rect class="e" width="145.161" height="21.619" transform="translate(19.501 34.003)"/><g class="f" transform="translate(19.501 34.003)"><rect width="145.161" height="21.619"/></g><path class="e" d="M193.879,205.68a12.461,12.461,0,0,0-10.052-8.606l-33.113-4.231-12.087-9.354a46.986,46.986,0,0,0-28.791-9.989H31.246a1.393,1.393,0,0,0-1.307,1.183,1.5,1.5,0,0,0,.786,1.637l5.666,2.626a11.684,11.684,0,0,0-.57,1.207l-3.2,8.039a16.8,16.8,0,0,0-1.181,6.206,3.386,3.386,0,0,0-3.242,3.512v14.006l-3.356,1.625a4.9,4.9,0,0,0-2.654,4.437v3.633a5.826,5.826,0,0,0,4.4,5.822l17.766,3.853v-1.74c0-10.27,7.678-18.6,17.149-18.6h0c9.471,0,17.149,8.325,17.149,18.6v1.74h71.376v-1.74c0-10.27,7.678-18.6,17.149-18.6h0c9.471,0,17.149,8.325,17.149,18.6v1.74h8.765a4.474,4.474,0,0,0,4.282-4.646V216.022Z" transform="translate(-22.19 -173.5)"/><path class="g" d="M62.49,194.037l-3.47,8.039a15.661,15.661,0,0,0-1.281,6.206h4.8l4.683-13.7-4.1-1.757A11.3,11.3,0,0,0,62.49,194.037Z" transform="translate(-47.712 -187.377)"/><path class="e" d="M666.446,281.837a13.166,13.166,0,0,0-1.089-2.257H660.28l4.606,10.691,5.36,3.1v-1.185Z" transform="translate(-495.052 -249.656)"/><g class="h" transform="translate(165.228 29.924)"><path d="M666.446,281.837a13.166,13.166,0,0,0-1.089-2.257H660.28l4.606,10.691,5.36,3.1v-1.185Z" transform="translate(-660.28 -279.58)"/></g><path class="i" d="M45.6,268.517h2.637a7.4,7.4,0,0,0,4.231-1.32l4.389-3.047a2.863,2.863,0,0,0,1.236-2.358h0a2.872,2.872,0,0,0-2.872-2.872H45.63a.42.42,0,0,0-.42.42v8.745a.42.42,0,0,0,.389.432Z" transform="translate(-38.716 -234.824)"/><path class="e" d="M669.11,291.3l-1.529-.883h.934a.564.564,0,0,0,0-1.109h-2.857l-.962-.564h3.261a.564.564,0,0,0,0-1.111h-4.33l-.24-.564h3.921a.564.564,0,1,0,0-1.109h-4.4l-.24-.564h4.093a.564.564,0,1,0,0-1.109h-4.578l-.24-.564h4.189a.564.564,0,0,0,0-1.109h-4.66l-.237-.564h4.251a.564.564,0,1,0,0-1.109h-4.731l-.24-.564H664.9a.564.564,0,0,0,0-1.111h-4.857l-.333-.767h4.248a.564.564,0,1,0,0-1.109h-5.078a.564.564,0,0,0-.511.773l1.526,3.54h0l.716,1.664h0l.717,1.664h0l.716,1.664h0l.717,1.661h0l.212.491a.581.581,0,0,0,.231.262l5.36,3.1a.564.564,0,0,0,.564-.962Z" transform="translate(-493.65 -248.081)"/><g class="h" transform="translate(164.678 29.304)"><path class="j" d="M669.11,291.3l-1.529-.883h.934a.564.564,0,0,0,0-1.109h-2.857l-.962-.564h3.261a.564.564,0,0,0,0-1.111h-4.33l-.24-.564h3.921a.564.564,0,1,0,0-1.109h-4.4l-.24-.564h4.093a.564.564,0,1,0,0-1.109h-4.578l-.24-.564h4.189a.564.564,0,0,0,0-1.109h-4.66l-.237-.564h4.251a.564.564,0,1,0,0-1.109h-4.731l-.24-.564H664.9a.564.564,0,0,0,0-1.111h-4.857l-.333-.767h4.248a.564.564,0,1,0,0-1.109h-5.078a.564.564,0,0,0-.511.773l1.526,3.54h0l.716,1.664h0l.717,1.664h0l.716,1.664h0l.717,1.661h0l.212.491a.581.581,0,0,0,.231.262l5.36,3.1a.564.564,0,0,0,.564-.962Z" transform="translate(-658.328 -277.385)"/></g><circle class="d" cx="16.206" cy="16.206" r="16.206" transform="translate(26.604 40.853) rotate(-0.86)"/><path class="d" d="M117.346,373.94a.213.213,0,0,0,0,.042,16.205,16.205,0,1,0,32.407.468.212.212,0,0,0,0-.042Z" transform="translate(-90.502 -317.399)"/><path class="c" d="M134.447,345.8a11.377,11.377,0,1,0,11.54-11.213A11.377,11.377,0,0,0,134.447,345.8Z" transform="translate(-105.569 -289.146)"/><path class="b" d="M145.99,334.587A11.377,11.377,0,0,0,134.45,345.8l22.753.327A11.376,11.376,0,0,0,145.99,334.587Z" transform="translate(-105.572 -289.146)"/><path class="d" d="M150.208,357.177a6.931,6.931,0,1,0,7.03-6.829A6.931,6.931,0,0,0,150.208,357.177Z" transform="translate(-117.115 -300.461)"/><circle class="d" cx="16.206" cy="16.206" r="16.206" transform="translate(124.951 42.099) rotate(-5.03)"/><path class="d" d="M522.336,373.94v.042a16.206,16.206,0,0,0,32.409.468v-.042Z" transform="translate(-396.018 -317.399)"/><path class="c" d="M539.437,345.8a11.376,11.376,0,1,0,11.54-11.213,11.376,11.376,0,0,0-11.54,11.213Z" transform="translate(-408.296 -289.146)"/><path class="b" d="M550.98,334.587A11.376,11.376,0,0,0,539.44,345.8l22.753.327A11.376,11.376,0,0,0,550.98,334.587Z" transform="translate(-408.299 -289.146)"/><path class="d" d="M555.208,357.177a6.931,6.931,0,1,0,7.03-6.829A6.931,6.931,0,0,0,555.208,357.177Z" transform="translate(-419.619 -300.461)"/><path class="g" d="M440.782,201.71l-13.106-9.354a53.74,53.74,0,0,0-12.214-6.516H411.14l26.217,17.424Z" transform="translate(-311.499 -182.359)"/><path class="c" d="M653.29,267.557h6.37a15.514,15.514,0,0,0-3.278-3.216C654.926,263.873,653.149,265.7,653.29,267.557Z" transform="translate(-490.028 -238.663)"/><path class="d" d="M139.637,202.018h84.315l-24.079-16.609a10.285,10.285,0,0,0-6.085-1.992H141.527s-18.776-.46-22.9,5.2Z" transform="translate(-91.426 -180.613)"/><path class="g" d="M131.77,204.744c-.31,0-.615,0-.92-.028a14.759,14.759,0,0,1-10.635-5.5l-3.447-4.276a2.821,2.821,0,0,1,1.157-4.381l2.962-1.306a31.684,31.684,0,0,1,11.018-2.1h9.808l-3.142,17.594Zm13.667,0,3.134-17.594h28.886v17.594Zm40.8,0-3.385-17.594h9.983a7.106,7.106,0,0,1,4.251,1.41l21.653,16.18Z" transform="translate(-89.646 -183.3)"/><path class="d" d="M349.785,281.431a.265.265,0,0,1,0-.082v-1.185c0-.827.014-2.006.025-3.456.034-2.928.082-6.953.133-11.4.034-2.226.065-4.347.093-6.276,0-.965.031-1.882.045-2.739a15.285,15.285,0,0,0-.082-2.375,16.645,16.645,0,0,0-.784-3.351c-.133-.384-.245-.68-.324-.88l-.093-.226a.358.358,0,0,1-.028-.079.424.424,0,0,1,.042.073c.025.048.059.124.1.22.09.2.212.491.355.872a16.081,16.081,0,0,1,.829,3.357,15.048,15.048,0,0,1,.1,2.389c0,.86-.02,1.777-.031,2.739-.025,1.932-.054,4.051-.082,6.279-.068,4.446-.13,8.463-.178,11.4-.028,1.45-.054,2.629-.07,3.456q-.017.6-.025.939v.245A.313.313,0,0,1,349.785,281.431Z" transform="translate(-263.844 -227.975)"/><path class="d" d="M482.08,253.87a.253.253,0,0,1,.065.045c.051.037.113.085.189.147l.138.11.144.155a3.3,3.3,0,0,1,.341.4,10.8,10.8,0,0,1,1.461,3.024,22.455,22.455,0,0,1,.629,2.237c.1.406.181.829.26,1.269a6.282,6.282,0,0,1,.1,1.374c0,1.876-.059,3.949-.113,6.1-.113,4.327-.243,8.243-.347,11.078-.054,1.41-.1,2.553-.13,3.357-.02.386-.034.694-.045.911l-.014.237a.386.386,0,0,1,0,.082.458.458,0,0,1,0-.082v-1.151c.023-.8.051-1.946.085-3.357.079-2.843.186-6.756.3-11.08.054-2.161.113-4.231.124-6.1a6.294,6.294,0,0,0-.1-1.354c-.076-.434-.158-.846-.251-1.264-.183-.81-.389-1.557-.606-2.231a11.182,11.182,0,0,0-1.419-3.032A5.287,5.287,0,0,0,482.08,253.87Z" transform="translate(-362.59 -231.199)"/><path class="e" d="M456.7,237.6h0a2.894,2.894,0,0,0-1.478-2.539l-3.794-2.133a7.261,7.261,0,0,0-3.546-.925h0a7.232,7.232,0,0,0-2.257.358,4.118,4.118,0,0,0-2.767,3.78h0a4.183,4.183,0,0,0,4.181,4.341h6.77A2.9,2.9,0,0,0,456.7,237.6Z" transform="translate(-334.117 -215.498)"/><path class="d" d="M456.507,237.4a2.189,2.189,0,0,1-.045.367,2.891,2.891,0,0,1-.333.993,2.956,2.956,0,0,1-1.162,1.145,2.872,2.872,0,0,1-.976.307c-.358.042-.756.017-1.168.023l-5.791-.02a4.42,4.42,0,0,1-1.611-.265,4.113,4.113,0,0,1-.942-7.2,4.347,4.347,0,0,1,1.568-.663,7.3,7.3,0,0,1,1.639-.195,7.185,7.185,0,0,1,2.97.638c.437.195.846.443,1.233.657l1.128.626,1.946,1.08a2.919,2.919,0,0,1,1.165,1.137,2.962,2.962,0,0,1,.336.99c.037.24.031.367.042.367a1.837,1.837,0,0,0,0-.37,2.821,2.821,0,0,0-.313-1.018,2.928,2.928,0,0,0-1.173-1.2l-1.932-1.1-1.128-.638c-.395-.217-.79-.468-1.238-.671a7.309,7.309,0,0,0-4.711-.474,4.544,4.544,0,0,0-1.628.683,4.262,4.262,0,0,0-1.786,3.159,4.353,4.353,0,0,0,.265,1.867,4.3,4.3,0,0,0,2.5,2.471,4.476,4.476,0,0,0,1.67.268l5.791-.017a11.511,11.511,0,0,0,1.182-.037,2.883,2.883,0,0,0,1.007-.333,3.013,3.013,0,0,0,1.179-1.2,2.79,2.79,0,0,0,.307-1.018,2.071,2.071,0,0,0,.006-.364Z" transform="translate(-333.918 -215.304)"/><path class="j" d="M454.78,235.37a3.616,3.616,0,0,1,.327-.316,2.237,2.237,0,0,1,1.128-.451,4.908,4.908,0,0,1,1.805.195,14.2,14.2,0,0,1,2.13.725,13.966,13.966,0,0,1,3.467,2.158c.807.674,1.23,1.173,1.255,1.151a2.044,2.044,0,0,0-.282-.361,10.835,10.835,0,0,0-.889-.886,12.861,12.861,0,0,0-3.478-2.223,13.209,13.209,0,0,0-2.161-.722,4.863,4.863,0,0,0-1.862-.161,2.2,2.2,0,0,0-1.145.525,1.427,1.427,0,0,0-.226.26A.387.387,0,0,0,454.78,235.37Z" transform="translate(-342.745 -217.258)"/><path class="d" d="M132.947,312.865v-.2c0-.133.017-.333.031-.587s.042-.564.045-.951-.014-.812-.023-1.3-.09-1.03-.138-1.622c-.028-.3-.1-.6-.144-.92s-.1-.652-.178-.99a24.917,24.917,0,0,0-1.453-4.48,24.028,24.028,0,0,0-2.917-4.9,23.049,23.049,0,0,0-4.663-4.573,21.971,21.971,0,0,0-6.44-3.247,25.624,25.624,0,0,0-7.664-1.159,26.465,26.465,0,0,0-7.659,1.21,24.005,24.005,0,0,0-6.488,3.179,26.235,26.235,0,0,0-4.872,4.367,28.46,28.46,0,0,0-3.3,4.66,31.309,31.309,0,0,0-1.944,4.288c-.124.324-.214.649-.319.953s-.2.6-.282.889c-.144.564-.282,1.1-.4,1.58l-.254,1.275c-.068.37-.1.688-.141.942l-.085.581c-.02.13-.034.2-.034.2a1.529,1.529,0,0,1,.02-.2l.071-.581c.034-.257.065-.564.127-.948s.15-.8.243-1.281.245-1,.386-1.582c.071-.282.178-.584.282-.894s.192-.632.313-.959a30.66,30.66,0,0,1,1.946-4.31,28.563,28.563,0,0,1,3.295-4.691,26.4,26.4,0,0,1,4.889-4.4,24.093,24.093,0,0,1,6.513-3.2,26.676,26.676,0,0,1,7.7-1.219,25.751,25.751,0,0,1,7.707,1.168,22.121,22.121,0,0,1,6.474,3.275,23.154,23.154,0,0,1,4.685,4.607,24.151,24.151,0,0,1,2.914,4.934,24.882,24.882,0,0,1,1.436,4.513c.082.339.116.677.175.993s.113.626.138.925c.042.6.11,1.128.124,1.628s0,.925,0,1.3-.045.694-.059.953-.034.449-.045.584S132.947,312.865,132.947,312.865Z" transform="translate(-66.299 -255.55)"/><path class="d" d="M194.075,259.954a1.107,1.107,0,0,1-.085-.11c-.051-.073-.124-.2-.209-.336-.178-.282-.432-.716-.731-1.252a20.866,20.866,0,0,1-.97-1.924,3.366,3.366,0,0,1-.2-.6.79.79,0,0,1,.02-.344c.025-.107.059-.212.09-.319.141-.42.3-.846.477-1.281.7-1.735,1.393-3.275,1.9-4.389.257-.564.465-1,.615-1.312.068-.141.127-.26.175-.355a.443.443,0,0,1,.071-.118.607.607,0,0,1-.045.133l-.15.364-.564,1.331c-.482,1.128-1.162,2.671-1.859,4.4-.172.432-.336.846-.474,1.272a1.329,1.329,0,0,0-.107.6,2.944,2.944,0,0,0,.183.564c.31.742.652,1.385.937,1.927l.688,1.272.186.347A.75.75,0,0,1,194.075,259.954Z" transform="translate(-147.786 -226.705)"/><path class="d" d="M64.982,310.276c0,.042-4.536.054-10.13.028s-10.133-.079-10.133-.118,4.536-.054,10.133-.028S64.982,310.236,64.982,310.276Z" transform="translate(-38.365 -271.599)"/><path class="d" d="M324.262,361.906c0,.039-14.716.073-32.866.073s-32.866-.037-32.866-.076,14.711-.073,32.866-.073S324.262,361.878,324.262,361.906Z" transform="translate(-199.756 -308.705)"/><path class="d" d="M669.928,362.533c0,.042-2.257.073-5.032.073s-5.035-.031-5.035-.073,2.257-.073,5.035-.073S669.928,362.494,669.928,362.533Z" transform="translate(-494.75 -309.157)"/><path class="d" d="M546.177,253.834h-.121l-.313-.023-1.213-.1c-1.055-.085-2.575-.226-4.457-.412-3.76-.375-8.948-.962-14.668-1.76s-10.86-1.656-14.578-2.33c-1.859-.336-3.362-.618-4.4-.824l-1.193-.24-.31-.065-.1-.028a.617.617,0,0,1,.107,0l.313.051,1.2.212,4.4.779c3.721.646,8.874,1.487,14.584,2.285s10.888,1.41,14.646,1.8l4.448.46,1.21.127.316.034Z" transform="translate(-383.445 -227.022)"/><path class="d" d="M371.466,266.344a1.134,1.134,0,0,0,.228-.034,1.583,1.583,0,0,0,.6-.24,1.529,1.529,0,0,0,.612-.8,1.693,1.693,0,0,0,.079-.629,1.557,1.557,0,0,0-.178-.683,1.509,1.509,0,0,0-1.317-.8h-6.353a1.5,1.5,0,0,0-1.487,1.329,1.692,1.692,0,0,0,.183,1.01,1.521,1.521,0,0,0,.733.652,2.35,2.35,0,0,0,.951.116h2.632l2.437.025h.66a1.47,1.47,0,0,1,.231.014,1.127,1.127,0,0,1-.231.014l-.66.014-2.437.056h-3.123a1.693,1.693,0,0,1-.511-.116,1.659,1.659,0,0,1-.8-.708,1.814,1.814,0,0,1-.2-1.1,1.642,1.642,0,0,1,1.63-1.461h6.353a1.625,1.625,0,0,1,1.41.877,1.65,1.65,0,0,1,.181.728,1.8,1.8,0,0,1-.1.66,1.583,1.583,0,0,1-.66.818,1.537,1.537,0,0,1-.629.22A.908.908,0,0,1,371.466,266.344Z" transform="translate(-275.08 -237.76)"/><path class="j" d="M377.065,261.6a41.319,41.319,0,0,1-5.016,0,42.914,42.914,0,0,1,5.015,0Z" transform="translate(-281.219 -236.69)"/><path class="d" d="M223.709,267.2a1.135,1.135,0,0,0,.228-.034,1.538,1.538,0,0,0,.6-.24,1.515,1.515,0,0,0,.612-.8,1.67,1.67,0,0,0,.079-.629,1.557,1.557,0,0,0-.178-.683,1.52,1.52,0,0,0-1.317-.8h-6.353a1.5,1.5,0,0,0-1.487,1.329,1.693,1.693,0,0,0,.183,1.01,1.52,1.52,0,0,0,.733.652,2.3,2.3,0,0,0,.951.116h2.629l2.437.023.66.014a1.469,1.469,0,0,1,.231.014,1.223,1.223,0,0,1-.231.017l-.66.014-2.437.023h-3.123a1.617,1.617,0,0,1-.511-.116,1.645,1.645,0,0,1-.8-.708,1.811,1.811,0,0,1-.2-1.095,1.639,1.639,0,0,1,1.63-1.464h6.355a1.622,1.622,0,0,1,1.41.877,1.65,1.65,0,0,1,.181.728,1.8,1.8,0,0,1-.1.66,1.582,1.582,0,0,1-.66.818,1.526,1.526,0,0,1-.626.22A.928.928,0,0,1,223.709,267.2Z" transform="translate(-165.598 -238.363)"/><path class="j" d="M229.336,262.511a41.318,41.318,0,0,1-5.015,0,42.914,42.914,0,0,1,5.015,0Z" transform="translate(-171.843 -237.343)"/><path class="d" d="M538.737,314.843v-1.738c0-.386-.056-.81-.09-1.295s-.135-1.024-.212-1.614c-.039-.282-.118-.6-.178-.911s-.124-.646-.214-.979a26.854,26.854,0,0,0-1.568-4.437,25.447,25.447,0,0,0-2.979-4.855,23.853,23.853,0,0,0-4.671-4.556,22.257,22.257,0,0,0-6.409-3.286,24.734,24.734,0,0,0-15.283,0,22.338,22.338,0,0,0-6.412,3.283,23.931,23.931,0,0,0-4.671,4.556,25.461,25.461,0,0,0-2.979,4.857A26.826,26.826,0,0,0,491.5,308.3c-.09.336-.144.666-.214.982s-.138.618-.178.911c-.076.59-.169,1.128-.212,1.611s-.062.92-.09,1.295,0,.7,0,.953v0c0-.254-.017-.578,0-.953s.048-.812.076-1.3.127-1.024.2-1.616c.037-.282.116-.6.175-.917s.118-.649.209-.984a27.036,27.036,0,0,1,1.551-4.46,25.576,25.576,0,0,1,2.914-4.886,23.953,23.953,0,0,1,4.688-4.592,22.451,22.451,0,0,1,6.446-3.312,24.824,24.824,0,0,1,15.374,0,22.285,22.285,0,0,1,6.443,3.312,23.86,23.86,0,0,1,4.688,4.59,25.5,25.5,0,0,1,2.982,4.889,26.83,26.83,0,0,1,1.554,4.463c.09.336.141.669.209.984s.135.621.172.914c.073.592.161,1.128.2,1.619s.054.922.076,1.3,0,.694,0,.951v.587A.6.6,0,0,1,538.737,314.843Z" transform="translate(-373.376 -257.004)"/><path class="d" d="M100.083,180.209a.617.617,0,0,1-.127,0H92.907l-17.329-.056-9.543-.048c-2.931-.023-5.574,0-7.791-.13a38.47,38.47,0,0,1-5.219-.6c-.609-.116-1.08-.223-1.4-.3l-.358-.093a.847.847,0,0,1-.121-.037l.124.023.364.079c.316.073.79.169,1.41.282a40.951,40.951,0,0,0,5.213.55c2.214.116,4.855.085,7.786.1l9.543.037,17.329.1,5.252.048,1.427.02h.37A.573.573,0,0,0,100.083,180.209Z" transform="translate(-42.981 -177.405)"/><path class="c" d="M260.433,209.918c.02.034-3.052,1.693-6.857,3.667s-6.908,3.58-6.925,3.543,3.049-1.693,6.857-3.667S260.416,209.882,260.433,209.918Z" transform="translate(-188.626 -199.645)"/><path class="c" d="M280.236,205.35a.8.8,0,0,1-.15.09l-.437.237-1.616.846c-1.365.717-3.247,1.709-5.312,2.821s-3.921,2.166-5.261,2.925l-1.588.9-.434.24a.635.635,0,0,1-.158.073.92.92,0,0,1,.141-.1l.42-.262c.37-.229.9-.547,1.568-.939,1.326-.781,3.176-1.839,5.244-2.965s3.949-2.1,5.334-2.8c.688-.344,1.247-.621,1.636-.8l.451-.212A.607.607,0,0,1,280.236,205.35Z" transform="translate(-202.478 -196.366)"/><path class="c" d="M386.481,213.64a.485.485,0,0,1-.121.068l-.353.164-1.309.584c-1.106.494-2.626,1.188-4.291,1.992s-3.151,1.563-4.231,2.121l-1.272.663-.35.175a.545.545,0,0,1-.124.054.849.849,0,0,1,.11-.079l.336-.2c.282-.172.719-.412,1.25-.7,1.063-.581,2.539-1.36,4.212-2.164s3.2-1.484,4.313-1.955c.564-.234,1.013-.42,1.329-.542l.364-.138A.544.544,0,0,1,386.481,213.64Z" transform="translate(-283.293 -202.317)"/><path class="c" d="M389.229,212.25a6.7,6.7,0,0,1-.8.412c-.5.245-1.188.592-1.929,1.007s-1.41.818-1.87,1.114a6.858,6.858,0,0,1-.776.468,4.617,4.617,0,0,1,.717-.564c.46-.322,1.111-.742,1.856-1.157a21.718,21.718,0,0,1,1.961-.973A4.459,4.459,0,0,1,389.229,212.25Z" transform="translate(-289.971 -201.319)"/><path class="c" d="M156.5,211.677c.017.039-2.017.846-4.539,1.825s-4.578,1.724-4.592,1.693,2.017-.846,4.539-1.822S156.487,211.64,156.5,211.677Z" transform="translate(-114.934 -200.907)"/><path class="c" d="M150.4,208.685c.014.037-1.74.714-3.915,1.506s-3.949,1.41-3.969,1.371,1.74-.714,3.918-1.509S150.39,208.646,150.4,208.685Z" transform="translate(-111.322 -198.759)"/><path class="c" d="M537.841,286.452a1.3,1.3,0,0,1-.231-.014l-.657-.065-.474-.051c-.175-.014-.364-.023-.564-.034-.409-.02-.872-.065-1.382-.056h-.807c-.282,0-.564.02-.872.031-.6,0-1.241.085-1.918.147a28.073,28.073,0,0,0-8.463,2.324c-.612.282-1.2.564-1.724.846-.265.147-.525.282-.767.42l-.688.415c-.443.257-.818.53-1.159.753-.169.116-.327.22-.468.322s-.268.2-.384.282l-.53.392a1.173,1.173,0,0,1-.192.13,1.24,1.24,0,0,1,.172-.152l.516-.415.375-.3c.141-.107.282-.212.463-.33.339-.234.711-.513,1.154-.776l.685-.426c.24-.147.5-.282.764-.429.525-.3,1.128-.564,1.726-.869a27.362,27.362,0,0,1,8.508-2.339c.68-.059,1.323-.127,1.93-.133.3,0,.592-.028.874-.023l.807.014c.516,0,.979.051,1.388.079.2.017.392.025.564.045l.474.065.657.093A1.227,1.227,0,0,1,537.841,286.452Z" transform="translate(-389.279 -254.342)"/><path class="c" d="M134.7,284.511a.918.918,0,0,1-.183.014H134c-.226,0-.5,0-.824.023s-.688.025-1.089.07l-.635.056c-.217.023-.446.059-.683.087-.471.056-.97.155-1.5.245a31.4,31.4,0,0,0-3.365.877,34.259,34.259,0,0,0-3.244,1.258c-.973.443-1.834.877-2.539,1.275-.358.189-.669.381-.948.542s-.516.3-.708.423l-.446.282a1,1,0,0,1-.161.087.731.731,0,0,1,.144-.113c.113-.073.254-.172.432-.282s.42-.282.7-.446.584-.367.939-.564c.7-.409,1.563-.846,2.539-1.309a32.444,32.444,0,0,1,3.25-1.3,29.527,29.527,0,0,1,3.385-.869c.53-.087,1.032-.183,1.509-.231.237-.028.465-.062.685-.082l.638-.048c.4-.04.773-.04,1.094-.048s.6,0,.827,0l.525.02A.76.76,0,0,1,134.7,284.511Z" transform="translate(-90.873 -253.157)"/><rect class="b" width="25.286" height="15.653" transform="translate(54.234 5.345) rotate(-2.37)"/><path class="d" d="M233.527,205.233l-.657-15.918,25.546-1.055.657,15.921Zm-.364-15.636.635,15.357,24.981-1.032-.635-15.357Z" transform="translate(-178.784 -184.096)"/><path class="e" d="M241.437,202.473l1.128-.042.037.827-1.145.048.1,2.386-.886.037-.24-5.78,2.344-.1.034.827-1.458.059Z" transform="translate(-183.702 -192.417)"/><path class="e" d="M250.225,200.854a1.272,1.272,0,0,1,1.286-1.509c.869-.037,1.368.471,1.41,1.41l.124,3.007a1.272,1.272,0,0,1-1.286,1.509c-.869.037-1.368-.474-1.41-1.41Zm1.013,3.027c.02.412.2.564.485.55s.451-.175.434-.59l-.13-3.12c-.017-.415-.2-.564-.482-.55s-.451.175-.434.587Z" transform="translate(-190.961 -192.053)"/><path class="e" d="M263.673,204.825a1.85,1.85,0,0,1-.11-.708l-.037-.908c-.023-.536-.209-.725-.612-.711h-.3l.1,2.353-.886.037-.24-5.78,1.34-.054c.917-.039,1.331.381,1.368,1.275l.017.454a1.16,1.16,0,0,1-.53,1.2c.451.172.615.6.638,1.2l.037.891a1.771,1.771,0,0,0,.127.7Zm-1.171-4.914.073,1.774h.347c.33-.014.525-.169.5-.632l-.023-.564c-.017-.415-.164-.59-.477-.564Z" transform="translate(-199.371 -191.843)"/><path class="e" d="M278.568,198.235c.86-.037,1.326.474,1.365,1.41v.181l-.846.034v-.24c-.017-.412-.186-.564-.468-.564s-.437.175-.42.587c.051,1.19,1.791,1.34,1.862,2.993.037.925-.392,1.472-1.264,1.506s-1.343-.471-1.382-1.4l-.014-.355.846-.037.017.415c.017.412.2.564.485.542s.451-.166.434-.581c-.048-1.188-1.791-1.34-1.859-2.99C277.284,198.816,277.7,198.269,278.568,198.235Z" transform="translate(-211.014 -191.256)"/><path class="e" d="M291.323,203.653l-.894.037-.2-1.041-1.086.045-.11,1.055-.815.034.663-5.819,1.3-.054Zm-2.1-1.749.846-.037-.547-2.9Z" transform="translate(-219.092 -191.024)"/><path class="e" d="M299.83,197.627l.886-.037.206,4.956,1.458-.062.034.827-2.344.1Z" transform="translate(-227.668 -190.795)"/><path class="e" d="M310.487,199.469l1.216-.051.034.827-1.216.048.07,1.693,1.529-.062.037.827-2.42.1-.237-5.78,2.417-.1.034.824-1.532.065Z" transform="translate(-234.827 -190.349)"/><rect class="c" width="22.158" height="3.619" rx="1.81" transform="translate(56.154 15.026) rotate(-2.37)"/><path class="d" d="M255.644,229.73a.283.283,0,0,1,.045-.085,1.187,1.187,0,0,1,.178-.206,1.616,1.616,0,0,1,.9-.42,1.452,1.452,0,0,1,.7.079.827.827,0,0,1,.539.606.931.931,0,0,1-.3.846,1.1,1.1,0,0,1-.934.22,1.41,1.41,0,0,1-.81-.513,1.955,1.955,0,0,1-.375-.8,2.144,2.144,0,0,1,.183-1.464,2.121,2.121,0,0,1,.657-.75,1.729,1.729,0,0,1,.234-.138.362.362,0,0,1,.09-.031,3.115,3.115,0,0,0-.282.214,2.194,2.194,0,0,0-.6.75,2.1,2.1,0,0,0-.147,1.388,1.915,1.915,0,0,0,.358.745,1.264,1.264,0,0,0,.725.46.956.956,0,0,0,.81-.186.787.787,0,0,0,.257-.714.7.7,0,0,0-.449-.516,1.363,1.363,0,0,0-.64-.087,1.631,1.631,0,0,0-.877.358C255.726,229.628,255.667,229.738,255.644,229.73Z" transform="translate(-194.884 -211.959)"/><path class="d" d="M263.942,230.517a1.44,1.44,0,0,0,.3.062,1.2,1.2,0,0,0,.784-.2,1.049,1.049,0,0,0,.353-.423.939.939,0,0,0,.045-.618.722.722,0,0,0-.457-.474,1.188,1.188,0,0,0-.742,0,3.5,3.5,0,0,0-.663.282l-.076-.121a1.216,1.216,0,0,0,.513-1.047.5.5,0,0,0-.209-.42.513.513,0,0,0-.417.023,2.088,2.088,0,0,0-.745.513.624.624,0,0,1,.141-.2,1.583,1.583,0,0,1,.564-.4.623.623,0,0,1,.5-.037.612.612,0,0,1,.282.513,1.331,1.331,0,0,1-.564,1.173l-.076-.124a3.582,3.582,0,0,1,.691-.3,1.34,1.34,0,0,1,.846.014.846.846,0,0,1,.536.564,1.047,1.047,0,0,1-.062.705,1.128,1.128,0,0,1-.409.457,1.221,1.221,0,0,1-.846.172.813.813,0,0,1-.223-.073C263.964,230.537,263.939,230.522,263.942,230.517Z" transform="translate(-200.147 -212.209)"/><path class="d" d="M275.271,229.6a4.391,4.391,0,0,1-.051-.784c0-.485-.02-1.157-.017-1.9v-.432h.147a3.9,3.9,0,0,1-.457,1.554,1.726,1.726,0,0,1-.378.527c-.02,0,.124-.212.282-.564a4.231,4.231,0,0,0,.395-1.518h.147v.426c0,.742,0,1.41-.025,1.9A3.916,3.916,0,0,1,275.271,229.6Z" transform="translate(-208.88 -211.542)"/><path class="d" d="M280.075,227.806a2.4,2.4,0,0,1,0-1,2.431,2.431,0,0,1,.282-.962,190.211,190.211,0,0,0-.282,1.966Z" transform="translate(-212.94 -211.076)"/><path class="d" d="M281.082,232.158a3.2,3.2,0,0,1-1.362.056,3.207,3.207,0,0,1,1.362-.056Z" transform="translate(-212.748 -215.577)"/><path class="d" d="M284.414,229.505a2.072,2.072,0,0,1-.11-.564,12,12,0,0,1-.085-1.4,11.765,11.765,0,0,1,.073-1.41,1.975,1.975,0,0,1,.1-.564c.042,0-.037.883-.031,1.975S284.456,229.5,284.414,229.505Z" transform="translate(-216.042 -210.882)"/><path class="d" d="M287.4,229.793a1.142,1.142,0,0,1,.282,0,1.755,1.755,0,0,0,.733-.093.821.821,0,0,0,.37-.316.5.5,0,0,0,.031-.511.7.7,0,0,0-.491-.324,1.577,1.577,0,0,0-.68.059l-.1.028-.677.181.626-.319a3.1,3.1,0,0,0,.564-.375c.085-.071.164-.144.24-.22a.883.883,0,0,0,.178-.229.2.2,0,0,0-.051-.212.375.375,0,0,0-.217-.1,1.278,1.278,0,0,0-.482.054,1.532,1.532,0,0,0-.615.364c-.124.118-.175.2-.186.195a.615.615,0,0,1,.147-.234,1.444,1.444,0,0,1,.623-.42,1.335,1.335,0,0,1,.525-.079.505.505,0,0,1,.3.127.324.324,0,0,1,.085.347.871.871,0,0,1-.2.282,3.233,3.233,0,0,1-.245.234,3.2,3.2,0,0,1-.6.4l-.054-.138.107-.028a1.741,1.741,0,0,1,.742-.059.846.846,0,0,1,.584.4.629.629,0,0,1-.048.643.9.9,0,0,1-.434.344,1.6,1.6,0,0,1-.776.054.973.973,0,0,1-.271-.059Z" transform="translate(-218.055 -212.084)"/><path class="d" d="M296.959,230.183a5.126,5.126,0,0,1,.1-.846c.079-.527.2-1.255.341-2.056.071-.4.141-.779.2-1.128.023-.09.023-.161,0-.175a.434.434,0,0,0-.195,0l-.434.039a5.054,5.054,0,0,1-.863.042,4.541,4.541,0,0,1,.846-.147l.432-.056a.44.44,0,0,1,.282.023.2.2,0,0,1,.082.161.73.73,0,0,1-.014.144c-.062.353-.127.733-.195,1.128-.141.8-.282,1.526-.384,2.048a5,5,0,0,1-.2.824Z" transform="translate(-224.885 -211.077)"/><path class="d" d="M299.252,232.871a5.231,5.231,0,0,1-1.21.169,5.332,5.332,0,0,1-1.221.023,4.891,4.891,0,0,1,1.21-.169A4.967,4.967,0,0,1,299.252,232.871Z" transform="translate(-225.436 -216.103)"/><path class="d" d="M307.965,228.711a4.7,4.7,0,0,1-.7.248c-.446.141-1.075.333-1.805.547l-.178.054.1-.158c.169-.282.347-.564.536-.86l.389-.621a4.917,4.917,0,0,0,.341-.581.564.564,0,0,0,.017-.536.48.48,0,0,0-.415-.2.9.9,0,0,0-.635.339,1.8,1.8,0,0,1-.192.214.845.845,0,0,1,.147-.251,1.31,1.31,0,0,1,.243-.245.781.781,0,0,1,.437-.161.59.59,0,0,1,.519.243.7.7,0,0,1,0,.654,4.556,4.556,0,0,1-.341.6l-.378.618c-.189.3-.372.587-.542.846l-.079-.107c.733-.206,1.368-.378,1.819-.5A4.3,4.3,0,0,1,307.965,228.711Z" transform="translate(-231.705 -211.546)"/><path class="d" d="M245.35,229.31a.513.513,0,0,0-.508.409,2.181,2.181,0,0,0,.934,1.876.468.468,0,0,0,.468-.164V231.4l-.22-.511-.3.107s-.539-.564-.412-.925c0,0,.22-.192.24-.175S245.35,229.31,245.35,229.31Z" transform="translate(-186.931 -213.567)"/><path class="d" d="M249.008,231.8a1.543,1.543,0,0,0-.059-.618c-.138-.313-.437-.415-.42-.454s.087-.02.206.034a.748.748,0,0,1,.35.361.736.736,0,0,1,.034.5C249.081,231.748,249.022,231.807,249.008,231.8Z" transform="translate(-189.648 -214.569)"/><path class="d" d="M249.552,231.3c-.023,0,.037-.124.073-.313a1.2,1.2,0,0,0-.09-.725,1.185,1.185,0,0,0-.513-.516c-.169-.09-.282-.113-.282-.138s.135-.031.333.042a1.1,1.1,0,0,1,.66,1.362C249.66,231.211,249.564,231.307,249.552,231.3Z" transform="translate(-189.816 -213.767)"/><rect class="c" width="1.701" height="2.496" transform="translate(55.693 3.85)"/><rect class="c" width="1.701" height="1.19" transform="translate(76.208 3.769)"/></g><g transform="translate(105.925 14.065)"><path class="k" d="M532.973,222.417a.39.39,0,0,1,.056-.127l.979.192a14.2,14.2,0,0,1,1.625-.152c.068.056,1.735,1.693,1.791,1.693s2.327.24,2.327.24l.054,2.821-2.045-.031-1.746-2.519-2.759-1.526A.544.544,0,0,1,532.973,222.417Z" transform="translate(-509.573 -192.034)"/><path class="d" d="M602.61,282.39l3.461,20.13a6.454,6.454,0,0,0,1.331,2.948l8.525,10.589,3.472-2.841-6.42-12.8-.883-18Z" transform="translate(-559.574 -235.18)"/><path class="d" d="M590.177,282.34l-.635,19.746a44.4,44.4,0,0,1,.846,5.96c.02,1.963-.911,10.513-.911,10.513l-3.667.042L583.2,303.369l-1.063-20.982Z" transform="translate(-544.878 -235.144)"/><path class="g" d="M607.038,302.492c-.04,0-.657-3.876-1.377-8.671s-1.269-8.685-1.227-8.691.654,3.876,1.374,8.671S607.077,302.487,607.038,302.492Z" transform="translate(-560.882 -237.147)"/><path class="e" d="M652.826,391.67l.107.147,2.082,2.8,2.6,1.842L654,403.179l-3.876-.054s.282-.925,2.166-1.379l.178-3.718L649.17,394.3" transform="translate(-593 -313.634)"/><g class="l" transform="translate(57.12 82.431)"><path class="j" d="M660.038,407.642l-3.622,6.722-3.876-.054.446-.575,3.154-.13,3.343-6.355Z" transform="translate(-652.54 -407.25)"/></g><path class="d" d="M660.382,420.709c.028.039.254-.085.564-.071s.519.138.55.1-.18-.265-.544-.282S660.348,420.678,660.382,420.709Z" transform="translate(-601.047 -334.301)"/><path class="d" d="M660.641,416.98c.039.028.214-.2.525-.254s.564.09.581.048-.031-.082-.138-.141a.731.731,0,0,0-.891.164C660.638,416.893,660.621,416.958,660.641,416.98Z" transform="translate(-601.23 -331.494)"/><path class="d" d="M660.6,412.664c.042.023.178-.2.449-.282s.513,0,.533-.039-.039-.073-.144-.116a.671.671,0,0,0-.793.265C660.59,412.582,660.584,412.656,660.6,412.664Z" transform="translate(-601.202 -328.363)"/><path class="d" d="M656.961,408.974c.045.017.158-.2.4-.353s.482-.172.488-.223-.282-.113-.581.079S656.914,408.969,656.961,408.974Z" transform="translate(-598.583 -325.607)"/><path class="d" d="M654.673,403.823a2.065,2.065,0,0,0,.344-.4l.336-.463a1.25,1.25,0,0,0,.183-.31.3.3,0,0,0-.02-.234.243.243,0,0,0-.231-.127.751.751,0,0,0-.367.183,1.309,1.309,0,0,0-.448.821.719.719,0,0,0,.079.53,4.27,4.27,0,0,1,.039-.508,1.325,1.325,0,0,1,.22-.488,1.254,1.254,0,0,1,.217-.226.6.6,0,0,1,.282-.141.068.068,0,0,1,.073.034.147.147,0,0,1,0,.11,1.312,1.312,0,0,1-.152.268l-.3.482A1.732,1.732,0,0,0,654.673,403.823Z" transform="translate(-596.791 -321.257)"/><path class="d" d="M651.16,406.19c.017,0,0-.206-.2-.44a.976.976,0,0,0-1.148-.226.2.2,0,0,0-.062.138.248.248,0,0,0,.045.124.6.6,0,0,0,.138.124,1.945,1.945,0,0,0,.282.161,1.774,1.774,0,0,0,.508.15c.3.037.485-.02.48-.039s-.183-.017-.457-.079a1.946,1.946,0,0,1-.46-.172,1.529,1.529,0,0,1-.243-.155.526.526,0,0,1-.1-.087c-.017-.034,0-.025,0-.034a.3.3,0,0,1,.113-.042,1.262,1.262,0,0,1,.144-.02.961.961,0,0,1,.282.025.936.936,0,0,1,.415.217C651.079,406.021,651.132,406.2,651.16,406.19Z" transform="translate(-593.417 -323.511)"/><g class="l" transform="translate(61.526 82.208)"><path class="j" d="M668.16,406.911a.46.46,0,1,0,.466-.451.46.46,0,0,0-.466.451Z" transform="translate(-668.16 -406.46)"/></g><path class="e" d="M585.636,406.361l-.02,7.334-9.137.116c.042-.874,5.128-2.66,5.128-2.66l-.107-4.931Z" transform="translate(-540.815 -324.08)"/><g class="l" transform="translate(42.793 86.607)"><path class="j" d="M602.192,422.062a.375.375,0,0,1,.262.423.358.358,0,0,1-.418.265.4.4,0,0,1-.282-.448.372.372,0,0,1,.465-.228" transform="translate(-601.749 -422.055)"/></g><g class="l" transform="translate(35.664 88.876)"><path class="j" d="M585.614,430.842l-.034-.742-8.745.389s-.4.181-.355.468Z" transform="translate(-576.476 -430.1)"/></g><path class="d" d="M594.179,423.9c0,.045.226.062.446.2s.341.327.381.31-.028-.282-.3-.443S594.168,423.859,594.179,423.9Z" transform="translate(-553.521 -336.742)"/><path class="d" d="M590,425.483c0,.042.186.116.339.3s.2.384.245.384.07-.257-.127-.485S590,425.441,590,425.483Z" transform="translate(-550.521 -337.896)"/><path class="d" d="M587.209,427.519c.04,0,.1-.217-.017-.46s-.327-.336-.347-.3.113.166.206.367S587.169,427.513,587.209,427.519Z" transform="translate(-548.255 -338.82)"/><path class="d" d="M594.376,419.263c.02.039.223-.023.477,0s.449.09.471.051-.166-.195-.465-.206S594.353,419.23,594.376,419.263Z" transform="translate(-553.661 -333.332)"/><path class="d" d="M593.76,413.87a.891.891,0,0,0,.457,0,2.082,2.082,0,0,0,.739-.3.565.565,0,0,0,.135-.11.192.192,0,0,0,.02-.237.243.243,0,0,0-.2-.1.527.527,0,0,0-.172.025,1.581,1.581,0,0,0-.282.1,1.6,1.6,0,0,0-.42.282c-.209.2-.282.367-.265.375s.124-.127.336-.282a1.814,1.814,0,0,1,.406-.237,1.786,1.786,0,0,1,.262-.085c.1-.025.178-.028.2,0s0,.025,0,.054a.474.474,0,0,1-.1.079,2.126,2.126,0,0,1-.24.141,2.365,2.365,0,0,1-.44.175A2.708,2.708,0,0,0,593.76,413.87Z" transform="translate(-553.221 -329.033)"/><path class="d" d="M592.437,412.3a.738.738,0,0,0,.116-.443,1.446,1.446,0,0,0-.07-.5,1.383,1.383,0,0,0-.118-.282.375.375,0,0,0-.3-.228.214.214,0,0,0-.189.13.722.722,0,0,0-.045.169,1.13,1.13,0,0,0,0,.307,1.035,1.035,0,0,0,.2.471.75.75,0,0,0,.37.282,1.4,1.4,0,0,1-.282-.333,1.041,1.041,0,0,1-.15-.429.847.847,0,0,1,0-.265c0-.1.048-.175.085-.166a.313.313,0,0,1,.161.149,1.293,1.293,0,0,1,.116.245,1.659,1.659,0,0,1,.1.457C592.437,412.131,592.4,412.3,592.437,412.3Z" transform="translate(-551.83 -327.404)"/><path class="c" d="M537.207,237.152c0,.037-.169.014-.319-.1s-.214-.26-.181-.282.138.065.268.164S537.221,237.115,537.207,237.152Z" transform="translate(-512.256 -202.427)"/><path class="c" d="M537.425,238.14c-.042,0-.068-.147-.059-.324s.051-.319.09-.316.068.147.056.324S537.465,238.143,537.425,238.14Z" transform="translate(-512.733 -202.953)"/><path class="m" d="M555.709,212.084c-.039,0-.189-1.594-.189-1.594s.59.124.7.539.192.773.192.773l1.472.415,1.546-.488-.64,1.007s-.846.124-.9.121S555.709,212.084,555.709,212.084Z" transform="translate(-525.768 -183.562)"/><path class="k" d="M557.623,212.832l-3.408-.322s-2.581-1.563-2.872-1.755a.282.282,0,0,1-.119-.178.322.322,0,0,1,.434-.336l3.024,1.058a.657.657,0,0,0,.547-.065l1.269-.762s-.522-.5-.846-.877a.609.609,0,0,1-.09-.736,16.747,16.747,0,0,1,2.488,1.58l.869.666Z" transform="translate(-522.683 -182.392)"/><path class="m" d="M558.6,211.844l.457-1.334s.406.048.364.564-.031.942-.031.942l.685.282-1.484-.409" transform="translate(-527.972 -183.577)"/><path class="e" d="M552.29,209.909l7.094-.581,4.471-6.637,2.113,5.094-2.415,3.639a4.654,4.654,0,0,1-4.065,2.073l-7.188-.282Z" transform="translate(-523.449 -177.963)"/><path class="d" d="M608.859,136.43c.076,1.021,1.467,1.588,1.489,2.615,0,.44-.248.846-.282,1.283a5.354,5.354,0,0,0,.446,1.693,3.119,3.119,0,0,1-1.351,3.157,5.268,5.268,0,0,1-3.5.75" transform="translate(-561.764 -130.394)"/><path class="d" d="M584.081,136.68a2.1,2.1,0,0,1-.632,1.481,2.9,2.9,0,0,0-.8,1.41c-.1.973.88,1.834.722,2.8-.085.516-.488.945-.544,1.464a1.808,1.808,0,0,0,.584,1.354c.347.367.731.282,1.041.7a4.141,4.141,0,0,0,1.323,1.086c1.083.539,2.322-.353,2.821-.522" transform="translate(-545.24 -130.573)"/><path class="d" d="M596.208,130.234c0-.5-.482-.866-.951-1.03a3.276,3.276,0,0,1-2.37-1.385,3.072,3.072,0,0,0-5.106,1.611,2,2,0,0,0,.584,2,2.877,2.877,0,0,0,2.451.161,3.179,3.179,0,0,1,2.474.054,3.588,3.588,0,0,1,.965,1.182,2.166,2.166,0,0,0,1.1,1.021c.491.147,1.128-.166,1.128-.68" transform="translate(-548.89 -123.616)"/><path class="k" d="M593.682,135.877l-4.468-.956c-1.41-.1-2.3,1.693-2.338,3.1a25.429,25.429,0,0,0,.2,4.691,2.953,2.953,0,0,0,2.293,2.592s.119,2.894.169,4.037l5-.116-.085-12.539A.829.829,0,0,0,593.682,135.877Z" transform="translate(-548.265 -129.307)"/><path class="d" d="M588.259,151.129c.039.039.265-.141.592-.15s.564.141.607.1-.025-.09-.133-.161a.818.818,0,0,0-.488-.133.8.8,0,0,0-.468.172C588.273,151.033,588.242,151.106,588.259,151.129Z" transform="translate(-549.268 -140.7)"/><path class="d" d="M599.974,150.939c.039.039.262-.141.59-.152s.564.144.606.1-.023-.09-.13-.161a.829.829,0,0,0-.488-.133.8.8,0,0,0-.468.172C599.974,150.849,599.946,150.922,599.974,150.939Z" transform="translate(-557.674 -140.564)"/><path class="d" d="M593.713,151.849a2.355,2.355,0,0,0-.536-.076c-.082,0-.164-.02-.178-.076a.415.415,0,0,1,.045-.248c.07-.206.147-.42.226-.646a10.777,10.777,0,0,0,.491-1.693,11.243,11.243,0,0,0-.626,1.661c-.073.226-.147.44-.214.649a.474.474,0,0,0-.031.327.214.214,0,0,0,.144.118.519.519,0,0,0,.141,0A2.042,2.042,0,0,0,593.713,151.849Z" transform="translate(-552.584 -139.497)"/><path class="m" d="M595.77,169.9a4.649,4.649,0,0,0,3.083-.736,3.046,3.046,0,0,1-3.047,1.492Z" transform="translate(-554.664 -153.891)"/><path class="e" d="M596.371,160.985a.592.592,0,0,1,.522-.24.536.536,0,0,1,.378.186.344.344,0,0,1,.042.389.4.4,0,0,1-.426.124,1.207,1.207,0,0,1-.429-.234.335.335,0,0,1-.1-.093.107.107,0,0,1,0-.121" transform="translate(-555.075 -147.849)"/><path class="d" d="M596.72,159.5c-.051,0-.04.353-.336.618s-.674.237-.674.282.087.065.248.065a.889.889,0,0,0,.564-.22.778.778,0,0,0,.257-.519C596.788,159.584,596.745,159.5,596.72,159.5Z" transform="translate(-554.621 -146.956)"/><path class="d" d="M599.705,146.014c.037.087.361.034.748.068s.7.124.748.042-.037-.121-.164-.2a1.267,1.267,0,0,0-.564-.172,1.252,1.252,0,0,0-.581.09C599.759,145.9,599.691,145.975,599.705,146.014Z" transform="translate(-557.488 -137.081)"/><path class="d" d="M588.505,145.17c.059.071.282-.014.564-.028s.5.031.564-.048-.017-.113-.121-.178a.745.745,0,0,0-.454-.1.768.768,0,0,0-.437.164C588.508,145.057,588.477,145.145,588.505,145.17Z" transform="translate(-549.441 -136.409)"/><path class="d" d="M599.38,143.323c-.649.158-.719-.172-1.224-.606a2.133,2.133,0,0,1-.725-1.78c.051-.584.341-1.19.118-1.732-.282-.719-1.326-.9-1.625-1.619-.175-.417-.054-.917-.248-1.323a1.571,1.571,0,0,0-1.007-.719,4.073,4.073,0,0,1-1.179-.46.923.923,0,0,1-.372-1.1,22.353,22.353,0,0,1,5.23,1.055,2.006,2.006,0,0,1,1.049.623,2.108,2.108,0,0,1,.26,1.261q-.025,3.2-.048,6.4" transform="translate(-552.708 -128.635)"/><path class="d" d="M618.77,145.361a1.822,1.822,0,0,1,3.419-.776,2.58,2.58,0,0,1,0,2.169,2.292,2.292,0,0,1-1.941,1.583,2.066,2.066,0,0,1-1.805-1.5,6.118,6.118,0,0,1-.141-2.482" transform="translate(-570.798 -135.567)"/><path class="g" d="M621.674,149.764a.4.4,0,0,0,.118-.144,1.16,1.16,0,0,0,.158-.48,2.277,2.277,0,0,0-.051-.75c-.059-.282-.164-.564-.245-.872a2.173,2.173,0,0,1-.085-.874,6.877,6.877,0,0,1,.2-.708.914.914,0,0,0,0-.508.331.331,0,0,0-.1-.158.848.848,0,0,1,.059.172.923.923,0,0,1-.028.477,6.3,6.3,0,0,0-.223.708,2.257,2.257,0,0,0,.079.917c.085.313.192.6.254.869a2.313,2.313,0,0,1,.07.719A1.553,1.553,0,0,1,621.674,149.764Z" transform="translate(-573.109 -136.74)"/><path class="g" d="M621.94,150.928a1.154,1.154,0,0,0,.375.341,2.087,2.087,0,0,0,2.347-.051,1.129,1.129,0,0,0,.361-.358,2.452,2.452,0,0,1-.4.282,2.2,2.2,0,0,1-1.128.344,2.225,2.225,0,0,1-1.128-.282C622.087,151.055,621.957,150.914,621.94,150.928Z" transform="translate(-573.451 -140.753)"/><path class="g" d="M622.4,152.4a1.153,1.153,0,0,0,.217.364,2.6,2.6,0,0,0,1.757.968,1.128,1.128,0,0,0,.423-.014c0-.017-.161-.017-.415-.059a2.959,2.959,0,0,1-1.709-.939A3.689,3.689,0,0,0,622.4,152.4Z" transform="translate(-573.782 -141.859)"/><path class="g" d="M600.946,140.283l.025-.028a.911.911,0,0,0,.062-.1,1.249,1.249,0,0,0,.138-.42,1.449,1.449,0,0,0-.065-.7,1.332,1.332,0,0,0-.581-.719,3.4,3.4,0,0,1-.906-.618.716.716,0,0,1-.15-.564,3.138,3.138,0,0,1,.181-.623,1.76,1.76,0,0,0-.085-1.41,1.529,1.529,0,0,0-.5-.564,1.858,1.858,0,0,0-.739-.282c-.26-.048-.516-.073-.756-.135a1.47,1.47,0,0,1-.643-.319,1.038,1.038,0,0,1-.3-.612,5.507,5.507,0,0,0-.138-.683,2.386,2.386,0,0,0-.685-1.1,1.856,1.856,0,0,0-1.027-.46,1.484,1.484,0,0,0-.911.175,1.43,1.43,0,0,0-.511.48,1.205,1.205,0,0,0-.169.409.519.519,0,0,0-.017.152,1.417,1.417,0,0,1,1.6-1.142,1.788,1.788,0,0,1,.979.451,2.3,2.3,0,0,1,.649,1.058,5.421,5.421,0,0,1,.133.677,1.128,1.128,0,0,0,.324.666,1.549,1.549,0,0,0,.688.347c.251.065.508.087.762.135a1.842,1.842,0,0,1,.7.257,1.473,1.473,0,0,1,.471.542,1.693,1.693,0,0,1,.085,1.337,3.033,3.033,0,0,0-.181.643.8.8,0,0,0,.172.615,3.385,3.385,0,0,0,.934.626,1.273,1.273,0,0,1,.564.677,1.442,1.442,0,0,1,.079.674A1.611,1.611,0,0,1,600.946,140.283Z" transform="translate(-552.796 -126.45)"/><path class="g" d="M599.845,131.684a.282.282,0,0,0,.025-.11.519.519,0,0,0-.09-.313.809.809,0,0,0-.409-.31,1.247,1.247,0,0,0-.683,0c-.248.056-.5.166-.781.231a1.049,1.049,0,0,1-.863-.1,1.873,1.873,0,0,1-.539-.832,3.569,3.569,0,0,0-.587-.956,3.3,3.3,0,0,0-1.839-1.089,1.867,1.867,0,0,0-.948.062,1.467,1.467,0,0,0-.677.474,1.109,1.109,0,0,0-.138,1.145.792.792,0,0,0,.189.262.3.3,0,0,0,.09.068,1.129,1.129,0,0,1-.243-.347,1.092,1.092,0,0,1-.076-.485,1.029,1.029,0,0,1,.237-.6,1.41,1.41,0,0,1,.646-.44,1.819,1.819,0,0,1,.9-.051,3.218,3.218,0,0,1,1.777,1.066,3.414,3.414,0,0,1,.564.928,1.953,1.953,0,0,0,.581.869.9.9,0,0,0,.474.158,1.638,1.638,0,0,0,.463-.051c.282-.073.542-.186.779-.245a1.21,1.21,0,0,1,.646-.02.8.8,0,0,1,.395.282.514.514,0,0,1,.1.282C599.851,131.644,599.84,131.684,599.845,131.684Z" transform="translate(-552.113 -124.463)"/><path class="e" d="M598.153,205.327c.282-7.052-2.341-11.9-2.8-14.011s.042-6.056-.054-8.209a12.1,12.1,0,0,0-1.075-5.188,11.764,11.764,0,0,0-2.855-2.92l-5.013,2.212s-1.918,4.779-2.843,7.052c-.9,2.226,1.994,6.186,1.994,6.186s-3.334,9.374-3.334,14.877Z" transform="translate(-544.9 -158.084)"/><path class="g" d="M627.579,220.515l-5.924-9.955a14.7,14.7,0,0,0-4.8,1.693c-1.5,1.111-4.46,3.687-4.46,3.687l4.008,11.142a1.975,1.975,0,0,0,2.237,1.255h.045c1.066-.22,5.777-3.385,8.271-5.114A2.028,2.028,0,0,0,627.579,220.515Z" transform="translate(-566.603 -183.613)"/><path class="e" d="M600.3,171.41l-.229-1.41s-5.574,2.147-5.456,2.446.48,1.774.48,1.774Z" transform="translate(-553.833 -154.494)"/><path class="d" d="M619.475,188.58a30.658,30.658,0,0,0-3.182-6.121c-1.41-2-3.236-3.532-4.423-3.137a4.113,4.113,0,0,1,2.206,1.755c1.47,1.989,3.481,8.2,3.481,8.2Z" transform="translate(-566.222 -161.141)"/><path class="d" d="M602.98,182.859a.619.619,0,0,1,0-.2c.017-.127.045-.307.09-.53a4.437,4.437,0,0,1,.64-1.656,2.274,2.274,0,0,1,1.47-.965,1.444,1.444,0,0,1,.544.014.519.519,0,0,1,.186.068,2.237,2.237,0,0,0-.716,0,2.3,2.3,0,0,0-1.391.951,4.917,4.917,0,0,0-.654,1.611A6.144,6.144,0,0,1,602.98,182.859Z" transform="translate(-559.834 -161.308)"/><path class="d" d="M602.4,182.44a7.261,7.261,0,0,0-1.41,3.574,17.388,17.388,0,0,0,.491,4.327l.155-2.843s-.059-.872-.034-1.693a6.114,6.114,0,0,1,.257-1.563Z" transform="translate(-558.383 -163.425)"/><path class="d" d="M622,200.36a2.005,2.005,0,0,1,.226-.488c.138-.262.245-.474.282-.463a1.049,1.049,0,0,1-.175.516C622.2,200.19,622.037,200.379,622,200.36Z" transform="translate(-573.495 -175.607)"/><path class="d" d="M596.18,176.882a1.865,1.865,0,0,0,.8-.093,10.285,10.285,0,0,0,1.676-1.055,15.072,15.072,0,0,1,1.749-.973c.234-.107.426-.189.564-.24a.846.846,0,0,1,.212-.071c0,.017-.282.15-.733.384a18.471,18.471,0,0,0-1.724,1c-.327.209-.626.423-.908.618a3.056,3.056,0,0,1-.8.417,1.492,1.492,0,0,1-.609.071A.483.483,0,0,1,596.18,176.882Z" transform="translate(-554.958 -157.689)"/><path class="d" d="M588.979,185a.736.736,0,0,1-.048.152l-.155.423c-.15.384-.355.906-.6,1.543l-.911,2.285-.544,1.348c-.09.234-.192.471-.282.714a3.163,3.163,0,0,0-.175.75,5.794,5.794,0,0,0,.592,2.88c.364.835.8,1.566,1.083,2.206a7.336,7.336,0,0,1,.564,1.571,3.426,3.426,0,0,1,.07.446.561.561,0,0,1,0,.158c-.014,0-.037-.214-.135-.59a8.181,8.181,0,0,0-.59-1.54c-.3-.632-.722-1.348-1.114-2.195a5.684,5.684,0,0,1-.615-2.953,3.365,3.365,0,0,1,.183-.787c.093-.245.195-.48.282-.714l.55-1.343.942-2.274c.265-.632.485-1.148.646-1.529l.183-.412A.5.5,0,0,1,588.979,185Z" transform="translate(-547.718 -165.263)"/><g class="n" transform="translate(40.452 34.589)"><path d="M593.45,238.121a5.218,5.218,0,0,0,6.178,2.731h0s.925,8.333,5.264,6.968a1.915,1.915,0,0,1-2-1.111l-3.264-9.058Z" transform="translate(-593.45 -237.65)"/></g><path class="e" d="M581.518,185.143l-.9,9.379-6.46-2.034-1.941,2.635s10.539,8.849,12.46,3.647a31.679,31.679,0,0,0,1.554-11.611,6.683,6.683,0,0,0-1.456-3.176A1.923,1.923,0,0,0,581.518,185.143Z" transform="translate(-537.757 -164.127)"/><path class="d" d="M581.1,193v.152c0,.1,0,.254-.017.44-.023.395-.054.965-.093,1.693-.085,1.467-.209,3.568-.361,6.13v.073l-.07-.025-6.465-2.023.079-.025-1.873,2.66-.014-.1c.846.683,1.817,1.317,2.793,1.975.632.417,1.255.827,1.859,1.25a18.326,18.326,0,0,0,1.831,1.151,9.1,9.1,0,0,0,1.915.793,4.248,4.248,0,0,0,1.958.116,2.892,2.892,0,0,0,1.577-.937,2.84,2.84,0,0,0,.4-.793c.1-.282.195-.564.282-.846a23.054,23.054,0,0,0,.807-3.126,37.546,37.546,0,0,0,.423-4.657c.031-.547.056-.973.073-1.272a2.827,2.827,0,0,1,.025-.33.67.67,0,0,1,0-.113.7.7,0,0,1,0,.113v.333c0,.3-.028.725-.045,1.272a35.426,35.426,0,0,1-.381,4.674,22.8,22.8,0,0,1-.793,3.142c-.085.282-.175.564-.282.846a2.923,2.923,0,0,1-.423.829,3,3,0,0,1-1.65.987,4.378,4.378,0,0,1-2.017-.113,9.242,9.242,0,0,1-1.952-.8,18.275,18.275,0,0,1-1.845-1.159c-.6-.42-1.224-.829-1.853-1.244-.979-.646-1.941-1.284-2.8-1.975l-.054-.042.039-.056,1.879-2.657.028-.042.048.017,6.457,2.045-.076.051.412-6.124c.054-.725.093-1.292.121-1.693.017-.189.028-.336.037-.44A.777.777,0,0,1,581.1,193Z" transform="translate(-537.692 -171.006)"/><path class="d" d="M584.533,238.13a.207.207,0,0,1,0,.062l-.056.178-.234.685c-.183.6-.451,1.478-.711,2.592a72.708,72.708,0,0,0-1.478,9.01l-.07-.079h3.1l12.886.031-.042.042c.028-.956.042-1.715.042-2.231v-.793a.953.953,0,0,1,.034.2c0,.135.023.333.028.592V250.7h-.042l-12.886.031H581.89v-.079a67.859,67.859,0,0,1,1.532-9.027c.282-1.128.564-1.989.753-2.587l.257-.677.07-.175A.283.283,0,0,1,584.533,238.13Z" transform="translate(-544.699 -203.405)"/><g class="n" transform="translate(48.074 24.73)"><path d="M620.9,202.7a41.537,41.537,0,0,1,.254,5.123l-.685.564S620.879,203.27,620.9,202.7Z" transform="translate(-620.47 -202.7)"/></g><path class="o" d="M553.314,191.16l2.24,1.236a.618.618,0,0,1-.88.282,19.563,19.563,0,0,1-1.8-1l-.891.358-.68-.824Z" transform="translate(-522.738 -169.685)"/><path class="p" d="M535.962,195.609a2.257,2.257,0,0,0,2.093-.2c1.018-.7,1.092-.925,1.515-1.055.3-.093,1.726-.282,2.288-.42a.324.324,0,0,0,.133-.564,3.3,3.3,0,0,0-.965-.2,3.9,3.9,0,0,0-.883.093,2.33,2.33,0,0,1-1.264-.282l.017-.355,1.41-.251a5.642,5.642,0,0,0,1.56.874,1.853,1.853,0,0,0,.931-.124v-.079l-2-1.436-1.873-.316-.564-.1-4.826,2.886,1.255,2.223Z" transform="translate(-509.981 -169.714)"/><rect class="g" width="1.701" height="2.485" rx="0.85" transform="matrix(0.976, -0.219, 0.219, 0.976, 30.77, 24.747)"/><path class="d" d="M561.36,198.287c0-.017.085-.037.223,0a.657.657,0,0,1,.451.282.722.722,0,0,1,.085.533c-.034.135-.087.206-.1.2s0-.087,0-.209a.81.81,0,0,0-.1-.446.719.719,0,0,0-.358-.282C561.439,198.33,561.357,198.31,561.36,198.287Z" transform="translate(-529.96 -174.787)"/><path class="d" d="M560.406,201.864c.014.031-.186.147-.449.034a.361.361,0,0,1-.2-.282c0-.085,0-.135.028-.135s.065.2.237.282S560.392,201.821,560.406,201.864Z" transform="translate(-528.812 -177.094)"/><path class="d" d="M563.465,204.339a.2.2,0,0,0,.065-.076.355.355,0,0,0,.017-.282c-.082-.307-.158-.6-.24-.914s-.152-.609-.226-.92a.262.262,0,0,0-.152-.209.172.172,0,0,0-.1,0,.1.1,0,0,1,.1-.02.282.282,0,0,1,.186.22c.065.234.15.564.243.917s.169.68.223.92a.355.355,0,0,1-.037.282C563.507,204.333,563.465,204.342,563.465,204.339Z" transform="translate(-531.016 -177.406)"/><path class="d" d="M561.114,204.66a3.793,3.793,0,0,1-.6.2,3.293,3.293,0,0,1-.621.144,3.639,3.639,0,0,1,.6-.2A3.181,3.181,0,0,1,561.114,204.66Z" transform="translate(-528.905 -179.377)"/><path class="d" d="M561.871,207.32a3.237,3.237,0,0,1-.578.2,3.1,3.1,0,0,1-.592.141,3.347,3.347,0,0,1,.564-.2A3.047,3.047,0,0,1,561.871,207.32Z" transform="translate(-529.486 -181.287)"/><path class="b" d="M564.83,204.925a.356.356,0,0,0,.1-.355c-.051-.24-.415-1.715-.415-1.715l.214-.065.372,1.642S565.169,204.846,564.83,204.925Z" transform="translate(-532.229 -178.034)"/><path class="e" d="M496.876,402.273l-.8,4.956s4.8,2.065,4.739,3l-9.7-.8.942-7.777Z" transform="translate(-479.527 -320.799)"/><path class="i" d="M497.448,418.61a.4.4,0,0,0-.33.415.384.384,0,0,0,.409.333.42.42,0,0,0,.347-.443.4.4,0,0,0-.465-.3" transform="translate(-483.839 -332.975)"/><path class="i" d="M491.11,427.246l.1-.776,9.168.934s.5.361.454.663Z" transform="translate(-479.527 -338.617)"/><path class="d" d="M506.857,421.161c0,.045-.245.037-.5.161s-.4.3-.443.282.065-.282.372-.429S506.874,421.119,506.857,421.161Z" transform="translate(-490.151 -334.758)"/><path class="d" d="M510.84,423.192c0,.048-.209.1-.395.282s-.26.386-.3.378-.045-.282.192-.5S510.846,423.147,510.84,423.192Z" transform="translate(-493.173 -336.245)"/><path class="d" d="M514.081,425.852c-.045,0-.082-.237.073-.482s.386-.319.4-.282-.141.164-.262.367S514.128,425.855,514.081,425.852Z" transform="translate(-495.99 -337.618)"/><path class="d" d="M506.907,416.648c-.025.039-.234-.054-.5-.068s-.488.042-.508,0,.2-.189.519-.166S506.935,416.614,506.907,416.648Z" transform="translate(-490.142 -331.396)"/><path class="d" d="M506.423,411.31a.911.911,0,0,1-.482-.062,2.231,2.231,0,0,1-.748-.4.586.586,0,0,1-.133-.133.209.209,0,0,1,0-.254.265.265,0,0,1,.22-.082.7.7,0,0,1,.178.048,1.948,1.948,0,0,1,.282.141,1.746,1.746,0,0,1,.412.35c.2.237.251.423.234.429s-.113-.147-.322-.347a1.9,1.9,0,0,0-.4-.3,1.8,1.8,0,0,0-.268-.121c-.1-.039-.186-.051-.217,0s-.014.023,0,.056a.535.535,0,0,0,.1.1,2.159,2.159,0,0,0,.237.178,2.821,2.821,0,0,0,.446.24A3.406,3.406,0,0,1,506.423,411.31Z" transform="translate(-489.511 -327.063)"/><path class="d" d="M509.536,410.112a.79.79,0,0,1-.068-.485,1.631,1.631,0,0,1,.133-.522,1.775,1.775,0,0,1,.161-.282.4.4,0,0,1,.339-.2.231.231,0,0,1,.186.158.788.788,0,0,1,.028.186,1.128,1.128,0,0,1-.31.8c-.223.228-.426.26-.429.243a2.084,2.084,0,0,0,.339-.319,1.128,1.128,0,0,0,.212-.434,1.034,1.034,0,0,0,.025-.282c0-.1-.031-.192-.07-.186a.349.349,0,0,0-.189.138,1.752,1.752,0,0,0-.152.245,1.832,1.832,0,0,0-.155.471C509.536,409.923,509.565,410.107,509.536,410.112Z" transform="translate(-492.698 -325.803)"/><path class="e" d="M478.492,404.507l-.412,5.007s4.948,1.678,4.962,2.609l-9.732-.028.322-7.825Z" transform="translate(-466.748 -322.68)"/><path class="i" d="M478.857,420.859a.4.4,0,0,0-.3.44.384.384,0,0,0,.434.3.418.418,0,0,0,.31-.468.4.4,0,0,0-.485-.257" transform="translate(-470.514 -334.586)"/><path class="i" d="M473.31,430.011l.031-.781,9.216.206s.522.322.5.626Z" transform="translate(-466.748 -340.599)"/><path class="d" d="M488.464,422.571c0,.045-.243.056-.485.2s-.372.336-.418.313.042-.282.336-.457S488.475,422.526,488.464,422.571Z" transform="translate(-476.971 -335.78)"/><path class="d" d="M492.588,424.319c0,.048-.2.118-.372.31s-.226.406-.282.4-.065-.282.152-.511S492.588,424.274,492.588,424.319Z" transform="translate(-480.093 -337.059)"/><path class="d" d="M496.067,426.753c-.042,0-.1-.234.037-.488s.361-.347.378-.307-.124.172-.231.384S496.115,426.75,496.067,426.753Z" transform="translate(-483.05 -338.243)"/><path class="d" d="M488.087,418.135c-.023.042-.237-.034-.5-.028s-.482.082-.508.039.186-.2.5-.206S488.113,418.1,488.087,418.135Z" transform="translate(-476.628 -332.494)"/><path class="d" d="M487.2,412.86a.926.926,0,0,1-.488-.025,2.143,2.143,0,0,1-.5-.181,2.307,2.307,0,0,1-.282-.161.589.589,0,0,1-.141-.121.212.212,0,0,1,0-.254.257.257,0,0,1,.214-.1.564.564,0,0,1,.181.034,1.573,1.573,0,0,1,.3.118,1.715,1.715,0,0,1,.437.316.854.854,0,0,1,.268.409c-.014.008-.127-.141-.347-.324a2.1,2.1,0,0,0-.423-.265,2.447,2.447,0,0,0-.282-.1c-.1-.031-.189-.037-.22,0s0,.025,0,.056a.583.583,0,0,0,.1.087,2.827,2.827,0,0,0,.251.158,2.7,2.7,0,0,0,.463.2,3.239,3.239,0,0,1,.468.147Z" transform="translate(-475.672 -328.243)"/><path class="d" d="M490.387,411.4a.764.764,0,0,1-.107-.477,1.618,1.618,0,0,1,.09-.53,1.94,1.94,0,0,1,.138-.282.409.409,0,0,1,.324-.231.22.22,0,0,1,.195.147.564.564,0,0,1,.042.181,1.049,1.049,0,0,1,0,.327,1.1,1.1,0,0,1-.231.494.759.759,0,0,1-.406.282,1.494,1.494,0,0,0,.313-.344,1.171,1.171,0,0,0,.175-.451.944.944,0,0,0,0-.282c0-.1-.045-.189-.085-.181a.352.352,0,0,0-.178.152,1.591,1.591,0,0,0-.133.257,1.651,1.651,0,0,0-.116.482C490.37,411.214,490.412,411.395,490.387,411.4Z" transform="translate(-478.927 -326.707)"/><path class="p" d="M474.1,138.341l5.5,1.128c.042-.621-.13-4.513-.13-4.513a2.666,2.666,0,0,0,2.285-2.539c.062-2.228-.251-7.314-.251-7.314h0a7.707,7.707,0,0,0-7.755.86l-.333.248Z" transform="translate(-466.82 -121.78)"/><path class="o" d="M487.562,159.494a5.36,5.36,0,0,1-2.872-.894,2.776,2.776,0,0,0,2.9,1.436Z" transform="translate(-474.918 -146.31)"/><path class="p" d="M470.461,138.8c-.04-.017-1.518-.471-1.492,1.044a1.134,1.134,0,0,0,1.546,1.128C470.518,140.926,470.461,138.8,470.461,138.8Z" transform="translate(-463.631 -132.043)"/><path class="o" d="M470.994,141.615a.462.462,0,0,1-.07.042.282.282,0,0,1-.2,0,.66.66,0,0,1-.313-.581.9.9,0,0,1,.068-.378.3.3,0,0,1,.2-.206.133.133,0,0,1,.155.068c.023.042,0,.073.02.076s.034-.025.02-.087a.161.161,0,0,0-.062-.1.209.209,0,0,0-.147-.037.375.375,0,0,0-.282.24.908.908,0,0,0-.085.426.688.688,0,0,0,.4.649.282.282,0,0,0,.24-.045C470.992,141.651,471,141.618,470.994,141.615Z" transform="translate(-464.585 -133.254)"/><path class="d" d="M498.7,139.01a.316.316,0,0,1-.31.313.3.3,0,0,1-.322-.282.316.316,0,0,1,.31-.313.3.3,0,0,1,.322.282Z" transform="translate(-484.523 -132.043)"/><path class="d" d="M497.229,137.05c-.039.04-.282-.141-.618-.144s-.592.161-.629.118.023-.093.133-.169a.846.846,0,0,1,.5-.147.824.824,0,0,1,.491.166C497.215,136.957,497.249,137.03,497.229,137.05Z" transform="translate(-483.017 -130.593)"/><path class="d" d="M486.952,138.83a.316.316,0,0,1-.31.316.307.307,0,0,1-.322-.282.319.319,0,0,1,.31-.316.3.3,0,0,1,.322.282Z" transform="translate(-476.088 -131.914)"/><path class="d" d="M485.362,137.13c-.039.039-.282-.141-.618-.144s-.6.161-.629.118.023-.093.133-.169a.846.846,0,0,1,.5-.147.824.824,0,0,1,.491.166C485.345,137.029,485.382,137.1,485.362,137.13Z" transform="translate(-474.498 -130.651)"/><path class="d" d="M492.516,139.771a2.209,2.209,0,0,1,.564-.093c.087,0,.172-.023.186-.082a.446.446,0,0,0-.054-.26l-.248-.666a11.513,11.513,0,0,1-.564-1.74,11,11,0,0,1,.691,1.693c.085.234.164.457.237.671a.494.494,0,0,1,.04.341.209.209,0,0,1-.144.124.6.6,0,0,1-.147.02A2.287,2.287,0,0,1,492.516,139.771Z" transform="translate(-480.453 -130.753)"/><path class="d" d="M489.092,147.77c.056,0,.051.37.364.635s.708.234.708.282-.087.071-.254.073a.925.925,0,0,1-.592-.217.8.8,0,0,1-.282-.53C489.024,147.86,489.066,147.767,489.092,147.77Z" transform="translate(-478.036 -138.535)"/><path class="d" d="M484.977,132.562c-.037.093-.375.042-.776.085s-.725.147-.776.062c-.025-.04.034-.124.166-.212a1.244,1.244,0,0,1,.564-.195,1.3,1.3,0,0,1,.606.082C484.918,132.443,484.994,132.516,484.977,132.562Z" transform="translate(-474.006 -127.425)"/><path class="d" d="M497.077,133.5c-.062.076-.282,0-.578-.017s-.522.045-.564-.037c-.023-.039.017-.116.121-.189a.807.807,0,0,1,.471-.118.8.8,0,0,1,.457.161C497.077,133.379,497.116,133.458,497.077,133.5Z" transform="translate(-482.986 -128.028)"/><path class="d" d="M480.629,117a.812.812,0,0,0-.282-.736.581.581,0,0,0-.753.045.674.674,0,0,0-.564-.829c-.361-.028-.674.24-1.024.33a1.619,1.619,0,0,1-1.032-.135c-.327-.135-.632-.322-.962-.449a2.821,2.821,0,0,0-3.65,1.611,1.261,1.261,0,0,0-1.343.485,2.073,2.073,0,0,0-.339,1.45,4.687,4.687,0,0,0,.24,1v.085c0,1.221.121,2.654.64,2.669.908.028.717-1.693.717-1.693,1.128-.412.728-2.085,1.01-2.333s.874-.829,3.185.395a4.513,4.513,0,0,0,2.759.341h.09a2.1,2.1,0,0,0,.6-.243,1.193,1.193,0,0,0,.5-.542.643.643,0,0,0-.118-.694A1.394,1.394,0,0,0,480.629,117Z" transform="translate(-464.846 -115.031)"/><path class="p" d="M522.963,220.42l3.667,1.557,1.128.014a1.233,1.233,0,0,1,.877.386l1.532,1.523.135,1.752-1.162.88s-.426.039-.282-.449l-.694.437h-.745l-.722-.1-.649-.866s-.13-.322.491-.141l.581.463.587-.592-1.151-.886-1.783-.118a.638.638,0,0,1-.451-.22l-.544-.623-1.058-.169Z" transform="translate(-502.22 -190.691)"/><path class="o" d="M544.807,233a5.21,5.21,0,0,1,.206,1.2.908.908,0,0,1-.031.5.869.869,0,0,1-.3.282c-.186.121-.262.22-.282.214s.042-.152.214-.282a.956.956,0,0,0,.24-.26.871.871,0,0,0,0-.432,5.147,5.147,0,0,1-.048-1.23Z" transform="translate(-517.783 -199.723)"/><path class="o" d="M539.08,237.732a3.887,3.887,0,0,1,.747-.7.451.451,0,0,0,.118-.319c.014-.121.023-.231.028-.322,0-.186.017-.3.039-.3s.051.11.065.3a3.154,3.154,0,0,1,0,.333,1.126,1.126,0,0,1-.025.2.466.466,0,0,1-.124.209A3.385,3.385,0,0,1,539.08,237.732Z" transform="translate(-513.965 -201.941)"/><path class="o" d="M542.05,236.917a2.238,2.238,0,0,1,.516-.4h0c-.031.037,0,0-.014,0v-.206a1.056,1.056,0,0,1,.023-.262,5.12,5.12,0,0,1,.119-1.145,4.324,4.324,0,0,1,.028,1.159,1.336,1.336,0,0,1-.025.262l-.017.124v.093c0,.017,0,0-.034.065h0A2.031,2.031,0,0,1,542.05,236.917Z" transform="translate(-516.097 -201.087)"/><path class="k" d="M529.629,233.107s-.079.409.164.536a.629.629,0,0,0,.525-.02s-.116.632.728.446c0,0-.056.4.511.282,0,0,0,.6.525.457a.776.776,0,0,0,.587-.592s0-.725-.471-.683c0,0,.282-.474-.245-.564a.5.5,0,0,0-.618.347.282.282,0,0,0-.259-.37.513.513,0,0,0-.533.228S530.021,232.545,529.629,233.107Z" transform="translate(-507.171 -199.632)"/><path class="m" d="M532.327,233.874c.034.02,0,.138-.062.282s-.155.214-.189.195,0-.138.059-.265S532.29,233.854,532.327,233.874Z" transform="translate(-508.927 -200.348)"/><path class="m" d="M534.987,234.15c.039,0,.079.22-.025.468s-.282.378-.316.347.093-.186.181-.4S534.945,234.15,534.987,234.15Z" transform="translate(-510.778 -200.548)"/><path class="m" d="M537.129,235.178c.037,0,0,.262-.192.5s-.423.347-.44.31.155-.181.324-.4S537.089,235.164,537.129,235.178Z" transform="translate(-512.11 -201.286)"/><path class="d" d="M478.346,275.128c-.279-3.23-3.915-21.283-3.915-21.283l-4.276,1.128h0l-8.3-1.583-.7,5.326a8.138,8.138,0,0,0,.863,4.835l1.4,14.759.663,22.194,6.852-.195.023-1.157,4.415.434S478.622,278.36,478.346,275.128Zm-6.99,3.131-.059-1.185.076.361Z" transform="translate(-457.973 -214.361)"/><path class="g" d="M464.46,283.814a1.008,1.008,0,0,0,.025.183l.059.542c.048.482.118,1.188.212,2.1.178,1.825.434,4.471.756,7.757.423,3.283.437,7.241.6,11.661s.3,9.309.46,14.488l-.076-.07,4.536-.127,2.316-.068-.071.073c.107-5.444.212-10.606.3-15.286.048-2.339.093-4.559.135-6.632.037-1.035,0-2.037,0-3s-.023-1.882-.034-2.762c-.042-3.515-.073-6.347-.1-8.31,0-.973-.017-1.732-.02-2.257v-.584c0,.133,0,.33.014.584,0,.519.025,1.275.045,2.257.034,1.961.082,4.8.144,8.31q.023,1.32.042,2.762c0,.962.051,1.975.017,3-.039,2.076-.079,4.293-.121,6.635-.09,4.68-.189,9.842-.282,15.286v.071h-.07l-2.313.068-4.536.127h-.073v-.071c-.158-5.179-.307-10.068-.443-14.488s-.161-8.378-.564-11.661c-.3-3.286-.544-5.924-.711-7.76-.082-.908-.144-1.614-.186-2.1-.02-.234-.034-.417-.045-.544A1.347,1.347,0,0,0,464.46,283.814Z" transform="translate(-460.394 -234.412)"/><path class="g" d="M496.123,171s2.59,1.072,2.874,2.728c.093.539,1.619,7.879,1.619,7.879l5.836-2.573,2.223,3.131-9.43,6.172h0l-3.346-2.209Z" transform="translate(-482.966 -155.212)"/><path class="d" d="M504.225,184.63a.592.592,0,0,1,.028.15l.042.426c.028.389.065.92.113,1.566.082,1.343.195,3.162.319,5.173s.251,3.828.339,5.171c.045.646.085,1.176.113,1.566,0,.172.02.313.025.429a.511.511,0,0,1,0,.149.586.586,0,0,1-.028-.147c-.014-.116-.034-.254-.054-.426-.045-.367-.1-.9-.161-1.563-.118-1.32-.257-3.148-.381-5.171s-.217-3.85-.282-5.176c-.028-.646-.051-1.176-.065-1.568v-.429A.52.52,0,0,1,504.225,184.63Z" transform="translate(-488.941 -164.997)"/><path class="g" d="M466.688,165.285l-.564-1.729-.731,2.477-5-2.993-.894,1.535-3.927,2.071c-.417.736-.674,7.413-.674,7.413,0,.358,2.257,9.786,2.257,9.786L455.7,195.062l12.99.192.113-4.7.891,4.714,2.615-.745-2.355-11.605-3.314-17.842" transform="translate(-453.531 -149.497)"/><path class="g" d="M452.192,175.83h0c-2.285,1.944-2.288,4.344-1.667,6.77l1.994,6.536a4.948,4.948,0,0,0,5.295,3.7l12.948-1.092.144-3.594-12.714-1.3Z" transform="translate(-450.138 -158.679)"/><path class="d" d="M452.1,175.83l-.051.051-.155.147-.26.234c-.1.093-.2.226-.319.361-.056.071-.121.141-.183.223l-.172.268a2.514,2.514,0,0,0-.183.3l-.166.341a5.613,5.613,0,0,0-.463,1.735,7.524,7.524,0,0,0,.127,2.226,11.911,11.911,0,0,0,.353,1.221l.412,1.306c.564,1.8,1.21,3.834,1.907,6.045h0a3.752,3.752,0,0,0,2.09,2.1,6.353,6.353,0,0,0,3.233.344h0l7.78-.657,4.615-.395-.065.071q.073-1.839.144-3.594l.065.073L458.1,186.907h-.031v-.031c-.869-2.556-1.571-4.626-2.059-6.065-.237-.711-.423-1.267-.55-1.65-.062-.186-.107-.33-.141-.432a1.283,1.283,0,0,1-.042-.147s.02.045.056.141l.152.426.581,1.645c.5,1.433,1.216,3.5,2.1,6.048l-.045-.034,12.716,1.278h.065v.065q-.068,1.752-.141,3.594v.065H470.7l-4.609.389-7.78.652h0A6.488,6.488,0,0,1,455,192.49a3.89,3.89,0,0,1-2.158-2.175h0c-.691-2.214-1.323-4.245-1.884-6.051l-.409-1.309a12.35,12.35,0,0,1-.347-1.233,7.586,7.586,0,0,1-.113-2.257,5.69,5.69,0,0,1,.485-1.752l.172-.341a3.391,3.391,0,0,1,.189-.3l.178-.268c.062-.079.13-.15.189-.22a4.8,4.8,0,0,1,.33-.355l.265-.231.164-.138A.434.434,0,0,1,452.1,175.83Z" transform="translate(-450.047 -158.679)"/><path class="d" d="M456.79,180.486a6.2,6.2,0,0,1-.584-.282,3.783,3.783,0,0,0-1.475-.37,2.522,2.522,0,0,0-1.436.412,6,6,0,0,0-.485.415,1.2,1.2,0,0,1,.423-.5,2.426,2.426,0,0,1,1.5-.474,3.385,3.385,0,0,1,1.52.423A1.839,1.839,0,0,1,456.79,180.486Z" transform="translate(-452.031 -161.449)"/><path class="j" d="M472.35,162.967l7,14.124,1.224.107-1.354-12.987-.553-1.729-.742,2.344-5.013-3.286Z" transform="translate(-466.059 -148.42)"/><path class="d" d="M494.3,185.56a3.451,3.451,0,0,1-.13-.48c-.073-.31-.172-.762-.282-1.32-.231-1.128-.53-2.663-.846-4.375s-.564-3.267-.745-4.395c-.087-.564-.152-1.021-.192-1.337a2.867,2.867,0,0,1-.045-.494,3.667,3.667,0,0,1,.1.485c.059.339.141.787.237,1.329.206,1.145.482,2.683.79,4.384s.587,3.238.8,4.384l.243,1.329A3.011,3.011,0,0,1,494.3,185.56Z" transform="translate(-480.209 -156.763)"/><path class="d" d="M477.921,168.459s0,.017-.034.039a.424.424,0,0,0-.093.1,1.6,1.6,0,0,0-.217.482,7.214,7.214,0,0,0-.212,1.882v.147l-.11-.1c-.446-.389-.965-.818-1.512-1.269-.984-.812-1.867-1.566-2.468-2.152-.3-.282-.536-.536-.694-.711a2.013,2.013,0,0,1-.231-.282,1.5,1.5,0,0,1,.282.243c.169.161.415.395.725.674.618.564,1.506,1.3,2.494,2.116.544.451,1.061.886,1.5,1.283l-.11.048a6.488,6.488,0,0,1,.268-1.9,1.41,1.41,0,0,1,.26-.488.423.423,0,0,1,.116-.093A.036.036,0,0,1,477.921,168.459Z" transform="translate(-466.059 -152.053)"/><path class="d" d="M493.379,171a2.005,2.005,0,0,1-.02.6c-.034.37-.118.872-.189,1.427v.045l-.045.353-.1-.339a4.891,4.891,0,0,0-.482-1.295.381.381,0,0,0-.316-.189c-.09,0-.144.031-.15.017s.039-.051.144-.073a.42.42,0,0,1,.4.183,3.924,3.924,0,0,1,.544,1.315h-.144v-.048c.073-.564.172-1.058.234-1.41A2.885,2.885,0,0,1,493.379,171Z" transform="translate(-480.222 -155.212)"/><path class="d" d="M470.135,244.894a.6.6,0,0,1,.118-.025l.361-.056,1.357-.192,4.685-.621h.1l-.017.1-.392,2.006v.054h-.073c-2.75.24-5.2.446-6.75.564h-.071l.023-.065c.2-.547.364-.987.482-1.309l.13-.341a.584.584,0,0,1,.051-.11.592.592,0,0,1-.034.13l-.11.355c-.107.319-.251.759-.432,1.3l-.048-.059c1.549-.152,3.994-.381,6.745-.621h.02l-.068.059c.138-.694.282-1.368.395-2l.079.082-4.663.564-1.377.152-.372.037A.453.453,0,0,1,470.135,244.894Z" transform="translate(-463.977 -207.62)"/><path class="d" d="M478.65,182.825a.383.383,0,0,1-.09-.068l-.24-.212-.891-.8-3.018-2.821h0V178.9c-.212-.621-.437-1.289-.669-1.975l-1.749-5.272-.513-1.6c-.054-.178-.1-.322-.133-.437a.637.637,0,0,1-.037-.158.849.849,0,0,1,.065.147l.158.432.564,1.588c.463,1.362,1.094,3.213,1.788,5.258l.663,1.975-.017-.028,2.982,2.858.846.846.226.228A.441.441,0,0,1,478.65,182.825Z" transform="translate(-465.312 -154.106)"/><path class="d" d="M475.008,214.7c.031.034-.417.426-.784,1.044a12.826,12.826,0,0,0-.564,1.182A3.154,3.154,0,0,1,475,214.7Z" transform="translate(-466.999 -186.585)"/><path class="d" d="M502.563,234.09c.039,0,.192,1.817.341,4.068s.234,4.073.195,4.076-.195-1.819-.341-4.068S502.521,234.093,502.563,234.09Z" transform="translate(-487.742 -200.505)"/><g class="n" transform="translate(3.129 32.211)"><path d="M461.14,229.22s.632,3.566,2.855,3.3,8.463-1.929,8.463-1.929l-6.77.584S462.57,231.567,461.14,229.22Z" transform="translate(-461.14 -229.22)"/></g><g class="n" transform="translate(15.521 23.684)"><path d="M505.07,198.99l.039.172,1.2,5.213-.92-.093" transform="translate(-505.07 -198.99)"/></g></g></svg>