<svg xmlns="http://www.w3.org/2000/svg" width="27.324" height="21.421" viewBox="0 0 27.324 21.421">
  <g id="Group_14" data-name="Group 14" transform="translate(-60.459 -680.75)">
    <g id="noun_broker_2303072" transform="translate(71.63 680.75)">
      <g id="Group_13" data-name="Group 13" transform="translate(0 0)">
        <g id="Group_12" data-name="Group 12" transform="translate(0 0)">
          <g id="Group_11" data-name="Group 11">
            <g id="Group_10" data-name="Group 10">
              <path id="Path_12" data-name="Path 12" d="M7.933,3.1a2.245,2.245,0,0,1-.655,1.313c-.284.308-.672.73-1.124.733-.419,0-.774-.347-1.132-.734A2.24,2.24,0,0,1,4.36,3.1a2.018,2.018,0,0,1,.51-1.557,1.87,1.87,0,0,1,1.28-.47,1.867,1.867,0,0,1,1.28.47A2.015,2.015,0,0,1,7.942,3.1M6.141,0A2.938,2.938,0,0,1,8.16.764,3.07,3.07,0,0,1,9,3.209a3.3,3.3,0,0,1-.943,1.94A2.7,2.7,0,0,1,6.154,6.23H6.144A2.715,2.715,0,0,1,4.222,5.149a3.3,3.3,0,0,1-.944-1.94A3.08,3.08,0,0,1,4.122.764,2.94,2.94,0,0,1,6.141,0Zm7.567,8.564a1.309,1.309,0,0,1,.27.87,1.519,1.519,0,0,1-.462,1.124,2.16,2.16,0,0,1-1.244.574v.525a.428.428,0,0,1-.117.312.453.453,0,0,1-.616,0,.427.427,0,0,1-.116-.312V11.15a3.785,3.785,0,0,1-.924-.2,2.641,2.641,0,0,1-.774-.417.42.42,0,0,1-.149-.167.527.527,0,0,1-.042-.225.487.487,0,0,1,.1-.308A.3.3,0,0,1,9.875,9.7a.39.39,0,0,1,.153.028,1.53,1.53,0,0,1,.187.1,3.059,3.059,0,0,0,.754.365,2.553,2.553,0,0,0,.778.117,1.476,1.476,0,0,0,.862-.215.723.723,0,0,0,.3-.625.5.5,0,0,0-.167-.391,1.21,1.21,0,0,0-.416-.237c-.166-.058-.4-.126-.7-.2a7.507,7.507,0,0,1-1.016-.32,1.75,1.75,0,0,1-.674-.5,1.337,1.337,0,0,1-.283-.9,1.55,1.55,0,0,1,.483-1.149,2.221,2.221,0,0,1,1.265-.591V4.656a.433.433,0,0,1,.117-.312.455.455,0,0,1,.616,0,.43.43,0,0,1,.117.312v.516A2.793,2.793,0,0,1,13.7,5.78a.466.466,0,0,1,.2.391.49.49,0,0,1-.1.308.308.308,0,0,1-.246.133.446.446,0,0,1-.146-.025,1.042,1.042,0,0,1-.187-.1,3.141,3.141,0,0,0-.645-.362,1.948,1.948,0,0,0-.72-.12,1.346,1.346,0,0,0-.824.229.74.74,0,0,0-.308.628.6.6,0,0,0,.175.445,1.152,1.152,0,0,0,.441.262c.178.061.419.131.724.208a7.242,7.242,0,0,1,.99.308A1.683,1.683,0,0,1,13.708,8.565ZM8.436,11.013a.538.538,0,1,1,0,1.077h-8a.451.451,0,0,1-.24-.066A.457.457,0,0,1,.07,11.9a.467.467,0,0,1-.065-.167A.488.488,0,0,1,0,11.649,5.95,5.95,0,0,1,1.319,8.478a6.1,6.1,0,0,1,2.744-1.93A.308.308,0,0,1,4.2,6.525a.3.3,0,0,1,.164.06,3.211,3.211,0,0,0,3.418.1.538.538,0,1,1,.538.932,4.272,4.272,0,0,1-4.218.07,5.051,5.051,0,0,0-2.877,3.322Z" transform="translate(0 -0.001)" fill="#fff"/>
            </g>
          </g>
        </g>
      </g>
    </g>
    <g id="noun_loan_2084468" transform="translate(60.459 690.943)">
      <g id="Group_3" data-name="Group 3" transform="translate(0 0)">
        <path id="Path_7" data-name="Path 7" d="M28.324,40.146a2.225,2.225,0,0,0-2.9-2.135L19.743,39.8l-1.281-.085a2.155,2.155,0,0,0,.384-.982A1.919,1.919,0,0,0,16.925,36.6H13a9.3,9.3,0,0,0-5.379-1.75H6.209V33.827a.4.4,0,0,0-.427-.427H1.427A.4.4,0,0,0,1,33.827v8.88a.4.4,0,0,0,.427.427H5.782a.4.4,0,0,0,.427-.427v-.726L14.662,44.5a3.876,3.876,0,0,0,.982.128,3.184,3.184,0,0,0,1.11-.171L28.025,40.53A.41.41,0,0,0,28.324,40.146ZM5.355,42.28h-3.5V34.254h3.5Zm11.1,1.366a2.842,2.842,0,0,1-1.58.043l-8.71-2.6V35.705H7.575a8.236,8.236,0,0,1,4.953,1.665.607.607,0,0,0,.256.085h4.1a1.09,1.09,0,1,1-.085,2.177l-3.971-.3a.429.429,0,0,0-.085.854l6.916.512h.171l5.764-1.836a1.4,1.4,0,0,1,1.793,1.025Z" transform="translate(-1 -33.4)" fill="#fff"/>
      </g>
    </g>
  </g>
</svg>
