<svg id="noun-investment-loans-4158664" xmlns="http://www.w3.org/2000/svg" width="79.895" height="77.232" viewBox="0 0 79.895 77.232">
  <path id="Path_6301" data-name="Path 6301" d="M330.69,38.621h2.663V57.263H330.69Z" transform="translate(-293.406 -33.295)" fill="#fe8d02"/>
  <path id="Path_6302" data-name="Path 6302" d="M79.656,38.621h26.631V57.263H79.656Z" transform="translate(-76.992 -33.295)" fill="#fe8d02"/>
  <path id="Path_6303" data-name="Path 6303" d="M375.611,20.39l2.293-4.582,7.393,1.477V7.99h17.311a1.332,1.332,0,0,0,0-2.663H385.159a6.654,6.654,0,0,1-6.519,5.326h-1.332V7.99h1.332A3.987,3.987,0,0,0,382.626,4l0-1.333h8A2.664,2.664,0,0,0,393.287,0H378.64a12.035,12.035,0,0,0-9.321,4.479V20.493l2.4-4Z" transform="translate(-326.707 -0.001)" fill="#fe8d02"/>
  <path id="Path_6304" data-name="Path 6304" d="M378.49,142.509l-4.1-4.1-2.582,4.3,6.864,6.864h9.2l4.4-10.992-10.749-2.149Z" transform="translate(-328.856 -117.624)" fill="#fe8d02"/>
  <path id="Path_6305" data-name="Path 6305" d="M292.07,38.621h2.663V57.263H292.07Z" transform="translate(-260.112 -33.295)" fill="#fe8d02"/>
  <path id="Path_6306" data-name="Path 6306" d="M521.791,77.242H504.48V79.9h17.311a1.331,1.331,0,1,0,0-2.663Z" transform="translate(-443.228 -66.589)" fill="#fe8d02"/>
  <path id="Path_6307" data-name="Path 6307" d="M539.077,155.816a1.332,1.332,0,0,0-1.332-1.332H533.32l-1.065,2.663h5.491a1.332,1.332,0,0,0,1.331-1.332Z" transform="translate(-467.172 -133.179)" fill="#fe8d02"/>
  <path id="Path_6308" data-name="Path 6308" d="M519.128,115.86H504.48V117.7l4.128.825h10.52a1.331,1.331,0,1,0,0-2.663Z" transform="translate(-443.228 -99.881)" fill="#fe8d02"/>
  <path id="Path_6309" data-name="Path 6309" d="M336.063,251.04h-9.43l-10.9,12.717a18.11,18.11,0,0,0,13.752,29.894h3.728a18.11,18.11,0,0,0,13.75-29.895Zm1.943,18.642h-2.663v-2.663h-7.989v5.326h10.653V283H332.68v2.663h-2.663V283h-5.326v-5.326h2.663v2.663h7.989v-5.326H324.69V264.355h5.326v-2.663h2.663v2.663h5.326Z" transform="translate(-276.754 -216.418)" fill="#fe8d02"/>
  <path id="Path_6310" data-name="Path 6310" d="M88.306,399.187V376.55H82.979v22.637H77.653V384.541H72.327v14.648H67V392.53H61.674v6.658H60.343v2.663h42.586a20.862,20.862,0,0,1-3.7-2.663Z" transform="translate(-60.343 -324.619)" fill="#fe8d02"/>
  <path id="Path_6311" data-name="Path 6311" d="M114.051,239.716v-7.99h-7.989v2.663h3.444L94.077,249.816l-9.711-9.711-1.883,1.883,11.594,11.594,17.311-17.311v3.444Z" transform="translate(-79.43 -199.768)" fill="#fe8d02"/>
</svg>
