<svg id="noun_Calculator_3213995" xmlns="http://www.w3.org/2000/svg" width="28" height="28" viewBox="0 0 28 28">
  <path id="Path_29" data-name="Path 29" d="M14,0A14,14,0,1,0,28,14,14,14,0,0,0,14,0Zm2.123,19.647H21.07a.708.708,0,1,1,0,1.416H16.123a.708.708,0,0,1,0-1.416Zm-.708-2.123a.708.708,0,0,1,.708-.708H21.07a.708.708,0,1,1,0,1.416H16.123A.708.708,0,0,1,15.416,17.523Zm5.654-7.07H16.123a.708.708,0,0,1,0-1.416H21.07a.708.708,0,1,1,0,1.416Zm-9.458,9.769a.708.708,0,1,1-1,1L9.333,19.981,8.167,21.148a.716.716,0,0,1-.506.21.708.708,0,0,1-.5-1.206L8.33,18.978,7.086,17.726a.708.708,0,1,1,1-1l1.252,1.252,1.33-1.33a.708.708,0,1,1,1,1l-1.322,1.33Zm.264-9.777H10v1.766a.708.708,0,1,1-1.416,0V10.453H6.93a.708.708,0,1,1,0-1.416H8.556V7.272a.708.708,0,1,1,1.416,0V9.038h1.874a.708.708,0,1,1,0,1.416Z" fill="#fff"/>
</svg>
