<svg xmlns="http://www.w3.org/2000/svg" width="22.799" height="22.799" viewBox="0 0 22.799 22.799">
  <g id="noun_menu_4238979" transform="translate(-3 -3)">
    <path id="Path_13" data-name="Path 13" d="M5.752,13.22h4.717a2.755,2.755,0,0,0,2.752-2.752V5.752A2.755,2.755,0,0,0,10.469,3H5.752A2.755,2.755,0,0,0,3,5.752a.393.393,0,0,0,.786,0A1.968,1.968,0,0,1,5.752,3.786h4.717a1.968,1.968,0,0,1,1.965,1.965v4.717a1.968,1.968,0,0,1-1.965,1.965H5.752a1.968,1.968,0,0,1-1.965-1.965V8.11A.393.393,0,0,0,3,8.11v2.358A2.755,2.755,0,0,0,5.752,13.22Z" fill="#f56735"/>
    <path id="Path_14" data-name="Path 14" d="M42.469,3a.393.393,0,1,0,0,.786,1.968,1.968,0,0,1,1.965,1.965v4.717a1.968,1.968,0,0,1-1.965,1.965H37.752a1.968,1.968,0,0,1-1.965-1.965V5.752a1.968,1.968,0,0,1,1.965-1.965H40.11a.393.393,0,1,0,0-.786H37.752A2.755,2.755,0,0,0,35,5.752v4.717a2.755,2.755,0,0,0,2.752,2.752h4.717a2.755,2.755,0,0,0,2.752-2.752V5.752A2.755,2.755,0,0,0,42.469,3Z" transform="translate(-19.421)" fill="#f56735"/>
    <path id="Path_15" data-name="Path 15" d="M42.469,35H37.752A2.755,2.755,0,0,0,35,37.752v4.717a2.755,2.755,0,0,0,2.752,2.752h4.717a2.755,2.755,0,0,0,2.752-2.752.393.393,0,1,0-.786,0,1.968,1.968,0,0,1-1.965,1.965H37.752a1.968,1.968,0,0,1-1.965-1.965V37.752a1.968,1.968,0,0,1,1.965-1.965h4.717a1.968,1.968,0,0,1,1.965,1.965V40.11a.393.393,0,1,0,.786,0V37.752A2.755,2.755,0,0,0,42.469,35Z" transform="translate(-19.421 -19.421)" fill="#f56735"/>
    <path id="Path_16" data-name="Path 16" d="M5.752,45.22a.393.393,0,1,0,0-.786,1.968,1.968,0,0,1-1.965-1.965V37.752a1.968,1.968,0,0,1,1.965-1.965h4.717a1.968,1.968,0,0,1,1.965,1.965v4.717a1.968,1.968,0,0,1-1.965,1.965H8.11a.393.393,0,1,0,0,.786h2.358a2.755,2.755,0,0,0,2.752-2.752V37.752A2.755,2.755,0,0,0,10.469,35H5.752A2.755,2.755,0,0,0,3,37.752v4.717A2.755,2.755,0,0,0,5.752,45.22Z" transform="translate(0 -19.421)" fill="#f56735"/>
  </g>
</svg>
