<svg xmlns="http://www.w3.org/2000/svg" width="17.645" height="17.645" viewBox="0 0 17.645 17.645">
  <g id="Group_25" data-name="Group 25" transform="translate(-180.49 -752.49)">
    <g id="noun_menu_396785" transform="translate(180.49 752.49)">
      <g id="Group_17" data-name="Group 17" transform="translate(0 0)">
        <g id="Group_16" data-name="Group 16" transform="translate(0 0)">
          <path id="Path_21" data-name="Path 21" d="M17.213,23.826a2.437,2.437,0,0,0-.209.242,2.143,2.143,0,0,0-.43,1.323,2.2,2.2,0,0,0,3.758,1.554,2.192,2.192,0,0,0,.209-2.877,2.184,2.184,0,0,0-1.763-.882,2.152,2.152,0,0,0-1.565.639m-3.284.231q-.1-.121-.22-.242a2.115,2.115,0,0,0-1.554-.639,2.152,2.152,0,0,0-1.565.639q-.11.121-.209.242a2.145,2.145,0,0,0-.43,1.323,2.2,2.2,0,0,0,2.2,2.2,2.22,2.22,0,0,0,2.2-2.2,2.145,2.145,0,0,0-.43-1.323m-1.774-7.495a2.183,2.183,0,0,0-2.2,2.2,2.2,2.2,0,0,0,2.2,2.2,2.22,2.22,0,0,0,2.2-2.2,2.2,2.2,0,0,0-2.2-2.2m2.2-4.409a2.213,2.213,0,0,0-3.769-1.565,2.152,2.152,0,0,0-.639,1.565,2.2,2.2,0,0,0,2.2,2.2,2.22,2.22,0,0,0,2.2-2.2m4.42,4.42a2.183,2.183,0,0,0-2.2,2.2,2.2,2.2,0,0,0,3.758,1.554,2.1,2.1,0,0,0,.65-1.554,2.2,2.2,0,0,0-2.2-2.2m2.2-4.409a2.206,2.206,0,1,0-2.2,2.2,2.22,2.22,0,0,0,2.2-2.2m5.963,14.78a2.1,2.1,0,0,0,.65-1.554,2.206,2.206,0,1,0-2.2,2.2,2.1,2.1,0,0,0,1.554-.65m0-6.613a2.1,2.1,0,0,0,.65-1.554,2.206,2.206,0,1,0-2.2,2.2,2.1,2.1,0,0,0,1.554-.65m.65-8.167a2.206,2.206,0,1,0-2.2,2.2,2.22,2.22,0,0,0,2.2-2.2Z" transform="translate(-9.95 -9.95)" fill="#fff"/>
        </g>
      </g>
    </g>
  </g>
</svg>
