<svg xmlns="http://www.w3.org/2000/svg" width="35" height="31.097" viewBox="0 0 35 31.097">
  <g id="noun_home_loan_1446595" data-name="noun_home loan_1446595" transform="translate(-1.829 -5.25)">
    <g id="Group_562" data-name="Group 562" transform="translate(1.829 5.25)">
      <path id="Path_3465" data-name="Path 3465" d="M48.7,46.8c.232-.058.406-.116.639-.174a1.973,1.973,0,0,0,1.278-1.568,1.894,1.894,0,0,0-.813-1.916,4.538,4.538,0,0,0-1.161-.639,6.934,6.934,0,0,1-.929-.465.942.942,0,0,1-.407-.987,1,1,0,0,1,.7-.813,2.623,2.623,0,0,1,1.161-.058,2.566,2.566,0,0,1,.929.348c.116-.232.174-.465.29-.755a.18.18,0,0,0-.058-.116,2.831,2.831,0,0,0-.639-.232c-.29-.058-.523-.116-.813-.174V38.5h-.755v.813a.213.213,0,0,0-.174.058,2.21,2.21,0,0,0-.987.465,1.776,1.776,0,0,0-.058,2.787,5.1,5.1,0,0,0,1.22.7,3.228,3.228,0,0,1,.987.523,1.157,1.157,0,0,1-.232,2.032,2.088,2.088,0,0,1-.639.116,3.221,3.221,0,0,1-1.626-.407c-.058,0-.116-.058-.174-.116-.058.232-.174.465-.232.7a.213.213,0,0,0,.058.174,2.566,2.566,0,0,0,.929.348c.29.058.523.058.813.116v.813h.813V46.8Z" transform="translate(-20.433 -19.191)" fill="#fe8d02"/>
      <g id="Group_561" data-name="Group 561" transform="translate(20.831 16.87)">
        <path id="Path_3466" data-name="Path 3466" d="M44.959,34.3h-.174a7.1,7.1,0,0,0-1.684,14,7.853,7.853,0,0,0,1.684.232A7.115,7.115,0,0,0,44.959,34.3Zm0,12.66h-.174a5.575,5.575,0,0,1,0-11.15h.174a5.578,5.578,0,0,1,0,11.15Z" transform="translate(-37.7 -34.3)" fill="#fe8d02"/>
      </g>
      <path id="Path_3467" data-name="Path 3467" d="M34.1,18.81,18.769,5.511a.911.911,0,0,0-1.278,0l-5.343,4.762V9.228A1.041,1.041,0,0,0,11.1,8.183H9.768A1.041,1.041,0,0,0,8.723,9.228v3.949L2.1,18.81a.876.876,0,0,0,.639,1.51H7.1v15.97h4.994V27.23A2.714,2.714,0,0,1,14.762,24.5a2.54,2.54,0,0,1,1.916.813,2.769,2.769,0,0,1,.813,1.916v9.117h9.059a7.775,7.775,0,0,1,3.078-14.866v-1.1h3.833A.926.926,0,0,0,34.1,18.81Zm-16.725-.174H15.285V14.57h2.091Zm3.6,0H18.885V14.57h2.091Z" transform="translate(-1.829 -5.25)" fill="#fe8d02"/>
    </g>
  </g>
</svg>
