<svg xmlns="http://www.w3.org/2000/svg" width="22.649" height="22.799" viewBox="0 0 22.649 22.799">
  <g id="noun_message_1365694" transform="translate(-9.786 -9.515)">
    <path id="Path_22" data-name="Path 22" d="M41.974,35H34.4a.845.845,0,1,0,0,1.69h7.569a.845.845,0,1,0,0-1.69Z" transform="translate(-17.079 -18.309)" fill="#fff"/>
    <path id="Path_23" data-name="Path 23" d="M41.974,47.45H34.4a.845.845,0,1,0,0,1.69h7.569a.845.845,0,1,0,0-1.69Z" transform="translate(-17.079 -27.253)" fill="#fff"/>
    <path id="Path_24" data-name="Path 24" d="M37.373,59.86H34.4a.845.845,0,1,0,0,1.69h2.968a.845.845,0,1,0,0-1.69Z" transform="translate(-17.079 -36.169)" fill="#fff"/>
    <path id="Path_25" data-name="Path 25" d="M20.778,9.519A11.3,11.3,0,0,0,12.158,27.76l-.938,2.2a1.69,1.69,0,0,0,1.847,2.326l4.331-.757a11.221,11.221,0,0,0,4.809.563A11.37,11.37,0,0,0,32.421,21.368,11.221,11.221,0,0,0,29.183,12.9a11.37,11.37,0,0,0-8.405-3.382Zm9.954,11.77a9.672,9.672,0,0,1-8.687,9.137,9.549,9.549,0,0,1-4.277-.563.845.845,0,0,0-.439-.039l-4.553.8L13.9,27.952a.845.845,0,0,0-.113-.876,9.63,9.63,0,1,1,16.943-5.787Z" fill="#fff"/>
  </g>
</svg>
