<svg xmlns="http://www.w3.org/2000/svg" width="27.324" height="22.799" viewBox="0 0 27.324 22.799">
  <g id="noun_loan_2084468" transform="translate(-0.581)">
    <g id="Group_3" data-name="Group 3" transform="translate(0.581 0)">
      <path id="Path_7" data-name="Path 7" d="M28.324,40.146a2.225,2.225,0,0,0-2.9-2.135L19.743,39.8l-1.281-.085a2.155,2.155,0,0,0,.384-.982A1.919,1.919,0,0,0,16.925,36.6H13a9.3,9.3,0,0,0-5.379-1.75H6.209V33.827a.4.4,0,0,0-.427-.427H1.427A.4.4,0,0,0,1,33.827v8.88a.4.4,0,0,0,.427.427H5.782a.4.4,0,0,0,.427-.427v-.726L14.662,44.5a3.876,3.876,0,0,0,.982.128,3.184,3.184,0,0,0,1.11-.171L28.025,40.53A.41.41,0,0,0,28.324,40.146ZM5.355,42.28h-3.5V34.254h3.5Zm11.1,1.366a2.842,2.842,0,0,1-1.58.043l-8.71-2.6V35.705H7.575a8.236,8.236,0,0,1,4.953,1.665.607.607,0,0,0,.256.085h4.1a1.09,1.09,0,1,1-.085,2.177l-3.971-.3a.429.429,0,1,0-.085.854l6.916.512h.171l5.764-1.836a1.4,1.4,0,0,1,1.793,1.025Z" transform="translate(-1 -21.83)" fill="#fff"/>
      <path id="Path_8" data-name="Path 8" d="M28.216,20.133h.043a6.922,6.922,0,0,0,4.867-2.049,7.057,7.057,0,0,0,2.007-4.91,6.746,6.746,0,0,0-2.049-4.867A6.956,6.956,0,0,0,28.216,6.3h-.043a6.917,6.917,0,0,0,.043,13.833ZM28.173,7.154h.043A6.115,6.115,0,0,1,32.485,8.9a6.063,6.063,0,0,1-4.227,10.375h-.043a6.063,6.063,0,0,1-.043-12.125Z" transform="translate(-12.633 -6.3)" fill="#fff"/>
      <path id="Path_9" data-name="Path 9" d="M31,19.075a4.486,4.486,0,0,0,2.519,1.11v.768h.64v-.726c1.324-.085,2.305-.811,2.305-2.092,0-1.366-.982-1.793-2.305-2.092h-.043V14.122a3.449,3.449,0,0,1,1.494.6l.64-.939a4.064,4.064,0,0,0-2.135-.768V12.5h-.64v.512a2.127,2.127,0,0,0-2.22,2.092c0,1.324.939,1.75,2.263,2.049V19.16a3.563,3.563,0,0,1-1.793-.9Zm4.269-.9c0,.555-.512.811-1.067.9V17.239C34.8,17.41,35.227,17.623,35.269,18.178Zm-2.732-3.287c0-.512.47-.811.982-.854V15.83C32.921,15.617,32.537,15.446,32.537,14.891Z" transform="translate(-18.192 -9.853)" fill="#fff"/>
    </g>
  </g>
</svg>
