<svg xmlns="http://www.w3.org/2000/svg" width="27.778" height="28" viewBox="0 0 27.778 28">
  <g id="noun_savings_4025079" transform="translate(-0.818 -0.773)">
    <g id="Group_566" data-name="Group 566" transform="translate(0.818 0.773)">
      <path id="Path_3481" data-name="Path 3481" d="M6.854,7.463c0,.152,0,.239,0,.326A1.87,1.87,0,0,0,5.594,9.07a1.822,1.822,0,0,0,.436,1.722,2.943,2.943,0,0,0,1.343.774,2.627,2.627,0,0,1,.79.358c.665.665-1.009,1.415-1.28.4a.664.664,0,0,0-1.309.221,1.833,1.833,0,0,0,.838,1.282,2.382,2.382,0,0,0,.442.188c0,.072,0,.142,0,.315a.664.664,0,0,0,1.328,0c0-.158,0-.222,0-.288a1.961,1.961,0,0,0,1.4-1.279c.193-.639-.04-1.94-1.78-2.453-.605-.178-1.056-.394-.926-.88a.742.742,0,0,1,1.4.03.663.663,0,1,0,1.309-.215,2.056,2.056,0,0,0-1.4-1.5c0-.076,0-.15,0-.28a.663.663,0,0,0-.657-.668A.678.678,0,0,0,6.854,7.463Z" transform="translate(6.304 8.321)" fill="#fff"/>
      <path id="Path_3482" data-name="Path 3482" d="M14.674,3.188,4.926,11.7v9.455H4.108a.664.664,0,0,0-.667.662V23.8H1.494a.664.664,0,0,0,0,1.328H27.217a.664.664,0,0,0,0-1.328h-1.29V21.816a.664.664,0,0,0-.663-.662h-.823V11.688C21.219,8.881,17.924,6.016,14.674,3.188ZM12.815,8.519q1.857.008,3.741,0L15.71,10.23a4.5,4.5,0,0,0-2.047,0Zm1.868,2.922a4.576,4.576,0,0,1,3.463,1.854A6.616,6.616,0,0,1,19.64,17.31v3.845H9.726V17.31a6.618,6.618,0,0,1,1.5-4.015,4.573,4.573,0,0,1,3.461-1.854Z" transform="translate(-0.796 2.874)" fill="#fff"/>
      <path id="Path_3483" data-name="Path 3483" d="M14.667.773a2.285,2.285,0,0,0-1.639.733L1.692,11.4a2.581,2.581,0,0,0-.254,3.614,2.5,2.5,0,0,0,1.056.715L14.259,5.454a.622.622,0,0,1,.873,0L26.925,15.72A2.533,2.533,0,0,0,27.986,15a2.576,2.576,0,0,0-.267-3.6L16.382,1.506A2.469,2.469,0,0,0,14.667.773Z" transform="translate(-0.818 -0.773)" fill="#fff"/>
    </g>
  </g>
</svg>
