<svg xmlns="http://www.w3.org/2000/svg" width="61.906" height="61.902" viewBox="0 0 61.906 61.902">
  <g id="noun_scholarship_4308191" transform="translate(-1.247 -15.863)">
    <path id="Path_3656" data-name="Path 3656" d="M170.03,26.672v6.744a1.035,1.035,0,0,0,1.032,1.032,1.082,1.082,0,0,0,.567-.168l2.527-1.676,2.527,1.676a1.024,1.024,0,0,0,1.432-.28,1.006,1.006,0,0,0,.168-.567V26.672a6.192,6.192,0,1,0-8.742-.49,4.391,4.391,0,0,0,.489.49Zm4.126-8.73a4.124,4.124,0,1,1-2.918,1.208,4.126,4.126,0,0,1,2.918-1.208Z" transform="translate(-147.12)" fill="#fe8d02"/>
    <path id="Path_3657" data-name="Path 3657" d="M265.032,18.063H277.41v13.41a1.032,1.032,0,1,0,2.063,0V17.032A1.035,1.035,0,0,0,278.442,16h-13.41a1.032,1.032,0,1,0,0,2.063Z" transform="translate(-230.774 -0.12)" fill="#fe8d02"/>
    <path id="Path_3658" data-name="Path 3658" d="M29.41,61.388H22.189V18.063H34.568a1.032,1.032,0,1,0,0-2.063H21.158a1.035,1.035,0,0,0-1.032,1.032V61.388H17.032A1.035,1.035,0,0,0,16,62.42v4.126A5.156,5.156,0,0,0,21.158,71.7h7.221a1.032,1.032,0,0,0,0-2.063H21.158a3.1,3.1,0,0,1-3.095-3.095v-3.09H29.41a1.032,1.032,0,0,0,0-2.063Z" transform="translate(-14.753 -0.12)" fill="#fe8d02"/>
    <path id="Path_3659" data-name="Path 3659" d="M105.032,184a1.032,1.032,0,1,0,0,2.063h3.1a1.032,1.032,0,1,0,0-2.063Z" transform="translate(-91.405 -146.458)" fill="#fe8d02"/>
    <path id="Path_3660" data-name="Path 3660" d="M87.221,224H81.032a1.032,1.032,0,0,0,0,2.063h6.189a1.032,1.032,0,0,0,0-2.063Z" transform="translate(-70.5 -181.3)" fill="#fe8d02"/>
    <path id="Path_3661" data-name="Path 3661" d="M85.158,264H81.032a1.032,1.032,0,0,0,0,2.063h4.126a1.032,1.032,0,0,0,0-2.063Z" transform="translate(-70.5 -216.142)" fill="#fe8d02"/>
    <path id="Path_3662" data-name="Path 3662" d="M85.158,304H81.032a1.032,1.032,0,1,0,0,2.063h4.126a1.032,1.032,0,1,0,0-2.063Z" transform="translate(-70.5 -250.984)" fill="#fe8d02"/>
    <circle id="Ellipse_311" data-name="Ellipse 311" cx="3.095" cy="3.095" r="3.095" transform="translate(37.352 61.268)" fill="#fe8d02"/>
    <path id="Path_3663" data-name="Path 3663" d="M188.357,159.43a1.035,1.035,0,0,0,1.032-1.032v-6.189a1.038,1.038,0,0,0-.7-.98l-20.631-7.221a1.035,1.035,0,0,0-.683,0l-20.631,7.221a1.032,1.032,0,0,0,0,1.947l4.461,1.56V165.67a17.735,17.735,0,0,1-2.7-1.277l-2.966-1.728a1.033,1.033,0,0,0-1.547.89v20.451a1.024,1.024,0,0,0,.516.89l2.979,1.741a19.943,19.943,0,0,0,19.883.09l2.992-1.715a17.812,17.812,0,0,1,17.5-.1,1.036,1.036,0,0,0,1.4-.4.975.975,0,0,0,.129-.5V163.556a1.041,1.041,0,0,0-.529-.9,19.981,19.981,0,0,0-4.629-1.857v-6.06l3.1-1.083V158.4a1.015,1.015,0,0,0,1.019,1.03Zm-19.6.735,13.41-4.694v4.913a19.018,19.018,0,0,0-2.966-.219h-.116a20.064,20.064,0,0,0-9.748,2.618l-.58.335Zm-15.473-4.694,13.41,4.694v4.126l-.348.193a17.831,17.831,0,0,1-13.062,1.831Zm-5.158,14.88a1.035,1.035,0,0,1,1.032-1.032,1.1,1.1,0,0,1,.451.1,17.464,17.464,0,0,0,6.821,1.8,1.034,1.034,0,1,1-.129,2.063h0a19.991,19.991,0,0,1-6.125-1.354v1.934a1.032,1.032,0,0,1-2.063,0v-3.52Zm9.284,13.862a1.031,1.031,0,0,1-1.032.967h-.064a19.691,19.691,0,0,1-7.621-2.024,1.034,1.034,0,0,1-.58-.928v-3.2a1.032,1.032,0,0,1,2.063,0v2.553a17.482,17.482,0,0,0,6.254,1.534,1.047,1.047,0,0,1,.98,1.1Zm1.083-5.029c-.322.013-.658.026-.98.026a19.861,19.861,0,0,1-4.449-.5,1.032,1.032,0,1,1,.464-2.012h0a17.7,17.7,0,0,0,4.874.426,1.036,1.036,0,0,1,1.083.98,1.055,1.055,0,0,1-.993,1.083Zm8.2,1.908a5.158,5.158,0,1,1,5.158-5.158,5.158,5.158,0,0,1-5.158,5.158Zm7.221-7.8a1.035,1.035,0,0,1-1.032-1.032,1.022,1.022,0,0,1,.748-.993,19.909,19.909,0,0,1,6.525-.774,1.033,1.033,0,1,1-.1,2.063,17.962,17.962,0,0,0-5.854.7,1.006,1.006,0,0,1-.286.035Zm11.347,4.9a1.035,1.035,0,0,1-1.032,1.032.98.98,0,0,1-.271-.039,17.659,17.659,0,0,0-6.821-.529,1.032,1.032,0,1,1-.245-2.05h0a19.911,19.911,0,0,1,6.305.271v-3a1.032,1.032,0,1,1,2.063,0ZM184.5,165.31a1.033,1.033,0,0,1,.761.993v2.411a1.032,1.032,0,1,1-2.063,0V167.1a17.8,17.8,0,0,0-6.073-.335,1.032,1.032,0,1,1-.245-2.05,19.975,19.975,0,0,1,7.62.6Z" transform="translate(-126.248 -111.572)" fill="#fe8d02"/>
    <path id="Path_3664" data-name="Path 3664" d="M408.09,69.261a6.178,6.178,0,0,1,4.964,4.964.124.124,0,0,0,.116.09.127.127,0,0,0,.09-.09,6.178,6.178,0,0,1,4.964-4.964.124.124,0,0,0,.09-.116.127.127,0,0,0-.09-.09,6.178,6.178,0,0,1-4.964-4.964.124.124,0,0,0-.116-.09.127.127,0,0,0-.09.09,6.178,6.178,0,0,1-4.964,4.964.124.124,0,0,0-.09.116.11.11,0,0,0,.09.09Z" transform="translate(-356.206 -41.931)" fill="#fe8d02"/>
  </g>
</svg>
