<svg id="Symbol" xmlns="http://www.w3.org/2000/svg" width="19.143" height="19.326" viewBox="0 0 19.143 19.326">
  <path id="Symbol-2" data-name="Symbol" d="M0,1.616A7.793,7.793,0,0,0,4.547.152L9.366,4.971a1.159,1.159,0,0,0,.834.335,1.114,1.114,0,0,0,1.128-1.159A1.12,1.12,0,0,0,11,3.334l-4.788-4.8A7.787,7.787,0,0,0,7.821-6.2,7.84,7.84,0,0,0,0-14.02,7.84,7.84,0,0,0-7.815-6.2,7.84,7.84,0,0,0,0,1.616ZM0-.072A6.17,6.17,0,0,1-6.128-6.2,6.17,6.17,0,0,1,0-12.332,6.17,6.17,0,0,1,6.133-6.2,6.17,6.17,0,0,1,0-.072Z" transform="translate(7.815 14.02)" fill="#fff"/>
</svg>
