<svg xmlns="http://www.w3.org/2000/svg" width="28" height="28" viewBox="0 0 28 28">
  <g id="noun_Settings_355455" transform="translate(-7.28 -5)">
    <g id="Group_27" data-name="Group 27" transform="translate(7.28 5)">
      <path id="Path_30" data-name="Path 30" d="M7.483,24.289l2.062,3.422a1.568,1.568,0,0,0,1.963.591l1.9-.84a12.394,12.394,0,0,0,4.09,2.271l.2,1.96A1.472,1.472,0,0,0,19.2,33h4.156a1.472,1.472,0,0,0,1.505-1.307l.2-1.96a12.076,12.076,0,0,0,4.09-2.271l1.9.84a1.568,1.568,0,0,0,1.963-.591l2.062-3.422a1.41,1.41,0,0,0-.425-1.9l-1.7-1.12A10.3,10.3,0,0,0,33.171,19a13.049,13.049,0,0,0-.229-2.271l1.7-1.12a1.379,1.379,0,0,0,.425-1.9l-2.062-3.422A1.568,1.568,0,0,0,31.044,9.7l-1.9.84a12.394,12.394,0,0,0-4.09-2.271l-.2-1.96A1.556,1.556,0,0,0,23.321,5H19.2a1.472,1.472,0,0,0-1.505,1.307l-.2,1.96a12.076,12.076,0,0,0-4.09,2.271l-1.9-.84a1.568,1.568,0,0,0-1.963.591L7.483,13.711a1.41,1.41,0,0,0,.425,1.9l1.7,1.151A10.216,10.216,0,0,0,9.381,19a12.7,12.7,0,0,0,.229,2.24l-1.7,1.151A1.41,1.41,0,0,0,7.483,24.289ZM21.26,12.778A6.408,6.408,0,0,1,27.8,19a6.408,6.408,0,0,1-6.545,6.222A6.408,6.408,0,0,1,14.715,19,6.388,6.388,0,0,1,21.26,12.778Z" transform="translate(-7.28 -5)" fill="#fff"/>
    </g>
  </g>
</svg>
