<svg xmlns="http://www.w3.org/2000/svg" width="10.942" height="22.847" viewBox="0 0 10.942 22.847">
  <path id="Path_1641" data-name="Path 1641" d="M45.973,23.9H42.5a2.227,2.227,0,0,0-2.468,1.935V41.328A2.377,2.377,0,0,0,42.5,43.6h1.19a2.377,2.377,0,0,0,2.468-2.267V29.021H44.888V41.333a1.112,1.112,0,0,1-1.195.994H42.5a1.112,1.112,0,0,1-1.2-.994V26.167a1.112,1.112,0,0,1,1.2-.994h3.471c.687,0,1.2.35,1.2.665V44.808c0,.315-.512.665-1.2.665H39.846c-.626,0-1.064-.35-1.064-.661V28.461H37.5V44.812a2.165,2.165,0,0,0,2.337,1.935H46.1a2.174,2.174,0,0,0,2.337-1.935h0V25.839A2.235,2.235,0,0,0,45.973,23.9Z" transform="translate(-37.5 -23.9)" fill="#f56735"/>
</svg>
