<svg xmlns="http://www.w3.org/2000/svg" width="20.264" height="20.264" viewBox="0 0 20.264 20.264">
  <g id="noun_Calculator_4289706" transform="translate(-8.5 -8.5)">
    <g id="Group_225" data-name="Group 225" transform="translate(8.5 8.5)">
      <path id="Path_2439" data-name="Path 2439" d="M15.165,8.5H11.379A2.882,2.882,0,0,0,8.5,11.379v3.787a2.882,2.882,0,0,0,2.879,2.879h3.787a2.882,2.882,0,0,0,2.879-2.879V11.379A2.882,2.882,0,0,0,15.165,8.5Zm.31,5.137H13.637v1.838a.366.366,0,1,1-.732,0V13.637H11.068a.366.366,0,1,1,0-.732H12.9V11.068a.366.366,0,1,1,.732,0V12.9h1.838a.366.366,0,0,1,0,.732Z" transform="translate(-8.5 -8.5)" fill="#f56735"/>
      <path id="Path_2440" data-name="Path 2440" d="M59.075,8.5H55.289a2.882,2.882,0,0,0-2.879,2.879v3.787a2.882,2.882,0,0,0,2.879,2.879h3.787a2.882,2.882,0,0,0,2.879-2.879V11.379A2.882,2.882,0,0,0,59.075,8.5Zm.31,5.137H54.978a.366.366,0,0,1,0-.732h4.407a.366.366,0,0,1,0,.732Z" transform="translate(-41.689 -8.5)" fill="#f56735"/>
      <path id="Path_2441" data-name="Path 2441" d="M15.165,52.41H11.379A2.882,2.882,0,0,0,8.5,55.289v3.787a2.882,2.882,0,0,0,2.879,2.879h3.787a2.882,2.882,0,0,0,2.879-2.879V55.289A2.882,2.882,0,0,0,15.165,52.41Zm-.076,6.07a.368.368,0,0,1-.52.52l-1.3-1.3-1.3,1.3a.368.368,0,1,1-.52-.52l1.3-1.3-1.3-1.3a.368.368,0,1,1,.52-.52l1.3,1.3,1.3-1.3a.368.368,0,1,1,.52.52l-1.3,1.3Z" transform="translate(-8.5 -41.689)" fill="#f56735"/>
      <path id="Path_2442" data-name="Path 2442" d="M59.075,52.41H55.289a2.882,2.882,0,0,0-2.879,2.879v3.787a2.882,2.882,0,0,0,2.879,2.879h3.787a2.882,2.882,0,0,0,2.879-2.879V55.289A2.882,2.882,0,0,0,59.075,52.41Zm-4.463,6.24a.366.366,0,0,1,.366-.366h4.407a.366.366,0,0,1,0,.732H54.978A.366.366,0,0,1,54.612,58.65Zm4.773-2.571H54.978a.366.366,0,0,1,0-.732h4.407a.366.366,0,0,1,0,.732Z" transform="translate(-41.689 -41.689)" fill="#f56735"/>
    </g>
  </g>
</svg>
