<svg xmlns="http://www.w3.org/2000/svg" width="30.663" height="30.663" viewBox="0 0 30.663 30.663">
  <g id="noun_call_1355711" transform="translate(0)">
    <path id="Path_1638" data-name="Path 1638" d="M16.631,1.3A15.331,15.331,0,1,0,31.963,16.631,15.33,15.33,0,0,0,16.631,1.3Zm2.3,22.761a15.294,15.294,0,0,1-8.626-11.3c-.252-2.141,3.463-4.03,3.463-4.03L16.1,12.7s-2.519,1.354-2.172,2.078a12.86,12.86,0,0,0,4.25,5.352c.787.283,2.519-1.637,2.519-1.637l3.337,3.148C24.061,21.637,21.259,25.194,18.93,24.061Z" transform="translate(-1.3 -1.3)" fill="#fff"/>
    <path id="Path_1639" data-name="Path 1639" d="M16.631,1.3A15.331,15.331,0,1,0,31.963,16.631,15.33,15.33,0,0,0,16.631,1.3Zm2.3,22.761a15.294,15.294,0,0,1-8.626-11.3c-.252-2.141,3.463-4.03,3.463-4.03L16.1,12.7s-2.519,1.354-2.172,2.078a12.86,12.86,0,0,0,4.25,5.352c.787.283,2.519-1.637,2.519-1.637l3.337,3.148C24.061,21.637,21.259,25.194,18.93,24.061Z" transform="translate(-1.3 -1.3)" fill="#fff"/>
  </g>
</svg>
