<svg xmlns="http://www.w3.org/2000/svg" width="18.689" height="20.998" viewBox="0 0 18.689 20.998">
  <g id="noun_Delet_4151532_1_" data-name="noun_Delet_4151532 (1)" transform="translate(0 0.001)">
    <g id="_01" data-name="01" transform="translate(0 -0.001)">
      <path id="Path_1663" data-name="Path 1663" d="M6.336,20.918a3.115,3.115,0,0,0,3.115,3.115h7.787a3.115,3.115,0,0,0,3.115-3.115V8.459h1.557a.779.779,0,1,0,0-1.557H17.947a4.672,4.672,0,0,0-9.2,0H4.779a.779.779,0,1,0,0,1.557H6.336ZM13.345,4.565A3.115,3.115,0,0,1,16.358,6.9H10.331A3.115,3.115,0,0,1,13.345,4.565ZM9.451,8.459H18.8V20.918a1.557,1.557,0,0,1-1.557,1.557H9.451a1.557,1.557,0,0,1-1.557-1.557V8.459Zm.779,10.9V11.574a.779.779,0,0,1,1.557,0v7.787a.779.779,0,0,1-1.557,0Zm4.672,0V11.574a.779.779,0,0,1,1.557,0v7.787a.779.779,0,0,1-1.557,0Z" transform="translate(-4 -3.035)" fill="#f56735"/>
    </g>
  </g>
</svg>
