<svg xmlns="http://www.w3.org/2000/svg" width="20.999" height="20.998" viewBox="0 0 20.999 20.998">
  <g id="noun_visibility_3905838" transform="translate(0)">
    <g id="Group_146" data-name="Group 146" transform="translate(0 0)">
      <path id="Path_2285" data-name="Path 2285" d="M12.5,15.3a2.8,2.8,0,1,1,0-5.6A2.8,2.8,0,1,1,12.5,15.3ZM23,12.5A10.5,10.5,0,1,1,12.5,2,10.5,10.5,0,0,1,23,12.5Zm-2.415.973a1.657,1.657,0,0,0,0-1.946,10.1,10.1,0,0,0-8.085-4.5,10.1,10.1,0,0,0-8.085,4.5,1.657,1.657,0,0,0,0,1.946A10.1,10.1,0,0,0,12.5,17.967,10.1,10.1,0,0,0,20.584,13.472Z" transform="translate(-2 -2)" fill="#f56735"/>
    </g>
  </g>
</svg>
