<svg xmlns="http://www.w3.org/2000/svg" width="31.254" height="30.916" viewBox="0 0 31.254 30.916">
  <g id="noun_feedback_4412854" transform="translate(-2.467 -34.671)">
    <g id="Group_564" data-name="Group 564" transform="translate(2.467 34.671)">
      <path id="Path_3469" data-name="Path 3469" d="M38.762,34.671a5.855,5.855,0,1,0,5.855,5.855A5.862,5.862,0,0,0,38.762,34.671Zm0,10.669a4.814,4.814,0,1,1,4.814-4.814A4.82,4.82,0,0,1,38.762,45.34Z" transform="translate(-32.907 -34.671)" fill="#f56735"/>
      <path id="Path_3470" data-name="Path 3470" d="M222.063,34.671a5.8,5.8,0,0,0-3.618,1.287,5.855,5.855,0,1,0,0,9.136,5.8,5.8,0,0,0,3.618,1.287,5.855,5.855,0,1,0,0-11.71Zm-12.055,5.855a4.788,4.788,0,0,1,7.675-3.846,5.842,5.842,0,0,0-.993,1.528h-.051a.521.521,0,0,0-.521.521.514.514,0,0,0,.263.442,5.651,5.651,0,0,0,1.3,5.2,4.789,4.789,0,0,1-7.676-3.846Zm12.055,4.814a4.814,4.814,0,1,1,4.814-4.814A4.819,4.819,0,0,1,222.063,45.34Z" transform="translate(-196.666 -34.671)" fill="#f56735"/>
      <path id="Path_3471" data-name="Path 3471" d="M72.378,85.819a.521.521,0,0,0-.521-.521H71.2a.521.521,0,1,0,0,1.041h.656A.521.521,0,0,0,72.378,85.819Z" transform="translate(-68.042 -81.761)" fill="#f56735"/>
      <path id="Path_3472" data-name="Path 3472" d="M136.029,85.3h-.656a.521.521,0,0,0,0,1.041h.656a.521.521,0,1,0,0-1.041Z" transform="translate(-127.73 -81.762)" fill="#f56735"/>
      <path id="Path_3473" data-name="Path 3473" d="M361.153,85.819a.521.521,0,0,0-.521-.521h-.655a.521.521,0,1,0,0,1.041h.655A.521.521,0,0,0,361.153,85.819Z" transform="translate(-336.64 -81.761)" fill="#f56735"/>
      <path id="Path_3474" data-name="Path 3474" d="M424.8,85.3h-.656a.521.521,0,1,0,0,1.041h.656a.521.521,0,1,0,0-1.041Z" transform="translate(-396.32 -81.762)" fill="#f56735"/>
      <path id="Path_3475" data-name="Path 3475" d="M248.335,85.3h-.656a.521.521,0,0,0,0,1.041h.656a.521.521,0,1,0,0-1.041Z" transform="translate(-232.189 -81.762)" fill="#f56735"/>
      <path id="Path_3476" data-name="Path 3476" d="M94.4,129.466a1.632,1.632,0,0,1-1.157.548,1.056,1.056,0,0,1-.668-.445.521.521,0,0,0-.886.548,2.075,2.075,0,0,0,1.408.928,1.85,1.85,0,0,0,.244.016,2.633,2.633,0,0,0,1.772-.837.521.521,0,0,0-.713-.759Z" transform="translate(-87.513 -122.711)" fill="#f56735"/>
      <path id="Path_3477" data-name="Path 3477" d="M381.873,129.345a2.069,2.069,0,0,0-1.407.928.52.52,0,1,0,.887.544,1.057,1.057,0,0,1,.658-.44,1.613,1.613,0,0,1,1.166.547.52.52,0,1,0,.712-.759A2.476,2.476,0,0,0,381.873,129.345Z" transform="translate(-356.11 -122.715)" fill="#f56735"/>
      <path id="Path_3478" data-name="Path 3478" d="M275.333,134.307h-1.748a.521.521,0,1,0,0,1.041h1.748a.521.521,0,1,0,0-1.041Z" transform="translate(-256.284 -127.345)" fill="#f56735"/>
      <path id="Path_3479" data-name="Path 3479" d="M206.893,209.523a1.886,1.886,0,0,0-2.461-1.02,1.836,1.836,0,0,0-.7.542,1.862,1.862,0,0,0-3.2-.371,1.847,1.847,0,0,0-.743-.6,1.876,1.876,0,0,0-1.441,0,1.848,1.848,0,0,0-.692.53l-1.491-3.6a1.884,1.884,0,0,0-3.481,1.441l4.256,10.281-1.823-.608a2.195,2.195,0,0,0-1.389,4.164l6.446,2.151a9.476,9.476,0,0,0,2.992.5,7.747,7.747,0,0,0,1.64-.17,5.793,5.793,0,0,0,3.933-2.527,6.551,6.551,0,0,0,.618-4.751Zm.961,10.163a4.8,4.8,0,0,1-3.264,2.057,7.785,7.785,0,0,1-4.083-.306l-6.447-2.151a1.152,1.152,0,1,1,.73-2.186l2.9.969a.511.511,0,0,0,.124.014c.015,0,.027.012.042.012s.016,0,.024,0a.511.511,0,0,0,.083-.017.48.48,0,0,0,.093-.019c.007,0,.011-.009.018-.012a.507.507,0,0,0,.076-.051.513.513,0,0,0,.087-.067.524.524,0,0,0,.046-.07.512.512,0,0,0,.057-.1c0-.006.008-.011.01-.017a.478.478,0,0,0,0-.3.49.49,0,0,0-.014-.068l-4.692-11.335a.843.843,0,0,1,1.557-.645l2.191,5.294a.52.52,0,0,0,.961-.4l-.064-.156v0a.843.843,0,0,1,1.557-.644l.43,1.04,0,.006a.509.509,0,0,0,.174.211.466.466,0,0,0,.054.036.514.514,0,0,0,.251.076h0a.536.536,0,0,0,.1-.021.5.5,0,0,0,.1-.018.523.523,0,0,0,.172-.116.514.514,0,0,0,.1-.153s.007-.009.009-.013a.539.539,0,0,0,.015-.073.508.508,0,0,0-.014-.325.843.843,0,0,1,.456-1.1.845.845,0,0,1,1.1.456l.61,1.472a.506.506,0,0,0,.174.211.494.494,0,0,0,.051.034.506.506,0,0,0,.255.076h0a.505.505,0,0,0,.2-.041.519.519,0,0,0,.281-.68.848.848,0,0,1,.456-1.1.848.848,0,0,1,1.1.458l2.443,5.89A5.562,5.562,0,0,1,207.854,219.686Z" transform="translate(-181.099 -192.014)" fill="#f56735"/>
    </g>
  </g>
</svg>
