<svg xmlns="http://www.w3.org/2000/svg" width="36.661" height="31.916" viewBox="0 0 36.661 31.916">
  <g id="noun_Friend_3670100" transform="translate(-21.097 57.707)">
    <g id="Group_563" data-name="Group 563" transform="translate(21.597 -57.207)">
      <path id="Path_3468" data-name="Path 3468" d="M10.969.793A7.117,7.117,0,0,0,5.7,12.71,5.958,5.958,0,0,0,.264,18.623v9.512a3.6,3.6,0,0,0,3.573,3.573H6.214a1.19,1.19,0,0,0,0-2.38H3.837a1.171,1.171,0,0,1-1.2-1.193V18.623a3.534,3.534,0,0,1,3.573-3.561h9.512a3.525,3.525,0,0,1,3.561,3.561v9.512a1.169,1.169,0,0,1-1.193,1.193H15.726a1.19,1.19,0,0,0,0,2.38h2.368a3.542,3.542,0,0,0,2.38-.94,3.529,3.529,0,0,0,2.377.94h9.512a3.587,3.587,0,0,0,3.561-3.573V23.381a5.938,5.938,0,0,0-3.91-5.56,5.885,5.885,0,0,0,1.542-3.942,5.945,5.945,0,1,0-11.889,0A5.89,5.89,0,0,0,23.2,17.82a5.9,5.9,0,0,0-1.535.838v-.035a5.95,5.95,0,0,0-5.43-5.913A7.121,7.121,0,0,0,10.969.793Zm0,2.377A4.757,4.757,0,1,1,6.214,7.927,4.741,4.741,0,0,1,10.969,3.17ZM27.606,10.3a3.567,3.567,0,1,1-3.561,3.573A3.56,3.56,0,0,1,27.606,10.3Zm-2.377,9.512h4.755a3.536,3.536,0,0,1,3.573,3.564v4.755a1.169,1.169,0,0,1-1.193,1.193H22.851a1.161,1.161,0,0,1-1.184-1.193V23.381A3.527,3.527,0,0,1,25.229,19.817Zm-14.262,9.51a1.189,1.189,0,1,0,1.189,1.189A1.189,1.189,0,0,0,10.967,29.326Z" transform="translate(-0.264 -0.793)" fill="#f56735" stroke="#eff6ff" stroke-width="1"/>
    </g>
  </g>
</svg>
