<svg xmlns="http://www.w3.org/2000/svg" xmlns:xlink="http://www.w3.org/1999/xlink" width="240.374" height="45.851" viewBox="0 0 240.374 45.851">
  <defs>
    <linearGradient id="linear-gradient" x1="0.5" x2="0.5" y2="1" gradientUnits="objectBoundingBox">
      <stop offset="0" stop-color="#ff9b14"/>
      <stop offset="1" stop-color="#ec831d"/>
    </linearGradient>
    <linearGradient id="linear-gradient-2" x1="0.5" x2="0.5" y2="1" gradientUnits="objectBoundingBox">
      <stop offset="0" stop-color="#ff9c14"/>
      <stop offset="1" stop-color="#ff8a20"/>
    </linearGradient>
    <linearGradient id="linear-gradient-4" x1="0.5" x2="0.5" y2="1" gradientUnits="objectBoundingBox">
      <stop offset="0" stop-color="#ff9b14"/>
      <stop offset="1" stop-color="#ff8a22"/>
    </linearGradient>
    <linearGradient id="linear-gradient-5" x1="0.5" x2="0.5" y2="1" gradientUnits="objectBoundingBox">
      <stop offset="0" stop-color="#ff9a14"/>
      <stop offset="1" stop-color="#ff8a21"/>
    </linearGradient>
    <clipPath id="clip-path">
      <rect id="Rectangle_2169" data-name="Rectangle 2169" width="28.982" height="37.301" transform="translate(0 0)" fill="url(#linear-gradient)"/>
    </clipPath>
    <clipPath id="clip-path-2">
      <rect id="Rectangle_2170" data-name="Rectangle 2170" width="24.521" height="28.11" transform="translate(0 -0.001)" fill="url(#linear-gradient-2)"/>
    </clipPath>
    <clipPath id="clip-path-3">
      <rect id="Rectangle_2171" data-name="Rectangle 2171" width="35.108" height="37" fill="url(#linear-gradient)"/>
    </clipPath>
  </defs>
  <g id="Group_7" data-name="Group 7" transform="translate(-98.626 -423)">
    <path id="Path_1" data-name="Path 1" d="M33.094-34.75v37H27.066V-13.934H9.777V2.25H3.75v-37H9.777v15.865H27.066V-34.75Z" transform="translate(94.876 457.75)" fill="url(#linear-gradient-4)"/>
    <path id="Path_2" data-name="Path 2" d="M1.85-13.9a15.247,15.247,0,0,1,1.725-7.35,12.644,12.644,0,0,1,4.7-4.975A12.591,12.591,0,0,1,14.85-28a12.027,12.027,0,0,1,5.675,1.275A11.517,11.517,0,0,1,24.4-23.55v-4h5.75V0H24.4V-4.1A11.32,11.32,0,0,1,20.45-.85a12.174,12.174,0,0,1-5.7,1.3,12.114,12.114,0,0,1-6.5-1.825,12.943,12.943,0,0,1-4.675-5.1A15.689,15.689,0,0,1,1.85-13.9Zm22.55.1a9.976,9.976,0,0,0-1.175-4.95,8.248,8.248,0,0,0-3.075-3.2,8.045,8.045,0,0,0-4.1-1.1,8.189,8.189,0,0,0-4.1,1.075,8.107,8.107,0,0,0-3.075,3.15A9.835,9.835,0,0,0,7.7-13.9a10.263,10.263,0,0,0,1.175,5,8.29,8.29,0,0,0,3.1,3.275A7.951,7.951,0,0,0,16.05-4.5a8.045,8.045,0,0,0,4.1-1.1,8.207,8.207,0,0,0,3.075-3.225A10.119,10.119,0,0,0,24.4-13.8Z" transform="translate(128.376 459.55)" fill="url(#linear-gradient-5)"/>
    <path id="Path_3" data-name="Path 3" d="M13.75.45A13.88,13.88,0,0,1,7.925-.725a10.231,10.231,0,0,1-4.075-3.2A7.976,7.976,0,0,1,2.25-8.45h5.9A4.023,4.023,0,0,0,9.825-5.525,6.082,6.082,0,0,0,13.65-4.35a6.442,6.442,0,0,0,3.725-.925A2.791,2.791,0,0,0,18.7-7.65a2.439,2.439,0,0,0-1.475-2.3A27.648,27.648,0,0,0,12.55-11.6,45.121,45.121,0,0,1,7.5-13.25,8.853,8.853,0,0,1,4.125-15.7,6.421,6.421,0,0,1,2.7-20.05,6.784,6.784,0,0,1,4-24.075,8.657,8.657,0,0,1,7.725-26.95,13.918,13.918,0,0,1,13.3-28a11.512,11.512,0,0,1,7.575,2.375A8.528,8.528,0,0,1,23.95-19.15h-5.7a4.06,4.06,0,0,0-1.5-2.95,5.609,5.609,0,0,0-3.65-1.1,5.925,5.925,0,0,0-3.45.85,2.632,2.632,0,0,0-1.2,2.25,2.435,2.435,0,0,0,.8,1.85,5.7,5.7,0,0,0,1.95,1.175q1.15.425,3.4,1.075a36.986,36.986,0,0,1,4.925,1.625A9.169,9.169,0,0,1,22.85-11.95,6.416,6.416,0,0,1,24.3-7.7,7.128,7.128,0,0,1,23-3.5,8.619,8.619,0,0,1,19.325-.6,13.693,13.693,0,0,1,13.75.45Z" transform="translate(158.533 459.55)" fill="url(#linear-gradient-2)"/>
    <path id="Path_4" data-name="Path 4" d="M18-28a11.554,11.554,0,0,1,5.625,1.35,9.609,9.609,0,0,1,3.9,4,13.348,13.348,0,0,1,1.425,6.4V0H23.3V-15.4a8,8,0,0,0-1.85-5.675A6.584,6.584,0,0,0,16.4-23.05a6.665,6.665,0,0,0-5.075,1.975A7.929,7.929,0,0,0,9.45-15.4V0H3.75V-37h5.7v12.65a9.557,9.557,0,0,1,3.675-2.7A12.287,12.287,0,0,1,18-28Z" transform="translate(181.426 460)" fill="url(#linear-gradient-2)"/>
    <path id="Path_6" data-name="Path 6" d="M9.45-34.75V-6.3H3.75V-34.75Z" transform="translate(270.855 466.3)" fill="url(#linear-gradient)"/>
    <path id="Path_7" data-name="Path 7" d="M17.65-28a12.354,12.354,0,0,1,5.825,1.35,9.6,9.6,0,0,1,4.025,4,13.158,13.158,0,0,1,1.45,6.4V0H23.3V-15.4a8,8,0,0,0-1.85-5.675A6.584,6.584,0,0,0,16.4-23.05a6.665,6.665,0,0,0-5.075,1.975A7.929,7.929,0,0,0,9.45-15.4V0H3.75V-27.55h5.7v3.15a9.435,9.435,0,0,1,3.575-2.65A11.428,11.428,0,0,1,17.65-28Z" transform="translate(278.812 459.55)" fill="url(#linear-gradient)"/>
    <g id="Group_2" data-name="Group 2" transform="translate(310.018 431.55)">
      <g id="Group_1" data-name="Group 1" clip-path="url(#clip-path)">
        <path id="Path_10" data-name="Path 10" d="M13.4,0a13.083,13.083,0,0,1,5.847,1.255A11.13,11.13,0,0,1,23.23,4.382V.445h5.715s.168,20.412-.212,25c-.341,4.118-3.316,7.411-6.328,9.493a16.148,16.148,0,0,1-10.123,2.26C9.243,36.817,4.613,34.336,3,31.848l4.237-3.42c1.593,2.7,5.809,3.646,7.821,3.4,7.282-.882,8.347-8.028,8.347-8.028a11.955,11.955,0,0,1-4.217,2.9A12.727,12.727,0,0,1,13.64,28H13.4a13.146,13.146,0,0,1-6.778-1.8A12.929,12.929,0,0,1,1.78,21.186,14.889,14.889,0,0,1,0,13.879,14.472,14.472,0,0,1,1.78,6.645a12.71,12.71,0,0,1,4.843-4.9A13.441,13.441,0,0,1,13.4,0m9.913,13.975A9.031,9.031,0,0,0,22.025,9.1a8.574,8.574,0,0,0-3.362-3.149A9.546,9.546,0,0,0,14.18,4.87,9.749,9.749,0,0,0,9.7,5.928a8.444,8.444,0,0,0-3.361,3.1,8.9,8.9,0,0,0-1.28,4.851A9.284,9.284,0,0,0,6.336,18.8a8.591,8.591,0,0,0,3.385,3.223,9.43,9.43,0,0,0,4.455,1.107,9.553,9.553,0,0,0,4.484-1.083,8.525,8.525,0,0,0,3.362-3.174,9.168,9.168,0,0,0,1.287-4.9" fill="url(#linear-gradient)"/>
      </g>
    </g>
    <g id="Group_4" data-name="Group 4" transform="translate(212.72 431.891)">
      <g id="Group_3" data-name="Group 3" clip-path="url(#clip-path-2)">
        <path id="Path_13" data-name="Path 13" d="M0,13.85A13.734,13.734,0,0,1,6.591,1.976,15.425,15.425,0,0,1,13.791,0c2.944-.029,8.047,1.129,10.73,4.376L20.709,7.859c-3.483-3.012-5.485-2.878-7.824-2.712-2.138.152-7.929,2.712-7.8,8.729a8.917,8.917,0,0,0,7.808,9.091c2.733.233,5.463-.238,7.486-2.5l3.812,3.341a14.189,14.189,0,0,1-10.116,4.3A16.894,16.894,0,0,1,6.5,25.929,13.847,13.847,0,0,1,0,13.85" fill="url(#linear-gradient-2)"/>
      </g>
    </g>
    <g id="Group_6" data-name="Group 6" transform="translate(237.241 423)">
      <g id="Group_5" data-name="Group 5" clip-path="url(#clip-path-3)">
        <path id="Path_14" data-name="Path 14" d="M35.108,20.9,17.554,5.292l-6.263,5.569V0h-5.5L5.8,15.746,0,20.9l3.621,4.072L5.8,23.035,5.8,37h5.487V21.6a21.277,21.277,0,0,1,.051-3.493l6.212-5.524,7.594,6.752c.008.616.006,1.359-.007,2.265V37h5.122l.019-13.1,1.2,1.072Z" fill="url(#linear-gradient)"/>
      </g>
    </g>
  </g>
</svg>
