<?xml version="1.0" encoding="UTF-8"?>
<!DOCTYPE svg PUBLIC "-//W3C//DTD SVG 1.1//EN" "http://www.w3.org/Graphics/SVG/1.1/DTD/svg11.dtd">
<svg xmlns="http://www.w3.org/2000/svg" version="1.1" width="256px" height="75px" style="shape-rendering:geometricPrecision; text-rendering:geometricPrecision; image-rendering:optimizeQuality; fill-rule:evenodd; clip-rule:evenodd" xmlns:xlink="http://www.w3.org/1999/xlink">
<g><path style="opacity:0.878" fill="#ff9916" d="M 169.5,31.5 C 163.021,32.4907 156.354,32.824 149.5,32.5C 149.5,28.1667 149.5,23.8333 149.5,19.5C 151.5,19.5 153.5,19.5 155.5,19.5C 155.335,22.8499 155.502,26.1832 156,29.5C 157.684,27.6487 159.517,25.982 161.5,24.5C 164.186,26.8558 166.853,29.1891 169.5,31.5 Z"/></g>
<g><path style="opacity:0.869" fill="#ff9915" d="M 114.5,31.5 C 107.454,32.4935 100.454,32.4935 93.5,31.5C 93.5,27.8333 93.5,24.1667 93.5,20.5C 95.8333,20.5 98.1667,20.5 100.5,20.5C 100.183,23.5719 100.516,26.5719 101.5,29.5C 104.773,28.4149 108.106,28.2483 111.5,29C 112.942,29.3768 113.942,30.2101 114.5,31.5 Z"/></g>
<g><path style="opacity:0.894" fill="#ff9915" d="M 66.5,44.5 C 65.5386,42.7354 65.2053,40.7354 65.5,38.5C 62.9179,38.0254 60.9179,38.6921 59.5,40.5C 54.9084,34.7022 49.575,34.0355 43.5,38.5C 43.5654,38.0618 43.3988,37.7284 43,37.5C 40.9129,38.3972 38.7463,39.0639 36.5,39.5C 39.2525,30.6188 45.2525,27.1188 54.5,29C 56.3289,29.2735 57.8289,30.1068 59,31.5C 61.1062,29.709 63.6062,29.0423 66.5,29.5C 66.5,34.5 66.5,39.5 66.5,44.5 Z"/></g>
<g><path style="opacity:0.864" fill="#ff9915" d="M 75.5,38.5 C 73.8098,38.7583 71.8098,38.7583 69.5,38.5C 69.5,39.5 69.5,40.5 69.5,41.5C 67.2755,35.445 69.2755,31.2784 75.5,29C 79.5935,28.2327 83.5935,28.566 87.5,30C 90.3208,32.1413 91.6541,34.9746 91.5,38.5C 89.4727,38.6621 87.4727,38.4955 85.5,38C 82.9684,35.5854 79.9684,34.9187 76.5,36C 75.7476,36.6708 75.4142,37.5041 75.5,38.5 Z"/></g>
<g><path style="opacity:0.885" fill="#ff9a15" d="M 214.5,39.5 C 212.321,38.8968 210.154,38.2301 208,37.5C 207.601,37.7284 207.435,38.0618 207.5,38.5C 205.142,35.7636 202.142,34.9302 198.5,36C 197.619,36.7083 196.953,37.5416 196.5,38.5C 194.139,38.3259 191.806,37.9926 189.5,37.5C 189.5,34.8333 189.5,32.1667 189.5,29.5C 195.176,29.0716 200.843,28.9049 206.5,29C 211.457,30.7445 214.124,34.2445 214.5,39.5 Z"/></g>
<g><path style="opacity:0.88" fill="#ff9915" d="M 245.5,35.5 C 244.539,37.2646 244.205,39.2646 244.5,41.5C 242.379,41.6747 240.379,41.3414 238.5,40.5C 234.944,35.4339 230.278,34.2672 224.5,37C 223.601,38.6516 222.601,40.1516 221.5,41.5C 219.379,41.6747 217.379,41.3414 215.5,40.5C 219.33,28.5054 226.83,25.5054 238,31.5C 240.106,29.709 242.606,29.0423 245.5,29.5C 245.5,31.5 245.5,33.5 245.5,35.5 Z"/></g>
<g><path style="opacity:0.911" fill="#ff901c" d="M 93.5,31.5 C 100.454,32.4935 107.454,32.4935 114.5,31.5C 116.173,32.343 117.34,33.6763 118,35.5C 118.5,42.8258 118.666,50.1591 118.5,57.5C 116.5,57.5 114.5,57.5 112.5,57.5C 112.666,51.4908 112.499,45.4908 112,39.5C 108.632,33.9109 104.966,33.5776 101,38.5C 100.5,44.8246 100.334,51.1579 100.5,57.5C 98.1667,57.5 95.8333,57.5 93.5,57.5C 93.5,48.8333 93.5,40.1667 93.5,31.5 Z"/></g>
<g><path style="opacity:0.893" fill="#ff921b" d="M 4.5,20.5 C 6.83333,20.5 9.16667,20.5 11.5,20.5C 11.5,25.5 11.5,30.5 11.5,35.5C 17.1667,35.5 22.8333,35.5 28.5,35.5C 28.5,30.5 28.5,25.5 28.5,20.5C 30.5,20.5 32.5,20.5 34.5,20.5C 34.5,32.8333 34.5,45.1667 34.5,57.5C 32.5,57.5 30.5,57.5 28.5,57.5C 28.5,52.5 28.5,47.5 28.5,42.5C 22.8333,42.5 17.1667,42.5 11.5,42.5C 11.5,47.5 11.5,52.5 11.5,57.5C 9.16667,57.5 6.83333,57.5 4.5,57.5C 4.5,45.1667 4.5,32.8333 4.5,20.5 Z"/></g>
<g><path style="opacity:0.914" fill="#ff911c" d="M 169.5,31.5 C 173.146,34.4789 176.479,37.8123 179.5,41.5C 175.096,45.7958 173.429,51.1292 174.5,57.5C 172.5,57.5 170.5,57.5 168.5,57.5C 168.666,51.4908 168.499,45.4908 168,39.5C 166,37.5 164,35.5 162,33.5C 160.316,35.3513 158.483,37.018 156.5,38.5C 155.504,44.7985 155.17,51.1318 155.5,57.5C 153.5,57.5 151.5,57.5 149.5,57.5C 149.5,53.5 149.5,49.5 149.5,45.5C 146.532,45.3739 144.532,43.8739 143.5,41C 146.564,38.7928 148.564,35.9594 149.5,32.5C 156.354,32.824 163.021,32.4907 169.5,31.5 Z"/></g>
<g><path style="opacity:0.894" fill="#ff8f1d" d="M 189.5,37.5 C 191.806,37.9926 194.139,38.3259 196.5,38.5C 196.5,44.8333 196.5,51.1667 196.5,57.5C 194.167,57.5 191.833,57.5 189.5,57.5C 189.5,50.8333 189.5,44.1667 189.5,37.5 Z"/></g>
<g><path style="opacity:0.882" fill="#ff921a" d="M 75.5,38.5 C 80.1989,39.8096 84.8656,41.3096 89.5,43C 90.9711,44.5833 91.9711,46.4166 92.5,48.5C 89.8563,48.2847 87.523,48.2847 85.5,48.5C 81.2905,47.0222 76.9571,45.8555 72.5,45C 71.2899,43.9609 70.2899,42.7942 69.5,41.5C 69.5,40.5 69.5,39.5 69.5,38.5C 71.8098,38.7583 73.8098,38.7583 75.5,38.5 Z"/></g>
<g><path style="opacity:0.898" fill="#ff8f1c" d="M 127.5,48.5 C 126.198,50.0276 124.531,51.0276 122.5,51.5C 117.616,35.5356 123.616,28.369 140.5,30C 146.704,32.2725 147.038,35.1059 141.5,38.5C 137.337,34.7045 133.004,34.5378 128.5,38C 126.256,41.3034 125.923,44.8034 127.5,48.5 Z"/></g>
<g><path style="opacity:0.864" fill="#ff921c" d="M 245.5,35.5 C 245.666,42.175 245.5,48.8417 245,55.5C 244.59,56.9007 244.09,58.234 243.5,59.5C 241.5,58.8333 239.5,58.1667 237.5,57.5C 237.167,56.1667 236.833,56.1667 236.5,57.5C 232.881,58.2436 229.215,58.577 225.5,58.5C 225.167,57.1667 224.833,57.1667 224.5,58.5C 223.833,58.1667 223.167,57.8333 222.5,57.5C 216.884,53.3488 214.551,47.6822 215.5,40.5C 217.379,41.3414 219.379,41.6747 221.5,41.5C 222.994,51.8294 228.161,54.1627 237,48.5C 238.252,45.9865 238.752,43.3198 238.5,40.5C 240.379,41.3414 242.379,41.6747 244.5,41.5C 244.205,39.2646 244.539,37.2646 245.5,35.5 Z"/></g>
<g><path style="opacity:0.851" fill="#ff9914" d="M 127.5,48.5 C 131.708,53.0733 136.208,53.4067 141,49.5C 147.026,53.0337 146.526,55.867 139.5,58C 132.103,59.8199 126.436,57.6532 122.5,51.5C 124.531,51.0276 126.198,50.0276 127.5,48.5 Z"/></g>
<g><path style="opacity:0.863" fill="#ff8e1e" d="M 43.5,38.5 C 40.8742,45.9246 43.3742,50.2579 51,51.5C 57.6142,50.9048 60.4475,47.2381 59.5,40.5C 60.9179,38.6921 62.9179,38.0254 65.5,38.5C 65.2053,40.7354 65.5386,42.7354 66.5,44.5C 66.5,48.8333 66.5,53.1667 66.5,57.5C 63.6062,57.9577 61.1062,57.291 59,55.5C 45.8901,61.4065 38.0568,57.2399 35.5,43C 35.6483,41.7441 35.9816,40.5774 36.5,39.5C 38.7463,39.0639 40.9129,38.3972 43,37.5C 43.3988,37.7284 43.5654,38.0618 43.5,38.5 Z"/></g>
<g><path style="opacity:0.896" fill="#ff8c20" d="M 92.5,48.5 C 91.2034,55.2872 87.0367,58.6205 80,58.5C 73.4507,58.7813 69.2841,55.7813 67.5,49.5C 68.6667,49.1667 69.8333,48.8333 71,48.5C 75.0003,51.2872 79.5003,52.1205 84.5,51C 85.2524,50.3292 85.5858,49.4959 85.5,48.5C 87.523,48.2847 89.8563,48.2847 92.5,48.5 Z"/></g>
<g><path style="opacity:0.853" fill="#ff901c" d="M 180.5,29.5 C 182.833,29.5 185.167,29.5 187.5,29.5C 187.5,38.8333 187.5,48.1667 187.5,57.5C 185.167,57.5 182.833,57.5 180.5,57.5C 180.5,48.1667 180.5,38.8333 180.5,29.5 Z"/></g>
<g><path style="opacity:0.897" fill="#ff8e1e" d="M 214.5,39.5 C 214.5,45.5 214.5,51.5 214.5,57.5C 212.167,57.5 209.833,57.5 207.5,57.5C 207.5,51.1667 207.5,44.8333 207.5,38.5C 207.435,38.0618 207.601,37.7284 208,37.5C 210.154,38.2301 212.321,38.8968 214.5,39.5 Z"/></g>
<g><path style="opacity:0.875" fill="#ff8b20" d="M 222.5,57.5 C 223.167,57.8333 223.833,58.1667 224.5,58.5C 224.833,58.5 225.167,58.5 225.5,58.5C 226.777,59.8976 228.443,60.5643 230.5,60.5C 233.102,60.5328 235.102,59.5328 236.5,57.5C 236.833,57.5 237.167,57.5 237.5,57.5C 239.5,58.1667 241.5,58.8333 243.5,59.5C 236.337,68.7853 228.17,69.7853 219,62.5C 218.331,59.6551 219.497,57.9884 222.5,57.5 Z M 236.5,57.5 C 235.102,59.5328 233.102,60.5328 230.5,60.5C 228.443,60.5643 226.777,59.8976 225.5,58.5C 229.215,58.577 232.881,58.2436 236.5,57.5 Z"/></g>
</svg>
