<svg xmlns="http://www.w3.org/2000/svg" width="75.384" height="49.309" viewBox="0 0 75.384 49.309">
  <path id="Path_3460" data-name="Path 3460" d="M8.068,8.646c-4.133,0-7.538-.594-7.538,3.538v2.039a2.513,2.513,0,0,0,1.18,2.13l32.52,20.328a7.548,7.548,0,0,0,7.987,0L74.733,16.356a2.513,2.513,0,0,0,1.18-2.13V12.184c0-4.133-3.406-3.538-7.538-3.538ZM.529,21.543V50.394A7.574,7.574,0,0,0,8.07,57.925h60.3a7.574,7.574,0,0,0,7.541-7.531V21.546l-31.035,19.4a12.594,12.594,0,0,1-13.312,0Z" transform="translate(-0.529 -8.616)" fill="#3d4d6b"/>
</svg>
