<svg xmlns="http://www.w3.org/2000/svg" width="50.138" height="50.5" viewBox="0 0 50.138 50.5">
  <g id="noun_contract_1461528" transform="translate(-0.229 0)">
    <g id="Group_585" data-name="Group 585" transform="translate(0.229 -0.001)">
      <path id="Path_3679" data-name="Path 3679" d="M45.858.08H11.286a4.469,4.469,0,0,0-2.16.552,10.906,10.906,0,0,1,4.051,1.8H45.858A2.161,2.161,0,0,1,48.01,4.6V43.243A4.91,4.91,0,0,1,43.1,48.152a.028.028,0,0,0-.016.008,4.936,4.936,0,0,1-4.846-4.925,4.879,4.879,0,0,1,1.419-3.459H9.127V14.534L6.771,12.178v27.6H1.1a7.16,7.16,0,0,0-.875,3.459A7.278,7.278,0,0,0,7.5,50.516H43.116c.024,0,.047-.008.071-.008a7.271,7.271,0,0,0,7.18-7.266V4.6A4.52,4.52,0,0,0,45.858.08Z" transform="translate(-0.229 -0.016)" fill="#f56736"/>
      <path id="Path_3680" data-name="Path 3680" d="M2.684,4.444,4.87,2.257,3.064.45A1.546,1.546,0,0,0,.878,2.637Z" transform="translate(-0.271 0.001)" fill="#f56736"/>
      <path id="Path_3681" data-name="Path 3681" d="M29.713,25.023,25.45,29.286c.159.167.324.339.491.506,2.015,2.015,6.323,5.563,7.935,6.027l2.37-2.37c-.464-1.613-4.011-5.92-6.027-7.935C30.052,25.347,29.881,25.183,29.713,25.023Z" transform="translate(-5.549 -5.278)" fill="#f56736"/>
      <path id="Path_3682" data-name="Path 3682" d="M40.7,40.018l-1.253-3.34L37.09,39.04l3.34,1.253A.213.213,0,0,0,40.7,40.018Z" transform="translate(-8.005 -7.737)" fill="#f56736"/>
      <path id="Path_3683" data-name="Path 3683" d="M20.393,23.439l3.549-3.549L7.975,3.922c1.63-.37,4,.633,5.892,2.521a8.976,8.976,0,0,1,2.475,4.2l1.348,1.348a9.38,9.38,0,0,0-3.062-6.306C12.213,3.267,9.185,2.109,7.095,2.8a.394.394,0,0,0-.148.092L6.94,2.887,3.391,6.436Z" transform="translate(-0.896 -0.549)" fill="#f56736"/>
      <path id="Path_3684" data-name="Path 3684" d="M45.686,10.567H22.722a8.718,8.718,0,0,1,.473,1.577H45.686Z" transform="translate(-4.974 -2.229)" fill="#f56736"/>
      <path id="Path_3685" data-name="Path 3685" d="M46.48,18.737H26.487l1.576,1.576H46.48Z" transform="translate(-5.768 -3.952)" fill="#f56736"/>
      <path id="Path_3686" data-name="Path 3686" d="M48.351,26.906H35.356c.433.5.883,1.032,1.324,1.576H48.352V26.906Z" transform="translate(-7.639 -5.675)" fill="#f56736"/>
      <path id="Path_3687" data-name="Path 3687" d="M22.362,36.653h5.95c-.662-.528-1.308-1.064-1.907-1.577H22.362Z" transform="translate(-4.898 -7.399)" fill="#f56736"/>
      <path id="Path_3688" data-name="Path 3688" d="M49.672,35.076H41.618l.591,1.577h7.463Z" transform="translate(-8.96 -7.399)" fill="#f56736"/>
      <rect id="Rectangle_1939" data-name="Rectangle 1939" width="23.248" height="1.576" transform="translate(17.462 34.121)" fill="#f56736"/>
    </g>
  </g>
</svg>
