<svg xmlns="http://www.w3.org/2000/svg" width="37.661" height="41.803" viewBox="0 0 37.661 41.803">
  <g id="noun_rewards_3848242" transform="translate(0.1 0.1)">
    <g id="Group_580" data-name="Group 580" transform="translate(0 0)">
      <path id="Path_3677" data-name="Path 3677" d="M19.234,23.43l-1.5-1.619,2.068-.333.926-2.084.926,2.082,2.068.335-1.5,1.621.357,2.288-1.853-1.082-1.85,1.08Zm20.227-8.552V17.73a4.871,4.871,0,0,1-3.372,4.794l-4.121,1.129a10.114,10.114,0,0,1-8.563,7.98v3.055a2.835,2.835,0,0,0,2.676,2.972,4.726,4.726,0,0,1,4.46,4.953.945.945,0,0,1-.892.991H11.811a.945.945,0,0,1-.892-.991,4.726,4.726,0,0,1,4.46-4.953,2.835,2.835,0,0,0,2.676-2.972V31.667a10.186,10.186,0,0,1-8.563-7.994l-4.1-1.141A4.883,4.883,0,0,1,2,17.726V14.877a.945.945,0,0,1,.892-.991H9.135V10.915a.945.945,0,0,1,.892-.991H31.434a.945.945,0,0,1,.892.991v2.972h6.244A.945.945,0,0,1,39.461,14.877ZM9.168,21.544c-.014-.24-.032-.479-.032-.723V15.868H3.784v1.858A2.931,2.931,0,0,0,5.81,20.611Zm11.126,18.1a1,1,0,0,1,0-1.981h2.244a5.254,5.254,0,0,1-.915-2.972V31.717H19.839v2.972a4.726,4.726,0,0,1-4.46,4.953,2.709,2.709,0,0,0-2.522,1.981H28.6a2.709,2.709,0,0,0-2.522-1.981ZM30.542,11.906H10.919v8.915c.007,4.92,3.6,8.907,8.027,8.915h3.568c4.431-.008,8.021-3.995,8.027-8.915V15.868H13.6a1,1,0,0,1,0-1.981H30.542Zm7.135,3.962H32.326v4.953a4.909,4.909,0,0,1-.036.733l3.354-.951a2.9,2.9,0,0,0,2.034-2.873Zm-4.46,15.849a.945.945,0,0,0,.892-.991V28.745a.9.9,0,1,0-1.784,0v1.981A.945.945,0,0,0,33.218,31.717Zm0,1.981a.945.945,0,0,0-.892.991v1.981a.9.9,0,1,0,1.784,0V34.688A.945.945,0,0,0,33.218,33.7Zm-1.784-1.981h-.892a1,1,0,0,0,0,1.981h.892a1,1,0,0,0,0-1.981Zm4.46,0H35A1,1,0,0,0,35,33.7h.892a1,1,0,0,0,0-1.981ZM6.46,5.962a.945.945,0,0,0,.892-.991V2.991A.945.945,0,0,0,6.46,2a.945.945,0,0,0-.892.991V4.972A.945.945,0,0,0,6.46,5.962Zm0,1.981a.945.945,0,0,0-.892.991v1.981a.945.945,0,0,0,.892.991.945.945,0,0,0,.892-.991V8.934A.945.945,0,0,0,6.46,7.943Zm-2.676,0h.892a.945.945,0,0,0,.892-.991.945.945,0,0,0-.892-.991H3.784a.945.945,0,0,0-.892.991A.945.945,0,0,0,3.784,7.943Zm4.46,0h.892a.945.945,0,0,0,.892-.991.945.945,0,0,0-.892-.991H8.244a.945.945,0,0,0-.892.991A.945.945,0,0,0,8.244,7.943Z" transform="translate(-2 -2)" fill="#f56735" stroke="#f56735" stroke-width="0.2"/>
    </g>
  </g>
</svg>
