<svg id="Group_587" data-name="Group 587" xmlns="http://www.w3.org/2000/svg" width="54" height="55.576" viewBox="0 0 54 55.576">
  <path id="Path_3689" data-name="Path 3689" d="M61.949,14.434,52,4.489A6.861,6.861,0,0,0,47.148,2.5H25.5a6.916,6.916,0,0,0-6.9,6.9V26.778a9.426,9.426,0,0,1,2.282-.234,8.942,8.942,0,0,1,2.223.234V9.4A2.372,2.372,0,0,1,25.5,7H46.446a.9.9,0,0,1,.878.878v8.073a3.146,3.146,0,0,0,3.159,3.159h8.073a.9.9,0,0,1,.878.878V51.173a2.372,2.372,0,0,1-2.4,2.4H36.15v2.691a6.194,6.194,0,0,1-.292,1.814H57.094a6.866,6.866,0,0,0,6.845-6.9V19.29A6.4,6.4,0,0,0,61.949,14.434Z" transform="translate(-9.942 -2.5)" fill="#f56735"/>
  <path id="Path_3690" data-name="Path 3690" d="M64.471,77.6a2.252,2.252,0,1,0,0-4.5H48.5a1,1,0,0,1,.059.41v4.1Z" transform="translate(-22.35 -31.798)" fill="#f56735"/>
  <path id="Path_3691" data-name="Path 3691" d="M61.566,61a2.284,2.284,0,0,0,2.282-2.282A2.235,2.235,0,0,0,61.566,56.5H41.5a10.884,10.884,0,0,1,.878,4.388V61Z" transform="translate(-19.445 -24.909)" fill="#f56735"/>
  <path id="Path_3692" data-name="Path 3692" d="M37.423,44.346H58.951a2.223,2.223,0,1,0,0-4.446H37.423a2.223,2.223,0,1,0,0,4.446Z" transform="translate(-16.831 -18.021)" fill="#f56735"/>
  <path id="Path_3693" data-name="Path 3693" d="M37.423,27.746H47.485a2.223,2.223,0,1,0,0-4.446H37.423a2.223,2.223,0,1,0,0,4.446Z" transform="translate(-16.831 -11.132)" fill="#f56735"/>
  <path id="Path_3694" data-name="Path 3694" d="M24.626,62.659c-.7-.293-1.463-.585-2.223-.878V58.564a7.664,7.664,0,1,0-15.327,0v3.218c-.819.293-1.521.585-2.223.878A1.8,1.8,0,0,0,3.8,64.3V76.348a1.823,1.823,0,0,0,1.814,1.814H23.866a1.823,1.823,0,0,0,1.814-1.814V64.3A1.628,1.628,0,0,0,24.626,62.659Zm-7.9,10.179a.455.455,0,0,1-.117.468.722.722,0,0,1-.468.234H13.277a.532.532,0,0,1-.468-.234.63.63,0,0,1-.117-.468l.936-3.452a2.372,2.372,0,0,1-1.287-2.106,2.34,2.34,0,0,1,4.68,0,2.372,2.372,0,0,1-1.287,2.106Zm1.463-12.051a22.377,22.377,0,0,0-6.845,0V58.564a3.452,3.452,0,1,1,6.9,0v2.223Z" transform="translate(-3.8 -22.586)" fill="#f56735"/>
</svg>
