<svg xmlns="http://www.w3.org/2000/svg" width="37.461" height="40.866" viewBox="0 0 37.461 40.866">
  <g id="noun_vault_1455527" transform="translate(0 0)">
    <g id="Group_581" data-name="Group 581" transform="translate(0 0)">
      <path id="Path_3678" data-name="Path 3678" d="M9.406,954.362A3.417,3.417,0,0,0,6,957.768v30.65a3.417,3.417,0,0,0,3.406,3.406H11.96v3.406h7.663v-3.406H29.839v3.406H37.5v-3.406h2.554a3.417,3.417,0,0,0,3.406-3.406v-30.65a3.417,3.417,0,0,0-3.406-3.406Zm0,1.7h30.65a1.681,1.681,0,0,1,1.7,1.7v30.65a1.681,1.681,0,0,1-1.7,1.7H9.406a1.681,1.681,0,0,1-1.7-1.7v-30.65a1.681,1.681,0,0,1,1.7-1.7Zm3.712,2.115a2.873,2.873,0,0,0-2.86,2.86v1.823H9.831a.885.885,0,0,0-.851.851V968.4a.885.885,0,0,0,.851.851h.426v7.662H9.831a.885.885,0,0,0-.851.851v4.683a.885.885,0,0,0,.851.851h.426v1.823a2.873,2.873,0,0,0,2.86,2.86H37.5a3.022,3.022,0,0,0,2.98-2.98V961.16a3.022,3.022,0,0,0-2.98-2.98Zm0,1.7H37.5a1.24,1.24,0,0,1,1.277,1.277V985a1.241,1.241,0,0,1-1.277,1.277H13.117a1.137,1.137,0,0,1-1.157-1.157v-2.674a.885.885,0,0,0-.851-.851h-.426v-2.98h.426a.885.885,0,0,0,.851-.851V968.4a.885.885,0,0,0-.851-.851h-.426v-2.98h.426a.885.885,0,0,0,.851-.852V961.04a1.137,1.137,0,0,1,1.157-1.157Zm23.107,8.939v8.514a.851.851,0,1,0,1.7,0v-8.514a.886.886,0,0,0-.865-.865A.954.954,0,0,0,36.224,968.822Zm-5.96.439.106.439a3.416,3.416,0,0,0-1.849.771l-.239-.4-.6.612.386.226a3.4,3.4,0,0,0-.772,1.862l-.439-.106v.851l.439-.106a3.35,3.35,0,0,0,.772,1.849l-.386.239.6.6.239-.386a3.423,3.423,0,0,0,1.849.758l-.106.452h.851l-.106-.452a3.423,3.423,0,0,0,1.849-.758l.239.386.6-.6-.386-.239a3.35,3.35,0,0,0,.772-1.849l.439.106v-.851l-.439.106a3.4,3.4,0,0,0-.772-1.862l.386-.226-.6-.612-.239.4a3.416,3.416,0,0,0-1.849-.771l.106-.439Z" transform="translate(-6 -954.362)" fill="#f46634"/>
    </g>
  </g>
</svg>
