<svg xmlns="http://www.w3.org/2000/svg" width="30.915" height="30.916" viewBox="0 0 30.915 30.916">
  <g id="noun_paper_work_3000970" data-name="noun_paper work_3000970" transform="translate(-35.527 -33.998)">
    <g id="Group_565" data-name="Group 565" transform="translate(35.527 33.998)">
      <path id="Path_3480" data-name="Path 3480" d="M15.51,8a.736.736,0,0,0-.667.736V38.178a.736.736,0,0,0,.736.736h22.6a.736.736,0,1,0,0-1.472H16.315V9.471h15.8V13.9a.736.736,0,0,0,.736.736h2.139a.736.736,0,1,0,0-1.472h-1.4V10.092l3.853,3.68V35.578a.736.736,0,1,0,1.472,0V13.462a.736.736,0,0,0-.23-.529L33.728,8.194a.736.736,0,0,0-.506-.2H15.579Q15.545,8,15.51,8ZM8.736,9.873A.736.736,0,0,0,8,10.609V35.337a.736.736,0,0,0,.219.518l1.518,1.507a.736.736,0,0,0,1.035,0l1.518-1.507a.74.74,0,1,0-1.047-1.047l-.989,1-.782-.782V14.531h1.564V32.864a.736.736,0,1,0,1.472,0V10.609a.736.736,0,0,0-.736-.736Zm.736,1.472h1.564v1.714H9.472Zm9.822,7.1a.737.737,0,0,0,.069,1.472h1.645a.736.736,0,1,0,0-1.472H19.363Q19.329,18.44,19.294,18.442Zm4.646,0a.737.737,0,1,0,.081,1.472h6.337a.736.736,0,1,0,0-1.472H24.021A.737.737,0,0,0,23.941,18.442Zm-4.646,3.381a.737.737,0,0,0,.069,1.472h1.645a.736.736,0,1,0,0-1.472H19.363Q19.329,21.821,19.294,21.823Zm4.646,0a.737.737,0,1,0,.081,1.472H34.4a.736.736,0,1,0,0-1.472H24.021A.737.737,0,0,0,23.941,21.823Zm-4.577,3.37a.736.736,0,1,0,0,1.472h1.645a.736.736,0,1,0,0-1.472Zm4.658,0a.736.736,0,1,0,0,1.472h6.337a.736.736,0,1,0,0-1.472Zm-4.727,3.381a.737.737,0,0,0,.069,1.472h1.645a.736.736,0,1,0,0-1.472H19.363Q19.329,28.572,19.294,28.574Zm4.646,0a.737.737,0,0,0,.081,1.472H34.4a.736.736,0,1,0,0-1.472H24.021A.737.737,0,0,0,23.941,28.574Zm-4.577,3.37a.736.736,0,1,0,0,1.472h1.645a.736.736,0,1,0,0-1.472Zm4.658,0a.736.736,0,1,0,0,1.472h6.337a.736.736,0,1,0,0-1.472Z" transform="translate(-8 -7.998)" fill="#f56735"/>
    </g>
  </g>
</svg>
