<svg xmlns="http://www.w3.org/2000/svg" width="21.038" height="20.998" viewBox="0 0 21.038 20.998">
  <g id="noun_Save_2209758" transform="translate(0 0.001)">
    <g id="Group_123" data-name="Group 123" transform="translate(0 -0.001)">
      <path id="Path_1664" data-name="Path 1664" d="M62.238,258.1v4.657a1.06,1.06,0,0,1-.033.258h0a1,1,0,0,1-.974.8H42.2a1,1,0,0,1-.987-.888.785.785,0,0,1-.013-.179v-4.657a.994.994,0,0,1,1.987,0v3.729h17.07v-3.729a.993.993,0,0,1,1.7-.7A1.049,1.049,0,0,1,62.238,258.1Z" transform="translate(-41.2 -242.819)" fill="#f56735"/>
      <path id="Path_1665" data-name="Path 1665" d="M120.291,52.118,115.409,57c-.007.013-.02.02-.027.026a1.15,1.15,0,0,1-.643.325c-.02,0-.04.007-.06.007a.719.719,0,0,1-.119.007h0l-.113-.007c-.02,0-.04-.007-.06-.007a1.13,1.13,0,0,1-.643-.325L113.72,57l-4.882-4.882a1.162,1.162,0,0,1,1.643-1.643l2.934,2.934V42.659a1.165,1.165,0,0,1,1.159-1.159,1.185,1.185,0,0,1,.821.338,1.145,1.145,0,0,1,.338.821V53.41l2.934-2.934a1.167,1.167,0,0,1,1.643,0A1.186,1.186,0,0,1,120.291,52.118Z" transform="translate(-104.042 -41.5)" fill="#f56735"/>
    </g>
  </g>
</svg>
