<svg xmlns="http://www.w3.org/2000/svg" width="18.7" height="18.7" viewBox="0 0 18.7 18.7">
  <path id="Path_2282" data-name="Path 2282" d="M21.3,17.75a9.35,9.35,0,1,0-9.35,9.35A9.336,9.336,0,0,0,21.3,17.75ZM9.45,22.35a.752.752,0,0,1-1.1-.8L8.85,19a.335.335,0,0,0-.15-.4L6.8,16.85a.726.726,0,0,1,.4-1.25l2.6-.3a.376.376,0,0,0,.35-.25l1.1-2.4a.758.758,0,0,1,1.35,0l1.1,2.4a.376.376,0,0,0,.35.25l2.6.3a.714.714,0,0,1,.4,1.25L15.1,18.6a.568.568,0,0,0-.15.4l.5,2.55a.755.755,0,0,1-1.1.8l-2.25-1.3a.375.375,0,0,0-.45,0Z" transform="translate(-2.6 -8.4)" fill="#ffc727"/>
</svg>
