<svg xmlns="http://www.w3.org/2000/svg" width="30.663" height="30.663" viewBox="0 0 30.663 30.663">
  <g id="Group_70" data-name="Group 70" transform="translate(0 0)">
    <path id="Path_1640" data-name="Path 1640" d="M16.631,1.3A15.331,15.331,0,1,0,31.963,16.631,15.33,15.33,0,0,0,16.631,1.3Z" transform="translate(-1.3 -1.3)" fill="#fff"/>
    <g id="noun_Video_2844433" transform="translate(8.288 10.36)">
      <g id="Group_69" data-name="Group 69" transform="translate(0 0)">
        <path id="Path_1637" data-name="Path 1637" d="M13.285,6.579l2.8-.8a.752.752,0,0,1,.959.723v7.033a.752.752,0,0,1-.959.723l-2.8-.8v.322a2.257,2.257,0,0,1-2.257,2.257H4.257A2.257,2.257,0,0,1,2,13.78V6.257A2.257,2.257,0,0,1,4.257,4h6.771a2.257,2.257,0,0,1,2.257,2.257ZM9.523,9.266a1.5,1.5,0,1,0-1.5-1.5A1.5,1.5,0,0,0,9.523,9.266Z" transform="translate(-2 -4)" fill="#f56735"/>
      </g>
    </g>
  </g>
</svg>
