<svg xmlns="http://www.w3.org/2000/svg" width="15.425" height="13.494" viewBox="0 0 15.425 13.494">
  <g id="noun_Bath_2518783" transform="translate(0 -0.597)">
    <g id="Group_312" data-name="Group 312" transform="translate(0 0.597)">
      <ellipse id="Ellipse_136" data-name="Ellipse 136" cx="1.461" cy="1.461" rx="1.461" ry="1.461" transform="matrix(0.602, -0.799, 0.799, 0.602, 11.051, 2.335)" fill="#f56735"/>
      <path id="Path_2827" data-name="Path 2827" d="M47.533,33.9a.7.7,0,0,0,.438.877l2.306.763a.95.95,0,0,0,.211.032.64.64,0,0,0,.438-.162l1.348-1.088h1.884l.049-.1a1.063,1.063,0,0,0-.747-1.461,3.464,3.464,0,0,0-1.348-.032.992.992,0,0,0-.227.114l-1.51,1.234-1.932-.633A.728.728,0,0,0,47.533,33.9Z" transform="translate(-40.197 -28.884)" fill="#f56735"/>
      <path id="Path_2828" data-name="Path 2828" d="M17.234,29.95H14.8l-1.185.958a1.3,1.3,0,0,1-.8.292,1.63,1.63,0,0,1-.39-.065l-2.29-.763a1.234,1.234,0,0,1-.6-.422H5.169V28.018a.4.4,0,0,1,.65-.276l.438.438a.226.226,0,0,0,.309,0l.276-.276a.226.226,0,0,0,0-.309l-.422-.438a1.225,1.225,0,0,0-.893-.357A1.253,1.253,0,0,0,4.34,28.067V29.95H3.22a.69.69,0,1,0,.016,1.38h.016l1.429,3.784a1.725,1.725,0,0,0,1.283,1.072l-.114.309a.709.709,0,0,0,.341.893.637.637,0,0,0,.292.065A.7.7,0,0,0,7.133,37l.292-.8h5.635l.292.8a.7.7,0,0,0,.65.455.637.637,0,0,0,.292-.065.715.715,0,0,0,.341-.893l-.114-.309A1.693,1.693,0,0,0,15.8,35.114l1.429-3.784h.016a.69.69,0,1,0-.016-1.38Z" transform="translate(-2.526 -23.959)" fill="#f56735"/>
    </g>
  </g>
</svg>
