<svg id="noun_Car_4303706" xmlns="http://www.w3.org/2000/svg" width="14.772" height="12.605" viewBox="0 0 14.772 12.605">
  <path id="Path_2830" data-name="Path 2830" d="M14.746,20.468H10.578a.943.943,0,0,0-.839.905h5.844A.942.942,0,0,0,14.746,20.468Zm-7.761-2.15c-.346,0-.492.106-.547.277-.1.3-.212.9.327,1.1a12.488,12.488,0,0,0,1.87.352c.477.072.6-.209.43-.629A1.869,1.869,0,0,0,7.4,18.362,2.721,2.721,0,0,0,6.985,18.318Zm11.353,0a2.749,2.749,0,0,0-.416.043,1.869,1.869,0,0,0-1.663,1.058c-.166.42-.047.7.43.629a12.567,12.567,0,0,0,1.869-.352c.539-.2.427-.8.328-1.1C18.83,18.425,18.684,18.315,18.338,18.318ZM12.662,12.1a15.133,15.133,0,0,0-3.24.2.789.789,0,0,0-.475.491L7.774,16c1,.076,3.034.255,4.888.255s3.883-.178,4.887-.255l-1.171-3.215A.792.792,0,0,0,15.9,12.3,15.14,15.14,0,0,0,12.662,12.1Zm0-.985a14.832,14.832,0,0,1,3.5.232,1.747,1.747,0,0,1,1.149,1.112l1.219,3.177h.947c.382,0,.576.181.576.491a1.161,1.161,0,0,1-.72,1.068l.14.25a2.409,2.409,0,0,1,.321,1.062v2.74a1.091,1.091,0,0,1-.687.99v1.033a.449.449,0,0,1-.451.452H17.369a.451.451,0,0,1-.453-.452V22.3H8.406v.97a.45.45,0,0,1-.452.452H6.672a.449.449,0,0,1-.451-.452V22.234a1.091,1.091,0,0,1-.686-.99V18.5a2.41,2.41,0,0,1,.32-1.062l.14-.25a1.16,1.16,0,0,1-.719-1.068c0-.309.193-.491.575-.491H6.8l1.218-3.177a1.743,1.743,0,0,1,1.149-1.112A14.839,14.839,0,0,1,12.662,11.115Z" transform="translate(-5.276 -11.115)" fill="#f56735"/>
</svg>
