<svg xmlns="http://www.w3.org/2000/svg" width="14.792" height="13.783" viewBox="0 0 14.792 13.783">
  <g id="noun_House_740763" transform="translate(-5.995 -8.995)">
    <g id="Group_314" data-name="Group 314" transform="translate(5.995 8.995)">
      <path id="Path_2831" data-name="Path 2831" d="M13.422,961.359a.336.336,0,0,1,.189.079l7.059,6.05a.337.337,0,1,1-.441.509l-6.838-5.861L6.553,968a.337.337,0,0,1-.441-.51l3.078-2.637v-2.82h1.345V963.7l2.637-2.258a.335.335,0,0,1,.252-.079Zm-.032,1.345,5.378,4.538v7.9H8.013v-7.9Zm2.353,5.714H13.727v2.017h2.017Zm-2.689,0H11.038v2.017h2.017Zm2.689,2.689H13.727v2.017h2.017Zm-2.689,0H11.038v2.017h2.017Z" transform="translate(-5.995 -961.358)" fill="#f56735"/>
    </g>
  </g>
</svg>
